<?xml version='1.0' encoding='UTF-8'?>
<svg xmlns="http://www.w3.org/2000/svg" width="512px" height="512" viewBox="0 0 24 24"><path fill="currentColor" d="M20 14h2v2h-2c-1.38 0-2.74-.35-4-1c-2.5 1.3-5.5 1.3-8 0c-1.26.65-2.63 1-4 1H2v-2h2c1.39 0 2.78-.47 4-1.33c2.44 1.71 5.56 1.71 8 0c1.22.86 2.61 1.33 4 1.33m0 6h2v2h-2c-1.38 0-2.74-.35-4-1c-2.5 1.3-5.5 1.3-8 0c-1.26.65-2.63 1-4 1H2v-2h2c1.39 0 2.78-.47 4-1.33c2.44 1.71 5.56 1.71 8 0c1.22.86 2.61 1.33 4 1.33M7 2L3 6h3v5h2V6h3m6-4l-4 4h3v5h2V6h3"/></svg>