<?xml version="1.0" standalone="no"?>
<!DOCTYPE svg PUBLIC "-//W3C//DTD SVG 1.1//EN" "http://www.w3.org/Graphics/SVG/1.1/DTD/svg11.dtd" >
<svg xmlns="http://www.w3.org/2000/svg" xmlns:xlink="http://www.w3.org/1999/xlink" version="1.1" viewBox="-11 0 523 512">
   <path fill="currentColor"
d="M394 263q13 8 5.5 21t-20.5 5l-27 -15v32q0 7 -4.5 11.5t-11 4.5t-11 -4.5t-4.5 -11.5v-32l-26 15q-14 8 -21.5 -5t5.5 -21l27 -16l-27 -15q-13 -8 -5.5 -21t21.5 -6l26 16v-32q0 -7 4.5 -11.5t11 -4.5t11 4.5t4.5 11.5v32l27 -16q13 -7 20.5 6t-5.5 21l-27 15zM394 263z
M240 232h-43v-159q0 -30 -21 -51.5t-51 -21.5h-2q-30 0 -51.5 21.5t-21.5 51.5v216q-51 37 -50 101q1 50 36.5 85.5t85.5 36.5h2q51 0 87 -36t36 -88q0 -62 -50 -99v-26h43q6 0 10.5 -4.5t4.5 -11t-4.5 -11t-10.5 -4.5zM123.5 355q13.5 0 23.5 10t10 23.5t-10 23t-23.5 9.5
t-23 -9.5t-9.5 -23t9.5 -23.5t23 -10zM139 200h27v32h-27v-32zM174 341q43 28 43 79q0 39 -28 66t-67 27q-37 -1 -64 -27.5t-27 -64.5q-1 -52 43 -80q7 -4 7 -12v-225q0 -17 12.5 -29.5t29.5 -12.5h2q17 0 29 12.5t12 29.5v97h-27v-94q0 -6 -4.5 -10.5t-11 -4.5t-11 4.5
t-4.5 10.5v251q-21 5 -34.5 22.5t-13.5 39.5q0 26 18.5 45t45 19t45 -19t18.5 -45q0 -22 -13.5 -39.5t-34.5 -22.5v-64h27v35q0 8 8 12zM174 341z" />
</svg>
