<?xml version="1.0" standalone="no"?>
<!DOCTYPE svg PUBLIC "-//W3C//DTD SVG 1.1//EN" "http://www.w3.org/Graphics/SVG/1.1/DTD/svg11.dtd" >
<svg xmlns="http://www.w3.org/2000/svg" xmlns:xlink="http://www.w3.org/1999/xlink" version="1.1" viewBox="-16 0 528 512">
   <path fill="currentColor"
d="M137 87q8 -2 10 6t-6 10l-13 3l12 7q4 2 4 7t-4.5 7.5t-8.5 -0.5l-11 -6l3 12q3 8 -5 10q-2 1 -3 1q-6 0 -8 -6l-7 -29l-21 -12v24l21 21q6 6 0 11.5t-11 -0.5l-10 -9v13q0 9 -8 9t-8 -9v-13l-10 9q-5 6 -11 0.5t0 -11.5l21 -21v-24l-21 12l-7 29q-2 6 -8 6q-2 0 -3 -1
q-8 -2 -5 -10l3 -12l-11 6q-5 3 -9 0.5t-4 -7.5t4 -7l12 -7l-13 -3q-8 -2 -6 -10t10 -6l29 8l20 -12l-20 -12l-29 8q-4 1 -7.5 -2.5t-2.5 -8t6 -5.5l13 -4l-12 -6q-4 -3 -4 -7.5t4 -7t9 -0.5l11 7l-3 -13q-3 -8 5 -10t11 6l7 29l21 11v-23l-21 -21q-6 -6 0 -12t11 0l10 9
v-13q0 -8 8 -8t8 8v13l10 -9q5 -6 11 0t0 12l-21 21v23l21 -11l7 -29q3 -8 10.5 -6t5.5 10l-3 13l11 -7q4 -2 8.5 0.5t4.5 7t-4 7.5l-12 6l13 4q8 2 6 10t-10 6l-29 -8l-20 12l20 12zM137 87zM265 310q27 16 39 44.5t4 58t-32.5 48.5t-55.5 19t-55.5 -19t-32.5 -48.5t4 -58
t38 -44.5q5 -2 5 -7v-245q0 -17 12 -29t29 -12t29 12t12 29v41h33v17h-33v16h33v17h-33v17h33v16h-33v17h33v16h-33v17h33v16h-33v55q0 5 4 7zM256 434q25 -20 21.5 -52t-32.5 -45v-263q0 -3 -2.5 -5.5t-6.5 -2.5h-33q-8 0 -8 9v262q-17 8 -26 24t-6.5 34.5t14.5 32.5t31 18
q6 1 12 1q20 0 36 -13zM256 434zM234 350q23 8 27 32t-15 39q-16 13 -35 8q-14 -3 -23 -13.5t-9.5 -24t7 -25t20.5 -16.5q6 -2 6 -8v-259h16v259q0 6 6 8zM234 350z" />
</svg>
