<?xml version="1.0" standalone="no"?>
<!DOCTYPE svg PUBLIC "-//W3C//DTD SVG 1.1//EN" "http://www.w3.org/Graphics/SVG/1.1/DTD/svg11.dtd" >
<svg xmlns="http://www.w3.org/2000/svg" xmlns:xlink="http://www.w3.org/1999/xlink" version="1.1" viewBox="-10 0 532 512">
   <path fill="currentColor"
d="M512 75v21h-80v-21h80zM478 120v21h-46v-21h46zM432 186v-21h80v21h-80zM478 210v21h-46v-21h46zM432 276v-21h80v21h-80zM444 394q0 43 -30.5 74t-74.5 31q-36 0 -64 -23q-16 31 -24 31q-6 0 -17.5 -19t-11.5 -25l-1 -1h1q0 -8 6.5 -14.5t16.5 -8.5q-6 -12 -9 -26
q-60 -5 -102 -50t-42 -107q0 -65 46.5 -111.5t112.5 -46.5q17 0 35 4v-36q0 -22 16 -37.5t37.5 -15.5t37.5 15.5t16 37.5v238q24 14 37.5 38t13.5 52zM286 304v-181q-18 -5 -35 -5q-57 0 -97.5 40.5t-40.5 97.5q0 53 35 91.5t87 44.5q0 -27 14 -50.5t37 -37.5zM424 394
q0 -24 -12.5 -44t-34.5 -31l-5 -3v-250q0 -13 -9.5 -22.5t-23 -9.5t-23 9.5t-9.5 22.5v250l-6 3q-21 11 -33.5 31t-12.5 44q0 35 25 59.5t59.5 24.5t59.5 -24.5t25 -59.5zM406 394q0 28 -19.5 47.5t-47 19.5t-47 -19.5t-19.5 -47.5q0 -23 13.5 -41t35.5 -23l4 -1v-231h27
v231l4 1q22 5 35.5 23t13.5 41zM343 349.5q-1 -5.5 -6 -8.5t-10 -2q-19 5 -31 20t-12 34q0 6 4 10t9.5 4t9 -4t3.5 -10q0 -10 6.5 -17.5t16.5 -9.5q5 -2 8 -6.5t2 -10zM222 50h-1l1 -1q0 -6 11.5 -25t17 -19t17.5 19t12 25v1q0 10 -8.5 16.5t-20.5 6.5t-20.5 -6.5
t-8.5 -16.5zM44 227q10 0 17 8.5t7 20.5t-7 20.5t-17 8.5v0q-7 0 -25.5 -12t-18.5 -17t18.5 -17t25.5 -12v0zM84 131v-1q-5 -4 -9.5 -26t-1 -25.5t25 1.5t26.5 9v0v1q7 7 6 17.5t-9.5 19t-19.5 10t-18 -5.5v0zM121.5 385.5q8.5 8.5 9.5 19t-6 17.5v1v0q-5 4 -26.5 9t-25 1
t1 -25.5t9.5 -25.5v-1v0q7 -7 18 -5.5t19.5 10z" />
</svg>
