<?xml version="1.0" standalone="no"?>
<!DOCTYPE svg PUBLIC "-//W3C//DTD SVG 1.1//EN" "http://www.w3.org/Graphics/SVG/1.1/DTD/svg11.dtd" >
<svg xmlns="http://www.w3.org/2000/svg" xmlns:xlink="http://www.w3.org/1999/xlink" version="1.1" viewBox="-11 0 534 512">
   <path fill="currentColor"
d="M191 208q14 4 19 14q6 14 -2 32q-28 63 -84 63q-33 0 -52 -21q-12 -14 -16.5 -37t-3.5 -33.5t2 -16.5q0 -5 5 -6q29 -5 56 -5q39 0 76 10zM81 222q1 -7 -6.5 -7.5t-7.5 6.5q-1 10 0 20q0 6 7 6t7 -7q-1 -8 0 -18zM507 178q6 1 5 8l-5 32q-1 3 -3.5 5t-6.5 1q-4 -2 -6 0
q-3 2 -3 7q-3 59 -25 86q-24 28 -75 28q-24 0 -43 -7t-33 -22t-21 -25t-16 -27q-5 -9 -7 -13q-6 -11 -12 -11v0v0q-6 0 -12 11q-2 4 -7 13q-9 17 -16 27t-21 25t-33 22t-43 7q-51 0 -75 -28q-22 -27 -25 -86q0 -5 -3 -7q-2 -2 -6 0q-4 1 -6.5 -1t-3.5 -5l-5 -32q-1 -7 5 -8
q101 -23 219 4l2 1q21 4 30 4t30 -4l2 -1q118 -27 219 -4zM494 209l3 -19q-94 -20 -206 6h-2q-22 6 -33 6t-33 -6h-2q-112 -26 -206 -6l3 19q6 0 11 3q9 6 10 18q2 54 21 78q19 23 64 23q39 0 66 -25q16 -14 35 -49q4 -9 7 -13q9 -18 24 -18t24 18q3 4 7 13q19 35 35 49
q27 25 66 25q45 0 64 -23q19 -24 21 -78q1 -12 10 -18q5 -3 11 -3zM321 208q37 -10 76 -10q27 0 56 5q5 1 5 6q1 6 2 16.5t-3.5 33.5t-16.5 37q-19 21 -52 21q-56 0 -84 -63q-8 -18 -2 -32q5 -10 19 -14zM388 310z" />
</svg>
