<?xml version="1.0" standalone="no"?>
<!DOCTYPE svg PUBLIC "-//W3C//DTD SVG 1.1//EN" "http://www.w3.org/Graphics/SVG/1.1/DTD/svg11.dtd" >
<svg xmlns="http://www.w3.org/2000/svg" xmlns:xlink="http://www.w3.org/1999/xlink" version="1.1" viewBox="-11 0 523 512">
   <path fill="currentColor"
d="M197 289q50 37 50 100q0 51 -36.5 87t-87.5 36q-50 0 -86 -35.5t-37 -86.5q-1 -63 50 -101v-215q0 -30 21.5 -51.5t51.5 -21.5q32 0 53 21.5t21 51.5v97h23q6 0 10.5 4.5t4.5 10.5t-4.5 10.5t-10.5 4.5h-23v88zM166 233v-32h-27v32h27zM123.5 324q-13.5 0 -23 10
t-9.5 23.5t9.5 23t23 9.5t23 -9.5t9.5 -23t-9.5 -23.5t-23 -10zM122 450q39 0 66.5 -27t27.5 -66q0 -51 -43 -78q-7 -5 -7 -13v-34h-27v63q21 6 34.5 23t13.5 39q0 26 -18.5 45t-45 19t-45 -19t-18.5 -45q0 -22 13.5 -39t34.5 -23v-250q0 -6 4.5 -10.5t11 -4.5t11 4.5
t4.5 10.5v94h27v-97q0 -17 -12 -29t-30 -12q-19 0 -31 12t-12 29v224q0 8 -7 13q-44 28 -43 79q0 38 27 64.5t64 27.5zM122 450zM378 64q21 37 21 58q0 33 -23 56t-56 23t-56 -23t-23 -56q0 -37 61 -116q7 -8 17 -5t11 13q1 24 7 55q10 -6 20 -11q13 -7 21 6zM320 171
q20 0 34.5 -14.5t14.5 -34.5q0 -10 -11 -30q-14 8 -26 13q-6 3 -13 0t-8 -10q-4 -17 -7 -39q-33 47 -33 66q0 20 14.5 34.5t34.5 14.5zM320 171z" />
</svg>
