<?xml version="1.0" standalone="no"?>
<!DOCTYPE svg PUBLIC "-//W3C//DTD SVG 1.1//EN" "http://www.w3.org/Graphics/SVG/1.1/DTD/svg11.dtd" >
<svg xmlns="http://www.w3.org/2000/svg" xmlns:xlink="http://www.w3.org/1999/xlink" version="1.1" viewBox="-10 0 532 512">
   <path fill="currentColor"
d="M196 60q15 0 15 15v32q0 15 -15 15t-15 -15v-32q0 -15 15 -15zM196 60zM196 152q15 0 15 15v30q0 15 -15 15t-15 -15v-30q0 -15 15 -15zM196 152zM196 242q15 0 15 15v30q0 15 -15 15t-15 -15v-30q0 -15 15 -15zM196 242zM196 332q15 0 15 15v30q0 15 -15 15t-15 -15v-30
q0 -15 15 -15zM196 332zM211 467q0 15 -15 15t-15 -15v-30q0 -15 15 -15t15 15v30zM211 467zM438 337q33 10 53.5 37.5t20.5 62.5q0 24 -10 46q10 3 10 14q0 15 -15 15h-482q-15 0 -15 -15t15 -15h106v-120h-46q-31 0 -53 -22t-22 -53v-90q0 -19 13 -32t32 -13t32 13t13 32
v75h31v-197q0 -31 22 -53t53 -22t53 22t22 53v137h30v-75q0 -19 13 -32t32 -13t32 13t13 32v90q0 31 -22 53t-53 22h-45v180h41q-10 -21 -10 -45q0 -35 20.5 -62.5t53.5 -37.5l-10 -9q-10 -11 0.5 -21.5t21.5 -0.5l19 20l19 -20q11 -10 21.5 0.5t0.5 21.5zM482 437
q0 -44 -39 -66q9 28 9 66q0 24 -4 45h19q15 -20 15 -45zM396 482h22q4 -20 4 -45q0 -55 -15 -74q-15 19 -15 74q0 25 4 45zM353 437q0 25 15 45h19q-4 -21 -4 -45q0 -38 9 -66q-39 22 -39 66zM337 242h-45v30h45q19 0 32 -13t13 -32v-90q0 -6 -4 -10.5t-10.5 -4.5t-11 4.5
t-4.5 10.5v90q0 6 -4 10.5t-11 4.5zM51 332h46v-30h-46q-6 0 -10.5 -4.5t-4.5 -10.5v-90q0 -6 -4 -10.5t-10.5 -4.5t-11 4.5t-4.5 10.5v90q0 19 13.5 32t31.5 13zM173 482h90v-407q0 -19 -13 -32t-31.5 -13t-32 13t-13.5 32v407zM263 482z" />
</svg>
