<?xml version="1.0" standalone="no"?>
<!DOCTYPE svg PUBLIC "-//W3C//DTD SVG 1.1//EN" "http://www.w3.org/Graphics/SVG/1.1/DTD/svg11.dtd" >
<svg xmlns="http://www.w3.org/2000/svg" xmlns:xlink="http://www.w3.org/1999/xlink" version="1.1" viewBox="-11 0 523 512">
   <path fill="currentColor"
d="M121 361v-105q0 -6 -4.5 -10.5t-10.5 -4.5t-10.5 4.5t-4.5 10.5v105q-15 5 -23.5 17.5t-8.5 27.5q0 20 13.5 33.5t33 13.5t33.5 -13.5t14 -33.5q0 -15 -9 -27.5t-23 -17.5zM120 362q14 5 23 17t9 27q0 19 -13.5 32.5t-32.5 13.5t-32.5 -13.5t-13.5 -32.5q0 -15 8.5 -27
t22.5 -17h1v-106q0 -6 4 -10t10 -4t10 4t4 10v106zM106 423q-7 0 -12 -5t-5 -12t5 -12t12 -5t12 5t5 12t-5 12t-12 5zM106 424q7 0 12.5 -5.5t5.5 -12.5t-5.5 -12.5t-12.5 -5.5t-12.5 5.5t-5.5 12.5t5.5 12.5t12.5 5.5zM106 423zM106 423q-7 0 -12 -5t-5 -12t5 -12t12 -5
t12 5t5 12t-5 12t-12 5zM106 424q7 0 12.5 -5.5t5.5 -12.5t-5.5 -12.5t-12.5 -5.5t-12.5 5.5t-5.5 12.5t5.5 12.5t12.5 5.5zM106 423zM106 423zM121 362q14 4 23 16.5t9 27.5q0 19 -14 33t-33 14t-33 -14t-14 -33q0 -15 9 -27.5t23 -16.5v-106q0 -6 4.5 -10.5t10.5 -4.5
t10.5 4.5t4.5 10.5v106zM106 423q7 0 12 -5t5 -12t-5 -12t-12 -5t-12 5t-5 12t5 12t12 5zM106 423zM170 322v-258q0 -27 -18.5 -45.5t-45.5 -18.5t-46 18.5t-19 45.5v258q-41 31 -41 83q-1 44 29.5 75.5t74.5 31.5h2q43 0 75 -30q31 -31 31 -76q0 -52 -42 -84zM170 322
q41 32 41 84q0 44 -31 75t-74 31q-1 0 -2 -1q-43 0 -73.5 -31.5t-29.5 -74.5q0 -52 41 -83v-258q0 -26 19 -45t45 -19t44.5 19t18.5 45v258h1zM159 460q-22 22 -53 22h-1q-31 0 -53 -22.5t-22 -54.5q0 -41 35 -63q7 -4 7 -12v-266q0 -14 10 -24t24 -10t24 10t10 24v9h-14
q-7 0 -11.5 4.5t-4.5 11t4.5 11t11.5 4.5h14v19h-14q-7 0 -11.5 4.5t-4.5 10.5t4.5 10.5t11.5 4.5h14v19h-14q-7 0 -11.5 4.5t-4.5 10.5t4.5 10.5t11.5 4.5h14v128q0 8 7 12q35 23 35 64q0 32 -23 54zM160 461q23 -23 23 -55q0 -42 -36 -64q-6 -5 -6 -12v-129h-15
q-6 0 -10.5 -4t-4.5 -10t4.5 -10t10.5 -4h15v-21h-15q-6 0 -10.5 -4t-4.5 -10t4.5 -10t10.5 -4h15v-21h-15q-6 0 -10.5 -4t-4.5 -10t4.5 -10.5t10.5 -4.5h15v-10q0 -14 -10.5 -24.5t-25 -10.5t-24.5 10.5t-10 24.5v266q0 7 -7 12q-34 22 -35 63q0 32 22 55t54 23h1
q31 0 54 -22zM159 460zM159 460q-22 22 -53 22h-1q-31 0 -53 -22.5t-22 -54.5q0 -41 35 -63q7 -4 7 -12v-266q0 -14 10 -24t24 -10t24 10t10 24v9h-14q-7 0 -11.5 4.5t-4.5 11t4.5 11t11.5 4.5h14v19h-14q-7 0 -11.5 4.5t-4.5 10.5t4.5 10.5t11.5 4.5h14v19h-14
q-7 0 -11.5 4.5t-4.5 10.5t4.5 10.5t11.5 4.5h14v128q0 8 7 12q35 23 35 64q0 32 -23 54zM160 461q23 -23 23 -55q0 -42 -36 -64q-6 -5 -6 -12v-129h-15q-6 0 -10.5 -4t-4.5 -10t4.5 -10t10.5 -4h15v-21h-15q-6 0 -10.5 -4t-4.5 -10t4.5 -10t10.5 -4h15v-21h-15
q-6 0 -10.5 -4t-4.5 -10t4.5 -10.5t10.5 -4.5h15v-10q0 -14 -10.5 -24.5t-25 -10.5t-24.5 10.5t-10 24.5v266q0 7 -7 12q-34 22 -35 63q0 32 22 55t54 23h1q31 0 54 -22zM159 460zM159 460zM170 322q42 32 42 84q0 44 -32 76q-31 30 -74 30h-2q-43 -1 -73.5 -32t-30.5 -75
q1 -52 42 -83v-258q0 -26 18.5 -45t45 -19t45.5 19t19 45v258zM159 460q23 -22 23 -54q0 -41 -35 -64q-7 -4 -7 -12v-128h-14q-7 0 -11 -4.5t-4 -10.5t4 -10.5t11 -4.5h14v-19h-14q-7 0 -11 -4.5t-4 -10.5t4 -10.5t11 -4.5h14v-20h-14q-7 0 -11 -4t-4 -10.5t4 -10.5t11 -4
h14v-10q0 -14 -10 -24t-24 -10t-24.5 10t-10.5 24v266q0 8 -6 12q-35 22 -35 63q-1 32 21 54.5t54 22.5h1q31 0 53 -22zM159 460z" />
</svg>
