<?xml version='1.0' encoding='UTF-8'?>
<svg xmlns="http://www.w3.org/2000/svg" version="1.1" x="0px" y="0px" viewBox="0 0 9.9200001 9.9200001" width="512" height="512"><path d="M 0,1.01 C 0,0.71 0.09,0.46 0.26,0.28 0.46,0.09 0.72,0 1.05,0 1.35,0 1.6,0.09 1.78,0.28 L 7.83,6.33 V 4.38 c 0,-0.3 0.1,-0.55 0.3,-0.75 0.2,-0.2 0.45,-0.3 0.75,-0.3 0.29,0 0.54,0.1 0.74,0.31 0.2,0.21 0.3,0.45 0.3,0.75 v 4.48 c 0,0.3 -0.1,0.55 -0.3,0.75 -0.2,0.2 -0.45,0.3 -0.74,0.3 H 4.4 C 4.11,9.92 3.86,9.82 3.66,9.62 3.46,9.42 3.36,9.17 3.36,8.87 3.36,8.58 3.46,8.33 3.66,8.14 3.86,7.95 4.11,7.85 4.4,7.85 H 6.33 L 0.25,1.79 C 0.09,1.56 0,1.31 0,1.01 Z"/></svg>