<?xml version='1.0' encoding='UTF-8'?>
<svg xmlns="http://www.w3.org/2000/svg" version="1.1" x="0px" y="0px" viewBox="0 0 10.13 6.460835" width="802" height="512"><path d="m 0,3.2608351 c 0,0.22 0.08,0.42 0.23,0.57 0.15,0.15 0.34,0.22 0.56,0.2 h 6.58 l -1.03,1.08 c -0.16,0.16 -0.24,0.35 -0.24,0.55 0,0.22 0.08,0.42 0.24,0.57 0.16,0.16 0.35,0.23 0.58,0.23 0.21,-0.01 0.39,-0.1 0.53,-0.27 l 2.45,-2.41 c 0.16,-0.16 0.23,-0.35 0.23,-0.58 -0.01,-0.24 -0.09,-0.43 -0.24,-0.58 L 7.42,0.23083506 c -0.15,-0.16 -0.33,-0.24 -0.54,-0.230000004 -0.23,0 -0.42,0.070000004 -0.57,0.220000004 -0.16,0.15 -0.23,0.34 -0.23,0.56 0,0.23000004 0.08,0.42000004 0.23,0.57000004 l 1.06,1.08 H 0.78 c -0.23,0.01 -0.41,0.09 -0.56,0.25 -0.15,0.17 -0.22,0.36 -0.22,0.58 z"/></svg>