<?xml version='1.0' encoding='UTF-8'?>
<svg xmlns="http://www.w3.org/2000/svg" version="1.1" x="0px" y="0px" viewBox="0 0 10.120625 15.832313" width="327" height="512"><path d="M 6.242785e-4,5.06 C -0.00937572,5.41 0.10062428,5.71 0.34062428,5.96 c 0.24,0.25 0.53,0.37 0.89000002,0.36 0.34,0.02 0.63,-0.1 0.88,-0.37 l 1.66,-1.64 v 10.3 c -0.01,0.35 0.11,0.64 0.36,0.88 0.25,0.24 0.55,0.35 0.92,0.34 0.34,0.02 0.64,-0.09 0.89,-0.32 0.25,-0.23 0.39,-0.53 0.4,-0.88 V 4.33 l 1.64,1.64 c 0.23,0.24 0.53,0.37 0.88,0.37 0.36,0 0.66,-0.12 0.9,-0.36 C 10.000624,5.74 10.120624,5.45 10.120624,5.09 10.100624,4.73 9.9706243,4.45 9.7206243,4.24 l -3.74,-3.84 c -0.24,-0.23 -0.55,-0.37 -0.92,-0.4 -0.37,0.02 -0.68,0.16 -0.92,0.41 L 0.39062428,4.22 c -0.26,0.22 -0.3900000015,0.5 -0.3900000015,0.84 z"/></svg>