<?xml version='1.0' encoding='UTF-8'?>
<svg xmlns="http://www.w3.org/2000/svg" version="1.1" x="0px" y="0px" viewBox="0 0 7.8244443 15.626785" width="256" height="512"><path d="m 0.00444444,7.8567857 v -0.02 c -0.01,-0.08 0,-0.2 0,-0.37 0.01,-0.16 0.04,-0.43 0.1,-0.81 0.06,-0.38 0.14,-0.76 0.25,-1.15 0.11,-0.39 0.28,-0.84 0.51,-1.35 0.22999996,-0.51 0.49999996,-0.99 0.81999996,-1.44 0.32,-0.45 0.74,-0.92 1.26,-1.39 0.52,-0.46999999 1.1,-0.88999999 1.73,-1.23999999 0.16,-0.09 0.32,-0.11 0.49,-0.06 0.17,0.05 0.3,0.15 0.38,0.31 0.09,0.16 0.11,0.32 0.06,0.5 -0.05,0.16999999 -0.15,0.30999999 -0.3,0.38999999 -1.31,0.72 -2.32,1.73 -3.03,3.05 0.54,-0.25 1.08,-0.38 1.63,-0.38 1.07,0 2,0.38 2.77,1.15 0.77,0.77 1.15,1.69 1.15,2.76 0,0.08 0,0.16 0,0.24 0,0.08 -0.02,0.25 -0.04,0.52 -0.02,0.27 -0.06,0.52 -0.11,0.77 -0.05,0.25 -0.13,0.56 -0.23,0.9300003 -0.11,0.37 -0.23,0.73 -0.38,1.06 -0.15,0.33 -0.34,0.7 -0.58,1.1 -0.24,0.4 -0.51,0.77 -0.81,1.12 -0.3,0.35 -0.66,0.7 -1.08,1.05 -0.43,0.35 -0.89,0.67 -1.39,0.95 -0.09,0.06 -0.2,0.08 -0.31,0.08 -0.26,0 -0.45,-0.12 -0.58,-0.35 -0.09,-0.16 -0.11,-0.32 -0.06,-0.49 0.05,-0.17 0.15,-0.3 0.31,-0.38 1.34,-0.75 2.36,-1.78 3.06,-3.08 -0.54,0.26 -1.11,0.38 -1.71,0.38 -0.69,0 -1.34,-0.17 -1.94,-0.52 -0.6,-0.34 -1.06999996,-0.81 -1.42999996,-1.4100003 -0.35,-0.58 -0.53,-1.22 -0.54,-1.92 z m 1.69999996,-0.05 c 0,0.61 0.22,1.13 0.65,1.57 0.43,0.43 0.95,0.6500003 1.56,0.6500003 0.57,0 1.06,-0.1900003 1.49,-0.5700003 0.42,-0.38 0.66,-0.85 0.73,-1.41 l 0.01,-0.23 c 0,-0.02 0,-0.04 0.01,-0.05 -0.01,-0.6 -0.23,-1.11 -0.66,-1.52 -0.43,-0.42 -0.96,-0.62 -1.57,-0.62 -0.56,0 -1.04,0.18 -1.46,0.54 -0.42,0.36 -0.66,0.82 -0.73,1.36 l -0.02,0.25 v 0.03 z"/></svg>