<?xml version='1.0' encoding='UTF-8'?>
<svg xmlns="http://www.w3.org/2000/svg" version="1.1" x="0px" y="0px" viewBox="0 0 14.039658 18.6" width="386" height="512"><path d="M 0,18.6 H 0.39 L 7.27,8.42 C 7.36,8.24 7.31,8.15 7.12,8.15 H 4.28 L 7.27,2.7 C 7.36,2.52 7.29,2.43 7.07,2.43 H 3.26 c -0.11,0 -0.2,0.06 -0.29,0.18 l -2.78,7.4 c -0.02,0.18 0.04,0.27 0.19,0.27 H 3.13 Z M 8.5,12.27 H 8.77 L 13.99,4.6 C 14.04,4.52 14.05,4.45 14.03,4.4 14.01,4.35 13.95,4.33 13.86,4.33 h -2.1 L 13.94,0.3 C 14.06,0.1 14,0 13.76,0 h -2.74 c -0.13,0 -0.23,0.06 -0.3,0.19 L 8.64,5.67 C 8.61,5.76 8.61,5.83 8.65,5.88 8.69,5.93 8.75,5.95 8.84,5.95 h 2.04 z"/></svg>