<?xml version='1.0' encoding='UTF-8'?>
<svg xmlns="http://www.w3.org/2000/svg" version="1.1" x="0px" y="0px" viewBox="0 0 16.629999 22.540001" width="377" height="512"><path d="m 0,11.26 c 0,1.24 0.08,2.38 0.25,3.41 0.17,1.03 0.44,2.05 0.83,3.04 0.39,0.99 0.95,1.89 1.67,2.71 0.72,0.82 1.6,1.52 2.62,2.12 1.52,0 2.98,-0.3 4.37,-0.89 1.39,-0.59 2.59,-1.4 3.6,-2.4 1.01,-1 1.81,-2.2 2.4,-3.6 0.59,-1.4 0.89,-2.85 0.89,-4.39 0,-1.54 -0.3,-2.99 -0.89,-4.38 C 15.15,5.49 14.34,4.3 13.34,3.29 12.34,2.28 11.14,1.48 9.74,0.89 8.34,0.3 6.89,0 5.37,0 3.7,1.14 2.39,2.72 1.43,4.74 0.47,6.76 0,8.92 0,11.26 Z"/></svg>