<?xml version='1.0' encoding='UTF-8'?>
<svg xmlns="http://www.w3.org/2000/svg" version="1.1" x="0px" y="0px" viewBox="0 0 11.25 22.51" width="255" height="512"><path d="m 0,22.51 c 2.04,0 3.92,-0.5 5.65,-1.51 1.73,-1.01 3.09,-2.37 4.09,-4.1 1,-1.73 1.51,-3.61 1.51,-5.65 C 11.25,9.21 10.75,7.33 9.74,5.6 8.73,3.87 7.37,2.51 5.65,1.51 3.93,0.51 2.04,0 0,0 c 1.71,1.26 2.97,2.9 3.78,4.91 0.81,2.01 1.21,4.13 1.21,6.33 0,0.9 -0.03,1.73 -0.1,2.5 -0.07,0.77 -0.21,1.59 -0.43,2.47 -0.22,0.88 -0.51,1.68 -0.86,2.4 -0.35,0.72 -0.83,1.42 -1.45,2.12 -0.62,0.7 -1.33,1.28 -2.15,1.78 z"/></svg>