<?xml version='1.0' encoding='UTF-8'?>
<svg xmlns="http://www.w3.org/2000/svg" version="1.1" x="0px" y="0px" viewBox="0 0 22.540001 22.540001" width="511" height="512"><path d="M 0,11.28 C 0,9.75 0.3,8.28 0.89,6.89 1.48,5.5 2.29,4.3 3.29,3.29 4.29,2.28 5.49,1.48 6.89,0.89 8.29,0.3 9.74,0 11.26,0 c 1.53,0 3,0.3 4.39,0.89 1.39,0.59 2.59,1.4 3.6,2.4 1.01,1 1.81,2.2 2.4,3.6 0.59,1.4 0.89,2.85 0.89,4.39 0,1.52 -0.3,2.98 -0.89,4.37 -0.59,1.39 -1.4,2.59 -2.4,3.6 -1,1.01 -2.2,1.81 -3.6,2.4 -1.4,0.59 -2.85,0.89 -4.39,0.89 -1.52,0 -2.98,-0.3 -4.37,-0.89 -1.39,-0.59 -2.59,-1.4 -3.6,-2.4 -1.01,-1 -1.81,-2.2 -2.4,-3.6 C 0.3,14.25 0,12.81 0,11.28 Z m 2.68,0 c 0,0.78 0.05,1.5 0.15,2.15 0.1,0.65 0.29,1.35 0.57,2.09 0.28,0.74 0.66,1.41 1.13,2.03 0.47,0.62 1.09,1.24 1.88,1.86 0.79,0.62 1.7,1.2 2.77,1.71 0.67,0.15 1.37,0.22 2.09,0.22 1.37,0 2.67,-0.27 3.91,-0.8 1.24,-0.53 2.31,-1.25 3.22,-2.15 0.91,-0.9 1.62,-1.97 2.15,-3.22 0.53,-1.25 0.8,-2.55 0.8,-3.9 C 21.35,9.45 20.9,7.77 20,6.22 19.1,4.67 17.87,3.45 16.32,2.54 14.77,1.63 13.09,1.19 11.27,1.19 10.42,1.19 9.65,1.28 8.96,1.45 8.07,1.89 7.29,2.35 6.61,2.84 5.93,3.33 5.36,3.85 4.92,4.38 4.48,4.91 4.1,5.46 3.79,6 3.48,6.54 3.25,7.12 3.1,7.74 2.95,8.36 2.84,8.94 2.78,9.49 c -0.06,0.55 -0.1,1.15 -0.1,1.79 z"/></svg>