<?xml version='1.0' encoding='UTF-8'?>
<svg xmlns="http://www.w3.org/2000/svg" version="1.1" x="0px" y="0px" viewBox="0 0 22.51 22.51" width="512" height="512"><path d="M 0,11.25 C 0,9.73 0.3,8.27 0.89,6.88 1.48,5.49 2.29,4.3 3.29,3.29 4.29,2.28 5.49,1.48 6.88,0.89 8.27,0.3 9.72,0 11.25,0 c 1.53,0 2.98,0.3 4.37,0.89 1.39,0.59 2.59,1.4 3.6,2.4 1.01,1 1.81,2.2 2.4,3.59 0.59,1.39 0.89,2.84 0.89,4.37 0,1.53 -0.3,2.98 -0.89,4.37 -0.59,1.39 -1.4,2.59 -2.4,3.6 -1,1.01 -2.2,1.81 -3.6,2.4 -1.4,0.59 -2.85,0.89 -4.37,0.89 -1.52,0 -2.98,-0.3 -4.37,-0.89 -1.39,-0.59 -2.58,-1.4 -3.59,-2.4 -1.01,-1 -1.81,-2.2 -2.4,-3.6 C 0.3,14.22 0,12.78 0,11.25 Z m 1.2,0 c 0,1.27 0.23,2.49 0.7,3.66 0.47,1.17 1.09,2.2 1.89,3.08 0.8,0.88 1.75,1.61 2.85,2.19 1.1,0.58 2.28,0.94 3.52,1.08 C 8.41,20.22 7.18,18.87 6.46,17.19 5.74,15.51 5.38,13.53 5.38,11.26 5.38,9.19 5.82,7.26 6.7,5.48 7.58,3.7 8.8,2.28 10.36,1.24 9.1,1.35 7.9,1.69 6.77,2.26 5.64,2.83 4.67,3.56 3.85,4.45 3.03,5.34 2.39,6.37 1.92,7.56 1.45,8.75 1.2,9.96 1.2,11.25 Z"/></svg>