<?xml version='1.0' encoding='UTF-8'?>
<svg xmlns="http://www.w3.org/2000/svg" version="1.1" x="0px" y="0px" viewBox="0 0 22.51 22.51" width="512" height="512"><path d="M 0,11.25 C 0,9.73 0.3,8.27 0.89,6.88 1.48,5.49 2.29,4.3 3.29,3.29 4.29,2.28 5.49,1.48 6.88,0.89 8.27,0.3 9.72,0 11.25,0 c 1.53,0 2.98,0.3 4.37,0.89 1.39,0.59 2.59,1.4 3.6,2.4 1.01,1 1.81,2.2 2.4,3.59 0.59,1.39 0.89,2.84 0.89,4.37 0,1.53 -0.3,2.98 -0.89,4.37 -0.59,1.39 -1.4,2.59 -2.4,3.6 -1,1.01 -2.2,1.81 -3.6,2.4 -1.4,0.59 -2.85,0.89 -4.37,0.89 -1.52,0 -2.98,-0.3 -4.37,-0.89 -1.39,-0.59 -2.58,-1.4 -3.59,-2.4 -1.01,-1 -1.81,-2.2 -2.4,-3.6 C 0.3,14.22 0,12.78 0,11.25 Z m 1.2,0 c 0,1.36 0.26,2.65 0.79,3.89 0.53,1.24 1.24,2.3 2.12,3.2 0.88,0.9 1.95,1.62 3.17,2.15 1.22,0.53 2.52,0.81 3.87,0.82 C 9.99,18.84 9.41,15.48 9.41,11.25 9.41,7.64 10.01,4.29 11.21,1.2 9.85,1.2 8.56,1.47 7.32,2.01 6.08,2.55 5.02,3.26 4.13,4.16 3.24,5.06 2.52,6.13 1.99,7.36 1.46,8.59 1.2,9.9 1.2,11.25 Z"/></svg>