<?xml version='1.0' encoding='UTF-8'?>
<svg xmlns="http://www.w3.org/2000/svg" version="1.1" x="0px" y="0px" viewBox="0 0 22.540001 22.540001" width="511" height="512"><path d="M 0,11.28 C 0,9.75 0.3,8.28 0.89,6.89 1.48,5.5 2.29,4.3 3.29,3.29 4.29,2.28 5.49,1.48 6.89,0.89 8.29,0.3 9.74,0 11.26,0 c 1.53,0 3,0.3 4.39,0.89 1.39,0.59 2.59,1.4 3.6,2.4 1.01,1 1.81,2.2 2.4,3.6 0.59,1.4 0.89,2.85 0.89,4.39 0,1.52 -0.3,2.98 -0.89,4.37 -0.59,1.39 -1.4,2.59 -2.4,3.6 -1,1.01 -2.2,1.81 -3.6,2.4 -1.4,0.59 -2.85,0.89 -4.39,0.89 -1.52,0 -2.98,-0.3 -4.37,-0.89 -1.39,-0.59 -2.59,-1.4 -3.6,-2.4 -1.01,-1 -1.81,-2.2 -2.4,-3.6 C 0.3,14.25 0,12.81 0,11.28 Z m 1.2,0 c 0,1.36 0.27,2.66 0.8,3.9 0.53,1.24 1.25,2.32 2.15,3.22 0.9,0.9 1.97,1.61 3.22,2.15 1.25,0.54 2.55,0.8 3.9,0.8 1.37,0 2.67,-0.27 3.91,-0.8 1.24,-0.53 2.31,-1.25 3.22,-2.15 0.91,-0.9 1.62,-1.97 2.15,-3.22 0.53,-1.25 0.8,-2.55 0.8,-3.9 C 21.35,9.46 20.9,7.78 20,6.23 19.1,4.68 17.87,3.46 16.32,2.55 14.77,1.64 13.09,1.2 11.27,1.2 9.91,1.2 8.61,1.47 7.37,2 6.13,2.53 5.05,3.25 4.15,4.16 3.25,5.07 2.54,6.14 2,7.38 1.46,8.62 1.2,9.92 1.2,11.28 Z"/></svg>