<?xml version='1.0' encoding='UTF-8'?>
<svg xmlns="http://www.w3.org/2000/svg" version="1.1" x="0px" y="0px" viewBox="0 0 22.51 22.51" width="512" height="512"><path d="M 0,11.25 C 0,9.73 0.3,8.27 0.89,6.88 1.48,5.49 2.29,4.3 3.29,3.29 4.29,2.28 5.49,1.48 6.88,0.89 8.27,0.3 9.72,0 11.25,0 c 1.53,0 2.98,0.3 4.37,0.89 1.39,0.59 2.59,1.4 3.6,2.4 1.01,1 1.81,2.2 2.4,3.59 0.59,1.39 0.89,2.84 0.89,4.37 0,1.53 -0.3,2.98 -0.89,4.37 -0.59,1.39 -1.4,2.59 -2.4,3.6 -1,1.01 -2.2,1.81 -3.6,2.4 -1.4,0.59 -2.85,0.89 -4.37,0.89 -1.52,0 -2.98,-0.3 -4.37,-0.89 -1.39,-0.59 -2.58,-1.4 -3.59,-2.4 -1.01,-1 -1.81,-2.2 -2.4,-3.6 C 0.3,14.22 0,12.78 0,11.25 Z M 12.16,1.23 c 1.48,0.99 2.7,2.34 3.65,4.05 0.95,1.71 1.42,3.7 1.42,5.97 0,4.8 -1.6,8.13 -4.79,9.99 1.65,-0.2 3.15,-0.76 4.5,-1.68 1.35,-0.92 2.42,-2.12 3.2,-3.58 0.78,-1.46 1.17,-3.03 1.17,-4.72 0,-1.72 -0.41,-3.32 -1.22,-4.8 C 19.28,4.98 18.18,3.77 16.78,2.85 15.38,1.93 13.85,1.38 12.16,1.23 Z"/></svg>