<?xml version='1.0' encoding='UTF-8'?>
<svg xmlns="http://www.w3.org/2000/svg" version="1.1" x="0px" y="0px" viewBox="0 0 22.51 22.51" width="512" height="512"><path d="M 0,11.25 C 0,9.73 0.3,8.27 0.89,6.88 1.48,5.49 2.29,4.3 3.29,3.29 4.29,2.28 5.49,1.48 6.88,0.89 8.27,0.3 9.73,0 11.25,0 c 1.52,0 2.98,0.3 4.37,0.89 1.39,0.59 2.59,1.4 3.6,2.4 1.01,1 1.81,2.2 2.4,3.59 0.59,1.39 0.89,2.84 0.89,4.37 0,1.53 -0.3,2.98 -0.89,4.37 -0.59,1.39 -1.4,2.59 -2.4,3.6 -1,1.01 -2.2,1.81 -3.6,2.4 -1.4,0.59 -2.85,0.89 -4.37,0.89 -1.52,0 -2.98,-0.3 -4.37,-0.89 -1.39,-0.59 -2.58,-1.4 -3.59,-2.4 -1.01,-1 -1.81,-2.2 -2.4,-3.6 C 0.3,14.22 0,12.78 0,11.25 Z M 11.6,1.2 c 1.05,1.27 1.91,2.75 2.57,4.44 0.66,1.69 0.99,3.56 0.99,5.61 0,4.39 -1.14,7.75 -3.43,10.06 1.31,-0.06 2.55,-0.37 3.74,-0.92 1.19,-0.55 2.2,-1.28 3.05,-2.18 0.85,-0.9 1.53,-1.95 2.04,-3.16 0.51,-1.21 0.75,-2.48 0.75,-3.81 0,-1.78 -0.43,-3.43 -1.3,-4.94 C 19.14,4.79 17.97,3.57 16.48,2.65 14.99,1.73 13.37,1.26 11.6,1.2 Z"/></svg>