<?xml version='1.0' encoding='UTF-8'?>
<svg xmlns="http://www.w3.org/2000/svg" version="1.1" x="0px" y="0px" viewBox="0 0 22.51 22.51" width="512" height="512"><path d="M 0,11.25 C 0,9.73 0.3,8.27 0.89,6.88 1.48,5.49 2.29,4.3 3.29,3.29 4.29,2.28 5.49,1.48 6.88,0.89 8.27,0.3 9.72,0 11.25,0 c 1.53,0 2.98,0.3 4.37,0.89 1.39,0.59 2.59,1.4 3.6,2.4 1.01,1 1.81,2.2 2.4,3.59 0.59,1.39 0.89,2.84 0.89,4.37 0,1.53 -0.3,2.98 -0.89,4.37 -0.59,1.39 -1.4,2.59 -2.4,3.6 -1,1.01 -2.2,1.81 -3.6,2.4 -1.4,0.59 -2.85,0.89 -4.37,0.89 -1.52,0 -2.98,-0.3 -4.37,-0.89 -1.39,-0.59 -2.58,-1.4 -3.59,-2.4 -1.01,-1 -1.81,-2.2 -2.4,-3.6 C 0.3,14.22 0,12.78 0,11.25 Z m 8.22,0 c 0,4.15 0.81,7.5 2.42,10.05 0.15,0.01 0.35,0.01 0.62,0.01 1.37,0 2.67,-0.27 3.91,-0.8 1.24,-0.53 2.31,-1.25 3.21,-2.15 0.9,-0.9 1.61,-1.97 2.15,-3.21 0.54,-1.24 0.8,-2.54 0.8,-3.91 0,-1.36 -0.27,-2.66 -0.8,-3.9 C 20,6.1 19.28,5.03 18.38,4.13 17.48,3.23 16.41,2.52 15.17,1.98 13.93,1.44 12.63,1.18 11.26,1.18 c -0.23,0 -0.42,0 -0.54,0.01 -1.67,3.17 -2.5,6.52 -2.5,10.06 z"/></svg>