<?xml version='1.0' encoding='UTF-8'?>
<svg xmlns="http://www.w3.org/2000/svg" version="1.1" x="0px" y="0px" viewBox="0 0 11.25 22.51" width="255" height="512"><path d="m 0,11.25 c 0,2.04 0.5,3.93 1.51,5.65 1.01,1.72 2.37,3.1 4.09,4.1 1.72,1 3.61,1.51 5.65,1.51 C 8.66,21.72 6.77,20.38 5.56,18.49 4.35,16.6 3.75,14.19 3.75,11.25 3.75,9.86 3.95,8.55 4.35,7.3 4.75,6.05 5.29,4.96 5.98,4.03 6.67,3.1 7.46,2.28 8.35,1.59 9.24,0.9 10.21,0.37 11.24,0 9.2,0 7.32,0.5 5.59,1.51 3.86,2.52 2.52,3.88 1.51,5.61 0.5,7.34 0,9.21 0,11.25 Z"/></svg>