<?xml version='1.0' encoding='UTF-8'?>
<svg xmlns="http://www.w3.org/2000/svg" version="1.1" x="0px" y="0px" viewBox="0 0 22.51 22.51" width="512" height="512"><path d="M 0,11.25 C 0,9.73 0.3,8.27 0.89,6.88 1.48,5.49 2.29,4.3 3.29,3.29 4.29,2.28 5.49,1.48 6.88,0.89 8.27,0.3 9.72,0 11.25,0 c 1.53,0 2.98,0.3 4.37,0.89 1.39,0.59 2.59,1.4 3.6,2.4 1.01,1 1.81,2.2 2.4,3.59 0.59,1.39 0.89,2.84 0.89,4.37 0,1.53 -0.3,2.98 -0.89,4.37 -0.59,1.39 -1.4,2.59 -2.4,3.6 -1,1.01 -2.2,1.81 -3.6,2.4 -1.4,0.59 -2.85,0.89 -4.37,0.89 -1.52,0 -2.98,-0.3 -4.37,-0.89 -1.39,-0.59 -2.58,-1.4 -3.59,-2.4 -1.01,-1 -1.81,-2.2 -2.4,-3.6 C 0.3,14.22 0,12.78 0,11.25 Z m 9.64,0 c 0,3.81 0.41,7.16 1.23,10.06 h 0.38 c 1.37,0 2.67,-0.27 3.91,-0.8 1.24,-0.53 2.31,-1.25 3.21,-2.15 0.9,-0.9 1.61,-1.97 2.15,-3.21 0.54,-1.24 0.8,-2.54 0.8,-3.91 0,-1.36 -0.27,-2.66 -0.8,-3.9 C 19.99,6.1 19.27,5.03 18.37,4.13 17.47,3.23 16.4,2.52 15.16,1.98 13.92,1.44 12.62,1.18 11.25,1.18 H 10.91 C 10.07,4.8 9.64,8.15 9.64,11.25 Z"/></svg>