<?xml version='1.0' encoding='UTF-8'?>
<svg xmlns="http://www.w3.org/2000/svg" version="1.1" x="0px" y="0px" viewBox="0 0 22.51 22.51" width="512" height="512"><path d="M 0,11.25 C 0,9.22 0.5,7.34 1.51,5.61 2.52,3.88 3.88,2.51 5.61,1.51 7.34,0.51 9.22,0 11.25,0 c 1.52,0 2.98,0.3 4.37,0.89 1.39,0.59 2.59,1.4 3.6,2.4 1.01,1 1.81,2.2 2.4,3.59 0.59,1.39 0.89,2.84 0.89,4.37 0,1.53 -0.3,2.98 -0.89,4.37 -0.59,1.39 -1.4,2.59 -2.4,3.6 -1,1.01 -2.2,1.81 -3.6,2.4 -1.4,0.59 -2.85,0.89 -4.37,0.89 -1.52,0 -2.98,-0.3 -4.37,-0.89 -1.39,-0.59 -2.59,-1.4 -3.59,-2.4 -1,-1 -1.8,-2.2 -2.4,-3.6 C 0.29,14.22 0,12.78 0,11.25 Z m 6.8,0 c 0,4.44 1.17,7.78 3.5,10.02 0.07,0 0.17,0 0.3,0.01 0.13,0.01 0.25,0.02 0.35,0.02 0.1,0 0.2,0.01 0.3,0.01 1.36,0 2.66,-0.27 3.9,-0.8 1.24,-0.53 2.32,-1.25 3.22,-2.15 0.9,-0.9 1.61,-1.97 2.15,-3.21 0.54,-1.24 0.8,-2.54 0.8,-3.91 0,-1.36 -0.27,-2.66 -0.8,-3.9 C 19.99,6.1 19.27,5.03 18.37,4.13 17.47,3.23 16.4,2.52 15.15,1.98 13.9,1.44 12.6,1.18 11.25,1.18 10.89,1.18 10.62,1.19 10.44,1.21 9.36,2.43 8.48,3.9 7.8,5.63 c -0.68,1.73 -1,3.61 -1,5.62 z"/></svg>