<?xml version='1.0' encoding='UTF-8'?>
<svg xmlns="http://www.w3.org/2000/svg" version="1.1" x="0px" y="0px" viewBox="0 0 22.51 22.51" width="512" height="512"><path d="M 0,11.25 C 0,9.73 0.3,8.27 0.89,6.88 1.48,5.49 2.29,4.3 3.29,3.29 4.29,2.28 5.49,1.48 6.88,0.89 8.27,0.3 9.72,0 11.25,0 c 1.53,0 2.98,0.3 4.37,0.89 1.39,0.59 2.59,1.4 3.6,2.4 1.01,1 1.81,2.2 2.4,3.59 0.59,1.39 0.89,2.84 0.89,4.37 0,1.53 -0.3,2.98 -0.89,4.37 -0.59,1.39 -1.4,2.59 -2.4,3.6 -1,1.01 -2.2,1.81 -3.6,2.4 -1.4,0.59 -2.85,0.89 -4.37,0.89 -1.52,0 -2.98,-0.3 -4.37,-0.89 -1.39,-0.59 -2.58,-1.4 -3.59,-2.4 -1.01,-1 -1.81,-2.2 -2.4,-3.6 C 0.3,14.22 0,12.78 0,11.25 Z m 1.2,0 c 0,2.48 0.8,4.66 2.41,6.53 1.61,1.87 3.62,3.01 6.03,3.41 C 8.63,20.69 7.78,20.09 7.08,19.37 6.38,18.65 5.83,17.87 5.45,17 5.07,16.13 4.79,15.23 4.62,14.3 4.45,13.37 4.36,12.35 4.36,11.24 4.36,9.13 4.86,7.18 5.85,5.4 6.84,3.62 8.22,2.24 9.97,1.28 8.34,1.49 6.86,2.05 5.52,2.98 4.18,3.91 3.13,5.11 2.36,6.57 1.59,8.03 1.2,9.58 1.2,11.25 Z"/></svg>