<?xml version='1.0' encoding='UTF-8'?>
<svg xmlns="http://www.w3.org/2000/svg" version="1.1" x="0px" y="0px" viewBox="0 0 17.700001 22.540001" width="402" height="512"><path d="m 0,11.27 c 0,1.03 0.06,1.97 0.18,2.83 0.12,0.86 0.32,1.73 0.62,2.59 0.3,0.86 0.69,1.65 1.16,2.34 0.47,0.69 1.1,1.35 1.85,1.96 0.75,0.61 1.63,1.12 2.63,1.55 1.53,0 2.99,-0.3 4.38,-0.89 1.39,-0.59 2.58,-1.4 3.59,-2.4 1.01,-1 1.81,-2.2 2.4,-3.6 C 17.4,14.25 17.7,12.8 17.7,11.26 17.7,9.22 17.2,7.33 16.19,5.61 15.18,3.89 13.82,2.51 12.09,1.51 10.36,0.51 8.48,0 6.44,0 4.45,1 2.88,2.51 1.72,4.55 0.56,6.59 0,8.83 0,11.27 Z"/></svg>