<?xml version='1.0' encoding='UTF-8'?>
<svg xmlns="http://www.w3.org/2000/svg" version="1.1" x="0px" y="0px" viewBox="0 0 22.51 22.51" width="512" height="512"><path d="M 0,11.25 C 0,9.73 0.3,8.27 0.89,6.88 1.48,5.49 2.29,4.3 3.29,3.29 4.29,2.28 5.49,1.48 6.88,0.89 8.27,0.3 9.72,0 11.25,0 c 1.53,0 2.98,0.3 4.37,0.89 1.39,0.59 2.59,1.4 3.6,2.4 1.01,1 1.81,2.2 2.4,3.59 0.59,1.39 0.89,2.84 0.89,4.37 0,1.53 -0.3,2.98 -0.89,4.37 -0.59,1.39 -1.4,2.59 -2.4,3.6 -1,1.01 -2.2,1.81 -3.6,2.4 -1.4,0.59 -2.85,0.89 -4.37,0.89 -1.52,0 -2.98,-0.3 -4.37,-0.89 -1.39,-0.59 -2.58,-1.4 -3.59,-2.4 -1.01,-1 -1.81,-2.2 -2.4,-3.6 C 0.3,14.22 0,12.78 0,11.25 Z m 1.2,0 c 0,1.33 0.25,2.6 0.75,3.81 0.5,1.21 1.18,2.26 2.03,3.15 0.85,0.89 1.87,1.61 3.05,2.17 1.18,0.56 2.43,0.87 3.74,0.94 C 9.53,20.13 8.66,18.69 8.16,17.01 7.66,15.33 7.41,13.41 7.41,11.25 7.41,9.32 7.72,7.47 8.33,5.71 8.94,3.95 9.8,2.45 10.89,1.21 9.12,1.28 7.5,1.77 6.01,2.68 4.52,3.59 3.35,4.81 2.49,6.32 1.63,7.83 1.2,9.49 1.2,11.25 Z"/></svg>