<?xml version='1.0' encoding='UTF-8'?>
<svg xmlns="http://www.w3.org/2000/svg" version="1.1" x="0px" y="0px" viewBox="0 0 11.25 22.51" width="255" height="512"><path d="m 0,11.25 c 0,2.04 0.5,3.93 1.51,5.65 1.01,1.72 2.37,3.1 4.09,4.1 1.72,1 3.61,1.51 5.65,1.51 C 9.79,21.95 8.53,21.33 7.46,20.63 6.39,19.93 5.53,19.24 4.89,18.53 4.25,17.82 3.74,17.04 3.36,16.19 2.98,15.34 2.72,14.53 2.59,13.77 2.46,13.01 2.39,12.17 2.39,11.25 2.39,10.6 2.42,9.99 2.47,9.44 2.52,8.89 2.63,8.3 2.79,7.67 2.95,7.04 3.17,6.46 3.43,5.92 3.69,5.38 4.06,4.83 4.51,4.26 4.96,3.69 5.49,3.16 6.1,2.69 6.71,2.22 7.44,1.74 8.31,1.27 9.18,0.8 10.16,0.38 11.24,0 9.2,0 7.32,0.5 5.59,1.51 3.86,2.52 2.52,3.88 1.51,5.61 0.5,7.34 0,9.21 0,11.25 Z"/></svg>