<?xml version='1.0' encoding='UTF-8'?>
<svg xmlns="http://www.w3.org/2000/svg" version="1.1" x="0px" y="0px" viewBox="0 0 11.25 22.51" width="255" height="512"><path d="m 0,22.51 c 2.04,0 3.92,-0.5 5.65,-1.51 1.73,-1.01 3.09,-2.37 4.09,-4.1 1,-1.73 1.51,-3.61 1.51,-5.65 C 11.25,9.21 10.75,7.33 9.74,5.6 8.73,3.87 7.37,2.51 5.65,1.51 3.93,0.51 2.04,0 0,0 c 1.1,0.59 2.07,1.32 2.89,2.19 0.82,0.87 1.47,1.82 1.95,2.83 0.48,1.01 0.83,2.03 1.05,3.07 0.22,1.04 0.34,2.09 0.34,3.16 0,0.91 -0.04,1.76 -0.13,2.54 -0.09,0.78 -0.27,1.63 -0.53,2.53 -0.26,0.9 -0.62,1.71 -1.06,2.43 C 4.07,19.47 3.47,20.17 2.69,20.84 1.91,21.51 1.02,22.06 0,22.51 Z"/></svg>