<?xml version='1.0' encoding='UTF-8'?>
<svg xmlns="http://www.w3.org/2000/svg" version="1.1" x="0px" y="0px" viewBox="0 0 18.75 22.41" width="428" height="512"><path d="m 0,11.2 c 0,1.22 0.19,2.4 0.56,3.54 0.37,1.14 0.91,2.17 1.6,3.09 0.69,0.92 1.5,1.72 2.42,2.42 0.92,0.7 1.95,1.23 3.09,1.6 1.14,0.37 2.32,0.56 3.54,0.56 5.03,-1.4 7.54,-5.14 7.54,-11.22 0,-1.18 -0.14,-2.3 -0.42,-3.37 C 18.05,6.75 17.68,5.81 17.2,4.99 16.72,4.17 16.16,3.42 15.52,2.75 14.88,2.08 14.18,1.51 13.46,1.07 12.74,0.63 11.99,0.26 11.2,0 9.68,0 8.22,0.3 6.83,0.89 5.44,1.48 4.28,2.28 3.28,3.28 2.28,4.28 1.48,5.47 0.89,6.85 0.3,8.23 0,9.68 0,11.2 Z"/></svg>