<?xml version='1.0' encoding='UTF-8'?>
<svg xmlns="http://www.w3.org/2000/svg" version="1.1" x="0px" y="0px" viewBox="0 0 14.48 22.540001" width="328" height="512"><path d="m 0,11.26 c 0,2.39 0.24,4.52 0.71,6.39 0.47,1.87 1.31,3.5 2.51,4.89 1.52,0 2.98,-0.3 4.37,-0.89 1.39,-0.59 2.59,-1.4 3.6,-2.4 1.01,-1 1.81,-2.2 2.4,-3.6 0.59,-1.4 0.89,-2.85 0.89,-4.39 0,-1.54 -0.3,-2.99 -0.89,-4.38 C 13,5.49 12.19,4.3 11.19,3.29 10.19,2.28 8.99,1.48 7.59,0.89 6.19,0.3 4.74,0 3.22,0 2.2,1.46 1.41,3.16 0.85,5.13 0.29,7.1 0,9.13 0,11.26 Z"/></svg>