<?xml version='1.0' encoding='UTF-8'?>
<svg xmlns="http://www.w3.org/2000/svg" version="1.1" x="0px" y="0px" viewBox="0 0 15.55 22.540001" width="353" height="512"><path d="m 0,11.25 c 0,1.19 0.07,2.29 0.2,3.3 0.13,1.01 0.35,2 0.67,2.99 0.32,0.99 0.76,1.9 1.33,2.75 0.57,0.85 1.27,1.59 2.09,2.25 1.53,0 2.99,-0.3 4.38,-0.89 1.39,-0.59 2.58,-1.4 3.59,-2.4 1.01,-1 1.81,-2.2 2.4,-3.6 0.59,-1.4 0.89,-2.85 0.89,-4.39 0,-2.04 -0.5,-3.93 -1.51,-5.65 C 13.03,3.89 11.67,2.51 9.94,1.51 8.21,0.51 6.33,0 4.29,0 2.94,1.3 1.89,2.94 1.13,4.93 0.37,6.92 0,9.01 0,11.25 Z"/></svg>