<?xml version='1.0' encoding='UTF-8'?>
<svg xmlns="http://www.w3.org/2000/svg" version="1.1" x="0px" y="0px" viewBox="0 0 22.51 22.51" width="512" height="512"><path d="M 0,11.25 C 0,9.73 0.3,8.27 0.89,6.88 1.48,5.49 2.29,4.3 3.29,3.29 4.29,2.28 5.49,1.48 6.88,0.89 8.27,0.3 9.72,0 11.25,0 c 1.53,0 2.98,0.3 4.37,0.89 1.39,0.59 2.59,1.4 3.6,2.4 1.01,1 1.81,2.2 2.4,3.59 0.59,1.39 0.89,2.84 0.89,4.37 0,1.53 -0.3,2.98 -0.89,4.37 -0.59,1.39 -1.4,2.59 -2.4,3.6 -1,1.01 -2.2,1.81 -3.6,2.4 -1.4,0.59 -2.85,0.89 -4.37,0.89 -1.52,0 -2.98,-0.3 -4.37,-0.89 -1.39,-0.59 -2.58,-1.4 -3.59,-2.4 -1.01,-1 -1.81,-2.2 -2.4,-3.6 C 0.3,14.22 0,12.78 0,11.25 Z M 12.64,1.29 c 1.64,0.9 2.99,2.2 4.04,3.9 1.05,1.7 1.57,3.72 1.57,6.06 0,4.9 -1.72,8.2 -5.16,9.89 2.35,-0.44 4.31,-1.59 5.87,-3.44 1.56,-1.85 2.34,-4 2.34,-6.45 C 21.3,9.59 20.92,8.04 20.16,6.59 19.4,5.14 18.36,3.96 17.03,3.02 15.7,2.08 14.26,1.52 12.64,1.29 Z"/></svg>