<?xml version='1.0' encoding='UTF-8'?>
<svg xmlns="http://www.w3.org/2000/svg" version="1.1" x="0px" y="0px" viewBox="0 0 11.25 22.51"><path d="m 0,22.51 c 2.04,0 3.92,-0.5 5.65,-1.51 1.73,-1.01 3.09,-2.37 4.09,-4.1 1,-1.73 1.51,-3.61 1.51,-5.65 C 11.25,9.21 10.75,7.33 9.74,5.6 8.73,3.87 7.37,2.51 5.65,1.51 3.93,0.51 2.04,0 0,0 c 1.29,1.39 2.24,3.07 2.84,5.05 0.6,1.98 0.91,4.05 0.91,6.2 0,0.88 -0.03,1.69 -0.08,2.44 C 3.62,14.44 3.51,15.24 3.35,16.1 3.19,16.96 2.97,17.75 2.71,18.47 2.45,19.19 2.08,19.9 1.62,20.62 1.16,21.34 0.61,21.95 0,22.51 Z"/></svg>