<?xml version='1.0' encoding='UTF-8'?>
<svg xmlns="http://www.w3.org/2000/svg" version="1.1" x="0px" y="0px" viewBox="0 0 16.629999 22.450001" width="379" height="512"><path d="m 0,11.24 c 0,1.22 0.19,2.4 0.56,3.54 0.37,1.14 0.91,2.17 1.6,3.09 0.69,0.92 1.5,1.72 2.42,2.42 0.92,0.7 1.95,1.23 3.09,1.6 1.14,0.37 2.32,0.56 3.54,0.56 3.61,-2.07 5.42,-5.81 5.42,-11.22 0,-1.31 -0.15,-2.56 -0.45,-3.74 C 15.88,6.31 15.47,5.25 14.95,4.32 14.43,3.39 13.85,2.57 13.23,1.86 12.61,1.15 11.93,0.53 11.21,0 9.69,0 8.23,0.3 6.84,0.89 5.45,1.48 4.26,2.28 3.26,3.29 2.26,4.3 1.46,5.49 0.87,6.88 0.28,8.27 0,9.71 0,11.24 Z"/></svg>