<?xml version='1.0' encoding='UTF-8'?>
<svg xmlns="http://www.w3.org/2000/svg" version="1.1" x="0px" y="0px" viewBox="0 0 11.25 22.51" width="255" height="512"><path d="m 0,22.51 c 2.04,0 3.92,-0.5 5.65,-1.51 1.73,-1.01 3.09,-2.37 4.09,-4.1 1,-1.73 1.51,-3.61 1.51,-5.65 C 11.25,9.21 10.75,7.33 9.74,5.6 8.73,3.87 7.37,2.51 5.65,1.51 3.93,0.51 2.04,0 0,0 1.32,0.52 2.48,1.2 3.47,2.06 4.46,2.92 5.25,3.85 5.82,4.88 6.39,5.91 6.81,6.95 7.09,8.01 7.37,9.07 7.5,10.15 7.5,11.25 7.5,11.89 7.48,12.51 7.43,13.09 7.38,13.67 7.28,14.29 7.14,14.96 7,15.63 6.81,16.24 6.58,16.82 6.35,17.4 6.04,17.97 5.66,18.56 5.28,19.15 4.83,19.67 4.31,20.14 3.79,20.61 3.17,21.06 2.44,21.47 1.71,21.88 0.89,22.22 0,22.51 Z"/></svg>