<?xml version='1.0' encoding='UTF-8'?>
<svg xmlns="http://www.w3.org/2000/svg" version="1.1" x="0px" y="0px" viewBox="0 0 22.51 22.51" width="512" height="512"><path d="M 0,11.25 C 0,9.73 0.3,8.27 0.89,6.88 1.48,5.49 2.29,4.3 3.29,3.29 4.29,2.28 5.49,1.48 6.88,0.89 8.27,0.3 9.72,0 11.25,0 c 1.53,0 2.98,0.3 4.37,0.89 1.39,0.59 2.59,1.4 3.6,2.4 1.01,1 1.81,2.2 2.4,3.59 0.59,1.39 0.89,2.84 0.89,4.37 0,1.53 -0.3,2.98 -0.89,4.37 -0.59,1.39 -1.4,2.59 -2.4,3.6 -1,1.01 -2.2,1.81 -3.6,2.4 -1.4,0.59 -2.85,0.89 -4.37,0.89 -1.52,0 -2.98,-0.3 -4.37,-0.89 -1.39,-0.59 -2.58,-1.4 -3.59,-2.4 -1.01,-1 -1.81,-2.2 -2.4,-3.6 C 0.3,14.22 0,12.78 0,11.25 Z m 1.2,0 c 0,1.37 0.27,2.67 0.8,3.91 0.53,1.24 1.25,2.31 2.15,3.21 0.9,0.9 1.97,1.61 3.21,2.15 1.24,0.54 2.54,0.8 3.9,0.8 h 0.38 c 0.67,-2.49 1.01,-5.84 1.01,-10.06 0,-3.82 -0.34,-7.17 -1.03,-10.05 H 11.25 C 9.89,1.21 8.59,1.48 7.35,2.01 6.11,2.54 5.05,3.25 4.15,4.15 3.25,5.05 2.54,6.12 2,7.36 1.46,8.6 1.2,9.9 1.2,11.25 Z"/></svg>