<?xml version='1.0' encoding='UTF-8'?>
<svg xmlns="http://www.w3.org/2000/svg" version="1.1" x="0px" y="0px" viewBox="0 0 22.51 22.51" width="512" height="512"><path d="M 0,11.25 C 0,9.73 0.3,8.27 0.89,6.88 1.48,5.49 2.29,4.3 3.29,3.29 4.29,2.28 5.49,1.48 6.88,0.89 8.27,0.3 9.72,0 11.25,0 c 1.53,0 2.98,0.3 4.37,0.89 1.39,0.59 2.59,1.4 3.6,2.4 1.01,1 1.81,2.2 2.4,3.59 0.59,1.39 0.89,2.84 0.89,4.37 0,1.53 -0.3,2.98 -0.89,4.37 -0.59,1.39 -1.4,2.59 -2.4,3.6 -1,1.01 -2.2,1.81 -3.6,2.4 -1.4,0.59 -2.85,0.89 -4.37,0.89 -1.52,0 -2.98,-0.3 -4.37,-0.89 -1.39,-0.59 -2.58,-1.4 -3.59,-2.4 -1.01,-1 -1.81,-2.2 -2.4,-3.6 C 0.3,14.22 0,12.78 0,11.25 Z M 11.41,1.2 c 1.83,3.22 2.74,6.57 2.74,10.05 0,4.16 -0.88,7.51 -2.65,10.06 1.34,-0.03 2.61,-0.32 3.82,-0.86 1.21,-0.54 2.25,-1.27 3.13,-2.16 0.88,-0.89 1.57,-1.95 2.09,-3.18 0.52,-1.23 0.78,-2.51 0.78,-3.86 0,-1.8 -0.44,-3.46 -1.33,-5 C 19.1,4.71 17.91,3.5 16.39,2.6 14.87,1.7 13.21,1.23 11.41,1.2 Z"/></svg>