<?xml version='1.0' encoding='UTF-8'?>
<svg xmlns="http://www.w3.org/2000/svg" version="1.1" x="0px" y="0px" viewBox="0 0 22.51 22.51" width="512" height="512"><path d="M 0,11.25 C 0,9.73 0.3,8.27 0.89,6.88 1.48,5.49 2.29,4.3 3.29,3.29 4.29,2.28 5.49,1.48 6.88,0.89 8.27,0.3 9.72,0 11.25,0 c 1.53,0 2.98,0.3 4.37,0.89 1.39,0.59 2.59,1.4 3.6,2.4 1.01,1 1.81,2.2 2.4,3.59 0.59,1.39 0.89,2.84 0.89,4.37 0,1.53 -0.3,2.98 -0.89,4.37 -0.59,1.39 -1.4,2.59 -2.4,3.6 -1,1.01 -2.2,1.81 -3.6,2.4 -1.4,0.59 -2.85,0.89 -4.37,0.89 -1.52,0 -2.98,-0.3 -4.37,-0.89 -1.39,-0.59 -2.58,-1.4 -3.59,-2.4 -1.01,-1 -1.81,-2.2 -2.4,-3.6 C 0.3,14.22 0,12.78 0,11.25 Z m 1.2,0 c 0,1.34 0.26,2.62 0.77,3.85 0.51,1.23 1.21,2.29 2.08,3.19 0.87,0.9 1.92,1.62 3.13,2.16 1.21,0.54 2.48,0.83 3.81,0.87 C 9.28,19 8.43,15.64 8.43,11.26 8.43,9.39 8.66,7.59 9.12,5.85 9.58,4.11 10.23,2.56 11.07,1.21 9.27,1.24 7.62,1.71 6.11,2.62 4.6,3.53 3.41,4.75 2.53,6.27 1.65,7.79 1.2,9.46 1.2,11.25 Z"/></svg>