<?xml version='1.0' encoding='UTF-8'?>
<svg xmlns="http://www.w3.org/2000/svg" version="1.1" x="0px" y="0px" viewBox="0 0 14.130235 14.2" width="509" height="512"><path d="M 0,7.1 C 0,6.14 0.19,5.23 0.56,4.35 0.93,3.47 1.44,2.72 2.07,2.09 2.7,1.46 3.46,0.95 4.34,0.57 5.22,0.19 6.14,0 7.09,0 H 8.23 C 8.39,0.04 8.46,0.14 8.46,0.28 L 8.51,1.16 C 8.55,2.43 9,3.51 9.88,4.4 c 0.88,0.89 1.94,1.37 3.19,1.42 l 0.82,0.07 c 0.16,0 0.24,0.08 0.24,0.23 V 7.1 c 0.01,1.28 -0.3,2.47 -0.93,3.56 -0.63,1.09 -1.48,1.95 -2.57,2.59 C 9.55,13.88 8.36,14.2 7.08,14.2 6.11,14.2 5.18,14.01 4.3,13.64 3.42,13.27 2.67,12.76 2.04,12.13 1.41,11.5 0.91,10.74 0.54,9.87 0.19,8.99 0,8.07 0,7.1 Z m 1.83,0 c 0,0.76 0.15,1.48 0.45,2.16 0.3,0.67 0.7,1.24 1.19,1.7 0.49,0.46 1.05,0.82 1.69,1.08 0.63,0.27 1.28,0.4 1.94,0.4 0.58,0 1.17,-0.11 1.76,-0.34 0.59,-0.23 1.14,-0.55 1.65,-0.96 0.51,-0.41 0.94,-0.93 1.31,-1.57 0.37,-0.64 0.6,-1.33 0.71,-2.09 C 10.9,7.14 9.59,6.44 8.61,5.38 7.63,4.32 7.06,3.08 6.91,1.64 5.95,1.7 5.09,1.99 4.3,2.52 3.52,3.05 2.91,3.72 2.48,4.54 2.05,5.36 1.83,6.21 1.83,7.1 Z"/></svg>