<?xml version='1.0' encoding='UTF-8'?>
<svg xmlns="http://www.w3.org/2000/svg" version="1.1" x="0px" y="0px" viewBox="0 0 23.799999 12.75" width="955" height="512"><path d="M 0,8.02 C 0,8.26 0.09,8.47 0.28,8.64 0.44,8.83 0.65,8.92 0.91,8.92 H 15.6 c 0.29,0 0.53,0.1 0.73,0.3 0.2,0.2 0.3,0.45 0.3,0.74 0,0.29 -0.1,0.53 -0.3,0.72 -0.2,0.19 -0.44,0.29 -0.74,0.29 -0.29,0 -0.54,-0.1 -0.73,-0.29 -0.16,-0.18 -0.36,-0.26 -0.6,-0.26 -0.25,0 -0.46,0.09 -0.64,0.26 -0.18,0.17 -0.27,0.38 -0.27,0.61 0,0.25 0.09,0.46 0.28,0.63 0.56,0.55 1.22,0.83 1.96,0.83 0.78,0 1.45,-0.27 2.01,-0.81 0.56,-0.54 0.83,-1.19 0.83,-1.97 0,-0.78 -0.28,-1.44 -0.84,-2 -0.56,-0.56 -1.23,-0.84 -2,-0.84 H 0.91 C 0.66,7.13 0.45,7.22 0.27,7.39 0.09,7.56 0,7.77 0,8.02 Z M 0,4.74 c 0,0.23 0.09,0.43 0.28,0.61 0.17,0.18 0.38,0.26 0.63,0.26 h 20.04 c 0.78,0 1.45,-0.27 2.01,-0.82 C 23.52,4.25 23.8,3.59 23.8,2.82 23.8,2.05 23.52,1.38 22.96,0.83 22.4,0.28 21.73,0 20.95,0 20.18,0 19.53,0.27 19,0.8 c -0.18,0.16 -0.27,0.38 -0.27,0.67 0,0.26 0.09,0.47 0.26,0.63 0.17,0.16 0.38,0.24 0.63,0.24 0.24,0 0.45,-0.08 0.63,-0.24 0.19,-0.21 0.42,-0.31 0.7,-0.31 0.29,0 0.53,0.1 0.73,0.3 0.2,0.2 0.3,0.44 0.3,0.73 0,0.29 -0.1,0.53 -0.3,0.72 -0.2,0.19 -0.44,0.29 -0.73,0.29 H 0.91 C 0.66,3.83 0.45,3.92 0.27,4.09 0.09,4.28 0,4.49 0,4.74 Z"/></svg>