<?xml version='1.0' encoding='UTF-8'?>
<svg xmlns="http://www.w3.org/2000/svg" version="1.1" x="0px" y="0px" viewBox="0 0 5.04 12.73" width="202" height="512"><path d="m 0,10.16 c 0,0.71 0.24,1.32 0.73,1.82 0.49,0.5 1.07,0.75 1.76,0.75 0.69,0 1.28,-0.25 1.79,-0.75 0.51,-0.5 0.76,-1.11 0.76,-1.81 C 5.04,9.54 4.82,8.98 4.39,8.5 3.96,8.02 3.43,7.73 2.82,7.65 V 0.29 C 2.82,0.23 2.79,0.16 2.72,0.1 2.65,0.03 2.58,0 2.5,0 2.41,0 2.34,0.03 2.29,0.08 2.24,0.14 2.21,0.2 2.21,0.29 V 7.63 C 1.6,7.72 1.08,8 0.65,8.48 0.21,8.97 0,9.52 0,10.16 Z"/></svg>