<?xml version='1.0' encoding='UTF-8'?>
<svg xmlns="http://www.w3.org/2000/svg" version="1.1" x="0px" y="0px" viewBox="0 0 20.709999 7.3099999" width="1450" height="512"><path d="M 0,3.68 C 0,3.46 0.08,3.27 0.23,3.12 0.39,2.97 0.58,2.9 0.8,2.9 h 12.08 c 0.22,0 0.4,0.07 0.54,0.22 0.14,0.15 0.22,0.34 0.22,0.57 0,0.22 -0.07,0.4 -0.22,0.54 -0.14,0.14 -0.32,0.22 -0.54,0.22 H 0.8 C 0.58,4.45 0.38,4.38 0.23,4.23 0.07,4.08 0,3.9 0,3.68 Z M 2.41,0.78 C 2.41,0.56 2.49,0.38 2.64,0.23 2.79,0.08 2.98,0 3.2,0 h 12.09 c 0.21,0 0.39,0.08 0.54,0.23 0.15,0.15 0.22,0.33 0.22,0.55 0,0.22 -0.07,0.4 -0.22,0.56 -0.15,0.15 -0.33,0.23 -0.54,0.23 H 3.21 C 2.99,1.57 2.8,1.49 2.65,1.34 2.5,1.19 2.41,1 2.41,0.78 Z M 4.03,6.52 C 4.03,6.31 4.11,6.13 4.27,5.98 4.41,5.84 4.59,5.76 4.81,5.76 h 12.1 c 0.22,0 0.41,0.07 0.56,0.22 0.15,0.14 0.22,0.32 0.22,0.54 0,0.22 -0.08,0.41 -0.23,0.56 -0.15,0.15 -0.34,0.23 -0.56,0.23 H 4.81 C 4.59,7.31 4.41,7.23 4.25,7.08 4.09,6.93 4.03,6.74 4.03,6.52 Z M 14.61,3.68 c 0,-0.23 0.07,-0.42 0.22,-0.57 0.15,-0.15 0.34,-0.22 0.57,-0.22 h 4.52 c 0.23,0 0.42,0.07 0.57,0.22 0.15,0.15 0.22,0.34 0.22,0.56 0,0.22 -0.07,0.4 -0.22,0.54 -0.15,0.14 -0.34,0.22 -0.56,0.22 H 15.41 C 15.18,4.43 14.99,4.36 14.84,4.21 14.68,4.08 14.61,3.9 14.61,3.68 Z"/></svg>