<?xml version="1.0" encoding="UTF-8"?>
<svg xmlns="http://www.w3.org/2000/svg" width="24" height="24" viewBox="0 0 24 24" aria-hidden="false" focusable="false" class="flex-none" aria-label="Mostly Cloudy" role="img">
 <g class="uds-light-mode-icon">
  <path fill="#FFD333" d="M7.96 4.5c2.455 0 4.46 2.006 4.46 4.5s-2.005 4.5-4.46 4.5C5.508 13.5 3.5 11.495 3.5 9s2.007-4.5 4.46-4.5"></path><path fill="#000000" d="M8.268 3.008C11.417 3.168 13.92 5.79 13.92 9l-.008.309c-.16 3.17-2.763 5.69-5.952 5.691l-.307-.008C4.504 14.832 2 12.21 2 9c0-3.314 2.669-6 5.96-6zM7.96 4.5C5.507 4.5 3.5 6.505 3.5 9s2.007 4.5 4.46 4.5c2.455 0 4.46-2.005 4.46-4.5s-2.005-4.5-4.46-4.5"></path><path fill="#FFFFFF" d="M12.27 8.853c1.905 0 3.538 1.248 4.116 3.002l.279.85.88.157A3.599 3.599 0 0 1 16.902 20H6.863a2.823 2.823 0 0 1-2.807-2.534l-.015-.288a2.823 2.823 0 0 1 2.548-2.81l1.275-.122.08-1.278c.142-2.31 2.037-4.115 4.327-4.115"></path><path fill="#000000" d="M12.27 7.353c2.58 0 4.769 1.69 5.54 4.033a5.1 5.1 0 0 1-.908 10.114H6.863a4.322 4.322 0 0 1-.417-8.625c.19-3.082 2.724-5.522 5.825-5.522m0 1.5c-2.289 0-4.184 1.806-4.327 4.115l-.079 1.278-1.275.122a2.823 2.823 0 0 0-2.548 2.81l.015.288A2.823 2.823 0 0 0 6.863 20h10.04a3.598 3.598 0 0 0 .642-7.138l-.88-.158-.28-.849c-.577-1.754-2.21-3.002-4.115-3.002"></path>
 </g>
</svg>

