<?xml version="1.0" encoding="UTF-8"?>
<svg xmlns="http://www.w3.org/2000/svg" width="32" height="32" viewBox="0 0 32 32" aria-hidden="false" focusable="false" class="flex-none" aria-label="Partly Cloudy" role="img">
 <g class="uds-dark-mode-icon">
  <path fill="#6001D2" d="M19.348 3.278c5.679 1.423 9.885 6.56 9.885 12.68a13 13 0 0 1-1.362 5.812l-.042.083q-.412.812-.927 1.556l-.02.029a13 13 0 0 1-1.115 1.383l-.197.207-.22.224q-.127.124-.256.245l-.196.183q-.115.102-.233.201-.142.124-.287.243l-.024.02q-.228.183-.463.356l-.03.022q-.232.17-.472.33l-.038.024q-.246.162-.498.313l-.024.014q-.246.147-.5.283l-.065.035q-.251.132-.508.255-.061.03-.124.057l-.112.051a13 13 0 0 1-.616.259l-.079.03q-.258.1-.522.189l-.09.028-.204.065-.097.029a13 13 0 0 1-1.153.289l-.038.008q-.455.09-.921.149l-.053.006q-.133.016-.268.03l-.085.008a13 13 0 0 1-1.236.059q-.621-.002-1.228-.06l-.145-.013q-.18-.019-.36-.043l-.055-.007-.318-.048-.149-.025-.261-.049-.154-.03q-.15-.03-.297-.066l-.14-.032a13 13 0 0 1-.666-.182l-.193-.06-.239-.079-.148-.05a13 13 0 0 1-.437-.164l-.203-.08-.21-.09a14 14 0 0 1-.385-.175q-.096-.044-.192-.092l-.228-.117-.162-.084-.159-.088q-.625-.346-1.206-.757l-.084-.06-.125-.091-.23-.173-.12-.095q-.099-.077-.196-.155l-.164-.139-.191-.165-.077-.07q-.117-.103-.23-.21l-.15-.144q-.063-.06-.125-.122a14 14 0 0 1-.631-.675l-.095-.109-.16-.194-.125-.153q-.074-.093-.146-.188l-.106-.139a13 13 0 0 1-.417-.595l-.079-.118q-.233-.36-.441-.735l-.21-.392a.45.45 0 0 1-.016-.39.535.535 0 0 1 .664-.286c.973.335 2.004.543 3.074.607l.211.013.494.01q.821-.002 1.612-.113a11.654 11.654 0 0 0 9.963-10.217q.059-.505.074-1.022l.004-.3q0-.075-.003-.147A11.6 11.6 0 0 0 19.04 4.4l-.204-.34a.54.54 0 0 1-.033-.513.465.465 0 0 1 .545-.27"></path><path fill="#000000" d="M15.956 10.7a3.25 3.25 0 0 1 3.024 2.038l.37.925.987.13a2.265 2.265 0 0 1 1.953 2.032l.01.213a2.265 2.265 0 0 1-2.265 2.265h-1.348V18.3H11.11a1.91 1.91 0 0 1-1.9-1.714l-.01-.196a1.91 1.91 0 0 1 1.714-1.9l.195-.01h1.374l.31-1.306a3.24 3.24 0 0 1 2.878-2.463z"></path><path fill="#FFFFFF" d="M15.956 9a4.95 4.95 0 0 1 4.604 3.108 3.965 3.965 0 0 1-.525 7.895h-3.048V20H11.11a3.61 3.61 0 0 1 0-7.219h.032A4.944 4.944 0 0 1 15.956 9m-.285 1.712a3.24 3.24 0 0 0-2.877 2.463l-.31 1.306h-1.375l-.195.01a1.91 1.91 0 0 0-1.714 1.9l.01.195a1.91 1.91 0 0 0 1.9 1.714h7.578v.003h1.347a2.265 2.265 0 0 0 2.265-2.265l-.01-.213a2.265 2.265 0 0 0-1.953-2.031l-.987-.131-.37-.925a3.25 3.25 0 0 0-3.024-2.038z"></path>
 </g>
</svg>
