<?xml version="1.0" encoding="UTF-8"?>
<svg xmlns="http://www.w3.org/2000/svg" width="32" height="32" viewBox="0 0 32 32" aria-hidden="false" focusable="false" class="flex-none" aria-label="Mostly Sunny" role="img">
 <g class="uds-light-mode-icon">
  <path fill="#FFD333" d="M16 8.7a7.3 7.3 0 1 1 0 14.6 7.3 7.3 0 0 1 0-14.6"></path><path fill="#000000" d="M16 7a9 9 0 1 1 0 18 9 9 0 0 1 0-18m0 1.7a7.3 7.3 0 1 0 0 14.6 7.3 7.3 0 0 0 0-14.6m.85-7.7v4.286h-1.7V1zm0 25.714v4.287h-1.7v-4.287zM5.286 16.85H1v-1.7h4.286z"></path><path fill="#000000" d="M5.286 16.85H1v-1.7h4.286zm20.72 10.357-3.03-3.03 1.2-1.202 3.031 3.03zM7.823 9.025l-3.03-3.031 1.2-1.202 3.032 3.031zm-3.03 16.981 3.03-3.03 1.202 1.2-3.03 3.031zM22.975 7.823l3.031-3.03 1.202 1.2-3.031 3.032z"></path><path fill="#FFFFFF" d="M23.688 12.7a2.8 2.8 0 0 1 2.605 1.755l.37.926.986.13c.874.116 1.56.826 1.643 1.709l.008.178a1.904 1.904 0 0 1-1.905 1.905h-1.07V19.3h-7.044a1.58 1.58 0 0 1-1.573-1.42l-.008-.161a1.58 1.58 0 0 1 1.581-1.581h1.371l.31-1.307a2.79 2.79 0 0 1 2.48-2.12z"></path><path fill="#000000" d="M23.688 11a4.5 4.5 0 0 1 4.184 2.826 3.605 3.605 0 0 1-.477 7.177h-2.77V21h-5.344a3.281 3.281 0 0 1 0-6.562h.029A4.495 4.495 0 0 1 23.688 11m-.247 1.71a2.79 2.79 0 0 0-2.478 2.121l-.31 1.307H19.28a1.58 1.58 0 0 0-1.58 1.58l.007.163A1.58 1.58 0 0 0 19.28 19.3h7.044v.003h1.07a1.904 1.904 0 0 0 1.905-1.905l-.008-.178a1.905 1.905 0 0 0-1.643-1.708l-.987-.131-.369-.926a2.8 2.8 0 0 0-2.605-1.755z"></path>
 </g>
</svg>

