<?xml version="1.0" encoding="UTF-8"?>
<svg xmlns="http://www.w3.org/2000/svg" width="32" height="32" viewBox="0 0 32 32" aria-hidden="false" focusable="false" class="flex-none" aria-label="Clear" role="img">
 <g class="uds-light-mode-icon">
  <path fill="#CAC2FF" d="M21.322 6.05a11.17 11.17 0 0 1 6.01 9.908l-.014.575c-.3 5.904-5.181 10.6-11.16 10.6a11.17 11.17 0 0 1-9.585-5.43c.452.045.91.072 1.375.072l.35-.004C15.62 21.585 21.5 15.589 21.5 8.22l-.004-.325a14 14 0 0 0-.174-1.847"></path><path fill="#000000" d="M18.8 3.977c-.149-.38.169-.794.565-.695 5.67 1.43 9.867 6.563 9.867 12.677l-.004.338c-.179 7.064-5.962 12.736-13.07 12.736l-.544-.01c-5.422-.223-9.992-3.748-11.753-8.617l-.166-.491c-.124-.39.27-.732.66-.606.99.321 2.038.514 3.125.557l.468.009c6.335 0 11.489-5.056 11.648-11.353l.004-.3c0-1.311-.217-2.571-.617-3.747zm2.521 2.072c.098.604.16 1.22.175 1.847l.004.325c0 7.368-5.88 13.364-13.203 13.55l-.35.004c-.463 0-.922-.027-1.374-.072a11.17 11.17 0 0 0 9.585 5.43c5.979 0 10.86-4.696 11.16-10.6l.013-.575c0-4.306-2.438-8.044-6.01-9.909"></path>
 </g>
</svg>

