<?xml version="1.0" encoding="UTF-8"?>
<svg xmlns="http://www.w3.org/2000/svg" width="32" height="32" viewBox="0 0 32 32" aria-hidden="false" focusable="false" class="flex-none" aria-label="Scattered Showers" role="img">
 <g class="uds-dark-mode-icon">
  <path fill="#644300" d="M16.5 3a9 9 0 1 1 0 18 9 9 0 0 1 0-18"></path><path fill="#000000" d="M21.983 12.4c1.557 0 2.884.958 3.421 2.306l.418 1.046 1.117.148a2.56 2.56 0 0 1 2.21 2.297l.01.241A2.56 2.56 0 0 1 26.597 21h-1.524v-.003H16.5a2.16 2.16 0 0 1-2.148-1.939l-.011-.221a2.16 2.16 0 0 1 2.16-2.16h1.554l.351-1.478a3.67 3.67 0 0 1 3.253-2.786z"></path><path fill="#FFFFFF" d="M21.956 11.5a4.95 4.95 0 0 1 4.604 3.108 3.965 3.965 0 0 1-.525 7.895h-3.048V22.5H17.11a3.61 3.61 0 0 1 0-7.219h.032a4.944 4.944 0 0 1 4.815-3.781m-.286 1.712a3.24 3.24 0 0 0-2.876 2.463l-.31 1.306H17.11a1.91 1.91 0 0 0-1.909 1.91l.01.195a1.91 1.91 0 0 0 1.9 1.714h7.578v.003h1.347a2.265 2.265 0 0 0 2.265-2.265l-.01-.213a2.265 2.265 0 0 0-1.953-2.031l-.987-.13-.37-.926a3.25 3.25 0 0 0-3.024-2.038z"></path><path fill="#000000" d="M9.716 3c1.365 0 2.528.839 2.999 2.02l.425 1.066 1.136.15a2.19 2.19 0 0 1 1.891 1.966l.009.206c0 1.21-.981 2.192-2.192 2.192h-1.232v-.003H4.644a1.82 1.82 0 0 1-1.811-1.634l-.009-.186a1.82 1.82 0 0 1 1.633-1.811l.187-.01h1.578l.358-1.503a3.215 3.215 0 0 1 2.853-2.44z"></path><path fill="#FFFFFF" d="M9.688 2a4.5 4.5 0 0 1 4.184 2.826 3.605 3.605 0 0 1-.476 7.177h-2.771V12H5.281a3.281 3.281 0 0 1 0-6.562h.029A4.495 4.495 0 0 1 9.688 2M9.44 3.71a2.79 2.79 0 0 0-2.478 2.121l-.31 1.307H5.28l-.162.008A1.58 1.58 0 0 0 3.7 8.719l.008.162A1.58 1.58 0 0 0 5.281 10.3h7.044v.003h1.07A1.904 1.904 0 0 0 15.3 8.398l-.008-.178a1.905 1.905 0 0 0-1.643-1.708l-.987-.131-.369-.926A2.8 2.8 0 0 0 9.688 3.7z"></path><path fill="#0063EB" d="M23.406 29.29a.85.85 0 0 1-1.663-.361zm-.529-5.555a.85.85 0 0 1 1.652.36l-.013.086-1.11 5.108-.832-.18-.83-.18 1.11-5.11zm3.425.002a.85.85 0 0 1 1.64.442l-.86 4a.85.85 0 0 1-1.663-.358l.86-4zm-7.119-.004a.85.85 0 0 1 1.651.365l-.014.086-.68 3.078-.023.084a.85.85 0 0 1-1.636-.45l.68-3.08zm-3.359 5.584a.85.85 0 0 1-1.648-.417zm-.353-5.526a.85.85 0 0 1 1.648.418l-1.295 5.108-.824-.209-.824-.208z"></path>
 </g>
</svg>
