<?xml version="1.0" encoding="UTF-8"?>
<svg xmlns="http://www.w3.org/2000/svg" width="24" height="24" viewBox="0 0 24 24" aria-hidden="false" focusable="false" class="flex-none" aria-label="Thunderstorms" role="img">
 <g class="uds-light-mode-icon">
  <path fill="#0063EB" d="M6.45 15.483a.7.7 0 0 1 .507.85l-1.216 4.838a.7.7 0 0 1-1.357-.342L5.6 15.991a.7.7 0 0 1 .85-.508m12.14 0a.7.7 0 0 1 .508.85l-1.216 4.838a.7.7 0 0 1-1.358-.342l1.216-4.838a.7.7 0 0 1 .85-.508"></path><path fill="#FFD333" d="M14.329 13.128h.022q.011.002.01.014l-1.007 3.308-.008.031.001.01q.003.003.009.003h2.025a.01.01 0 0 1 .007.015l-3.701 5.087-.005.006-.01.003a.01.01 0 0 1-.007-.008l.001-4.14a.01.01 0 0 0-.01-.01l-2.245.001-.007-.005-.001-.008 1.777-4.323q.004-.006.01-.006z"></path><path fill="#000000" d="M14.535 11.74a1.41 1.41 0 0 1 1.206 1.64l-.04.169-.471 1.544h.15l.107.004c1.05.075 1.65 1.252 1.093 2.147l-.06.088-3.705 5.094c-.778 1.07-2.443.57-2.546-.704l-.005-.126v-2.749h-.852a1.41 1.41 0 0 1-1.305-1.945l1.778-4.322.045-.097a1.41 1.41 0 0 1 1.27-.777l3.161.023zm-.184 1.389-3.161-.023q-.006 0-.01.006l-1.777 4.323v.008l.008.005h2.246a.01.01 0 0 1 .01.009l-.002 4.14q0 .006.006.008l.011-.003.005-.006 3.701-5.087a.01.01 0 0 0-.008-.016h-2.025l-.008-.003q-.003-.003 0-.009l.007-.03 1.008-3.31q0-.01-.011-.012"></path><path fill="#B0B9C1" d="M12 3.5c1.7 0 3.166 1.061 3.765 2.584l.326.831.886.11a3.166 3.166 0 0 1 2.76 2.84l.013.3a3.165 3.165 0 0 1-3.165 3.164H6.832a2.582 2.582 0 0 1-.441-5.126l.246-.03 1.178-.088.192-1.165C8.327 4.97 10.003 3.5 12 3.5"></path><path fill="#000000" d="M12 2c2.343 0 4.346 1.464 5.16 3.535a4.665 4.665 0 0 1-.575 9.294H6.832a4.082 4.082 0 0 1-.306-8.152C6.962 4.023 9.246 2 12 2m0 1.5c-1.997 0-3.673 1.47-3.993 3.42l-.192 1.165-1.178.088-.246.03a2.583 2.583 0 0 0 .441 5.126h9.753a3.165 3.165 0 0 0 3.165-3.165l-.014-.299a3.166 3.166 0 0 0-2.76-2.84l-.885-.11-.326-.831A4.05 4.05 0 0 0 12 3.5"></path>
 </g>
</svg>
