<?xml version="1.0" encoding="UTF-8"?>
<svg xmlns="http://www.w3.org/2000/svg" width="32" height="32" viewBox="0 0 32 32" aria-hidden="false" focusable="false" class="flex-none" aria-label="Mostly Clear" role="img">
 <g class="uds-light-mode-icon">
  <path fill="#CAC2FF" d="M21.606 5.973a11.37 11.37 0 0 1 5.926 9.985l-.014.585c-.305 6.01-5.274 10.79-11.36 10.79-3.381 0-6.42-1.477-8.504-3.824.426.041.858.066 1.294.066l.344-.005c7.215-.183 13.008-6.09 13.008-13.35l-.009-.483a13.3 13.3 0 0 0-.685-3.765"></path><path fill="#000000" d="M19.348 3.278c5.678 1.424 9.884 6.56 9.884 12.68l-.005.338c-.179 7.065-5.962 12.736-13.069 12.737l-.474-.01a13.07 13.07 0 0 1-10.954-6.71l-.21-.392c-.206-.402.22-.822.649-.675 1.037.356 2.14.57 3.285.619l.494.01c6.335 0 11.49-5.056 11.649-11.352l.003-.3c0-2.122-.569-4.11-1.56-5.822l-.204-.339c-.24-.384.073-.893.512-.783m2.258 2.695c.4 1.19.638 2.453.685 3.765l.009.483c0 7.26-5.793 13.166-13.008 13.349l-.344.005c-.436 0-.868-.025-1.294-.066a11.34 11.34 0 0 0 8.504 3.823c6.086 0 11.055-4.779 11.36-10.789l.014-.585c0-4.306-2.395-8.054-5.926-9.985"></path><path fill="#FFFFFF" d="M15.956 10.7a3.25 3.25 0 0 1 3.024 2.038l.37.925.987.13a2.265 2.265 0 0 1 1.953 2.032l.01.213a2.264 2.264 0 0 1-2.265 2.265h-1.348V18.3H11.11a1.91 1.91 0 0 1-1.899-1.714l-.01-.195a1.91 1.91 0 0 1 1.714-1.9l.195-.01h1.374l.31-1.306a3.24 3.24 0 0 1 2.878-2.463z"></path><path fill="#000000" d="M15.956 9a4.95 4.95 0 0 1 4.604 3.108 3.965 3.965 0 0 1-.525 7.895h-3.048V20H11.11a3.61 3.61 0 0 1 0-7.219h.032A4.944 4.944 0 0 1 15.956 9m-.285 1.712a3.24 3.24 0 0 0-2.877 2.463l-.31 1.306h-1.375l-.195.01a1.91 1.91 0 0 0-1.714 1.9l.01.195a1.91 1.91 0 0 0 1.9 1.714h7.578v.003h1.347a2.264 2.264 0 0 0 2.265-2.265l-.01-.213a2.265 2.265 0 0 0-1.953-2.031l-.987-.13-.37-.926a3.25 3.25 0 0 0-3.024-2.038z"></path>
 </g>
</svg>

