<?xml version="1.0" encoding="UTF-8"?>
<svg xmlns="http://www.w3.org/2000/svg" width="32" height="32" viewBox="0 0 32 32" aria-hidden="false" focusable="false" class="flex-none" aria-label="Flurries" role="img">
 <g class="uds-light-mode-icon">
  <path fill="#0063EB" d="M26 20.3a.7.7 0 0 1 .686.558L26.7 21v2.788l2.415-1.394.13-.058a.701.701 0 0 1 .686 1.187l-.116.083L27.4 25l2.415 1.395.115.082a.7.7 0 0 1-.686 1.187l-.129-.058-2.415-1.394V29l-.014.14a.7.7 0 0 1-1.37 0L25.3 29l-.001-2.788-2.412 1.394-.13.058a.7.7 0 0 1-.686-1.187l.116-.082L24.6 25l-2.415-1.394-.116-.083a.7.7 0 0 1 .686-1.187l.13.058 2.414 1.394V21l.014-.142A.7.7 0 0 1 26 20.3m-12.499-18a.7.7 0 0 1 .7.7v2.309l.803-.803a.7.7 0 0 1 .99.99L14.201 7.29v4.52l3.194-3.195v-2.54l.015-.141a.7.7 0 0 1 1.371 0l.015.141v1.139L20.43 5.58a.7.7 0 0 1 .99.99l-1.633 1.633h1.137l.141.015a.7.7 0 0 1 0 1.37l-.141.016h-2.537L15.19 12.8h4.518l1.796-1.796.11-.09a.7.7 0 0 1 .97.97l-.09.11-.805.806H24a.7.7 0 0 1 0 1.4h-2.31l.804.804a.7.7 0 0 1-.99.99L19.71 14.2h-4.52l3.196 3.195h2.539l.141.015a.7.7 0 0 1 0 1.371l-.141.015h-1.139l1.634 1.634a.7.7 0 0 1-.99.99l-1.633-1.633v1.137a.7.7 0 0 1-1.4 0v-2.537L14.2 15.19v4.518l1.795 1.795.09.11a.701.701 0 0 1-.97.97l-.11-.09-.805-.805V24a.7.7 0 0 1-1.4 0v-2.31l-.805.804a.7.7 0 0 1-.99-.99l1.795-1.795v-4.52l-3.197 3.197v2.539l-.014.141a.7.7 0 0 1-1.371 0l-.015-.141v-1.139L6.57 21.42a.7.7 0 0 1-.99-.99l1.633-1.633H6.076a.7.7 0 0 1 0-1.4h2.537L11.81 14.2H7.292l-1.796 1.796-.11.09a.701.701 0 0 1-.97-.97l.09-.11.806-.806H3a.7.7 0 0 1 0-1.4h2.31l-.804-.804a.7.7 0 0 1 .99-.99L7.29 12.8h4.52L8.614 9.604H6.075l-.141-.014a.7.7 0 0 1 0-1.371l.141-.015h1.139L5.58 6.57a.7.7 0 0 1 .99-.99l1.633 1.633V6.076a.7.7 0 0 1 1.4 0v2.537l3.198 3.198V7.292l-1.797-1.797-.09-.11a.701.701 0 0 1 .97-.97l.11.09.807.806V3a.7.7 0 0 1 .7-.7"></path>
 </g>
</svg>

