<?xml version="1.0" encoding="UTF-8"?>
<svg xmlns="http://www.w3.org/2000/svg" width="24" height="24" viewBox="0 0 24 24" aria-hidden="false" focusable="false" class="flex-none" aria-label="Sunny" role="img">
 <g class="uds-light-mode-icon">
  <path fill="#FFD333" d="M12 7a5 5 0 1 1 0 10 5 5 0 0 1 0-10"></path><path fill="#000000" d="M12 5.5a6.5 6.5 0 1 1 0 13 6.5 6.5 0 0 1 0-13M12 7a5 5 0 1 0 0 10 5 5 0 0 0 0-10m.75-6v3.143h-1.5V1zm0 18.857V23h-1.5v-3.143zM23 12.75h-3.142v-1.5H23zm-18.857 0H1v-1.5h3.143z"></path><path fill="#000000" d="M4.143 12.75H1v-1.5h3.143zm15.105 7.558-2.222-2.222 1.06-1.06 2.223 2.222zM5.914 6.974 3.692 4.752l1.06-1.06 2.223 2.222zM3.692 19.248l2.222-2.222 1.06 1.06-2.222 2.222zM17.025 5.914l2.223-2.222 1.06 1.06-2.222 2.222z"></path>
 </g>
</svg>

