<?xml version="1.0" encoding="UTF-8"?>
<svg xmlns="http://www.w3.org/2000/svg" width="32" height="32" viewBox="0 0 32 32" aria-hidden="false" focusable="false" class="flex-none" aria-label="Showers" role="img">
 <g class="uds-light-mode-icon">
  <path fill="#B0B9C1" d="M16.033 3.53a5.36 5.36 0 0 1 4.978 3.378l.375.945 1.01.115a4.18 4.18 0 0 1 3.692 3.952l.005.2a4.18 4.18 0 0 1-4.18 4.18H9.418a3.446 3.446 0 0 1-3.441-3.268l-.004-.177a3.446 3.446 0 0 1 3.047-3.42l.167-.015 1.344-.089.221-1.329a5.356 5.356 0 0 1 5.034-4.465z"></path><path fill="#000000" d="M16.033 1.83a7.06 7.06 0 0 1 6.557 4.45A5.88 5.88 0 0 1 21.913 18H9.418a5.145 5.145 0 0 1-.343-10.277 7.056 7.056 0 0 1 6.958-5.893m-.247 1.706a5.356 5.356 0 0 0-5.034 4.465l-.22 1.33-1.345.088-.167.015a3.446 3.446 0 0 0-3.047 3.422l.004.176A3.446 3.446 0 0 0 9.418 16.3h12.495a4.18 4.18 0 0 0 4.18-4.18l-.005-.2a4.18 4.18 0 0 0-3.692-3.952l-1.01-.115-.375-.945a5.36 5.36 0 0 0-4.978-3.378z"></path><path fill="#000000" d="M11.227 13.647c1.213-2.664 3.17-3.906 5.136-4.324 1.916-.408 3.794-.027 4.96.453l-.646 1.572c-.92-.379-2.447-.685-3.96-.363-1.466.312-2.965 1.22-3.943 3.367z"></path><path fill="#0063EB" d="M20.722 20.635a.851.851 0 0 1 1.662.36l-1.37 6.305a.85.85 0 0 1-1.661-.362zm-4.931-.068a.85.85 0 0 1 1.66.325l-.012.086-1.605 8.185a.85.85 0 0 1-1.668-.326l1.605-8.185zm-4.463 5.685a.85.85 0 0 1-1.66-.366zm-.478-5.703a.85.85 0 0 1 1.638.45l-1.16 5.253-.83-.184-.83-.182 1.16-5.254z"></path>
 </g>
</svg>

