<?xml version="1.0" encoding="UTF-8"?>
<svg xmlns="http://www.w3.org/2000/svg" width="32" height="32" viewBox="0 0 32 32" aria-hidden="false" focusable="false" class="flex-none" aria-label="Mostly Cloudy" role="img">
 <g class="uds-light-mode-icon">
  <path fill="#CAC2FF" d="M11.813 5.86a6.8 6.8 0 1 1-7.585 9.61 7.7 7.7 0 0 0 7.545-7.698l-.005-.256a7.7 7.7 0 0 0-.252-1.714z"></path><path fill="#000000" d="M10.72 4.009a8.5 8.5 0 0 1 8.125 8.491l-.011.438A8.5 8.5 0 0 1 10.345 21l-.385-.009a8.5 8.5 0 0 1-7.87-6.458l-.08-.362c-.072-.366.294-.65.658-.563q.507.123 1.042.156l.36.01a6.003 6.003 0 0 0 5.994-5.693l.008-.309c0-.94-.216-1.829-.602-2.62l-.176-.334c-.184-.325-.011-.759.362-.79q.34-.027.69-.028zm.796 1.793a7.8 7.8 0 0 1 .252 1.714l.005.256a7.703 7.703 0 0 1-7.545 7.699A6.801 6.801 0 0 0 17.145 12.5a6.8 6.8 0 0 0-5.63-6.698"></path><path fill="#FFFFFF" d="M18 13.42a5.5 5.5 0 0 1 5.216 3.756l.322.966 1.004.17a4.53 4.53 0 0 1 3.753 4.252l.005.21c0 2.5-2.027 4.526-4.527 4.526H11.28a3.58 3.58 0 0 1-3.575-3.396L7.7 23.72a3.58 3.58 0 0 1 3.264-3.566l1.457-.127.092-1.46a5.5 5.5 0 0 1 5.214-5.14z"></path><path fill="#000000" d="M18 11.72a7.2 7.2 0 0 1 6.828 4.917A6.228 6.228 0 0 1 23.773 29H11.28a5.28 5.28 0 0 1-.464-10.54A7.2 7.2 0 0 1 18 11.72m-.273 1.707a5.5 5.5 0 0 0-5.214 5.14l-.092 1.46-1.457.127A3.58 3.58 0 0 0 7.7 23.72l.005.184A3.58 3.58 0 0 0 11.28 27.3h12.493c2.5 0 4.527-2.027 4.527-4.527l-.005-.209a4.53 4.53 0 0 0-3.753-4.251l-1.004-.171-.322-.966A5.5 5.5 0 0 0 18 13.42z"></path><path fill="#000000" d="M23.773 20.353c-1.213 2.664-3.17 3.905-5.135 4.324-1.917.408-3.795.027-4.961-.453l.646-1.573c.92.38 2.448.686 3.961.364 1.466-.312 2.964-1.22 3.943-3.367z"></path>
 </g>
</svg>

