<?xml version="1.0" encoding="UTF-8"?>
<svg xmlns="http://www.w3.org/2000/svg" width="24" height="24" viewBox="0 0 24 24" aria-hidden="false" focusable="false" class="flex-none" aria-label="Snow" role="img">
 <g class="uds-light-mode-icon">
  <path fill="#0063EB" d="M12 1.4a.6.6 0 0 1 .6.6v2.361l.881-.88.094-.077a.6.6 0 0 1 .831.831l-.077.094-1.73 1.73v4.494l3.178-3.178V4.929l.013-.12a.6.6 0 0 1 1.175 0l.012.12v1.246l1.67-1.67a.6.6 0 1 1 .848.849l-1.67 1.668 1.246.001.12.012a.6.6 0 0 1 0 1.175l-.12.012h-2.445L13.448 11.4h4.493l1.73-1.728.094-.077a.6.6 0 0 1 .83.83l-.076.095-.88.88H22a.6.6 0 0 1 0 1.2h-2.362l.88.881.078.094a.6.6 0 0 1-.831.831l-.094-.077-1.73-1.73h-4.494l3.178 3.178h2.446l.12.012a.6.6 0 0 1 0 1.176l-.12.012h-1.247l1.671 1.67a.599.599 0 1 1-.848.848l-1.67-1.67v1.246l-.012.12a.6.6 0 0 1-1.175 0l-.012-.12v-2.446L12.6 13.447v4.494l1.728 1.73.077.094a.6.6 0 0 1-.83.83l-.095-.076-.88-.881V22a.6.6 0 1 1-1.2 0v-2.362l-.881.88-.094.078a.6.6 0 0 1-.831-.831l.077-.094 1.73-1.73v-4.493l-3.178 3.178v2.445l-.012.121a.6.6 0 0 1-1.176 0l-.012-.12v-1.247l-1.67 1.67a.6.6 0 0 1-.848-.848l1.669-1.67H4.929a.598.598 0 1 1 0-1.199h2.445l3.179-3.178H6.059l-1.73 1.728-.094.077a.6.6 0 0 1-.83-.83l.076-.095.88-.88H2a.6.6 0 1 1 0-1.2h2.362l-.88-.881-.078-.094a.6.6 0 0 1 .831-.831l.094.077 1.73 1.73h4.494L7.375 8.222H4.93l-.121-.012a.6.6 0 0 1 0-1.176l.12-.012h1.247l-1.671-1.67a.6.6 0 1 1 .849-.848l1.668 1.669.001-1.244.012-.121a.6.6 0 0 1 1.176 0l.012.12v2.445l3.177 3.178V6.058L9.672 4.329l-.077-.094a.6.6 0 0 1 .83-.83l.095.076.88.88V2a.6.6 0 0 1 .6-.6"></path>
 </g>
</svg>

