<?xml version="1.0" encoding="UTF-8"?>
<svg xmlns="http://www.w3.org/2000/svg" width="24" height="24" viewBox="0 0 24 24" aria-hidden="false" focusable="false" class="flex-none" aria-label="Rain" role="img">
 <g class="uds-dark-mode-icon">
  <path fill="#0063EB" d="M15.758 16.478a.7.7 0 0 1 .533.834l-.772 3.5a.7.7 0 0 1-1.367-.301l.772-3.5.044-.134a.7.7 0 0 1 .79-.399m-4.088 5.673a.7.7 0 0 1-1.366-.302zm.536-5.673a.7.7 0 0 1 .549.694l-.017.14-1.067 4.84-.684-.152-.683-.15 1.067-4.838.045-.135a.7.7 0 0 1 .79-.399m-3.55.002a.7.7 0 0 1 .529.835l-.653 2.915-.044.135a.7.7 0 0 1-1.322-.44l.653-2.916.045-.134a.7.7 0 0 1 .792-.396"></path><path fill="#464E56" d="M11.994 3.5a4.19 4.19 0 0 1 3.89 2.586l.34.839.9.09a3.17 3.17 0 0 1 2.83 2.845l.014.304a3.165 3.165 0 0 1-3.165 3.165h-10.2a2.582 2.582 0 0 1-.136-5.16l1.201-.062.2-1.186C8.194 4.996 9.904 3.5 11.994 3.5"></path><path fill="#FFFFFF" d="M11.994 2a5.685 5.685 0 0 1 5.28 3.522 4.666 4.666 0 0 1-.471 9.307h-10.2a4.082 4.082 0 0 1-.213-8.158C6.838 4.02 9.176 2 11.994 2m0 1.5c-2.09 0-3.8 1.496-4.126 3.42l-.2 1.187-1.201.062a2.582 2.582 0 0 0 .136 5.16h10.2a3.165 3.165 0 0 0 3.165-3.165l-.015-.304a3.17 3.17 0 0 0-2.829-2.845l-.9-.09-.34-.84a4.19 4.19 0 0 0-3.89-2.585"></path>
 </g>
</svg>
