<?xml version="1.0" encoding="UTF-8"?>
<svg xmlns="http://www.w3.org/2000/svg" width="32" height="32" viewBox="0 0 32 32" aria-hidden="false" focusable="false" class="flex-none" aria-label="Clear" role="img">
 <g class="uds-dark-mode-icon">
  <path fill="#6001D2" d="M18.938 3.305a.46.46 0 0 1 .341-.044 13.1 13.1 0 0 1 8.04 5.885 13 13 0 0 1 1.914 6.812l-.005.328a13 13 0 0 1-1.068 4.865l-.056.128q-.117.262-.246.518l-.026.053a13 13 0 0 1-.913 1.533l-.064.093a13 13 0 0 1-.658.856q-.111.132-.225.26l-.194.217q-.11.118-.222.233-.102.106-.206.21-.127.124-.256.245l-.195.181q-.128.115-.26.226-.122.106-.249.21l-.046.038q-.462.372-.957.7l-.046.031q-.883.583-1.858 1.019l-.113.05a13 13 0 0 1-1.062.408l-.064.02q-.274.09-.552.17l-.026.007q-.447.124-.906.216l-.052.01q-.28.055-.565.1l-.165.023q-.248.035-.499.06l-.085.008q-.583.055-1.18.058h-.055a13 13 0 0 1-1.081-.043l-.085-.01q-.225-.018-.447-.045l-.12-.017a13 13 0 0 1-.367-.052l-.232-.041-.288-.055-.2-.043-.3-.07q-.112-.026-.222-.057a13 13 0 0 1-.924-.28 13 13 0 0 1-.544-.2l-.199-.082q-.123-.05-.245-.104-.124-.054-.246-.112-.103-.047-.205-.096-.126-.061-.248-.125a14 14 0 0 1-.464-.25l-.161-.09a13 13 0 0 1-.32-.195l-.098-.06a13 13 0 0 1-1.603-1.198l-.128-.115q-.12-.107-.237-.217l-.144-.139-.218-.216-.098-.102q-.131-.135-.259-.275l-.075-.085a13 13 0 0 1-1.139-1.475 13 13 0 0 1-.526-.862l-.08-.143a13 13 0 0 1-.21-.404l-.019-.04a13 13 0 0 1-.154-.326l-.065-.141q-.204-.457-.372-.932l-.164-.494a.46.46 0 0 1 .032-.357.526.526 0 0 1 .638-.241l.114.037c.993.332 2.047.535 3.14.583h.014l.49.01c5.666 0 10.372-4.097 11.323-9.49q.028-.153.052-.307l.011-.091q.072-.504.1-1.02l.003-.11q.01-.24.011-.482c0-1.561-.313-3.049-.878-4.406a.54.54 0 0 1 .069-.533.5.5 0 0 1 .147-.129"></path>
 </g>
</svg>
