<?xml version="1.0" encoding="UTF-8"?>
<svg xmlns="http://www.w3.org/2000/svg" width="24" height="24" viewBox="0 0 24 24" aria-hidden="false" focusable="false" class="flex-none" aria-label="Isolated Thunderstorms" role="img">
 <g class="uds-light-mode-icon">
  <path fill="#FFD333" d="m9.756 17.563 1.778-4.322a.01.01 0 0 1 .01-.006l3.161.022a.01.01 0 0 1 .01.013l-1.016 3.34a.01.01 0 0 0 .01.013l2.025-.001a.01.01 0 0 1 .008.016l-3.706 5.093a.01.01 0 0 1-.018-.005l.002-4.14a.01.01 0 0 0-.01-.01H9.765a.01.01 0 0 1-.01-.013"></path><path fill="#000000" d="M14.888 11.87a1.41 1.41 0 0 1 1.207 1.639l-.04.169-.471 1.544h.15l.107.004c1.05.075 1.65 1.252 1.093 2.147l-.06.088-3.705 5.094c-.779 1.07-2.443.57-2.546-.704l-.005-.126v-2.749h-.852a1.41 1.41 0 0 1-1.305-1.945l1.778-4.322.044-.098c.24-.476.73-.78 1.27-.776l3.162.023zm-.183 1.387-3.162-.022a.01.01 0 0 0-.01.006l-1.777 4.322a.01.01 0 0 0 .001.01l.008.004 2.245-.001a.01.01 0 0 1 .01.01l-.002 4.14q0 .006.007.009l.011-.003.004-.007 3.702-5.087a.01.01 0 0 0-.008-.016H13.71l-.008-.003a.01.01 0 0 1-.002-.009l.009-.03 1.007-3.31a.01.01 0 0 0-.01-.013"></path><path fill="#B0B9C1" d="M11.994 3.5a4.19 4.19 0 0 1 3.89 2.586l.34.839.9.09a3.17 3.17 0 0 1 2.83 2.845l.014.304a3.165 3.165 0 0 1-3.165 3.165h-10.2a2.582 2.582 0 0 1-.136-5.16l1.201-.062.2-1.186C8.194 4.996 9.904 3.5 11.994 3.5"></path><path fill="#000000" d="M11.994 2a5.685 5.685 0 0 1 5.28 3.522 4.666 4.666 0 0 1-.471 9.307h-10.2a4.082 4.082 0 0 1-.213-8.158C6.838 4.02 9.176 2 11.994 2m0 1.5c-2.09 0-3.8 1.496-4.126 3.42l-.2 1.187-1.201.062a2.582 2.582 0 0 0 .136 5.16h10.2a3.165 3.165 0 0 0 3.165-3.165l-.015-.304a3.17 3.17 0 0 0-2.829-2.845l-.9-.09-.34-.84a4.19 4.19 0 0 0-3.89-2.585"></path>
 </g>
</svg>

