<?xml version="1.0" encoding="UTF-8"?>
<svg xmlns="http://www.w3.org/2000/svg" width="24" height="24" viewBox="0 0 24 24" aria-hidden="false" focusable="false" class="flex-none" aria-label="Snow" role="img">
 <g class="uds-dark-mode-icon">
  <path fill="#0063EB" d="M12.001 1.4a.6.6 0 0 1 .6.6v2.36l.88-.879a.6.6 0 1 1 .848.848l-1.728 1.729v4.494l3.176-3.178.001-2.445.012-.12a.6.6 0 0 1 1.175 0l.012.12v1.246l1.67-1.67a.6.6 0 1 1 .848.849l-1.67 1.668 1.246.001a.6.6 0 1 1 0 1.199h-2.445L13.448 11.4h4.493l1.73-1.728.094-.077a.6.6 0 0 1 .83.83l-.076.095-.88.88H22a.6.6 0 1 1 0 1.2h-2.362l.88.881a.6.6 0 1 1-.847.848l-1.73-1.73h-4.494l3.178 3.178h2.445l.121.013a.599.599 0 0 1 0 1.175l-.12.012h-1.247l1.671 1.67a.599.599 0 1 1-.848.848l-1.67-1.67v1.246a.599.599 0 0 1-1.2 0v-2.446l-3.176-3.177v4.494l1.727 1.729.077.094a.6.6 0 0 1-.83.83l-.095-.076-.88-.88V22a.6.6 0 0 1-1.199 0v-2.363l-.882.882a.6.6 0 1 1-.848-.848l1.73-1.732v-4.492l-3.178 3.179v2.445l-.012.121a.6.6 0 0 1-1.176 0l-.012-.12v-1.247l-1.67 1.67a.6.6 0 0 1-.848-.848l1.669-1.67H4.93a.599.599 0 1 1 0-1.199h2.444l3.179-3.178H6.059l-1.73 1.728-.094.077a.6.6 0 0 1-.83-.83l.076-.095.88-.88H2a.6.6 0 1 1 0-1.2h2.362l-.88-.881a.599.599 0 1 1 .847-.848l1.73 1.73h4.494L7.375 8.222H4.93l-.121-.012a.6.6 0 0 1 0-1.176l.12-.012h1.247l-1.671-1.67a.6.6 0 1 1 .848-.848l1.67 1.67V4.93a.6.6 0 1 1 1.2 0v2.445l3.178 3.179V6.059l-1.73-1.73-.076-.094a.6.6 0 0 1 .83-.83l.095.076.881.881V2a.6.6 0 0 1 .6-.6"></path>
 </g>
</svg>
