<?xml version="1.0" encoding="UTF-8"?>
<svg xmlns="http://www.w3.org/2000/svg" width="24" height="24" viewBox="0 0 24 24" aria-hidden="false" focusable="false" class="flex-none" aria-label="Scattered Showers" role="img">
 <g class="uds-light-mode-icon">
  <path fill="#FFD333" d="M12.083 2.9a5.85 5.85 0 1 1 0 11.699 5.85 5.85 0 0 1 0-11.699"></path><path fill="#000000" d="M12.083 1.5a7.25 7.25 0 1 1 0 14.5 7.25 7.25 0 0 1 0-14.5m0 1.4a5.85 5.85 0 1 0 0 11.7 5.85 5.85 0 0 0 0-11.7"></path><path fill="#FFFFFF" d="M16.345 9.736c1.068 0 1.99.665 2.364 1.616l.299.76.807.114c.813.115 1.451.78 1.528 1.604l.007.167a1.79 1.79 0 0 1-1.79 1.79h-.994v-.004h-6.051a1.503 1.503 0 0 1-1.495-1.35l-.008-.153c0-.829.671-1.5 1.5-1.502l1.107-.002.254-1.077a2.55 2.55 0 0 1 2.25-1.954z"></path><path fill="#000000" d="M16.345 8.336a3.94 3.94 0 0 1 3.667 2.504 3.19 3.19 0 0 1-.451 6.346h-2.395v-.002h-4.651a2.903 2.903 0 0 1-.004-5.806 3.945 3.945 0 0 1 3.834-3.042m-.222 1.41c-1.097.095-2 .894-2.25 1.953l-.254 1.077-1.106.002c-.83.001-1.5.673-1.501 1.502l.008.154c.076.758.716 1.35 1.495 1.35h6.051v.002h.995c.988 0 1.789-.8 1.789-1.789l-.007-.167a1.79 1.79 0 0 0-1.528-1.604l-.807-.115-.299-.759a2.54 2.54 0 0 0-2.364-1.616z"></path><path fill="#FFFFFF" d="M7.371 2.9c.918 0 1.71.572 2.031 1.391l.3.76.807.114a1.5 1.5 0 0 1 1.28 1.342l.005.14a1.5 1.5 0 0 1-1.5 1.499H9.52v-.003H3.89A1.24 1.24 0 0 1 2.657 7.03l-.006-.126a1.24 1.24 0 0 1 1.238-1.239h1.107l.254-1.08a2.19 2.19 0 0 1 1.932-1.677z"></path><path fill="#000000" d="M7.371 1.5c1.516 0 2.811.945 3.335 2.28a2.897 2.897 0 0 1-.411 5.766H8.118v-.003h-4.23a2.639 2.639 0 0 1-.001-5.278A3.585 3.585 0 0 1 7.37 1.5m-.19 1.408a2.19 2.19 0 0 0-1.932 1.678l-.254 1.078-1.107.001c-.684 0-1.238.555-1.238 1.24l.006.125A1.24 1.24 0 0 0 3.89 8.143h5.63v.003h.776a1.5 1.5 0 0 0 1.499-1.5l-.006-.14a1.5 1.5 0 0 0-1.28-1.341l-.807-.114-.299-.76a2.18 2.18 0 0 0-2.03-1.39z"></path><path fill="#0063EB" d="M18.934 22.637a.65.65 0 0 1-1.271-.274zm.337-4.657a.65.65 0 0 1 .5.772l-.837 3.885-.635-.137-.636-.137.836-3.884a.65.65 0 0 1 .772-.499m-2.794 3.116a.65.65 0 0 1-1.27-.278zm.017-3.115a.65.65 0 0 1 .496.774l-.513 2.341-.635-.14-.635-.138.513-2.342a.65.65 0 0 1 .774-.495m-3.266 4.678a.65.65 0 0 1-1.262-.318zm.502-4.674a.65.65 0 0 1 .473.789l-.975 3.885-.63-.16-.632-.158.976-3.884a.65.65 0 0 1 .788-.472"></path>
 </g>
</svg>

