<?xml version="1.0" encoding="UTF-8"?>
<svg xmlns="http://www.w3.org/2000/svg" width="24" height="24" viewBox="0 0 24 24" aria-hidden="false" focusable="false" class="flex-none" aria-label="Partly Cloudy" role="img">
 <g class="uds-light-mode-icon">
  <path fill="#FFD333" d="M12 7a5 5 0 1 1 0 10 5 5 0 0 1 0-10"></path><path fill="#000000" d="M12 5.5a6.5 6.5 0 1 1 0 13 6.5 6.5 0 0 1 0-13M12 7a5 5 0 1 0 0 10 5 5 0 0 0 0-10m.513-5.75v3.071h-1.5V1.25zm0 18.429v3.07h-1.5v-3.07zM4.075 12.75H1v-1.5h3.075z"></path><path fill="#000000" d="M4.075 12.75H1v-1.5h3.075zm14.767 7.382-2.174-2.172 1.061-1.06 2.175 2.172zM5.796 7.1 3.622 4.93l1.061-1.06 2.175 2.17zM3.622 19.072 5.796 16.9l1.061 1.06-2.174 2.171zM16.668 6.04l2.174-2.171 1.062 1.06L17.729 7.1z"></path><path fill="#FFFFFF" d="M17.522 10.274c.794 0 1.47.489 1.742 1.172l.326.818.872.114a1.196 1.196 0 0 1-.16 2.382h-.577v-.003h-5.507a.955.955 0 0 1-.098-1.905l.098-.005h1.209l.274-1.153a1.87 1.87 0 0 1 1.656-1.413z"></path><path fill="#000000" d="M17.522 8.775c1.424 0 2.641.877 3.135 2.116a2.696 2.696 0 0 1-.354 5.369h-2.078v-.003h-4.007a2.455 2.455 0 1 1 0-4.91h.024a3.366 3.366 0 0 1 3.28-2.572m-.165 1.506a1.87 1.87 0 0 0-1.656 1.413l-.274 1.153h-1.21l-.097.005a.956.956 0 0 0 .098 1.905h5.507v.003h.578a1.197 1.197 0 0 0 .159-2.382l-.872-.114-.326-.818a1.87 1.87 0 0 0-1.742-1.172z"></path>
 </g>
</svg>

