<?xml version="1.0" encoding="UTF-8"?>
<svg xmlns="http://www.w3.org/2000/svg" width="32" height="32" viewBox="0 0 32 32" aria-hidden="false" focusable="false" class="flex-none" aria-label="Mostly Sunny" role="img">
 <g class="uds-dark-mode-icon">
  <path fill="#644300" d="M16 8a8 8 0 1 1 0 16 8 8 0 0 1 0-16m.85-7v4.286h-1.7V1zm0 25.714v4.287h-1.7v-4.287zM5.286 16.85H1v-1.7h4.286z"></path><path fill="#644300" d="M5.286 16.85H1v-1.7h4.286zm20.72 10.357-3.03-3.03 1.2-1.202 3.031 3.03zM7.823 9.025l-3.03-3.031 1.2-1.202 3.032 3.031zm-3.03 16.981 3.03-3.03 1.202 1.2-3.03 3.031zM22.975 7.823l3.031-3.03 1.202 1.2-3.031 3.032z"></path><path fill="#000000" d="M23.696 12.45c1.239 0 2.295.761 2.723 1.834l.386.967 1.031.137a1.99 1.99 0 0 1 1.717 1.785l.008.187c0 1.1-.89 1.99-1.99 1.99h-1.119v-.003h-7.36c-.856 0-1.56-.65-1.645-1.483l-.008-.17c0-.912.74-1.652 1.652-1.652h1.433l.325-1.365a2.92 2.92 0 0 1 2.59-2.216z"></path><path fill="#FFFFFF" d="M23.688 11a4.5 4.5 0 0 1 4.184 2.826 3.605 3.605 0 0 1-.477 7.177h-2.77V21h-5.344a3.281 3.281 0 0 1 0-6.562h.029A4.495 4.495 0 0 1 23.688 11m-.247 1.71a2.79 2.79 0 0 0-2.478 2.121l-.31 1.307H19.28a1.58 1.58 0 0 0-1.58 1.58l.007.163A1.58 1.58 0 0 0 19.28 19.3h7.044v.003h1.07a1.904 1.904 0 0 0 1.905-1.905l-.008-.178a1.905 1.905 0 0 0-1.643-1.708l-.987-.131-.369-.926a2.8 2.8 0 0 0-2.605-1.755z"></path>
 </g>
</svg>
