<?xml version="1.0" encoding="UTF-8"?>
<svg xmlns="http://www.w3.org/2000/svg" width="32" height="32" viewBox="0 0 32 32" aria-hidden="false" focusable="false" class="flex-none" aria-label="Scattered Showers" role="img">
 <g class="uds-light-mode-icon">
  <path fill="#CAC2FF" d="M19.69 5.4a7.23 7.23 0 0 1 3.902 6.097l.007.325a7.225 7.225 0 0 1-13.325 3.865q.196.009.396.01l.467-.012A9.103 9.103 0 0 0 19.69 5.4"></path><path fill="#000000" d="M18.205 3.188C22.2 4.03 25.2 7.576 25.2 11.82l-.012.454a8.825 8.825 0 0 1-8.813 8.37l-.37-.007a8.83 8.83 0 0 1-7.958-5.9l-.11-.335c-.116-.384.276-.709.661-.598.575.166 1.18.265 1.803.287l.268.004a7.5 7.5 0 0 0 7.49-7.113l.01-.387c0-.832-.136-1.632-.387-2.38l-.114-.317c-.144-.374.145-.794.537-.711M19.69 5.4q.079.587.08 1.195a9.103 9.103 0 0 1-8.632 9.089l-.468.011q-.198 0-.395-.01A7.225 7.225 0 0 0 23.6 11.82l-.007-.324A7.23 7.23 0 0 0 19.69 5.4"></path><path fill="#FFFFFF" d="M21.956 13.1a3.35 3.35 0 0 1 3.117 2.101l.348.87.929.123a2.366 2.366 0 0 1 2.04 2.122l.01.222a2.366 2.366 0 0 1-2.365 2.365h-1.448V20.9h-7.478a2.01 2.01 0 0 1-1.999-1.804l-.01-.205c0-1.11.9-2.01 2.01-2.01h1.294l.293-1.229a3.34 3.34 0 0 1 2.965-2.54z"></path><path fill="#000000" d="M21.956 11.5a4.95 4.95 0 0 1 4.604 3.108 3.965 3.965 0 0 1-.525 7.895h-3.048V22.5H17.11a3.61 3.61 0 0 1 0-7.219h.032a4.944 4.944 0 0 1 4.815-3.781m-.294 1.612a3.34 3.34 0 0 0-2.965 2.54l-.293 1.229H17.11c-1.11 0-2.01.9-2.01 2.01l.011.205a2.01 2.01 0 0 0 2 1.804h7.477v.003h1.448a2.366 2.366 0 0 0 2.365-2.365l-.01-.222a2.366 2.366 0 0 0-2.04-2.122l-.93-.123-.347-.87a3.35 3.35 0 0 0-3.117-2.101z"></path><path fill="#0063EB" d="M22.924 23.751a.8.8 0 0 1 1.542.419l-1.11 5.108a.8.8 0 0 1-1.564-.34l1.11-5.108zm3.404.081a.8.8 0 0 1 1.565.336l-.86 4a.8.8 0 0 1-1.565-.336zm-7.098-.083a.8.8 0 0 1 1.554.343l-.012.08-.68 3.079-.022.08a.8.8 0 0 1-1.54-.425l.68-3.078zm-2.74-.525a.8.8 0 0 1 .597.892l-.017.08-1.295 5.11a.8.8 0 1 1-1.55-.394l1.294-5.108.025-.079a.8.8 0 0 1 .947-.5"></path><path fill="#FFFFFF" d="M9.175 3.6c1.101 0 2.04.678 2.42 1.63l.346.87.93.124c.81.107 1.445.765 1.522 1.583l.007.165c0 .974-.79 1.764-1.764 1.764h-.987v-.003H5.063c-.758 0-1.38-.576-1.456-1.313L3.6 8.27c0-.807.655-1.462 1.463-1.462h1.29l.293-1.229a2.59 2.59 0 0 1 2.3-1.97z"></path><path fill="#000000" d="M9.175 2a4.2 4.2 0 0 1 3.906 2.638 3.364 3.364 0 0 1-.445 6.698H10.05v-.003H5.062a3.062 3.062 0 1 1 0-6.125h.027A4.195 4.195 0 0 1 9.175 2m-.229 1.61a2.59 2.59 0 0 0-2.3 1.97l-.293 1.228h-1.29c-.808 0-1.463.655-1.463 1.463l.007.149a1.463 1.463 0 0 0 1.455 1.313h6.587v.003h.987c.974 0 1.764-.79 1.764-1.764l-.007-.165a1.765 1.765 0 0 0-1.522-1.583l-.93-.123-.346-.87A2.6 2.6 0 0 0 9.175 3.6z"></path>
 </g>
</svg>

