<?xml version="1.0" encoding="UTF-8"?>
<svg xmlns="http://www.w3.org/2000/svg" width="24" height="24" viewBox="0 0 24 24" aria-hidden="false" focusable="false" class="flex-none" aria-label="Scattered Snow Showers" role="img">
 <g class="uds-light-mode-icon">
  <path fill="#FFD333" d="M7.519 2.4A3.61 3.61 0 0 1 11.138 6a3.61 3.61 0 0 1-3.62 3.6A3.61 3.61 0 0 1 3.9 6a3.61 3.61 0 0 1 3.619-3.6m4.961 4.362.002-.017zM2.526 6.51v-.007q.01.118.029.235zM3.97 2.465a5 5 0 0 0-.24.257l.074-.084zm.743-.611-.197.14a5 5 0 0 1 .4-.27z"></path><path fill="#000000" d="M7.777 1.007C10.43 1.14 12.538 3.325 12.538 6l-.007.257C12.397 8.899 10.204 11 7.52 11l-.258-.007C4.609 10.86 2.5 8.675 2.5 6c0-2.761 2.247-5 5.019-5zM7.52 2.4A3.61 3.61 0 0 0 3.9 6a3.61 3.61 0 0 0 3.619 3.6A3.61 3.61 0 0 0 11.138 6a3.61 3.61 0 0 0-3.62-3.6"></path><path fill="#FFFFFF" d="M6.4 13.986q.17.053.348.09l.179.031a4 4 0 0 1-.356-.072zm-.804-.363q.074.046.152.088l.156.08-.156-.08zm-.56-.418q.065.06.133.114l.137.109-.137-.109zm-.752-.958q.211.388.506.712l.12.126a3.7 3.7 0 0 1-.539-.686zm8.11-7.774c1.527 0 2.826.935 3.352 2.248l.306.763.815.105a2.595 2.595 0 0 1 2.246 2.327l.011.244a2.593 2.593 0 0 1-2.593 2.592h-1.695v-.003H7.48a2.235 2.235 0 0 1-2.223-2.006l-.01-.228c0-1.234 1-2.235 2.233-2.235h1.15l.258-1.074a3.59 3.59 0 0 1 3.188-2.72zm-8.385 7.123q.053.17.123.334l.072.16a4 4 0 0 1-.139-.325zm-.049-1.99a3.64 3.64 0 0 0-.04 1.641l.04.176a3.64 3.64 0 0 1-.041-1.64zm.244-.668-.073.162q-.07.163-.122.334l.057-.17q.061-.166.138-.326m.706-.994a3.7 3.7 0 0 0-.538.686l-.088.152c.14-.257.31-.497.505-.712zm14.725-.297.048.063a4 4 0 0 0-.163-.196zM5.904 7.238l-.156.08-.152.088q.074-.045.152-.088zm1.023-.316q-.18.027-.355.072l-.173.049a4 4 0 0 1 .348-.089zm1.745-2.206c-.412.454-.74.984-.961 1.565l-.07.197a4.9 4.9 0 0 1 .896-1.608zm.597-.559a5 5 0 0 0-.158.131l-.152.137q.075-.07.152-.137zm2.257-1.011a5 5 0 0 0-1.925.77l-.17.117a5 5 0 0 1 1.885-.846zm.647-.069a5 5 0 0 0-.218.014l-.216.023q.107-.014.216-.023z"></path><path fill="#000000" d="M12.394 3.072A5.005 5.005 0 0 1 17.046 6.2a3.993 3.993 0 0 1-.515 7.952h-3.095v-.003H7.48a3.635 3.635 0 0 1 0-7.27h.046a4.994 4.994 0 0 1 4.868-3.807m-.318 1.413a3.59 3.59 0 0 0-3.188 2.721L8.63 8.28H7.48c-1.235 0-2.235 1-2.235 2.235l.01.228A2.235 2.235 0 0 0 7.48 12.75h7.356v.003h1.695a2.593 2.593 0 0 0 2.593-2.592l-.01-.244a2.595 2.595 0 0 0-2.247-2.327l-.815-.105-.306-.763a3.6 3.6 0 0 0-3.352-2.248z"></path><path fill="#0063EB" d="M3.434 15.837a.55.55 0 0 1 .65-.247l.102.046 4.34 2.496.09.065a.55.55 0 0 1-.537.934l-.102-.047-4.34-2.495-.09-.065a.55.55 0 0 1-.113-.687"></path><path fill="#0063EB" d="M8.729 15.837a.55.55 0 0 1-.113.687l-.09.065-4.34 2.495-.102.047a.55.55 0 0 1-.536-.934l.09-.065 4.34-2.496.101-.046a.55.55 0 0 1 .65.247"></path><path fill="#0063EB" d="M6.082 14.316a.55.55 0 0 1 .54.438l.01.11.001 4.992-.012.111a.55.55 0 0 1-1.079 0l-.012-.11.001-4.993.011-.11a.55.55 0 0 1 .54-.438m3.808 3.665a.55.55 0 0 1 .65-.247l.103.045 4.339 2.497.09.065a.55.55 0 0 1-.536.933l-.102-.046-4.34-2.496-.09-.064a.55.55 0 0 1-.113-.687"></path><path fill="#0063EB" d="M15.185 17.981a.55.55 0 0 1-.113.687l-.09.064-4.34 2.496-.101.046a.55.55 0 0 1-.537-.933l.09-.065 4.34-2.497.102-.045a.55.55 0 0 1 .65.247"></path><path fill="#0063EB" d="M12.538 16.46a.55.55 0 0 1 .54.438l.01.11L13.09 22l-.011.11a.55.55 0 0 1-1.08 0l-.011-.11v-4.992l.011-.11a.55.55 0 0 1 .54-.439m3.808-.621a.55.55 0 0 1 .65-.248l.102.046 4.34 2.496.09.065a.55.55 0 0 1-.537.934l-.102-.047-4.34-2.495-.09-.065a.55.55 0 0 1-.113-.687"></path><path fill="#0063EB" d="M21.642 15.838a.55.55 0 0 1-.113.686l-.09.065-4.34 2.495-.102.047a.55.55 0 0 1-.537-.934l.09-.065 4.34-2.496.102-.046a.55.55 0 0 1 .65.248"></path><path fill="#0063EB" d="M18.994 14.316a.55.55 0 0 1 .54.438l.011.11v4.992l-.01.111a.55.55 0 0 1-1.08 0l-.012-.11v-4.993l.012-.11a.55.55 0 0 1 .54-.438"></path>
 </g>
</svg>

