<?xml version="1.0" encoding="UTF-8"?>
<svg xmlns="http://www.w3.org/2000/svg" width="24" height="24" viewBox="0 0 24 24" aria-hidden="false" focusable="false" class="flex-none" aria-label="Thunderstorms" role="img">
 <g class="uds-dark-mode-icon">
  <path fill="#0063EB" d="M6.45 15.483a.7.7 0 0 1 .507.85l-1.216 4.838a.7.7 0 0 1-1.357-.342L5.6 15.991a.7.7 0 0 1 .85-.508m12.14 0a.7.7 0 0 1 .508.85l-1.216 4.838a.7.7 0 0 1-1.358-.342l1.216-4.838a.7.7 0 0 1 .85-.508"></path><path fill="#644300" d="m14.355 12.628.123.015c.234.06.396.28.383.522l-.022.121-.823 2.707h1.364l.076.005a.51.51 0 0 1 .377.74l-.04.065-3.706 5.093a.51.51 0 0 1-.915-.21l-.008-.09.002-3.649-1.755.001a.51.51 0 0 1-.47-.704l1.777-4.322a.51.51 0 0 1 .476-.316zm-3.174.484.009-.006a.01.01 0 0 0-.01.006m2.175 3.382h2.025v-.002zl-.004-.002q.001.002.005.003"></path><path fill="#464E56" d="M12 3.5c1.7 0 3.166 1.061 3.765 2.584l.326.831.886.11a3.166 3.166 0 0 1 2.76 2.84l.013.3a3.165 3.165 0 0 1-3.165 3.164H6.832a2.582 2.582 0 0 1-.441-5.126l.246-.03 1.178-.088.192-1.165C8.327 4.97 10.003 3.5 12 3.5"></path><path fill="#FFFFFF" d="M12 2c2.343 0 4.346 1.464 5.16 3.535a4.665 4.665 0 0 1-.575 9.294H6.832a4.082 4.082 0 0 1-.306-8.152C6.962 4.023 9.246 2 12 2m0 1.5c-1.997 0-3.673 1.47-3.993 3.42l-.192 1.165-1.178.088-.246.03a2.583 2.583 0 0 0 .441 5.126h9.753a3.165 3.165 0 0 0 3.165-3.165l-.014-.299a3.166 3.166 0 0 0-2.76-2.84l-.885-.11-.326-.831A4.05 4.05 0 0 0 12 3.5"></path>
 </g>
</svg>
