<?xml version="1.0" encoding="UTF-8"?>
<svg xmlns="http://www.w3.org/2000/svg" width="32" height="32" viewBox="0 0 32 32" aria-hidden="false" focusable="false" class="flex-none" aria-label="Mostly Cloudy" role="img">
 <g class="uds-dark-mode-icon">
  <path fill="#644300" d="M13.5 8a6.5 6.5 0 1 1 0 13 6.5 6.5 0 0 1 0-13m1.065-5v3.348h-1.699V3z"></path><path fill="#FFFFFF" d="M14.565 23.084v3.348h-1.699v-3.348zm-9.218-7.519H2v-1.699h3.347z"></path><path fill="#644300" d="M5.347 15.565H2v-1.699h3.347z"></path><path fill="#FFFFFF" d="m21.4 23.6-2.368-2.366 1.202-1.202L22.6 22.4z"></path><path fill="#644300" d="M7.198 9.4 4.83 7.031 6.032 5.83l2.367 2.368zm11.834-1.202L21.4 5.83l1.202 1.202-2.367 2.367z"></path><path fill="#000000" d="M18 12.72a5.9 5.9 0 0 1 5.592 4.027l.345 1.035 1.076.183a4.854 4.854 0 0 1 4.024 4.558l.005.224a4.853 4.853 0 0 1-4.853 4.853H10.796a3.84 3.84 0 0 1-3.833-3.64l-.005-.198a3.84 3.84 0 0 1 3.499-3.822l1.562-.137.098-1.565a5.896 5.896 0 0 1 5.59-5.51z"></path><path fill="#FFFFFF" d="M18 11.72a7.2 7.2 0 0 1 6.828 4.917A6.228 6.228 0 0 1 23.773 29H11.28a5.28 5.28 0 0 1-.464-10.54A7.2 7.2 0 0 1 18 11.72m-.273 1.707a5.5 5.5 0 0 0-5.214 5.14l-.092 1.46-1.457.127A3.58 3.58 0 0 0 7.7 23.72l.005.184A3.58 3.58 0 0 0 11.28 27.3h12.493c2.5 0 4.527-2.027 4.527-4.527l-.005-.209a4.53 4.53 0 0 0-3.753-4.251l-1.004-.171-.322-.966A5.5 5.5 0 0 0 18 13.42z"></path><path fill="#FFFFFF" d="M24.773 20.353c-1.213 2.664-3.17 3.906-5.135 4.324-1.917.408-3.795.027-4.961-.453l.646-1.572c.92.379 2.448.685 3.961.363 1.466-.312 2.964-1.219 3.943-3.367z"></path>
 </g>
</svg>
