<?xml version="1.0" encoding="UTF-8"?>
<svg xmlns="http://www.w3.org/2000/svg" width="24" height="24" viewBox="0 0 24 24" aria-hidden="false" focusable="false" class="flex-none" aria-label="Scattered Snow Showers" role="img">
 <g class="uds-dark-mode-icon">
  <path fill="#644300" d="M7.777 1.007q.607.032 1.168.198l.034.01q.08.025.157.052l.08.027q.21.075.407.166l.023.01q.064.03.127.063l.117.06.085.047.108.061.13.081.06.038.142.097.053.037q.07.052.138.105l.05.039.115.095q.042.035.083.072t.08.073a5 5 0 0 1 .403.418 5 5 0 0 1 .366.483l.064.098.061.099.069.118.055.102a5 5 0 0 1 .108.215l.04.086.056.129.052.133.03.076q.026.07.05.143l.03.098.02.065q.025.082.046.166l.027.118A5 5 0 0 1 12.538 6l-.007.257a5 5 0 0 1-.13.904l-.017.068a5 5 0 0 1-.111.373l-.033.095-.044.114-.04.104a5 5 0 0 1-.2.422 5 5 0 0 1-.394.624l-.066.086a5 5 0 0 1-.168.206l-.04.048-.118.127-.05.053a5 5 0 0 1-.329.308q-.075.065-.153.127l-.023.018q-.075.058-.153.115l-.056.039q-.062.046-.128.088l-.086.054-.113.07-.084.048a5 5 0 0 1-.434.22l-.117.05q-.063.027-.127.05a5 5 0 0 1-.329.113q-.067.02-.135.038l-.095.027-.13.029q-.06.016-.122.027-.068.014-.135.024-.046.009-.093.016-.062.01-.126.017-.118.014-.238.023Q7.72 11 7.52 11l-.258-.007a5 5 0 0 1-1.17-.2l-.033-.009q-.08-.024-.157-.052l-.08-.027a5 5 0 0 1-.414-.169l-.015-.008a5 5 0 0 1-.344-.176l-.084-.048-.155-.096-.041-.026-.146-.1-.053-.037-.138-.105-.05-.039-.115-.095q-.042-.035-.083-.072l-.08-.073a5 5 0 0 1-.707-.81l-.062-.091-.073-.114-.052-.083q-.043-.071-.083-.145a5 5 0 0 1-.15-.29l-.052-.117q-.023-.049-.043-.098L2.83 7.78l-.03-.076q-.026-.073-.049-.145l-.035-.109q-.018-.057-.033-.116l-.029-.102-.027-.118a5 5 0 0 1-.1-.603l-.002-.016a5 5 0 0 1 .078-1.503 4.97 4.97 0 0 1 1.127-2.27A5 5 0 0 1 7.52 1z"></path><path fill="#000000" d="M6.4 13.986q.17.053.348.09l.179.031a4 4 0 0 1-.356-.072zm-.804-.363q.074.046.152.088l.156.08-.156-.08zm6.798-9.15c1.527 0 2.826.935 3.352 2.248l.306.763.815.105a2.595 2.595 0 0 1 2.246 2.327l.011.244a2.593 2.593 0 0 1-2.593 2.592h-1.695v-.003H7.48a2.235 2.235 0 0 1-2.223-2.006l-.01-.228c0-1.234 1-2.235 2.233-2.235h1.15l.258-1.074a3.59 3.59 0 0 1 3.188-2.72zm7.241 3.174.048.063a4 4 0 0 0-.163-.196zM5.904 7.238a4 4 0 0 0-.27.146l.113-.066zm1.023-.316q-.18.027-.355.072l-.173.049a4 4 0 0 1 .348-.089zm1.745-2.206c-.412.454-.74.984-.961 1.565l-.07.197a4.9 4.9 0 0 1 .896-1.608zm.597-.559a5 5 0 0 0-.158.131l-.152.137q.075-.07.152-.137zm2.257-1.011a5 5 0 0 0-1.925.77l-.17.117a5 5 0 0 1 1.885-.846zm.647-.069a5 5 0 0 0-.218.014l-.216.023q.107-.014.216-.023z"></path><path fill="#FFFFFF" d="M12.394 3.072A5.005 5.005 0 0 1 17.046 6.2a3.993 3.993 0 0 1-.515 7.952h-3.095v-.003H7.48a3.636 3.636 0 1 1 0-7.27h.046a4.994 4.994 0 0 1 4.868-3.807m-.318 1.413a3.59 3.59 0 0 0-3.188 2.721L8.63 8.28H7.48c-1.235 0-2.235 1-2.235 2.235l.01.228A2.235 2.235 0 0 0 7.48 12.75h7.356v.003h1.695a2.593 2.593 0 0 0 2.593-2.592l-.01-.244a2.595 2.595 0 0 0-2.247-2.327l-.815-.105-.306-.763a3.6 3.6 0 0 0-3.352-2.248z"></path><path fill="#0063EB" d="M6.082 14.315a.55.55 0 0 1 .54.439l.01.11v1.544l1.346-.772.101-.046a.55.55 0 0 1 .537.933l-.09.066-1.342.77 1.341.773.09.065a.55.55 0 0 1-.536.934l-.101-.047-1.346-.774v1.546l-.01.11a.55.55 0 0 1-1.08 0l-.012-.11V18.31l-1.344.774-.102.047a.55.55 0 0 1-.536-.934l.09-.065 1.34-.773-1.34-.77-.091-.066a.551.551 0 0 1 .537-.933l.102.046 1.344.773.001-1.545.011-.11a.55.55 0 0 1 .54-.439m6.456 2.144a.55.55 0 0 1 .54.439l.011.11v1.544l1.345-.773.102-.045a.55.55 0 0 1 .537.934l-.091.064-1.343.772 1.343.772.09.065a.55.55 0 0 1-.536.933l-.102-.047-1.345-.774V22l-.011.111a.55.55 0 0 1-1.08 0L11.987 22v-1.547l-1.345.774-.102.047a.55.55 0 0 1-.536-.933l.09-.065 1.342-.772-1.342-.772-.09-.064a.55.55 0 0 1 .536-.934l.103.045 1.344.773v-1.544l.011-.11a.55.55 0 0 1 .54-.439m6.457-2.144a.55.55 0 0 1 .538.439l.012.11v1.544l1.345-.772.102-.046a.55.55 0 0 1 .65.247.55.55 0 0 1-.113.686l-.09.066-1.343.771 1.342.772.09.065a.55.55 0 0 1-.537.934l-.101-.047-1.345-.773.001 1.545-.012.11a.55.55 0 0 1-1.08 0l-.011-.11V18.31l-1.344.774-.102.047a.55.55 0 0 1-.537-.934l.09-.065 1.341-.773-1.34-.77-.09-.066a.55.55 0 0 1-.114-.686.55.55 0 0 1 .65-.247l.102.046 1.344.772v-1.544l.011-.11a.55.55 0 0 1 .54-.439"></path>
 </g>
</svg>
