<?xml version="1.0" encoding="UTF-8"?>
<svg xmlns="http://www.w3.org/2000/svg" width="32" height="32" viewBox="0 0 32 32" aria-hidden="false" focusable="false" class="flex-none" aria-label="Scattered Thundershowers" role="img">
 <g class="uds-dark-mode-icon">
  <path fill="#0063EB" d="M25.074 25.23a.75.75 0 0 1-1.465-.323zm-.286-5.65a.75.75 0 0 1 1.457.32l-.012.076-1.16 5.254-.732-.162-.732-.161 1.159-5.253zM7.232 25.23a.75.75 0 0 1-1.464-.323zm-.285-5.65a.75.75 0 0 1 1.457.32l-.012.076-1.16 5.254-.732-.162-.732-.161 1.159-5.253z"></path><path fill="#644300" d="m19.262 15.03.123.016c.234.06.395.279.384.52l-.02.12-1.201 4.047h2.115l.075.005c.343.05.54.428.382.736l-.04.065-5.061 7.134c-.27.38-.848.223-.92-.208l-.006-.09v-5.309l-2.576.001a.512.512 0 0 1-.476-.7l2.428-6.049.034-.069a.51.51 0 0 1 .441-.25zm-3.655 12.353-.008.003.01-.003z"></path><path fill="#464E56" d="M16.033 3.53a5.36 5.36 0 0 1 4.978 3.378l.375.945 1.01.115a4.18 4.18 0 0 1 3.692 3.952l.005.2a4.18 4.18 0 0 1-4.18 4.18H9.418a3.446 3.446 0 0 1-3.441-3.268l-.004-.177a3.446 3.446 0 0 1 3.047-3.42l.167-.015 1.344-.089.221-1.329a5.356 5.356 0 0 1 5.034-4.465z"></path><path fill="#FFFFFF" d="M16.033 1.83a7.06 7.06 0 0 1 6.557 4.45A5.88 5.88 0 0 1 21.913 18H9.418a5.145 5.145 0 0 1-.343-10.277 7.056 7.056 0 0 1 6.958-5.893m-.247 1.706a5.356 5.356 0 0 0-5.034 4.465l-.22 1.33-1.345.088-.167.015a3.446 3.446 0 0 0-3.047 3.422l.004.176A3.446 3.446 0 0 0 9.418 16.3h12.495a4.18 4.18 0 0 0 4.18-4.18l-.005-.2a4.18 4.18 0 0 0-3.692-3.952l-1.01-.115-.375-.945a5.36 5.36 0 0 0-4.978-3.378z"></path><path fill="#FFFFFF" d="M12.227 13.648c1.213-2.665 3.17-3.906 5.135-4.325 1.917-.408 3.795-.027 4.961.453l-.646 1.573c-.92-.38-2.448-.686-3.961-.364-1.466.313-2.964 1.22-3.943 3.367z"></path>
 </g>
</svg>