<?xml version="1.0" encoding="UTF-8"?>
<svg xmlns="http://www.w3.org/2000/svg" width="24" height="24" viewBox="0 0 24 24" aria-hidden="false" focusable="false" class="flex-none" aria-label="Flurries" role="img">
 <g class="uds-light-mode-icon">
  <path fill="#0063EB" d="M10.037 13.574a.7.7 0 0 1 .686.559l.014.141v2.4l2.08-1.2.13-.057a.7.7 0 0 1 .686 1.188l-.115.082-2.082 1.202 2.076 1.199.115.082a.7.7 0 0 1-.685 1.188l-.13-.057-2.075-1.2V21.5a.699.699 0 1 1-1.4 0v-2.4l-2.076 1.2-.13.058a.7.7 0 0 1-.686-1.188l.116-.082 2.075-1.2-2.081-1.2-.115-.083a.7.7 0 0 1 .685-1.188l.13.058 2.082 1.2v-2.4l.015-.142a.7.7 0 0 1 .685-.559m7.849-7.228a.7.7 0 0 1 .686.558l.014.142v2.401l2.08-1.2.13-.059a.701.701 0 0 1 .686 1.188l-.116.083-2.082 1.201 2.079 1.201.115.083a.7.7 0 0 1-.686 1.188l-.13-.059-2.076-1.2v2.401l-.014.141a.7.7 0 0 1-1.372 0l-.014-.14v-2.403l-2.078 1.201-.13.059a.7.7 0 0 1-.686-1.188l.115-.083 2.078-1.2-2.081-1.202-.116-.083a.7.7 0 0 1 .686-1.188l.13.058 2.082 1.202V7.046l.014-.142a.7.7 0 0 1 .686-.558M6.872 1.8a.7.7 0 0 1 .7.7v3.831l3.317-1.914a.7.7 0 1 1 .7 1.213l-3.32 1.915 3.321 1.918.115.083a.7.7 0 0 1-.685 1.187l-.13-.057L7.572 8.76v3.833a.701.701 0 0 1-1.4 0V8.757L2.85 10.676a.7.7 0 0 1-.7-1.213l3.319-1.918-3.317-1.916a.7.7 0 0 1 .57-1.27l.13.058 3.32 1.917V2.5a.7.7 0 0 1 .7-.7"></path>
 </g>
</svg>

