<?xml version="1.0" encoding="UTF-8"?>
<svg xmlns="http://www.w3.org/2000/svg" width="24" height="24" viewBox="0 0 24 24" aria-hidden="false" focusable="false" class="flex-none" aria-label="Cloudy" role="img">
 <g class="uds-light-mode-icon">
  <path fill="#FFFFFF" d="M12 5.5a5.1 5.1 0 0 1 4.838 3.47l.285.854.888.15a4.194 4.194 0 0 1 3.484 3.94l.005.192a4.193 4.193 0 0 1-4.193 4.194H5.828a3.328 3.328 0 0 1-.286-6.643l1.288-.11.082-1.29A5.09 5.09 0 0 1 12 5.5"></path><path fill="#000000" d="M12 4a6.6 6.6 0 0 1 6.26 4.494 5.694 5.694 0 0 1-.953 11.306H5.828a4.828 4.828 0 0 1-.413-9.638A6.59 6.59 0 0 1 12 4m0 1.5a5.09 5.09 0 0 0-5.088 4.757l-.082 1.29-1.288.11a3.328 3.328 0 0 0 .286 6.643h11.479a4.193 4.193 0 0 0 4.193-4.194l-.005-.193a4.194 4.194 0 0 0-3.484-3.94l-.888-.149-.285-.853A5.1 5.1 0 0 0 12 5.5"></path><path fill="#000000" d="M17.095 11.981c-.889 2.197-2.341 3.26-3.849 3.621-1.458.35-2.88.023-3.761-.385l.63-1.362c.65.301 1.724.542 2.782.288 1.008-.241 2.09-.95 2.807-2.724z"></path>
 </g>
</svg>

