<?xml version="1.0" encoding="UTF-8"?>
<svg xmlns="http://www.w3.org/2000/svg" width="24" height="24" viewBox="0 0 24 24" aria-hidden="false" focusable="false" class="flex-none" aria-label="Flurries" role="img">
 <g class="uds-dark-mode-icon">
  <path fill="#0063EB" d="M10.737 21.5a.699.699 0 1 1-1.399 0zm-.7-7.926a.7.7 0 0 1 .686.559l.014.141v2.4l2.08-1.2.13-.057a.7.7 0 0 1 .686 1.188l-.115.082-2.082 1.202 2.076 1.199.115.082a.7.7 0 0 1-.685 1.188l-.13-.057-2.075-1.2V21.5l-.7-.001-.699.001v-2.4L7.26 20.3l-.13.058a.7.7 0 0 1-.686-1.188l.116-.082 2.075-1.2-2.081-1.2-.115-.083a.7.7 0 0 1 .685-1.188l.13.058 2.082 1.2v-2.4l.015-.142a.7.7 0 0 1 .685-.559m7.85-7.228a.7.7 0 0 1 .685.558l.015.142v2.401l2.08-1.2.13-.059a.701.701 0 0 1 .686 1.188l-.116.083-2.082 1.201 2.079 1.201.115.083a.7.7 0 0 1-.686 1.188l-.13-.059-2.076-1.2v2.401l-.015.141a.7.7 0 0 1-1.37 0l-.015-.14v-2.403l-2.078 1.201-.13.059a.7.7 0 0 1-.686-1.188l.115-.083 2.078-1.2-2.081-1.202-.116-.083a.7.7 0 0 1 .686-1.188l.13.058 2.082 1.202V7.046l.014-.142a.7.7 0 0 1 .686-.558M6.872 1.8a.7.7 0 0 1 .7.7v3.831l3.317-1.914a.7.7 0 1 1 .7 1.213l-3.32 1.915 3.321 1.918a.7.7 0 0 1-.7 1.213L7.572 8.76v3.833a.7.7 0 0 1-1.4-.001V8.757L2.85 10.676a.7.7 0 0 1-.7-1.213l3.319-1.918L2.15 5.629a.7.7 0 0 1 .7-1.212l3.321 1.917V2.499a.7.7 0 0 1 .7-.7"></path>
 </g>
</svg>
