<?xml version="1.0" encoding="UTF-8"?>
<svg xmlns="http://www.w3.org/2000/svg" width="24" height="24" viewBox="0 0 24 24" aria-hidden="false" focusable="false" class="flex-none" aria-label="Haze" role="img">
 <g class="uds-dark-mode-icon">
  <path fill="#464E56" d="M12 4.25a4.5 4.5 0 0 1 4.269 3.065l.285.853.886.15a3.68 3.68 0 0 1 3.056 3.457l.004.17a3.68 3.68 0 0 1-3.68 3.68H6.393a2.893 2.893 0 0 1-2.878-2.596l-.015-.296a2.893 2.893 0 0 1 2.642-2.881l1.288-.11.08-1.29a4.494 4.494 0 0 1 4.267-4.196z"></path><path fill="#FFFFFF" d="M12 2.75a6 6 0 0 1 5.69 4.089 5.18 5.18 0 0 1-.87 10.286H6.393a4.392 4.392 0 0 1-.38-8.768A5.994 5.994 0 0 1 12 2.75m-.223 1.506a4.494 4.494 0 0 0-4.266 4.196l-.081 1.29-1.288.11A2.893 2.893 0 0 0 3.5 12.733l.015.296a2.893 2.893 0 0 0 2.878 2.596H16.82a3.68 3.68 0 0 0 3.68-3.68l-.004-.17a3.68 3.68 0 0 0-3.056-3.458l-.886-.149-.285-.853A4.5 4.5 0 0 0 12 4.25z"></path><path fill="#464E56" d="M8.153 20.48a2.543 2.543 0 0 1-3.702.134l-.779-.77-.051-.056a.75.75 0 0 1 1.05-1.06l.056.05.778.77a1.043 1.043 0 0 0 1.48-.013l.075-.087a2.543 2.543 0 0 1 3.8-.235l.101.107.083.093a1.146 1.146 0 0 0 1.711 0l.07-.077a2.685 2.685 0 0 1 4.006 0c.48.538 1.323.526 1.788-.024l.408-.484a.75.75 0 0 1 1.146.967l-.408.483a2.684 2.684 0 0 1-4.055.057 1.183 1.183 0 0 0-1.766 0l-.07.077a2.646 2.646 0 0 1-3.949 0l-.083-.093-.085-.085a1.043 1.043 0 0 0-1.514.138z"></path>
 </g>
</svg>