<?xml version="1.0" encoding="UTF-8"?>
<svg xmlns="http://www.w3.org/2000/svg" width="32" height="32" viewBox="0 0 32 32" aria-hidden="false" focusable="false" class="flex-none" aria-label="Thunderstorms" role="img">
 <g class="uds-light-mode-icon">
  <path fill="#FFD333" d="M19.26 15.531q.01.001.009.012l-1.377 4.645-.01.033.001.009.009.004 2.772-.002a.01.01 0 0 1 .008.016l-5.058 7.128-.004.007h-.002l-.01.003a.01.01 0 0 1-.006-.009l.002-5.8-.01-.012-3.07.001-.008-.003a.01.01 0 0 1 0-.01l2.427-6.047.002-.002.008-.004z"></path><path fill="#000000" d="M19.452 14.043c.846.109 1.44.909 1.297 1.75l-.042.18-.818 2.76h.771l.113.004c1.12.079 1.768 1.329 1.186 2.287l-.062.095-5.064 7.134c-.824 1.162-2.624.628-2.735-.746l-.006-.135v-4.305H12.52a1.514 1.514 0 0 1-1.406-2.076l2.426-6.047.048-.106c.253-.514.78-.843 1.36-.838l4.319.03zm-.193 1.488-4.316-.031q-.007 0-.01.006l-2.428 6.048a.01.01 0 0 0 .001.009l.009.003h3.068q.01.001.011.01l-.002 5.801a.01.01 0 0 0 .006.009l.012-.003.004-.007 5.058-7.128a.01.01 0 0 0-.008-.016l-2.772.002-.009-.005v-.008l.009-.034 1.377-4.644q.001-.01-.01-.012"></path><path fill="#0063EB" d="M25.074 25.23a.75.75 0 0 1-1.465-.323zm-.286-5.65a.75.75 0 0 1 1.457.32l-.012.076-1.16 5.254-.732-.162-.732-.161 1.159-5.253z"></path><path fill="#B0B9C1" d="M16.033 3.53a5.36 5.36 0 0 1 4.978 3.378l.375.945 1.01.115a4.18 4.18 0 0 1 3.692 3.952l.005.2a4.18 4.18 0 0 1-4.18 4.18H9.418a3.446 3.446 0 0 1-3.441-3.268l-.004-.177a3.446 3.446 0 0 1 3.047-3.42l.167-.015 1.344-.089.221-1.329a5.356 5.356 0 0 1 5.034-4.465z"></path><path fill="#000000" d="M16.033 1.83a7.06 7.06 0 0 1 6.557 4.45A5.88 5.88 0 0 1 21.913 18H9.418a5.145 5.145 0 0 1-.343-10.277 7.056 7.056 0 0 1 6.958-5.893m-.247 1.706a5.356 5.356 0 0 0-5.034 4.465l-.22 1.33-1.345.088-.167.015a3.446 3.446 0 0 0-3.047 3.422l.004.176A3.446 3.446 0 0 0 9.418 16.3h12.495a4.18 4.18 0 0 0 4.18-4.18l-.005-.2a4.18 4.18 0 0 0-3.692-3.952l-1.01-.115-.375-.945a5.36 5.36 0 0 0-4.978-3.378z"></path><path fill="#000000" d="M12.227 13.648c1.213-2.665 3.17-3.906 5.135-4.325 1.917-.408 3.795-.027 4.961.453l-.646 1.573c-.92-.38-2.448-.686-3.961-.364-1.466.313-2.964 1.22-3.943 3.367z"></path><path fill="#0063EB" d="M7.232 25.23a.75.75 0 0 1-1.464-.323zm-.285-5.65a.75.75 0 0 1 1.457.32l-.012.076-1.16 5.254-.732-.162-.732-.161 1.159-5.253z"></path>
 </g>
</svg>