<?xml version="1.0" encoding="UTF-8"?>
<svg xmlns="http://www.w3.org/2000/svg" width="24" height="24" viewBox="0 0 24 24" aria-hidden="false" focusable="false" class="flex-none" aria-label="Isolated Thunderstorms" role="img">
 <g class="uds-dark-mode-icon">
  <path fill="#644300" d="m14.708 12.757.123.015c.235.06.396.28.383.522l-.021.121-.824 2.707h1.365l.076.005a.51.51 0 0 1 .377.74l-.04.065-3.706 5.093a.51.51 0 0 1-.915-.21l-.008-.09.002-3.65-1.755.002a.51.51 0 0 1-.47-.704l1.777-4.322a.51.51 0 0 1 .475-.316z"></path><path fill="#464E56" d="M11.994 3.5a4.19 4.19 0 0 1 3.89 2.586l.34.839.9.09a3.17 3.17 0 0 1 2.83 2.845l.014.304a3.165 3.165 0 0 1-3.165 3.165h-10.2a2.582 2.582 0 0 1-.136-5.16l1.201-.062.2-1.186C8.194 4.996 9.904 3.5 11.994 3.5"></path><path fill="#FFFFFF" d="M11.994 2a5.685 5.685 0 0 1 5.28 3.522 4.666 4.666 0 0 1-.471 9.307h-10.2a4.082 4.082 0 0 1-.213-8.158C6.838 4.02 9.176 2 11.994 2m0 1.5c-2.09 0-3.8 1.496-4.126 3.42l-.2 1.187-1.201.062a2.582 2.582 0 0 0 .136 5.16h10.2a3.165 3.165 0 0 0 3.165-3.165l-.015-.304a3.17 3.17 0 0 0-2.829-2.845l-.9-.09-.34-.84a4.19 4.19 0 0 0-3.89-2.585"></path>
 </g>
</svg>
