<?xml version="1.0" encoding="UTF-8"?>
<svg xmlns="http://www.w3.org/2000/svg" width="32" height="32" viewBox="0 0 32 32" aria-hidden="false" focusable="false" class="flex-none" aria-label="Mostly Cloudy" role="img">
 <g class="uds-dark-mode-icon">
  <path fill="#6001D2" d="M10.345 4a8.5 8.5 0 1 1-8.068 11.178c-.128-.383.265-.717.656-.616a6.5 6.5 0 0 0 7.075-9.846c-.195-.298-.02-.716.337-.716"></path><path fill="#000000" d="M18 13.42a5.5 5.5 0 0 1 5.216 3.756l.322.966 1.004.17a4.53 4.53 0 0 1 3.753 4.252l.005.21c0 2.5-2.027 4.526-4.527 4.526H11.28a3.58 3.58 0 0 1-3.575-3.396L7.7 23.72a3.58 3.58 0 0 1 3.264-3.566l1.457-.127.092-1.46a5.5 5.5 0 0 1 5.214-5.14z"></path><path fill="#FFFFFF" d="M18 11.72a7.2 7.2 0 0 1 6.828 4.917A6.228 6.228 0 0 1 23.773 29H11.28a5.28 5.28 0 0 1-.464-10.54A7.2 7.2 0 0 1 18 11.72m-.273 1.707a5.5 5.5 0 0 0-5.214 5.14l-.092 1.46-1.457.127A3.58 3.58 0 0 0 7.7 23.72l.005.184A3.58 3.58 0 0 0 11.28 27.3h12.493c2.5 0 4.526-2.027 4.527-4.527l-.005-.209a4.53 4.53 0 0 0-3.753-4.251l-1.004-.171-.322-.966A5.5 5.5 0 0 0 18 13.42z"></path><path fill="#FFFFFF" d="M23.773 20.353c-1.213 2.664-3.17 3.905-5.135 4.324-1.917.408-3.795.027-4.961-.453l.646-1.573c.92.38 2.448.686 3.961.364 1.466-.312 2.964-1.22 3.943-3.367z"></path>
 </g>
</svg>
