<?xml version="1.0" encoding="UTF-8"?>
<svg xmlns="http://www.w3.org/2000/svg" width="24" height="24" viewBox="0 0 24 24" aria-hidden="false" focusable="false" class="flex-none" aria-label="Mostly Cloudy" role="img">
 <g class="uds-dark-mode-icon">
  <path fill="#644300" d="M8.268 3.008q.15.007.296.022l.091.012q.104.011.206.026l.073.013q.11.017.22.04l.09.02a6 6 0 0 1 .319.079q.075.02.149.043.063.02.125.042l.148.05.109.042.163.065.1.045.157.07.1.05.167.087.08.045a6 6 0 0 1 .387.236q.057.038.112.078a6 6 0 0 1 .675.55 6 6 0 0 1 .29.292l.09.1a6 6 0 0 1 .592.793 6 6 0 0 1 .22.38l.058.116.063.127q.028.06.054.122.037.081.072.164l.029.075a6 6 0 0 1 .11.302l.048.15q.016.054.03.109a6 6 0 0 1 .2 1.052q.03.294.03.595l-.008.309a6 6 0 0 1-.31 1.622q-.015.048-.033.097a6 6 0 0 1-.28.659l-.068.132-.081.147-.054.096-.076.123-.081.127-.074.107q-.044.065-.09.128a6 6 0 0 1-.261.333q-.044.054-.092.107-.047.053-.096.105a7 7 0 0 1-.2.205l-.089.086a6 6 0 0 1-.56.467l-.09.063-.143.099-.09.058q-.069.046-.138.087l-.15.086-.082.045a6 6 0 0 1-.436.213l-.08.035q-.084.036-.17.068l-.111.043-.11.037-.176.057-.074.022q-.099.029-.199.055l-.165.038-.1.023q-.095.018-.191.034l-.113.02-.153.02-.134.016-.131.01a6 6 0 0 1-.778.013q-.15-.008-.298-.023l-.088-.011-.21-.027-.074-.013a6 6 0 0 1-.217-.04q-.056-.011-.11-.024-.081-.017-.16-.037-.08-.02-.156-.043-.066-.017-.132-.038-.07-.021-.14-.046l-.127-.043q-.074-.028-.147-.058l-.122-.048-.145-.064-.111-.05a6 6 0 0 1-.266-.135q-.06-.032-.118-.066a6 6 0 0 1-.249-.15l-.112-.072q-.061-.041-.121-.084l-.12-.086-.083-.063a6 6 0 0 1-.562-.49l-.084-.085-.105-.112-.091-.1-.102-.118-.071-.086q-.06-.073-.116-.15l-.06-.078a6 6 0 0 1-.394-.617l-.06-.106a6 6 0 0 1-.201-.418l-.047-.108-.06-.154-.045-.12a6 6 0 0 1-.095-.289q-.014-.046-.026-.094l-.05-.181-.028-.123a6 6 0 0 1-.131-1.804C2.254 5.44 4.823 3 7.96 3z"></path><path fill="#000000" d="M12.27 8.15c2.077 0 3.856 1.361 4.486 3.273l.304.925.96.172a3.923 3.923 0 0 1-.701 7.78H6.377a3.076 3.076 0 0 1-3.06-2.762l-.016-.314a3.077 3.077 0 0 1 2.777-3.062l1.39-.133.086-1.394C7.71 10.12 9.775 8.15 12.271 8.15"></path><path fill="#FFFFFF" d="M12.27 7.353c2.58 0 4.769 1.69 5.54 4.033a5.1 5.1 0 0 1-.908 10.114H6.863a4.322 4.322 0 0 1-.417-8.625c.19-3.082 2.724-5.522 5.825-5.522m0 1.5c-2.289 0-4.184 1.806-4.327 4.115l-.079 1.278-1.275.122a2.823 2.823 0 0 0-2.548 2.81l.015.288A2.823 2.823 0 0 0 6.863 20h10.04a3.598 3.598 0 0 0 .642-7.138l-.88-.158-.28-.849c-.577-1.754-2.21-3.002-4.115-3.002"></path>
 </g>
</svg>
