<?xml version="1.0" encoding="UTF-8"?>
<svg xmlns="http://www.w3.org/2000/svg" width="32" height="32" viewBox="0 0 32 32" aria-hidden="false" focusable="false" class="flex-none" aria-label="Fog" role="img">
 <g class="uds-light-mode-icon">
  <path fill="#000000" d="M10.53 26.744c-1.106 1.814-3.68 1.969-4.997.302l-1.2-1.52-.05-.07a.85.85 0 0 1 1.326-1.049l.058.067 1.2 1.518a1.35 1.35 0 0 0 2.212-.134l.258-.422c1.11-1.822 3.68-1.956 4.984-.32l.122.164.45.645A1.35 1.35 0 0 0 17 26.06l.107-.135.573-.822c1.213-1.74 3.79-1.74 5.004 0l.521.749a1.35 1.35 0 0 0 2.235-.03l.85-1.29a.85.85 0 0 1 1.42.936l-.85 1.29c-1.187 1.8-3.816 1.834-5.05.065l-.52-.748a1.35 1.35 0 0 0-2.216 0l-.572.822-.117.158c-1.256 1.581-3.711 1.528-4.887-.159l-.45-.644-.111-.14a1.35 1.35 0 0 0-2.149.21z"></path><path fill="#B0B9C1" d="M15.777 5.8a5.82 5.82 0 0 1 5.518 3.972l.34 1.023 1.063.182a4.79 4.79 0 0 1 3.969 4.496l.005.22a4.787 4.787 0 0 1-4.787 4.788H8.668a3.786 3.786 0 0 1-3.78-3.592l-.005-.195a3.786 3.786 0 0 1 3.451-3.77l1.544-.134.098-1.546a5.815 5.815 0 0 1 5.513-5.437z"></path><path fill="#000000" d="M15.777 4a7.62 7.62 0 0 1 7.225 5.202 6.588 6.588 0 0 1-1.117 13.078H8.668a5.586 5.586 0 0 1-.49-11.15 7.615 7.615 0 0 1 7.6-7.13m-.288 1.807a5.815 5.815 0 0 0-5.513 5.437l-.098 1.546-1.544.134a3.786 3.786 0 0 0-3.451 3.77l.005.195a3.786 3.786 0 0 0 3.78 3.592h13.217a4.787 4.787 0 0 0 4.787-4.788l-.005-.22a4.79 4.79 0 0 0-3.969-4.496l-1.062-.182-.341-1.023A5.82 5.82 0 0 0 15.777 5.8z"></path><path fill="#000000" d="M11.227 16.648c1.213-2.665 3.17-3.906 5.135-4.325 1.917-.408 3.795-.027 4.961.453l-.646 1.573c-.92-.38-2.448-.686-3.961-.364-1.466.313-2.964 1.22-3.943 3.367z"></path>
 </g>
</svg>

