<?xml version="1.0" encoding="UTF-8"?>
<svg xmlns="http://www.w3.org/2000/svg" width="32" height="32" viewBox="0 0 32 32" aria-hidden="false" focusable="false" class="flex-none" aria-label="Cloudy" role="img">
 <g class="uds-light-mode-icon">
  <path fill="#FFFFFF" d="M16 7.3c3.198 0 5.875 2.007 6.825 4.737l.36 1.033 1.083.157a5.77 5.77 0 0 1 4.925 5.435l.007.27a5.77 5.77 0 0 1-5.767 5.768H7.417a4.62 4.62 0 0 1-4.611-4.38l-.006-.237a4.616 4.616 0 0 1 4.33-4.606l1.583-.097.104-1.581c.23-3.473 3.131-6.316 6.824-6.49z"></path><path fill="#000000" d="M16 5.5c3.961 0 7.323 2.489 8.525 5.945A7.568 7.568 0 0 1 23.433 26.5H7.417a6.417 6.417 0 0 1-.396-12.82C7.324 9.113 11.227 5.5 16 5.5m-.36 1.809c-3.692.174-6.593 3.017-6.823 6.49l-.104 1.58-1.582.098A4.616 4.616 0 0 0 2.8 20.083l.006.237a4.62 4.62 0 0 0 4.611 4.38h16.016a5.77 5.77 0 0 0 5.767-5.767l-.007-.27a5.77 5.77 0 0 0-4.925-5.436l-1.083-.157-.36-1.033C21.875 9.307 19.198 7.3 16 7.3z"></path><path fill="#000000" d="M23.624 16.273c-1.568 3.049-4.07 4.427-6.521 4.89-2.414.454-4.788.029-6.261-.508l.617-1.692c1.233.45 3.275.814 5.31.43 1.998-.377 3.98-1.465 5.254-3.942z"></path>
 </g>
</svg>

