<?xml version="1.0" encoding="UTF-8"?>
<svg xmlns="http://www.w3.org/2000/svg" width="32" height="32" viewBox="0 0 32 32" aria-hidden="false" focusable="false" class="flex-none" aria-label="Scattered Showers" role="img">
 <g class="uds-light-mode-icon">
  <path fill="#FFD333" d="M16.5 4.7a7.3 7.3 0 1 1 0 14.6 7.3 7.3 0 0 1 0-14.6"></path><path fill="#000000" d="M16.5 3a9 9 0 1 1 0 18 9 9 0 0 1 0-18m0 1.7a7.3 7.3 0 1 0 0 14.6 7.3 7.3 0 0 0 0-14.6"></path><path fill="#FFFFFF" d="M21.956 13.2a3.25 3.25 0 0 1 3.024 2.038l.37.925.987.13a2.265 2.265 0 0 1 1.953 2.032l.01.213a2.265 2.265 0 0 1-2.265 2.265h-1.348V20.8H17.11a1.91 1.91 0 0 1-1.899-1.714l-.01-.195a1.91 1.91 0 0 1 1.91-1.91h1.373l.31-1.306a3.24 3.24 0 0 1 2.877-2.463z"></path><path fill="#000000" d="M21.956 11.5a4.95 4.95 0 0 1 4.604 3.108 3.965 3.965 0 0 1-.525 7.895h-3.048V22.5H17.11a3.61 3.61 0 0 1 0-7.219h.032a4.944 4.944 0 0 1 4.815-3.781m-.286 1.712a3.24 3.24 0 0 0-2.876 2.463l-.31 1.306H17.11a1.91 1.91 0 0 0-1.909 1.91l.01.195a1.91 1.91 0 0 0 1.9 1.714h7.578v.003h1.347a2.265 2.265 0 0 0 2.265-2.265l-.01-.213a2.265 2.265 0 0 0-1.953-2.031l-.987-.13-.37-.926a3.25 3.25 0 0 0-3.024-2.038z"></path><path fill="#FFFFFF" d="M9.688 3.7a2.8 2.8 0 0 1 2.605 1.755l.37.926.986.13c.874.116 1.56.826 1.643 1.709l.008.178a1.904 1.904 0 0 1-1.905 1.905h-1.07V10.3H5.281a1.58 1.58 0 0 1-1.573-1.42L3.7 8.72c0-.819.622-1.492 1.42-1.573l.161-.008h1.371l.31-1.307a2.79 2.79 0 0 1 2.48-2.12z"></path><path fill="#000000" d="M9.688 2a4.5 4.5 0 0 1 4.184 2.826 3.605 3.605 0 0 1-.476 7.177h-2.771V12H5.281a3.281 3.281 0 0 1 0-6.562h.029A4.495 4.495 0 0 1 9.688 2M9.44 3.71a2.79 2.79 0 0 0-2.478 2.121l-.31 1.307H5.28l-.162.008A1.58 1.58 0 0 0 3.7 8.719l.008.162A1.58 1.58 0 0 0 5.281 10.3h7.044v.003h1.07A1.904 1.904 0 0 0 15.3 8.398l-.008-.178a1.905 1.905 0 0 0-1.643-1.708l-.987-.131-.369-.926A2.8 2.8 0 0 0 9.688 3.7z"></path><path fill="#0063EB" d="M23.406 29.29a.85.85 0 0 1-1.663-.361zm-.552-5.47a.85.85 0 0 1 1.662.36l-1.11 5.11-.832-.182-.83-.18zm3.426.001a.85.85 0 1 1 1.661.358l-.86 4a.85.85 0 0 1-1.662-.358zm-7.12-.005a.85.85 0 1 1 1.66.368l-.68 3.078-.023.084a.85.85 0 0 1-1.636-.45zm-3.336 5.501a.85.85 0 0 1-1.648-.417zm-.353-5.526a.85.85 0 0 1 1.648.418l-1.295 5.108-.824-.209-.824-.208z"></path>
 </g>
</svg>

