<?xml version="1.0" encoding="UTF-8"?><svg width="315" height="56" version="1.1" viewBox="0 0 558 99.2" xmlns="http://www.w3.org/2000/svg" xmlns:xlink="http://www.w3.org/1999/xlink"><style><![CDATA[.C{fill-rule:evenodd}]]></style><style><![CDATA[.text{fill:#000000}]]></style><path d="M557.7 47.9c-.2-1.9-.4-3.5.2-5 .3-.9.2-1.9-.4-2.6s-1.7-1-2.7-.7c0 0-.1-.1-.1-.2-.5-.8-1-1.7-1.9-2.2-.5-.3-.8-.7-1.1-1.6v-.1c-.4-1.1-1-2.6-2.7-3.4-.4-.2-.9-.1-1.2 0l-.3-.8-.1-.2-.3-1c-.1-.4-.2-.8-.4-1.1-.8-2.2-2.7-3.2-4.2-4.1l-.1-.1c-1.3-.7-2-1.6-2.4-2.8-.2-.7-.4-1.3-.7-1.9-.2-.4-.3-.8-.4-1.2l-.1-.3c-.2-.6-.4-1.2-.5-1.8-.2-1.5-.7-3.1-2-4.5-.6-.6-1.7-1.1-2.6-.8h-.1c0-1.5-.4-2.6-1-3.7-.3-.6-.5-1.3-.7-2-.1-.4-.3-.8-.4-1.2-.2-.4-.3-.8-.5-1.2l-.2-.5c-.2-.6-.8-.9-1.4-.9h-.4c-.5 0-.9.2-1.2.6-.1.1-.2.2-.2.3-.3.3-.7.8-.9 1.4-.3 1-.8 2.2-.8 3.5-.1 1.1-.1 2.2-.1 3.3l-.1 2.8v.3c-.1 1.6-.2 3.2-.6 4.6-.1.4-.3.7-.6.8-.3.2-.8.1-1.3-.1s-1-.5-1.5-.8l-1.1-.7-3.5-2-.4-.2c-1.1-.7-2.2-1.4-3.1-2.2l-.4-.4c0-.1.1-.3.4-.7.2-.3.4-.5.6-.7.6-.7 1.1-1.5 1.6-2.3.7-1.2.5-2.1.3-2.6s-.7-1.3-2.1-1.6c-1.1-.3-2.3-.4-3.4-.4-1.5 0-2.5-.3-3.4-1s-1.8-1-2.6-.8c-1.3.3-1.8 1.6-1.9 2.1-.1.3-.2.5-.8.5-.2 0-.4 0-.6.1-.8.1-1.8.2-2.6.5-1 .4-2 1.3-2.4 2.3-.4.8-.5 1.7-.5 2.5 0 .2 0 .5-.1.7v.2c0 .2-.1.4-.1.6l-.6-.3-2.9-1.3c-.5-.2-1.5-.5-2.5-.2-2.5.6-4.4 2-5.7 4.2-.2.3-.5.8-.8 1-.8.4-1.3.9-1.8 1.6-.2-.2-.5-.3-.8-.3-.4 0-.8.1-1.1.4-1.2 1-2.5 2.6-2.4 4.9 0 0-.1.2-.4.7-1.2 1.7-2.7 2.7-4.6 2.9-2.5.3-5.2.9-7.6 2.4l-5.3 3.6c-.2-.3-.6-.6-1.1-.6-.6-.1-1.2.2-1.5.8-.1.2-.2.3-.2.4-.2.3-.4.7-.5 1.2l-.4 1.6-1 5.2c-.2 1.8.2 3.7.5 4.9.2.9.6 1.7.9 2.5.2.4.4.8.5 1.3l1 2.7c.1.2.1.4.2.5.2.5.3 1 .5 1.5l.3.9.6 2.3 1.1 3.9c.9 2.2.8 3.3-.2 4.5-.2.2-.3.4-.4.6-.5.9-.6 1.8-.3 2.5.3.8.8 1.3 1.7 1.8 3.4 1.6 6.5 1.7 9.4.4l.4-.2c.9-.4 1.9-.8 2.8-1.4 1.4-.9 3.1-1.2 5.1-1s3.7-.2 5.1-1c.8-.5 1.2-1 1.5-1.5.1-.1.2-.3.3-.4.2-.1.3-.3.5-.4.5-.4 1.1-.9 1.4-1.6.3-.8.6-.9.6-.9s.3 0 .9.4c.8.5 2.1.6 2.9.1.5-.4 1.1-.5 1.8-.5.6 0 1.4-.2 2.3-.3l1.6-.3h.2c.2 0 .4-.1.6-.1 4-.4 6.7.3 8.8 2.4l.3.3c.3.3.5.6.8 1 .2.3.4.6.6.8.6.8 1.2 1.5 1.3 2.4.3 1.5 1 2.2 1.7 2.5.6.3 1.7.6 3.2-.2l1.2-.5c.1 0 .3.2.7 1.1.3.6.6 1 1 1.3l.2.2c.8.6 1.7.7 2.5.6v.4.4c.3 3.7 2.9 6.9 6.5 7.9l.6.2c1 .3 2 .5 2.9.9 1.4.5 2.7.3 3.8-.5s1.9-.8 3 .3c.8.7 1.5 1.1 2.3 1.1h.2c1.2-.1 2-.9 2.5-1.5.3-.3.5-.7.7-.9.6-.9 1.2-1.2 2.2-1.2 2.8 0 4.2-1.2 4.8-4l.3-1.4c.1-.8.3-1.6.5-2.3 1.7-4 3.4-7.5 5-10.7 2.1-4.2 2.9-8.6 2.4-13.2l-.5-1.5zm-97.4 18.7l1.4.6s0 .1-.1.1l-1.3-.7zm8.6 1.1l-.4.2c-2.1.9-4.3.8-6.9-.4 0 0 0-.1.1-.1h0c2.4-2.6 1.7-5.3.8-7.6-.1-.3-.3-.7-.4-1 1.4.8 3.3 1.5 5.9 2.2 2.3.6 2.8 1.8 3.3 3.4.2.6.5 1.3.9 1.9-.3.1-.5.3-.8.4-.9.2-1.7.6-2.5 1zm20.8-7.6s0-.1 0 0zm7.6-1.7c-.2 0-.5.1-.7.1h-.2c-.5.1-1.2.2-1.8.3-.7.1-1.5.3-1.8.3-1.2 0-2.2.3-3.2.9-.8-.5-2.1-1.1-3.4-.7s-2 1.7-2.4 2.6l-.5.5c-.2.2-.5.4-.7.6l-.1.1a3.04 3.04 0 0 0-.5.7 1.72 1.72 0 0 1-.6.6c-.9.6-2 .8-3.3.6-.6-.1-1.1-.1-1.6-.1h-.2c-1.6.1-1.7-.3-2.3-1.9-.6-1.7-1.6-4.2-5.4-5.2-5.8-1.5-7.4-3.1-8.1-5-.2-.7-.5-1.4-.7-2.1v-.1c-.8-5.4 1.6-10.9 6.2-14.1 3.5-2.4 8.7-4.4 12.5-3.3 1.8.5 3.4 1.3 5.1 2.2 1.3.6 2.6 1.3 3.9 1.8 7 2.7 13.1 2.6 19.6-.4.5-.2 1-.5 1.5-.7 1.5-.7 3-1.4 4.5-1.9 2.3-.7 4.3-.5 7.2 0 1.6.2 2.8 1.1 3.7 2.6 1.2 2.1 1.4 5.2.5 7.7-.9 2.3-4 4.4-6.6 5.3-2 .7-3.9 1.3-5.6 1.8-5 1.5-8.6 2.5-9.3 5.4-.1.6-.1 1.2 0 1.8-2.1-.6-4-.5-5.7-.4zm15.7 9.5c-.3.1-.4.2-.5.2 0-.1-.1-.2-.1-.3-.3-1.6-1.2-2.7-1.9-3.7-.2-.2-.4-.5-.6-.7-.3-.4-.6-.8-1-1.2l-.1-.1-.7-.7c-2.4-2.4-2.4-3.4-2.3-3.7.3-1.2 4-2.2 7.2-3.2 1.8-.5 3.8-1.1 5.8-1.8 3.3-1.2 7.1-3.8 8.4-7.1s1-7.4-.7-10.3c-1.3-2.3-3.3-3.6-5.8-4-2.6-.4-5.4-.8-8.5.1-1.7.5-3.4 1.3-4.9 2-.5.2-1 .5-1.4.7-5.8 2.6-10.9 2.7-17.2.3-1.2-.5-2.4-1-3.7-1.7-1.8-.9-3.6-1.8-5.6-2.3-5.1-1.4-11.3 1.1-15 3.7-3.4 2.4-5.9 5.9-7 9.7-.2-.9-.3-2.1-.2-3.1a40.48 40.48 0 0 1 .9-4.8c0-.2.1-.4.1-.6.9.1 1.7-.4 2.1-.8 1.7-1.2 3.5-2.5 5.4-3.6 2-1.2 4.3-1.6 6.5-1.9 2.8-.4 5-1.8 6.7-4.2.5-.7 1-1.5.9-2.5 0-.5 0-.9.3-1.3h-.1c.3.4.8.6 1.4.6.5-.1 1-.4 1.2-.9 0-.1.1-.2.1-.3.1-.2.2-.5.3-.8.2-.7.4-1 1-1.3.9-.5 1.4-1.2 1.9-2 .9-1.5 2.2-2.4 4-2.9.1 0 .4 0 .7.1l2.8 1.2.2.1c-.4.2-.9.4-1.4.6-1.5.6-3.4 1.3-4.1 3.5-.7 2.3 0 3.8.7 4.7 2.4 3.1 8.5 2.8 9.7 2.7 2.7-.2 5.4-.2 8.1-.3 2.6 0 5.3-.1 8.1-.3.9.1 1.8.2 2.7.2 4.2.3 8.2.7 12.2 1.5 3 .7 5.2 1.9 6.8 3.8 4 4.7 6.4 14.5 1 19.2-1.9 1.7-4.4 2.4-7 3.1-.7.2-1.3.3-2 .5-6 1.8-11.2 6.3-12.7 10.9-.2.7-.3 1.3-.4 2-.6.3-1.4.5-2.3 1zm9.9 5.9v-.3c0-.2 0-.5-.1-.7-.1-1-.5-1.7-1.2-2.2-.4-.3-1.2-.6-2.3-.3h-.1c-.9-1.2-1.1-2.7-.6-4.3 1.1-3.7 5.6-7.5 10.6-8.9.6-.2 1.3-.4 1.9-.5 2.8-.8 5.7-1.5 8.2-3.7 6.8-6 4.1-17.7-.7-23.4-2-2.4-4.9-4-8.4-4.7-4.2-.9-8.4-1.3-12.6-1.6-.9-.1-1.9-.2-2.8-.2h-.2c-2.7.2-5.4.2-8 .3a114.41 114.41 0 0 0-8.2.3c-2.8.2-6.1-.3-7.1-1.6-.2-.3-.5-.8-.2-2 .2-.7.9-1 2.3-1.6 1.5-.6 3.6-1.4 4.4-3.9.5-.8.6-1.6.7-2.3V12c0-.3.1-.5.1-.8.1-.6.1-1.1.3-1.5.1-.2.5-.6.8-.7.5-.2 1.1-.2 1.8-.3.2 0 .4 0 .7-.1 1.6-.2 2.7-1 3.2-2.4 1.8 1.4 3.7 1.6 5.1 1.6a10.68 10.68 0 0 1 2.5.3l-1.3 1.9c-.2.3-.4.5-.6.8-1 1.3-1.8 3.1.4 5.1 1.1 1 2.3 1.8 3.5 2.5l.3.2 3.6 2.1 1.1.6c.6.4 1.2.7 1.9 1 1.3.5 2.7.5 3.7-.1 1-.5 1.8-1.5 2.1-2.7.5-1.7.6-3.5.7-5.2V14c.1-1 .1-2 .1-3 0-1.1 0-2.1.1-3.1 0-.4.1-.8.2-1.2.2.8.5 1.6.9 2.4s.7 1.5.6 2.2c0 .5-.1 1.9 1 2.7.8.6 1.8.5 2.6.3.6.7.9 1.6 1.1 2.8.1.8.4 1.6.6 2.3l.1.3c.1.4.3.9.5 1.3.2.6.4 1.2.6 1.7.6 2 1.8 3.5 3.8 4.6l.1.1c1.3.7 2.4 1.3 2.8 2.4.1.3.2.7.3 1 .1.4.2.8.4 1.1l.1.2c.2.6.4 1.2.8 1.9.2.4.6.8.8 1.1l.3.3c.3.4.8.6 1.2.5.3 0 .6-.1.9-.3.1.2.2.4.3.7v.1c.4 1.1 1 2.3 2.4 3.1.3.2.8.9.9 1.1.7 1.2 1.7 1.8 2.9 1.7-.6 2-.3 3.9-.1 5.8l.1.6c.1.4.1.9.1 1.3 0 2.6-.3 3.3-1.3 4.7-1.3 1.9-3.4 3.4-5.8 4.2-1.5.5-3.1.7-4.8 1s-3.5.5-5.2 1.1c-3.3 1.1-5.4 2-7.9 4.2-2.6 2.3-4 4.7-4.8 8.4a7.91 7.91 0 0 0 .3 4.3c-1.4-.9-2.3-2.4-2.5-4.1zm24.7-2.6c-.4 1-.6 2-.8 3-.1.4-.1.8-.2 1.3-.3 1.6-.5 1.7-1.9 1.7-2 0-3.6.9-4.7 2.6-.1.2-.3.4-.4.6l-.4.4c-.1 0-.1-.1-.3-.2-1.3-1.2-2.6-1.7-3.7-1.7-1.2 0-2.3.5-3.2 1.1-.1.1-.4.3-1.1 0h-.1c-1.8-.5-3.5-3.1-3-5.7.6-3.1 1.7-4.9 3.8-6.8 2.2-1.9 3.8-2.6 6.9-3.6 1.5-.5 3.1-.7 4.7-1 1.7-.3 3.5-.5 5.2-1.1 1.6-.5 3-1.3 4.3-2.2-.1.2-.2.3-.2.5l-4.9 11.1zm-52.5-27.6c-.8 0-1.5-.1-2.3-.1l-5.1-.4-3.7-.8-3.1-.8c-1.8-.3-3.5.1-4.8 1.3-1.5 1.3-2.3 3.3-2.1 5.5.1.8.2 1.6.5 2.3 1.2 2.7 4.6 4.9 6.5 5.8 1 .5 1.9.6 2.8.6 1.8 0 3.4-.8 4.9-1.6l.7-.3c.6-.3 1.6-.6 2.6-.9 2.5-.8 5.4-1.7 6.6-3.7.9-1.4 1-3 .4-4.4-.7-1.5-2.1-2.4-3.9-2.5zm1 5.2c-.7 1-3.2 1.9-5 2.4l-3 1.1-.7.4c-2.1 1.1-3.4 1.6-5 .9-2-.9-4.4-2.8-5-4.2-.2-.4-.3-.8-.3-1.3-.1-1.2.3-2.4 1.1-3 .6-.5 1.4-.7 2.3-.6l2.9.7a25.85 25.85 0 0 0 4 .9c1.8.3 3.6.3 5.4.4l2.2.1c.6 0 1.2.3 1.4.8.2.3.1.8-.3 1.4zm47.7 38.4c-.4-.1-.8-.1-1.2.1-.5.3-.9.6-1.3.9l-.1.1c-.1.1-.4.4-.6.4-.1 0-.5-.1-.7-.1-.5-.1-1.1-.2-1.7-.1-.4 0-.6-.1-1.2-.4-.5-.3-1-.6-1.8-.8-1.7-.4-2.5.7-2.7 1-.8 1.4.1 3.6.9 4.5l.1.1c-.3 1-.3 2 .2 3.1 0 .1 1.3 2.8 3.2 3.2.2 0 .4.1.6.1.6 0 1.1-.2 1.6-.6.4-.3.6-.7.8-1l.1-.1h.1c.4 0 1.1-.1 1.7-.8.3-.4.4-.8.5-1.1 0-.2.2-.3.4-.6l.6-1c.3-.7.3-1.4.2-1.8v-.4c0-.1.2-.3.3-.5.2-.3.5-.6.7-1 .4-.7.4-1.6.1-2.2-.1-.6-.4-.9-.8-1zm-3.2 5.6c-.1.1-.2.3-.3.5-.2.3-.5.7-.8 1.3-.5.1-1.2.3-1.7 1-.1.1-.2.3-.3.4l-.1.1c-.3-.3-.7-.9-1-1.4-.1-.3-.2-.6-.1-.9.1-.2.2-.5.2-.8.1-1-.5-1.8-1-2.2.7.4 1.6.8 2.9.7.2 0 .5 0 .8.1.4.1.8.2 1.2.2v.6c.2.1.2.3.2.4z" fill="#2461e5"/><path class="text C" d="M152.1 42.1h-6.2l-.7 1.7c-.2.6-.4 1-.4 1.4 0 .5.2.9.6 1.1.2.1.8.2 1.7.3v.5h-5.8v-.5c.6-.1 1.1-.4 1.6-.8.4-.4.9-1.3 1.5-2.6l6.3-14h.2l6.3 14.4c.6 1.4 1.1 2.2 1.5 2.6.3.3.7.4 1.2.5v.5h-8.5v-.5h.3c.7 0 1.2-.1 1.4-.3.2-.1.3-.3.3-.6 0-.2 0-.3-.1-.5 0-.1-.1-.4-.4-1l-.8-2.2h0zm-.5-1l-2.6-6-2.7 6h5.3 0z"/><path class="text" d="M170.6 35v9.5c0 .9.1 1.5.3 1.7s.5.4 1 .4v.5H167v-1.6c-.6.7-1.2 1.2-1.7 1.5-.6.3-1.2.5-1.9.5s-1.3-.2-1.8-.6-.9-.9-1.1-1.5-.3-1.5-.3-2.9v-4.8c0-.9-.1-1.5-.3-1.7s-.5-.4-1-.4V35h4.9v8.3c0 .9 0 1.4.1 1.7s.2.4.4.6c.2.1.4.2.6.2.3 0 .6-.1.8-.2.3-.2.8-.7 1.2-1.4v-6.5c0-.9-.1-1.5-.3-1.7s-.5-.4-1-.4V35h5 0zm9.8-.3l.2 4.1h-.4c-.5-1.2-1.1-2.1-1.6-2.5-.6-.4-1.1-.7-1.7-.7-.4 0-.7.1-.9.4-.3.2-.4.5-.4.8a1.08 1.08 0 0 0 .3.7c.3.4 1 1 2.3 1.8 1.3.9 2.1 1.6 2.5 2.2s.6 1.3.6 2-.2 1.3-.5 2c-.3.6-.8 1.1-1.4 1.5-.6.3-1.3.5-2 .5-.6 0-1.3-.2-2.3-.5-.3-.1-.4-.1-.5-.1-.3 0-.5.2-.7.6h-.4l-.2-4.3h.4c.4 1.1.9 2 1.6 2.6s1.3.9 1.9.9c.4 0 .8-.1 1-.4.3-.3.4-.6.4-.9 0-.4-.1-.8-.4-1.1s-.8-.8-1.7-1.4c-1.3-.9-2.2-1.6-2.6-2.1-.6-.7-.9-1.5-.9-2.3 0-.9.3-1.8 1-2.5.6-.8 1.6-1.1 2.8-1.1.7 0 1.3.2 1.9.5.2.1.4.2.6.2s.3 0 .4-.1.2-.3.5-.6h.2v-.2z"/><use class="text" xlink:href="#B"/><path class="text" d="M195.6 35v2.7c.8-1.2 1.5-2.1 2.1-2.5s1.2-.6 1.7-.6.9.2 1.2.5.4.7.4 1.3-.1 1-.4 1.3-.6.5-1 .5c-.5 0-.9-.1-1.2-.4s-.5-.5-.6-.5c-.1-.1-.2-.1-.3-.1a1.08 1.08 0 0 0-.7.3c-.4.3-.6.7-.8 1.3-.3.8-.4 1.8-.4 2.8v2.8.7c0 .5 0 .8.1.9.1.2.3.4.5.5s.6.2 1 .2v.5h-6.5v-.5c.5 0 .9-.2 1.1-.4s.3-.9.3-1.9v-6.7c0-.7 0-1.1-.1-1.3s-.2-.4-.4-.5-.5-.2-.9-.2V35h4.9 0z"/><path class="text C" d="M207.6 45.3c-1.5 1.3-2.8 2-4 2-.7 0-1.3-.2-1.7-.7a2.19 2.19 0 0 1-.7-1.7c0-.9.4-1.7 1.2-2.5.8-.7 2.5-1.7 5.2-2.9v-1.2c0-.9-.1-1.5-.2-1.7s-.3-.4-.6-.6-.6-.3-.9-.3c-.6 0-1 .1-1.4.4-.2.2-.3.3-.3.5s.1.4.4.7c.3.4.5.7.5 1.1s-.2.8-.5 1.1-.7.4-1.2.4-1-.2-1.4-.5-.5-.7-.5-1.1c0-.6.2-1.2.7-1.8s1.2-1 2.1-1.3 1.8-.5 2.7-.5c1.1 0 2.1.2 2.7.7.7.5 1.1 1 1.3 1.6.1.4.2 1.2.2 2.5v4.7c0 .6 0 .9.1 1 0 .1.1.2.2.3s.2.1.3.1c.2 0 .5-.2.7-.5l.4.3c-.4.6-.9 1.1-1.3 1.4-.5.3-1 .4-1.6.4-.7 0-1.2-.2-1.6-.5s-.7-.8-.8-1.4h0zm0-1v-4c-1 .6-1.8 1.3-2.3 2-.3.5-.5.9-.5 1.4 0 .4.1.7.4 1 .2.2.5.3.9.3.5.1 1-.2 1.5-.7h0z"/><path class="text" d="M218.1 29.6v15c0 .9.1 1.4.3 1.6s.6.4 1.2.4v.5h-6.5v-.5c.5 0 .9-.2 1.2-.5.2-.2.3-.7.3-1.6V32.1c0-.8-.1-1.4-.3-1.6s-.6-.4-1.2-.4v-.5h5 0z"/><path class="text C" d="M223.7 29.1c.6 0 1 .2 1.4.6s.6.9.6 1.4c0 .6-.2 1-.6 1.4s-.9.6-1.4.6c-.6 0-1-.2-1.4-.6s-.6-.9-.6-1.4c0-.6.2-1 .6-1.4s.8-.6 1.4-.6h0zm1.8 5.9v9.6c0 .9.1 1.4.3 1.6s.6.4 1.2.4v.5h-6.5v-.5c.5 0 .9-.2 1.2-.5.2-.2.3-.7.3-1.6v-7.1c0-.9-.1-1.4-.3-1.6s-.6-.4-1.2-.4V35h5 0zm8.5 10.3c-1.5 1.3-2.8 2-4 2-.7 0-1.3-.2-1.7-.7a2.19 2.19 0 0 1-.7-1.7c0-.9.4-1.7 1.2-2.5.8-.7 2.5-1.7 5.2-2.9v-1.2c0-.9-.1-1.5-.2-1.7s-.3-.4-.6-.6-.6-.3-.9-.3c-.6 0-1 .1-1.4.4-.2.2-.3.3-.3.5s.1.4.4.7c.3.4.5.7.5 1.1s-.2.8-.5 1.1-.7.4-1.2.4-1-.2-1.4-.5-.5-.7-.5-1.1c0-.6.2-1.2.7-1.8s1.2-1 2.1-1.3 1.8-.5 2.7-.5c1.1 0 2.1.2 2.7.7.7.5 1.1 1 1.3 1.6.1.4.2 1.2.2 2.5v4.7c0 .6 0 .9.1 1 0 .1.1.2.2.3s.2.1.3.1c.2 0 .5-.2.7-.5l.4.3c-.4.6-.9 1.1-1.3 1.4-.5.3-1 .4-1.6.4-.7 0-1.2-.2-1.6-.5-.5-.3-.7-.8-.8-1.4h0zm0-1v-4c-1 .6-1.8 1.3-2.3 2-.3.5-.5.9-.5 1.4 0 .4.1.7.4 1 .2.2.5.3.9.3.4.1.9-.2 1.5-.7h0z"/><use class="text" xlink:href="#C"/><path class="text" d="M276.4 29.2v6.2h-.5c-.6-1.7-1.4-3-2.6-3.8-1.2-.9-2.4-1.3-3.8-1.3-1.3 0-2.4.4-3.3 1.1s-1.5 1.8-1.8 3.1c-.4 1.3-.5 2.7-.5 4.1 0 1.7.2 3.2.6 4.4.4 1.3 1 2.2 1.9 2.8s1.9.9 3.2.9c.4 0 .9 0 1.3-.1s.9-.2 1.4-.4v-3.6c0-.7 0-1.1-.1-1.3s-.3-.4-.6-.6-.7-.2-1.1-.2h-.5V40h8.5v.5c-.6 0-1.1.1-1.4.3-.3.1-.4.3-.6.7-.1.2-.1.6-.1 1.2V46c-1.1.5-2.3.9-3.5 1.1-1.2.3-2.5.4-3.8.4-1.7 0-3-.2-4.2-.7-1.1-.5-2.1-1.1-2.9-1.8a9.58 9.58 0 0 1-2-2.5c-.6-1.2-.9-2.5-.9-4 0-2.6.9-4.9 2.8-6.7s4.2-2.7 7-2.7c.9 0 1.7.1 2.4.2.4.1 1 .3 1.8.6l1.5.5a1.08 1.08 0 0 0 .7-.3c.2-.2.4-.5.6-1h.5v.1z"/><path class="text C" d="M284.8 34.6c1.1 0 2 .3 2.9.8s1.6 1.3 2.1 2.3.7 2.1.7 3.3c0 1.7-.4 3.1-1.3 4.3-1.1 1.4-2.5 2.1-4.4 2.1-1.8 0-3.2-.6-4.2-1.9a7.1 7.1 0 0 1-1.5-4.4c0-1.7.5-3.2 1.5-4.5s2.4-2 4.2-2h0zm0 .9c-.4 0-.8.2-1.1.5s-.5 1-.6 2-.1 2.3-.1 4.1c0 .9.1 1.8.2 2.6.1.6.3 1.1.6 1.4s.7.5 1.1.5a1.69 1.69 0 0 0 1-.3c.3-.3.6-.7.7-1.2.2-.8.3-2.5.3-5 0-1.5-.1-2.5-.2-3-.2-.6-.4-1-.7-1.2-.5-.3-.8-.4-1.2-.4h0z"/><path class="text" d="M296.2 47.4l-4.1-9.4c-.5-1.1-.9-1.8-1.1-2.1-.2-.2-.5-.4-.9-.5V35h6.4v.5c-.4 0-.7.1-.8.2-.2.2-.3.4-.3.7s.2.9.6 1.8l2 4.5 1.6-3.9c.5-1.1.7-1.9.7-2.4 0-.3-.1-.5-.3-.6-.2-.2-.5-.3-1-.3V35h4v.5c-.4.1-.7.2-.9.4s-.6.9-1.1 2.1l-4 9.5h-.8v-.1z"/><use class="text C" xlink:href="#D"/><path class="text" d="M318.1 35v2.7c.8-1.2 1.5-2.1 2.1-2.5s1.2-.6 1.7-.6.9.2 1.1.5c.3.3.4.7.4 1.3s-.1 1-.4 1.3-.6.5-1 .5c-.5 0-.9-.1-1.2-.4s-.5-.5-.6-.5c-.1-.1-.2-.1-.3-.1a1.08 1.08 0 0 0-.7.3c-.4.3-.6.7-.8 1.3-.3.8-.4 1.8-.4 2.8v2.8.7c0 .5 0 .8.1.9.1.2.3.4.5.5s.5.2 1 .2v.5h-6.5v-.5c.5 0 .9-.2 1.1-.4s.3-.9.3-1.9v-6.7c0-.7 0-1.1-.1-1.3s-.2-.4-.4-.5-.5-.2-.9-.2V35h5 0z"/><use class="text" x="84.7" xlink:href="#C"/><path class="text" d="M343.2 35v1.6c.7-.7 1.3-1.2 1.8-1.5.6-.3 1.2-.4 1.9-.4.8 0 1.4.2 2 .5.5.4.9.9 1.2 1.7.7-.8 1.3-1.3 2-1.7.6-.3 1.3-.5 2-.5.8 0 1.5.2 2 .6s.8.9 1 1.5.3 1.5.3 2.8v4.9c0 .9.1 1.5.2 1.7.2.2.5.4 1.1.4v.5h-6.2v-.5c.5 0 .9-.2 1.1-.6.2-.2.2-.8.2-1.6v-5.2l-.1-2.1c-.1-.3-.2-.5-.4-.6s-.4-.2-.6-.2c-.4 0-.7.1-1.1.4s-.8.7-1.2 1.2v6.5c0 .9.1 1.4.2 1.6.2.3.6.5 1.1.5v.5h-6.3v-.5c.3 0 .6-.1.8-.2.2-.2.3-.3.4-.5s.1-.7.1-1.4v-5.2l-.1-2.1c-.1-.3-.2-.5-.4-.6-.2-.2-.4-.2-.6-.2-.3 0-.7.1-.9.3-.4.3-.8.7-1.3 1.4v6.5c0 .9.1 1.4.2 1.7.2.3.5.4 1.1.5v.5h-6.2v-.5c.5-.1.9-.2 1.1-.5.1-.2.2-.7.2-1.7v-6.8c0-.9-.1-1.5-.3-1.7s-.5-.4-1-.4V35h4.7 0z"/><use class="text C" x="57.1" xlink:href="#D"/><use class="text" x="130.4" xlink:href="#C"/><use class="text" x="201.3" xlink:href="#B"/><path class="text" d="M43.6 75.9c-.1.1-.2.3-.3.3m3.3-24a.65.65 0 0 0 .6-.6c0-.4-.3-.6-.6-.6a.65.65 0 0 0-.6.6c0 .4.3.6.6.6h0zM76 25.5h0-22.8 0 0v18.4c0 1.8.8 3.3 1.8 3.8l8.8 5.2c.2.2.5.4.8.4s.5-.1.7-.3l8.9-5.3c1-.5 1.8-2 1.8-3.8V25.5h0 0zm-15.3 5.4h-2v-4.7h2v4.7h0zm-1.4 1.6l.3-.3-.2-.3h.4l.2-.4.2.4h.4l-.2.3.3.3-.4.1v.4l-.3-.3-.4.3v-.4l-.3-.1h0zm-5.5 5.9v-4.5h2.4v4.5h-2.4 0zm.4-6.5h.4l.2-.4.2.4h.4l-.2.3.3.3-.4.1v.4l-.3-.3-.4.3v-.4l-.4-.1.3-.3-.1-.3h0zm2.7 4.5h.4l.2-.4.2.4h.4l-.2.3.3.3-.4.1v.4l-.3-.3-.3.3v-.4l-.4-.1.3-.3-.2-.3h0zm1.6-3.6c0-.1-.2-.2-.2-.2-.2 0-.3.4-.5.4-.1 0-.2 0-.2-.1s.3-.2.4-.3c-1.5 0-1.5.7-1.7.7-.4 0 .3-.7.5-.9-.3 0-.5-.4-.8-.6.2-.2.2-.1.4 0 0-.2.1-.3.5-.3.7 0 .5.6.6.6s0-.6.4-.6c.7 0 1.5 1.7.7 1.7-.4-.1-.1-.3-.1-.4h0zm-1.7-4.9l.3-.3-.2-.3h.4l.2-.4.2.4h.4l-.2.3.3.3-.4.1v.4l-.3-.3-.3.3V28l-.4-.1h0zm-.6-1.8v4.7h-2.4v-4.7h2.4 0zm4.5 24.4l-5.5-3.3c-.9-.6-1.4-1.7-1.5-3V39h6.9v11.5h.1zm-2-12.1v-4.5h2v4.5h-2 0zm9.1 12.4l-2.5 1.5h0c-.2.1-.4.2-.7.2s-.5-.1-.7-.2l-2.5-1.5V39h6.4v11.8h0zm0-12.4h-6.4V26.1h6.4v12.3h0zm7.5 5.8c-.1 1.3-.6 2.4-1.5 3l-5.5 3.3V39h6.9v5.2h.1zm0-5.8h-6.9V26.1h6.9v12.3h0zm-14.9 4.8c0-.1-.9.3-.6.3 0-.2.5-.7.7-.9 0-.3-.4 0-.8.2 1.3-1.9.5-1.1-.3-1 1.2-1.2.9-1.2 0-.8.7-.5.8-1.2.7-1.4-.6.8-1.2.7-1.2 1.5 0 .5-.2 1.4-.4 1.6-.3.4-.1-1.4-1-1.4-.3 0-1 0-1.2.3.2 0 .5.5.5.6 0 .2.2.7-.1.7s-.7-.6-.7-.9v-.7c0-.7-1.2-1.8-1.7-1.8 0 .5.7.6.7 1.3-.3 0-.7-.5-.7-.2s.4.4.4.7-.5-.1-.5.2.3.2.3.5c-.2-.1-.4 0-.4.1s.1.2.2.3c-.1.1-.1.2-.1.6 0 1.5.9 2.1 1.6 2.1.5 0 .4-.3.5-.5 0 .2.3-.1.3.3s-.5.3-.5.6c0 .5.7 0 .7.6 0 .7-.1.7-.1.9s.8-.3.7-.3c.2.1.2.6.5.6.2 0 .3-.6.4-.6-.1 0 .7.5.7.3 0-.7-.3-.4-.3-.9 0-.4.9-.3.8-.6-.1-.2-.2-.1-.3-.4 0 .1-.7-1.1.2-.5.9.8 1-1.3 1-1.4h0zM84.7 48a.7.7 0 1 0 0-1.4c-.4 0-.8.3-.8.7s.4.7.8.7h0zm-3 1.8a.7.7 0 1 0 0-1.4c-.4 0-.8.3-.8.7s.3.7.8.7h0z"/><path class="text" d="M45.6 54a.7.7 0 1 0 0-1.4c-.4 0-.8.3-.8.7s.4.7.8.7h0zm2.3.2a.7.7 0 1 0 0-1.4c-.4 0-.8.3-.8.7.1.4.4.7.8.7h0zm64.9-31.5c1.1 1.3 1.4 3.4.6 5-.4 0-.4-.6-.4-.9-.8-1.5-1.4-3.4-.7-5 .5 0 .3.7.5.9h0zm-95.2 1.8c-.2 1-.2 2.3 0 3.2-.2.2-.2-.2-.4-.2-1.6-1.1-.8-3.3-1.2-4.9.1-.1.3-.2.4-.1.7.6 1 1.2 1.2 2h0zm98.7.2c.2.4-.2.9-.5 1.1-.4.1-.8-.1-1-.4-.1-.4.1-.8.5-1 .3-.2.7-.1 1 .3h0zM15.2 26.4c-.1.4-.2.7-.5.9-.2 0-.6 0-.8-.2s-.3-.6-.2-.8c.2-.3.5-.3.8-.4.3.1.6.2.7.5h0zm102.6.7c.1.2.1.4 0 .6-.3.4-.7.5-1.1.4-.3-.2-.4-.4-.4-.7a1.21 1.21 0 0 1 .7-.7c.3 0 .6.2.8.4h0zm-2.2 0c.3.2.1.6 0 .8-.2.2-.5.5-.8.4-.2-.2-.4-.2-.5-.5 0-.4.2-.8.6-.9.2 0 .4.1.7.2h0zm-3 .6c0 .4 0 1-.5 1.1-.5.2-.8-.2-.9-.6a1.1 1.1 0 0 1 .6-1c.4.1.7.3.8.5h0zm-93.1.2c.1.4-.3.6-.5.8-.3.1-.6-.2-.8-.4-.3-.3.1-.5.2-.8.4-.3.9 0 1.1.4h0zm-2.4.2c0 .3-.2.6-.4.8-.3.1-.6-.1-.8-.4-.2-.4 0-.8.4-.9.4-.2.7.2.8.5h0zm85.9.1c.4.8.7 1.8.8 2.9-.2.8.1 1.8-.4 2.3-.6-.2-.6-.9-1-1.2-.7-1.4-.1-3 .2-4.4.3-.2.3.2.4.4h0zm-87.7.5c.1.5-.2.7-.5 1-.5.1-.8-.2-1-.6 0-.4.2-.8.5-1a1.1 1.1 0 0 1 1 .6h0zm94 1.2c.5 1.2.6 2.6.2 3.8l-.2.2c-.6-1.1-1.4-2.1-1.6-3.2 0-.8.2-1.6.5-2.3.3-.2.4 0 .6.3-.1.4.1.9.5 1.2h0zm5-.8a1.1 1.1 0 0 1-.6 1c-.4.1-.8 0-.9-.5-.1-.4.1-.8.4-1 .5-.2.9.2 1.1.5h0zm-97.1 1.3c0 .3-.3.7-.6.8-.3.2-.6-.2-.8-.3-.1-.3-.2-.6 0-.9.1-.2.4-.2.6-.3.3.1.7.3.8.7h0zm1.7-.2c.2.4-.3.6-.4.8-.5.2-.7-.2-.9-.5-.1-.4.2-.6.4-.9.5-.1.7.2.9.6h0zm96.5-.1c0 .5-.8 1-.9 1.6-.4 1.1-1.4 1.9-2.5 2.2-.2.2-.6.5-.9.5-.1-.8.6-1.5 1.1-2.2.8-1.1 2-1.8 3.2-2.1h0z"/><path class="text" d="M16.4 31.7c.6.7.9 1.3 1.6 1.9 0 .2-.1.4-.3.4-1.9-.1-3.3-2.1-4.2-3.5.1-.4.6-.1.9-.1.7.5 1.4.7 2 1.3h0zm99.6.6c-.1 1.7-.9 3.5-2.5 4.3-.4.2-.9.6-1.4.3.8-1.7 2.1-3.1 3.5-4.6h.4 0zm-7.6 1.2c.1.6-.2 1-.7 1.2-.4 0-.7-.3-.9-.6 0-.4.2-.8.6-.9.1-.1.3-.1.5-.1.1 0 .3.2.5.4h0zm-94.2.3c.8.5 1.4 1.2 2.1 1.9-.5.4-1.2 0-1.8 0-1.4-.5-2.3-1.6-3.7-2 0-.4.6-.3.8-.4 1-.1 1.7.3 2.6.5h0z"/><path class="text" d="M56.8 22c-2.2-.9-3.7 1.4-6 1.2-.3.2-.2.4-.4.6-.1.1-.3 0-.4 0-.1-1-.4-1.8-.6-2.8-.2-.4-.1-1-.3-1.4-1.3-3.5 3.1-.8 4-2.9.8-1.8-1.5-2-2.1-3.2V13c-.6-.6-1.3-.8-1.7-1.7.3-1 .4-2.1.1-3.1 0-.2-.2-.6-.6-.4-.8 1-1.3 1.9-2 2.9-.8-.6-1.5-1.3-2.3-1.8-.6-.1-1.2-.7-1.8-.4-.1.2 0 .4.1.6 0 1.6.8 2.8 1.9 3.9l.1.6c-.7 1.6-.5 3.5-.7 5.3-1.8 4.6-4.7 9-8.6 12.1-2.3 2.6-5 5-5.3 8.6-.1.6.1 1.2-.4 1.6-1.3-.5-2.6-1.1-3.7-2-1.8-1.3-4.5-1.1-5.6-3.4-.5-.9.1-1.8.6-2.5 1.4-1.3 1.2-3.6.4-5.1-.2 0-.2.2-.3.2-.1 2.4-2 4-1.3 6.6.2.8.6 1.2.8 2-.3-.1-.7-.1-.9-.2-.9-.1-1.8-.5-2.7-.4-1.8.8-4.3-.2-5.8 1.5-.2 0-.6.1-.5.4.9 0 1.7.2 2.6.2 1.4.2 2.3-.9 3.3-1.4h.2c.4-.4 1.1-.2 1.6-.2 2.5.3 4.5 1.5 6.5 2.7v.2c-.8.4-1.7.6-2.5 1-.9.7-1.9 1.6-2.2 2.7-.6 1 .2 1.9.6 2.7 0 .4.1.9.4 1 1.3-1.4.1-3 .3-4.6.3-1.2 1.4-1.8 2.6-2.1 2.3-1 3.9.9 5.7 1.9 0 1.8.2 3.6-.2 5.4a6.28 6.28 0 0 1-1.9.3c-3.1.2-5.6 2-8.4 2.9-1.3.4-2.8.4-4.1.9 1 .3 2-.1 3.1-.1 3.9-.6 6.9-3.6 11.1-3l.1.1c-.5 1-1.1 1.8-1.9 2.6-.1-.4-.2-.8-.6-1-.3-.2-.7 0-.9.3-.1.2-.1.4 0 .6.2.4.5.4.9.6-.1.4-.5.5-.8.8-1.1 1.9-3.4 1.1-4.7 2.4-.2.3-.9.4-.6.9 1.5.2 3-.2 4.1-1l4.5-4.8c.2 1.3-.1 2.6-.9 3.6-.4-.2-.6-.5-1.1-.6-.4.1-.7.5-.7.8.2.3.3.6.6.8-1.4 1-3.1 1-4.6 1.5a62.52 62.52 0 0 1-8.7.6c-1.4-.1-3 .4-4.3 0-1.5.3-3.1-.2-4.4.6-.2.2 0 .4 0 .6 1.8 1.2 4.3.2 6.4.6h15.7c1.2 0 2.3-.1 3.2-.6 2-1.2 3.1-3.2 4.2-5.3.4-.7.7-1.6.8-2.4.4-1.4 1.6-2.3 3-2.4.2 2.1-.2 4.2-.7 6.1-.2 1.3-1.1 2.5-.6 3.9.1.6.8.6 1.3.7 4.8-.1 9.6-.3 14.7.1.9.2 1.7.4 2.7.4.1-.1.4-.2.2-.4-.1-.4-.4-1-1-1.1-.1-.2-.4-.2-.6-.3-2.5-1.4-5.6-.7-8.6-.6-1.6.2-3.1.4-4.4-.4-.6-.7-.2-3-.2-3 0-.9 2.2-7.2 2.5-7.7.1-.6.3-1.2.2-1.8.3-.8.2-1.8.2-2.7.2-1.3.8-2.5 1.2-3.7.2-.6.4-1.2.7-1.8.2-.8.3-1.5.8-2.1 1.3.8 2.6.8 3.2 2.3l.5 3.3c0 .2.2.6.4.4 1-.7.7-2.2.7-3.2.2-1.2-.6-1.8-1-2.9-.3-.2-.7-1.2-.7-1.2-.2-.9-2.1-1.5-1.7-2.6.2-.9.5-1.8 1.4-2.3.1.1.2.2.2.3l.5-.3.1-3.3c1.3 0 3.2.2 4.5.2.4.1.6.4 1 .4l.3-.4 3.2-.6c-.9-.2-1.7-1.8-3-1.8h0zm3.5 1.4c.1 0 .2 0 .3-.1l-.3.1h0zM25.6 34.5c0 .5-.2.8-.6.9-.3-.1-.6-.2-.8-.5-.2-.4.2-.8.6-.9.4.1.8.2.8.5h0zm-2.5 0a.96.96 0 0 1 .2.9c-.3.2-.7.4-1 .1-.2-.2-.5-.5-.3-.8.3-.2.7-.5 1.1-.2h0zm55.3.5h0m30.3.7c.2.4-.2.8-.5.9-.4-.1-.9-.2-.9-.7 0-.3.3-.5.6-.6.4-.1.7.1.8.4h0zm2.2-.1c.1.2.4.5.1.7-.2.1-.3.2-.4.3-.4.1-.8-.1-1-.5-.1-.4.3-.6.6-.8.3-.1.5.1.7.3h0zm-97.8.5c-.2.5-.6.7-1.1.5-.1-.1-.2-.3-.3-.5 0-.3.1-.6.4-.7.5 0 .8.2 1 .7h0zm13.4.7c0 .3-.4.6-.7.8-.4 0-.7-.3-.9-.6 0-.3.2-.7.5-.8.4-.2.9.1 1.1.6h0zm-2.4-.3c.1.1.2.4.1.6-.2.2-.6.6-1 .3-.2-.2-.5-.4-.4-.8.2-.2.4-.4.6-.5.3 0 .5.2.7.4h0zm92.8.5c0 .3-.3.6-.5.8a.96.96 0 0 1-.9-.2c-.2-.1-.2-.4-.2-.6.2-.3.5-.4.8-.5.4 0 .6.2.8.5h0zm2.6.3c-.1.4-.4.7-.8.7-.2 0-.7-.1-.6-.5 0-.3.2-.6.4-.6.4-.2.9 0 1 .4h0z"/><path class="text" d="M17.6 37.9c.1.5-.1.8-.5 1-.3.2-.6 0-.8-.2s-.4-.5-.2-.8c.1-.4.4-.3.7-.4.4-.1.6.1.8.4h0zm1.9.3c.1.3-.2.4-.3.7-.2.1-.4.3-.7.1s-.6-.6-.3-1c.3-.6 1.1-.2 1.3.2h0zm95.1-.2c0 .4-.3.7-.6.9-.4.1-.7-.2-.8-.5 0-.3.2-.6.4-.8.4.1.8.1 1 .4h0zm3.3.7c-.1.4 0 .8-.4 1-.3.1-.7 0-1-.2-.2-.2-.3-.6-.2-.8.2-.3.6-.6 1-.5.2.2.3.4.6.5h0zm-101.8.8c.2.3-.2.4-.3.6-.3.2-.6 0-.8-.1-.3-.2-.2-.6-.1-.8.3-.6 1-.2 1.2.3h0zm99.3.8c.2 0 .1.3 0 .4-1 .5-2.4.6-3.2-.2-.5-.4-1.1-.6-1.6-.9.2-.5.9-.5 1.4-.6 1.2.2 2.1 1.2 3.4 1.3h0zM18 39.9c.1.3-.2.4-.2.7-.2.2-.5.2-.7.1-.4-.2-.5-.7-.3-1 .4-.5 1-.2 1.2.2h0zm3.5.3c.2.4-.1.7-.4.9s-.5-.1-.8-.1c-.2-.3-.6-.6-.2-.9.4-.7 1.1-.4 1.4.1h0zm46 1.6c-.1.8-1.4-.1-1.2 1 .2.8.3 1.7.8 2.2.4.5.2 1.4.2 2-.3.6-.9 1-1.5 1.3-1.1-.1-2.8.6-3.3-.8-.2-.6-.6-1.2-.6-1.9.1-.1.3-.1.4-.2 0-.3-.3-.4-.3-.7 1.3-.2-.5-1.4.6-1.4.9 1 2.4.6 3.2 1.7.2.2.3.4.6.5-.2-1-.6-1.9-.8-2.9a1.3 1.3 0 0 1 .5-1.3c.5-.6 1 .1 1.4.5h0zM25 41.6c.1.4-.2.6-.4.8-.4.2-.6-.2-.7-.4-.1-.4.2-.6.4-.8.2 0 .5.1.7.4h0zm24.5.4c.5 1.6.3 3.2-.5 4.5 0 .3.1.8-.4.8-1.1-1.5-.3-3.6.2-5.1.2-.4.6-.6.7-.2h0zm34.1.8c.6 1.1.6 2.6.1 3.7l-.3.3c-.4-.9-.8-1.8-.9-2.8l.5-2.1c.5-.2.4.5.6.9h0zm-55.5.4c-.2.5-.9.6-1.4.9-1 .7-2.3.9-3.5.7 1-1.4 2.6-2.3 4.5-1.9.1.2.3.1.4.3h0zm-16.3 1.4c1.5 1 1.9 2.5 2.7 3.9.1.2.5.2.4.5-.3.2-.6-.2-1.1-.2-1.5-.7-2.5-2.4-2.4-4.1 0-.1.2-.1.4-.1h0zm70.3 1.3c0 .4 0 .8-.4.9s-.8-.1-.9-.5c-.1-.3.1-.4.2-.6.3-.3.9-.2 1.1.2h0zM98.8 48c0-.8.2-1.5.3-2.2.1-.2.2-.5.2-.8 1-1.3 2.9-.9 4.4-.8.6.3 1.4.3 2 .4.3-.2.7-.2 1-.2 1.3-.7.4-2.2.5-3.3l-.5-1.2c-.1-.2-.2-.5-.3-.8-.2-.3-.4-.8-.6-1.1-.7-1.8-2-2.8-3.1-4.2-2-2.6-5.2-4.1-8.4-5.2-3.1-1.1-6.3.3-9.2 1.3-.9-.2-1.3-.9-1.6-1.7-.2-1.5.2-3 .8-4.2.1-1 .8-1.8 1.1-2.7.7-2.2 1.5-4.4 1.6-6.9.1-1.5-1-2.5-2.1-3.2-.8-.2-1.6-.2-2.2.4-.5 1.1-1.6 1.8-2.6 2.3-.1.7.8.2 1 .5.9.2 1.9-.1 2.6.4.1 1.6-.8 2.9-1.7 4.1-1.4 2-2.8 4-3.6 6.2l-.2-.2.2 9.8c1.3 2.1 2.9 4.5 5.2 5.3 1.3 1 2.9 2.3 4.6 1.4.9-.3 1 1 1.4 1.5.5 1.5-.6 2.5-.7 3.9l-1 2.2c-1.2 2.3-2.3 4.8-4.1 6.8-.6 0-1 .6-1.6.7-.3.4-1 .1-1.4.3-1.2.5-3 .2-3.8 1.4.1.1.2.2.3.2l7.7.1c.3-.1.6-.4.6-.8-.4-.7.1-1.3.4-1.8.2-1 .8-1.6 1.1-2.5l2.7-4.9 1.2-2c.3-.7.8-1.5 1.2-2.2.3-.3.5-.7.7-1.1 0-.4-.2-.6-.4-.8.3-.3.7-.2 1.1-.3 1 .6 2 1.6 2.2 2.6l.4 1 .2.5-.1 1.3.2 1.2c.2 1.9-.2 3.9-.4 5.8-.7 2.3-3.3 2.1-5.3 2.6-.5.3-1.4.2-1.4 1 2.3.5 5 .2 7.5.2.4-.2.5-.5.7-.9.1-.5.6-1 .4-1.5-.4-.6 0-1.4-.2-2.2.1-.2.1-.5 0-.8.3-1.2.2-2.6.5-3.7l.5-1.2h0zm19.6-1.6c-1.3 1.8-2.6 3.8-4.9 4.5-.2 0-.3.1-.4-.1 1.4-1.4 2.1-3.7 4.2-4.2.4-.2.8-.3 1.1-.2h0zm-108.6 2c-.2.2 0 .5-.4.6-.3.2-.7 0-.8-.4-.2-.4.2-.8.5-.9.3.2.6.3.7.7h0zm11.5.6c.1.4-.3.4-.5.4-1.7.6-3.4 0-4.6-1.2 0-.2 0-.3.2-.4 1.6.5 3.5.2 4.9 1.2h0zm-9.3-.6c.1.2.1.4.1.6-.2.4-.6.4-1 .4-.2-.1-.4-.3-.5-.5 0-.4.4-.6.7-.8.3.1.5.1.7.3h0zm37.3.2c.1.4-.2.6-.5.8-.4.1-.7-.1-.8-.3-.1-.3 0-.7.3-.8s.9 0 1 .3h0zm70.6.2c.1.4-.2.6-.5.8-.2.1-.5 0-.8-.1 0-.2-.3-.4-.2-.6.2-.4.5-.5.9-.5.3.2.4.2.6.4h0zm2.7-.2c.2.4 0 .6-.2.9s-.5.4-.7.2-.6-.4-.6-.7.4-.6.6-.7c.4-.1.5.3.9.3h0zM8.1 49.8c0 .3-.2.4-.3.7-.2.1-.4.2-.6.2-.3-.1-.5-.4-.6-.6.1-.4.3-.7.7-.8.4 0 .7.1.8.5h0zm83.8 0c.1.2 0 .4 0 .5-.2.3-.6.6-1 .4-.2-.2-.5-.5-.4-.8.4-.5 1.1-.6 1.4-.1h0zm-77.4.6c0 .3-.2.6-.5.6-.4 0-.5-.3-.7-.4 0-.4 0-.7.3-.9.5-.2.9.2.9.7h0zm-3.8.1c.1.4-.2.7-.4.9-.5.2-.9-.2-1.1-.6 0-.4.3-.8.7-.9.4 0 .6.4.8.6h0zm83.8-.1c.1.4 0 .8-.4 1-.5.2-.9-.2-1.1-.6.2-.3.2-.8.7-.8.4 0 .6.1.8.4h0zm-81.9.2c.1.3-.1.4-.2.6-.2 0-.3.2-.6.2-.2-.2-.5-.3-.5-.6 0-.4.2-.6.5-.8.4 0 .7.2.8.6h0zm105.1.3c-.1.3-.4.5-.7.6s-.5-.2-.8-.3c-.2-.2-.1-.5 0-.7.5-.7 1.5-.4 1.5.4h0zm3.1.1c-.1.4-.6.6-1 .7-.4-.2-.8-.4-.5-.9.2-.2.2-.3.5-.4.5-.1.8.2 1 .6h0zm-18.9.3c.2.5-.3.7-.6.9-.3 0-.5-.2-.8-.3-.1-.4.1-.8.6-1 .3 0 .5.1.8.4h0zm-11 .5c.2.1.1.4.1.5-.2.2-.6.6-.9.3-.3-.2-.5-.4-.4-.8.2-.4 1-.4 1.2 0h0zm2.3.3c0 .3 0 .5-.3.6-.3.3-.6 0-.9-.1-.1-.2-.2-.4 0-.6a.55.55 0 0 1 .5-.3c.2.1.5.1.7.4h0zm-67.6 0c.2.2 0 .5-.1.8-.2.2-.6.4-1 .2s-.4-.7-.3-1c.2-.1.2-.4.6-.4.4.1.6.2.8.4h0zm80.5.2c.1.4-.3.6-.6.6-.5.2-.7-.2-.9-.5 0-.2.2-.4.3-.6.6-.2.9.2 1.2.5h0zm-2.1 0c.2.4-.3.6-.4.8-.3.1-.6.1-.9-.2-.2-.1-.2-.4-.2-.6.2-.2.4-.4.6-.5.4 0 .7.2.9.5h0zm17.9.5c.1.6-.6.3-.9.4-1.7 1-3.8.2-5.4-.4.1-.5.7-.3 1-.5 1.7-1.1 3.5.2 5.2.3l.1.2h0zM13 52.3l-.2.3c-1.5.9-3.4 1.5-5.1.9l-.2-.2c1.5-1.1 3.4-1.4 5.3-1.1l.2.1h0zm97.2.3c0 .3-.2.6-.4.8-.4.1-.9 0-1-.4-.1-.3.2-.6.5-.8.2-.1.7 0 .9.4h0zm-90.1.1c-.2.3-.1.6-.5.8s-.9-.2-1-.5c-.1-.4.2-.6.4-.8.5-.2.9.2 1.1.5h0zm-2.8.2c.1.3-.1.4-.2.6-.2.2-.6.2-.8.1-.3-.2-.6-.5-.4-1 .2-.2.4-.3.6-.4.4.2.7.3.8.7h0zm95.7.9c0 .4-.3.6-.6.7-.3 0-.6-.2-.8-.4-.1-.2-.1-.6.2-.8.1-.1.4-.1.5-.2a1.21 1.21 0 0 1 .7.7h0zm-98.6-.4c.1.3-.2.4-.2.7-.1.7-.6 1.1-.9 1.7-.8.9-1.8.9-2.9 1.2l-.2-.3c1.2-1.5 2.4-2.6 4-3.4l.2.1h0zm96.6.9c.1.5-.3.6-.6.8-.4 0-.6-.2-.8-.5-.1-.4.3-.6.5-.8.4-.1.8.2.9.5h0zm-92 0c0 .1 0 .2.1.2 0 .4-.4.6-.6.8-.4 0-.6-.1-.9-.4-.2-.4 0-.8.4-.9s.8-.1 1 .3h0zm99.3 1.2c.4 0 .5-.5.9-.6s.8.2 1 .4c.2.5-.2.7-.5.9s-.9-.2-.8.3c.3.2.5.5.6.8-.1.2-.4.1-.5 0-1.2-.5-2.4-1.3-2.9-2.5-.2-.4-.9-.6-.5-1 1.1 0 2.1 1 2.7 1.7h0zm3.8-1.3c.2.2.1.6 0 .8-.2.4-.8.2-1.2.2-.2-.2-.4-.4-.3-.7.2-.2.3-.4.6-.5.4-.1.6 0 .9.2h0zm-14.4 2.2c.4.4.7 1.1.9 1.6-.1.1-.3.1-.4.1-1.4-.8-3.1-1.6-3.6-3.2-.1-.2-.4-.4-.4-.6 1-.2 2 .6 2.7 1.1.3.4.6.6.8 1h0zm-91-1.5c.2.4-.2.6-.4.8-.4.1-.7-.1-.9-.3-.3-.4.2-.8.6-1 .3 0 .5.3.7.5h0zm95.9.9c0 .2-.3.4-.4.6-.3 0-.6.2-.9-.1-.1-.2-.3-.5 0-.7.4-.6 1.1-.2 1.3.2h0zm10 .6c.1.5-.2.8-.6 1-.4.1-.7-.2-1-.4-.2-.2 0-.5 0-.8.3-.2.6-.4 1-.3.2.2.4.3.6.5h0zM95 61.9c0 .5-.9.4-1.2.7-1.2.6-2.7.6-4.2.6V63c1.4-1.2 3.5-1.7 5.4-1.1h0zm-58 1.7c0 .4-.2.6-.6.7-.3 0-.6-.2-.7-.4-.2-.5.2-.7.5-.9.4.1.7.3.8.6h0zm57.3.5c-.1.4-.2.8-.6.9s-.6-.1-.9-.3c-.2-.2-.1-.4-.1-.6.3-.8 1.4-.8 1.6 0h0zm8 .1c-1 .6-2.1 1.4-3.4 1.4h-2.1l-.2-.2c1.3-1.6 3.7-1.6 5.8-1.4v.2h-.1zm-76.2 1c0 .4-.2.6-.5.8-.4.1-.7-.1-.8-.4-.2-.4 0-.7.3-.9.4-.3.8.2 1 .5h0zm2 .4c.1.2-.1.3-.2.5-.2.1-.6.2-.8 0-.3-.2-.4-.4-.2-.7.1-.2.4-.2.5-.4.3.2.5.3.7.6h0zm-15.3 4c-.4.5-1-.1-1.5-.4-1.3-.7-1.3-2.3-2.7-3.2.2-.5.5 0 .8 0 .2.2.6.3.8.4 1.4.7 1.7 2 2.6 3.2h0z"/><path class="text" d="M128.8 54.1c-.6-1.2-1.7-1.6-3-1.6-1 .1-1.8.8-2.2 1.6-.2.9.1 1.7.8 2.2.3.1.6.1.8-.2.2-.5-.4-.5-.4-.9-.2-.6 0-1 .4-1.4s1.1-.2 1.6-.2c.5.3 1 .6 1.2 1.2a3.75 3.75 0 0 1 0 2.1c-.4 1-1.4 1.8-2.5 2-3.3.5-39.5.3-39.5.3-4.3.4-9.1-.8-12.8 1.4-1.7.8-2.5 2.6-2.9 4.3-1.1 1-2.2 2.1-3.1 3.2l-.1-.1c.2-1 .6-1.8.8-2.8.6-.8.6-1.9 1-2.8 1.5-2.4 2.9-4.9 5.3-6.6 1-1.3 2.7-1.1 4.3-1.1 1.6.8 3.5 1 5.5.8.1-.1.1-.2.1-.3-.6-.5-1.5-.7-2.1-1.2-1.6-.8-3.1.2-4.8.1-.2-.1-.2-.1-.2-.3 1.5-1.1 3.2-1.9 4.9-2.6 1.4-.8 2.9-1.2 4.3-1.7.6 0 1.2-.5 1.7-.2l2.1-.6c.1 0 .2.2.3.1 1.8-.6 4.1 0 6.1-.1l.3.2 1.9.5c.7.1 1 .9 1.8 1 .4-.6-.4-.8-.6-1.2.9-.2 1.9 0 2.7.4l-.4.4c-.2.4.1.8.5.9.3.1.5-.1.7-.2.5-.4 0-.7.1-1 2.9.5 5.8 1.2 8.5 2.4.8.2 1.5.8 2.3.8-.8-.8-2-1.2-3-1.6-.7-.4-1.6-.4-2.1-1 .1-.2.4-.1.5-.3 1.4-.2 2.5-1.2 3.5-2.2.1-.2.5-.2.5-.5-.4-.4-1 .1-1.4.1-1.7.3-2.4 2.3-4.1 2.6l-6.1-1.5c-1-.2-2.1-.2-3-.6l-2.2-.2h-4.1c0-.1-.2-.1-.1-.2 1.4-.4 2.7-1.2 4.1-1.6l10.7-4.9a23.52 23.52 0 0 0 3-3.3c0-.3-.2-.6-.4-.8-.3-.1-.6-.1-.8.2-.5.4 0 .8 0 1.2-.5.6-1.2 1.2-1.8 1.6-.2 0-11 4.9-11 4.9-1.6.7-3.2 1.4-4.9 1.8l-2.5.5c-.2.5-.6.8-1 .9-.6.1-1.2.5-1.8.5-5.2 2-10.5 4.1-14.6 8.2.2-.5.4-1.1.4-1.7-.1-.6 0-1.3-.4-1.8-.1-.2-.4-.9-.3-1.1l-.6.4c-.4.9-.7 2.5-.3 3.4.1.7.7 1.6.2 2.2-1.9 2.3-3 5.1-4.3 7.8-.5-.1-.7-.5-.9-1 1.4-1.7 2.4-3.6 2.8-5.8.3-.2.1-.7.4-1-.1-.6.4-1.3 0-1.8.3-.9-1.2-1.7-.3-2.2l-.8.4c-1.7 2.2.9 5.6-1.1 7.8v.2c-.6.7-.8 1.4-1.6 1.9-1-.4-1.3-1.5-1.9-2.3-.9-.8-.9-2.6-.4-3.7.4-1.2-.2-2.2-.4-3.2l-.4-.2c-1 1.2-1.3 3.2-.6 4.7.4.7.4 1.7 1 2.3.4 1.2 1.1 1.9 1.7 3 .2.4-.2.5-.4.7-.4-.3-.4-.9-.8-1.2-1.3-2.8-3-5-5.1-7.3-.1-.4-.4-.7-.2-1.1.8-.7.9-2.1.5-3-.1-.2-.3-.4-.3-.6l-.6-.5c.1 1.4-.8 2.6-.4 4.1V56c-4.1-3.1-8.6-5.8-13.2-8l-.4 1c1.2.3 4.3 2.2 4.3 2.2 1.4.5 2.7 1.4 4 2.1 5.4 3 9 8 11.4 13.5 0 .4.4.9.2 1.4-.8-1.3-2-2-3-3-.3-1.9-1.4-3.7-3-4.4-.6-.9-1.9-1-2.9-1.2l-14.5-.1c-11.6-.3-22.4.2-34.1 0-1.6-.2-3.6-.7-4.1-2.4-.3-.6-.3-1.6 0-2.2.4-.8 1.2-1 2-1.1.6.1 1.1.7 1.4 1.1 0 .5-.4 1-.6 1.4 0 .2.2.5.5.4.5-.2.9-.8 1-1.3 0-.3.2-.7-.1-.9-.2-.8-1.1-1.4-1.9-1.6-1-.1-2 .2-2.7.9-1 .8-.9 2.2-.6 3.4.6 1.8 2.5 3 4.3 3.2l38.7.2c3.8.2 8-.4 11.9.3 1.4.4 2.9 1.5 3.2 3 0 .1-.2 0-.3 0-3.1-2-7.3-2.8-11.3-2.3-1.6-.1-3 .5-4.5.9-.8.2-1.5-.2-2-.6-1.4-1.3-3.9-1.2-5.8-.7v.3c1.9-.2 3.1 1.5 4.9 1.7.4.1.7-.4 1.1 0-1.8.9-3.6 1.9-5.5 2.5-.6-.1-.9-.7-1.4-1-.8-.8-2.1-.5-3.2-.6-.4.1-.7-.2-.9 0 .3.6 1 1 1.7 1.3 1 .4 2.1 0 3.1.6-.2.3-.6.4-.8.6-1.9.7-3.4 2.4-5.5 2.3-2.2.2-4.4-.4-5.9-1.9-.6-1.6-2.3-2.4-4-2.3-.1.1-.3.1-.2.3.9.5 1.6 1.6 2.4 2.2.6.7 1.6 0 2.1.8.8.5 1.7 1 2.6 1.1.6.3 1.4.4 2.1.6l-.3.2c-3.6 1.2-7.8 1.3-11.9 1.2-1.2 0-2.3-.4-3.5-.4.2.2.6.4 1 .6-.3.2-.7.3-1.1.3-.5.1-1 .2-1.5.4-.6 0-1.2.2-1.7.4-.7.7-1.5 1.5-2.3 1.8 0 .2 0 .4.2.4.8-.3 1.7-.1 2.5-.4 1.3-.1 2.1-1.6 3.1-2.2 1.1-.9 2.7-.7 4.1-.5.8.2-.1.5.2 1 .3.3.6.6 1 .5.1-.1.2-.2.3-.2a.91.91 0 0 0 0-1c.6-.4 1.3 0 1.9-.2 1.5 0 3-.4 4.5-.4.2 0 .5-.3.8 0-.1.3-.5.4-.4.8s.5.5.8.6c.4-.2.8-.4.6-1-.1-.3-.4-.3-.6-.4.8-.4 1.8-.5 2.6-.9.6-.1 1.2-.3 1.7-.6.5 0 1-.5 1.4-.3-.2.7-.5 1.3-.8 1.9-.6 2.1-1.1 4.9 0 7 .1 0 .2 0 .2-.1-.8-2.1-.4-4.6.4-6.6.6-3.4 4.1-4.4 6.6-5.7l.1.2c-.7 1.8-1.7 3.4-1.5 5.6.1.4-.2.7 0 1 .7-.4 1.1-1.2 1.5-1.8.3-1.8-.8-4 1.1-5.4 3.3-1.3 6.3-3 10.1-3 .1.1.4-.1.4.2-.8.9-1.9 1.7-2.3 2.8-1.3 1.8-1.2 4.8-.7 6.9.4 1.2-.7 1.9-1.2 2.9-.2.3-.3.9-.5 1.3l.8.1c.7-.7 1.3-1.6 1.4-2.6.1.4.4.7.8.8.3-.4-.2-.8-.3-1.2.6-.4.9.4 1.4.6.8.2 1.6.6 2.4.6l.3-.3c-.9-1.4-2.6-1.6-4.1-1.7-.8-1.3-.8-3-.7-4.6.2-.8.3-1.7.8-2.5.2-.6.8-1.1 1.1-1.5.7-.7 1.6-1.2 2.5-1.4H50v.1c-1.1.8-1.2 2-1.8 3-.7 1-1 2.4-.4 3.5.2.5.1 1.3.7 1.7.5-.7.6-1.6.8-2.4-.1-1.3-.9-2.6-.2-3.8.4-1 1.2-1.4 2.1-1.8 2.2-.2 4.1.9 6 1.8.4.3 1.1.5 1.2 1.1 0 1.1-.6 2.2-1.5 2.7-1.1.6-2.6.7-3.6 0-.6-.6-.8-1.6-.6-2.4.4-.5 1-.9 1.8-.6.4.2.8.6 1.3.4.2-.1.3-.4.2-.6-.4-.2-.6-.8-1.2-.9-.8-.7-1.7-.7-2.2-.2-.8.7-1.2 1.8-.9 2.8.3 1.3 1.2 2.2 2.5 2.6 1.8.4 3.7-.1 4.9-1.7.5-.5.6-1.1.9-1.7 1.9 1.2 3.3 3.2 4.1 5.3 0 .7.2 1.4 0 2l1.4.1c-.1-.3 0-.7.1-1 .5-2.6 2.1-4.8 4.1-6.6.7-.4.5.5.7.8.6 1.5 2 2.6 3.5 3 1.7.3 3.3-.1 4.3-1.4.5-1 1.2-2.4.3-3.4-.6-.7-1.3-1-2.2-1-1 0-1.7.7-2.2 1.5 0 .3 0 .7.2.8.2 0 .5 0 .6-.2.1-.6.6-.9 1.1-1.2.4-.2.9 0 1.3.2.4.4.5 1 .6 1.6-.1.8-.6 1.6-1.3 1.9-1.2.6-2.8.3-3.8-.4-.5-.5-.8-1.1-1.1-1.8-.1-.6-.3-1.2 0-1.8 1.8-1 3.6-1.8 5.7-2 .8.2 1.6.7 2.1 1.3 1.8 1.9-.4 4.6.9 6.6.5-.1.5-.7.7-1.1.6-1.4-.2-3-.5-4.4-.5-.9-.8-1.6-1.5-2.4.2-.1.3-.1.5-.1.8.6 1.8 1.2 2.4 2.1 1.2 1.9 1.8 4.1 1.6 6.6-.3 1.2-1.6 1.8-2.6 2.2-.4.3-.9.8-1.1 1.3.5.3 1.2 0 1.6-.2.8-.3 1.2-1.2 1.7-1.7.1 0 0 .2.1.2 0 .4-.2 1 .2 1.2.2-.6.2-1.4.4-2 .5.6.6 1.3.8 2 .4.7 1 1.7 1.9 1.8.2-.4 0-.7-.1-1-.1-1-1-1.5-1.5-2.2-1.4-1.9-.8-4.9-1.8-7.1-.4-1.2-1.2-2-2.1-3l.2-.2c1.9 0 3.6.6 5.4 1 2.2 1.1 5.4.8 6.4 3.7.4 1.6 1.2 3.1 2.3 4.3l.1-.1c.2-.4.2-1.1 0-1.5-.2-2-2-2.5-2.9-4.2l.1-.2c1 .3 2 .5 2.9.9 3.2.9 5.4 4 5.8 7.2 0 2.6-.5 4.7-1.5 6.8-.1.3-.7.7-.3 1 .4-.3.5-.8.8-1.2 1.3-2.2 2-5.2 1.3-8 0-.5-.6-.9-.4-1.4.2.2.4.3.7.4.2-.2.6-.2.8-.4 0-.2.2-.5 0-.7-.2-.4-.8-.4-1.2-.3-.2.2-.4.6-.5.9-.4-.7-.8-1.6-1.4-2.1l.1-.1c1.8.6 3.4 1.5 5.3 2 .4.2.8.4 1.4.4 1.6.6 3.3.8 4.9 1.2 1.2-.1 2.2.4 3.4.2v-.1h0c-.4-.6-1.4 0-1.9-.4-2.7-.3-5.4-1-7.8-2 0-.1.2-.1.3-.1.4-.2.7-.6.6-1-.2-.3-.5-.4-.9-.4-.2.1-.6.4-.6.7s.3.7.6.8c-.1.1-.2 0-.4 0-1.2-.6-2.4-1.1-3.6-1.6-.4-.1-.8-.4-1.2-.5-.9-.4-1.8-.9-2.7-1.2-2.5-1.3-5.4-2-8.1-3-.6-.2-1.2-.3-1.7-.5-1-.3-2-.5-3-.8-3.4-.8-7.9-.9-10.9.9-.5-.2-.8.6-1 .1.8-2.2 3.3-2.9 5.5-3l46.6-.5c1.8 0 3.6-.6 4.6-2.3 0-.9.1-2.5-.4-3.6h0zM65.5 68.9c-.2.5-.5.9-.4 1.4l-.2.1c.1-.6-.5-1-.3-1.6-.3-.5-.3-1.1-.6-1.6-.4-.6.3-.9.6-1.4.6.2.8.8 1.2 1.2.2.7-.3 1.2-.3 1.9h0zm43.2-2.6c0 .1.2.2.2.4-1.4 1.2-3.3 1.6-5.3 1.7-.2 0-.3.2-.5.1-.1-.1-.2-.2-.1-.3 1.4-1.5 3.6-2.3 5.7-1.9h0zm-6.4.7c.2.6-.2.9-.6 1.1-.4 0-.7-.3-.9-.6-.1-.3.2-.5.3-.7.3-.4 1-.4 1.2.2h0z"/><path class="text" d="M26.7 67.1c.1.3 0 .6-.2.8s-.5.2-.7.2c-.3 0-.4-.4-.5-.6 0-.4.2-.6.5-.8.3 0 .6 0 .9.4h0zm-7.2 2.6v.3c-1 .2-1.9 0-2.6-.6-.6-.8-1.2-1.6-2.1-2 0-.1-.2-.3 0-.4 2 0 3.2 1.6 4.7 2.7h0zm95.3-2.7c-.9 1.4-1.7 3-3.3 3.6-.3 0-.5.4-.8.1.6-1.5 2-3.2 3.5-3.8.2.1.4 0 .6.1h0zm-85.8.5c0 .4-.3.5-.6.8-.3 0-.5-.2-.7-.4-.2-.4.2-.6.4-.8.4-.1.7.1.9.4h0zm90.8.2c-.4.5-.2 1.3-.6 1.8-.8.9-1.5 2-2.7 2.2-.2-.4.3-.8.5-1.2.6-1.2 1.4-2.6 2.6-3.1l.2.3h0zm-112.6.4c.1.3.2.6 0 .9a.96.96 0 0 1-.9.2c-.4-.2-.5-.6-.3-1s.9-.6 1.2-.1h0zm-2.3.5c0 .2.2.4.1.6s-.3.4-.6.5c-.4.1-.7-.2-.9-.5 0-.4.1-.7.4-.8.5-.3.8-.1 1 .2h0zm4.7.2c.1.3.2.9-.3 1-.6.2-.9-.2-1.2-.5 0-.4.2-.6.5-.8.4 0 .8 0 1 .3h0zm6.6.5c0 .3 0 .7-.3.8-.2.2-.6.1-.8.1-.1-.2-.5-.4-.3-.7.2-.2.3-.3.6-.4.3 0 .6-.1.8.2h0zm107.4.3c-.1.3-.3.6-.6.6-.4 0-.7-.1-.9-.4-.2-.4.2-.7.5-.8.4 0 .9.2 1 .6h0zm-7.3.2c0 .3-.3.6-.5.7-.6.2-1-.2-1.2-.6.1-.4.4-.6.7-.7.5-.1.8.2 1 .6h0zm4.9-.1c0 .3-.2.6-.4.7-.3.1-.7.1-1-.2-.4-.3-.1-.6.2-.8.4-.2 1.1-.1 1.2.3h0zm-115 .7c.1.4-.1.8-.5 1-.4 0-.8-.2-.9-.6 0-.4.1-.7.4-.8.4-.1.7.1 1 .4h0zm108.1.5c.1.4-.1.8-.6 1-.3.1-.5-.1-.8-.3-.2-.2-.4-.6 0-.8a.8.8 0 0 1 1.4.1h0zm-86.7.4c.2.4-.3.5-.4.8-.2.1-.5.1-.6 0-.2-.2-.4-.5-.3-.8.2-.2.3-.3.5-.4.4-.2.5.2.8.4h0zm95.3.3c.1.3-.2.4-.2.6-.2.2-.6.2-.9.2-.4-.2-.4-.5-.4-.9.2-.2.3-.4.6-.4.3-.1.8.1.9.5h0zm-2.5.1c.2.5-.3.7-.6.8-.2 0-.4-.1-.4.2 1 .5 1.7 1.4 2.5 2.1v.3c-1.4 0-2.9-.4-3.9-1.5-.3-.2-.8-.2-1.1-.5.5-.5 1.5-.3 2.2-.4.5-.6-.6-1 .1-1.4.2 0 .4-.3.7-.2.2.2.3.4.5.6h0zm-16.3 0c.1.2-.2.4-.2.6a.96.96 0 0 1-.9.2c-.2-.3-.5-.5-.4-.9.4-.6 1.4-.5 1.5.1h0zm-88.9 1.4c-.1.4-.3.6-.7.6-.3 0-.6-.2-.7-.5 0-.3.2-.4.2-.6.4-.3 1.2-.1 1.2.5h0zm3.2-.5c0 .6-.6.9-.8 1.4-.6 1.3-1.7 2.5-3.2 2.6-.2-.4.5-.8.7-1.2.6-1.4 1.9-2.1 3.1-2.9h.2v.1zm84.8.6c0 .4-.4.8-.7.9-.4.1-.6-.2-.8-.3-.3-.3-.1-.6 0-1 .5-.5 1.2-.1 1.5.4h0zm2.4.3c0 .4-.3.8-.7.9-.1-.1-.3 0-.4-.1-.3-.2-.5-.4-.5-.7.2-.2.3-.5.6-.6s.9 0 1 .5h0zm-81-.1c0 .4-.3.7-.6.8-.4 0-.6-.2-.8-.5-.1-.4.3-.6.5-.8.5-.1.6.3.9.5h0zm2.7.2c-.1.4-.4.6-.8.7-.3-.1-.6-.2-.7-.5 0-.4.3-.6.6-.8.4 0 .8.1.9.6h0zm86.9 2.8c.2.2.6.4.5.6-.6.3-1.2-.4-1.7-.6-1-1-1.7-2-2.1-3.2.4-.4.8.1 1.1.2.8.8 1.7 1.8 2.2 3h0zm1.5-2.8c.1.3.1.6-.1.9-.2.4-.8.3-1.1.2-.2-.2-.6-.6-.3-.9.1-.3.5-.4.8-.5.2-.1.4.2.7.3h0zm-84.7 1c0 .3.1.8-.3 1-.4.1-.8 0-1-.5s.2-.6.5-.8c.3 0 .5.1.8.3h0zm74.5 2.6c.6.8 1 1.8 1 2.8-.1.3.2.6 0 .8h-.2c-1.8-1.3-2.2-3.1-2.9-4.9-.2-.1-.2-.2-.2-.4.4-.4.7.4 1.1.5l1.2 1.2h0zm-69.4-1.3c-1.6 1.2-3.8 1.9-5.6.8 0-.1 0-.3.2-.4 1.2-.4 2.3-.9 3.5-.8l1.9.4h0zm-9 .2c-1.4.8-2.6 2.5-4.3 2.9-.3.1-.5.6-.9.3.7-2.2 3.1-3.3 5.2-3.5v.3h0zm76.1 1.8c.1.3 0 .8-.3.8a.61.61 0 0 1-.8 0c-.4-.2-.4-.5-.4-.8.1-.3.4-.3.6-.4.4 0 .7 0 .9.4h0zm-3.3.2c-.2.6-.9.9-1.4 1-1.4.5-2.6-.2-3.8-.5 0-.3.4-.2.6-.4 1.3-.3 2.7-.6 4.1-.2.1-.1.4-.1.5.1h0zm-72.8 1.1c-.1.2-.2.5-.5.6s-.6 0-.8-.2c-.1-.2-.4-.4-.2-.7.1-.3.4-.4.6-.4.5.1.8.3.9.7h0zm2.3.4c-.1.2-.2.6-.6.8-.3.1-.6-.1-.8-.3-.1-.2-.2-.5-.1-.8.1-.2.4-.2.6-.4.4 0 .8.4.9.7h0zm73 .4c0 .3-.1.5-.3.8s-.6.3-.9.2c-.3 0-.4-.4-.5-.6-.2-.3.2-.5.3-.8.5-.4 1.2-.2 1.4.4h0zm1.8-.1c0 .2.2.4.1.6-.2.2-.4.7-.9.5-.2.1-.4-.2-.5-.3-.2-.4 0-1 .5-1.1.3-.1.6.2.8.3h0zM28 81.1c.1.4-.1.8-.4 1.1-.4.1-1 .1-1.2-.4 0-.4 0-.9.5-1.2.4-.1.9 0 1.1.5h0zm2.3-.2c-.1 1.1-.3 2.5-1.4 3.1-.6.1-1.3.7-1.9.3v-.2c.7-1.2 2.3-2.1 3.3-3.2h0zm65.9.9c.2.2-.1.4-.2.6-.2.3-.7.2-1 0-.3-.1-.3-.5-.2-.8.1-.2.3-.4.5-.4.4 0 .7.3.9.6h0zm-62 1.9c.6.9.2 2.2.6 3.2-.7.1-1-.7-1.4-1.1-.9-1.2-.8-2.8-1.2-4.2.1-.1.2-.1.3-.1.6.4 1 1.2 1.5 1.7 0 .2.3.2.2.5h0zm64-1.6c0 .3-.4.4-.6.6-.3 0-.5-.2-.8-.4-.1-.4.2-.5.4-.7.4-.1.8.1 1 .5h0zm4.7 3.6c0 .1 0 .4-.2.3h-.2c-1.2-1-2.3-2.2-2.1-3.8h.2c1.1.9 2.3 1.9 2.3 3.5h0zm-3-1.3c0 .3-.2.6-.4.8-.4.1-1.1.1-1.2-.5 0-.4.4-.6.6-.8.5-.2.9.2 1 .5h0zm-2.6.9c-.6 1.5-2.1 2.2-3.1 3.4-.2-.1-.1-.4-.1-.6.4-1.5 1.6-3 3.1-3.6.6 0 0 .4.1.8h0zm3 1.2c0 .4-.4.5-.6.7-.3 0-.6-.1-.9-.4 0-.4.3-.5.5-.7.5-.2.8 0 1 .4h0zM70.7 13.8c.5 0 1 .4 1 1 0 .5-.4 1-1 1H58.9c-.5 0-1-.4-1-1 0-.5.4-1 1-1h11.8 0zm-8.4 1.7c1.2 0 .1-1.4-.6-1.4h-1.2c-1.2 0-.1 1.4.6 1.4h1.2 0zm4.9 0c1.2 0 .1-1.4-.6-1.4h-1.2c-1.2 0-.1 1.4.6 1.4h1.2 0zm3.5-1.4h-.4c-1.2 0-.2 1.4.4 1.4.8 0 .8-1.4 0-1.4h0zm-1.1 13.2l2.3.9 2.2-.9-.9 3.3 1.8-.4-.6 2 .6 1.9-1.6-.4.7 3.6-2.2-.9-2.3.9.9-3.6-1.8.5.5-2-.5-1.9 1.7.3-.8-3.3h0zm3.4 6c.5 0 .6-.7.6-1.3 0-1.4-1.1 0-1.6-1.3-.4 1.1-1.5.1-1.5 1.2 0 .8 0 1.3.8 1.3H73v.1zm-2.2-1.2c0 .5.7.2 1.2.2s1.2.3 1.2-.2c0-.7-.7-.5-1.2-.5s-1.2-.3-1.2.5h0zm-6.4.1v-.4l-.4-.1.3-.3-.2-.3h.4l.2-.4.2.4h.4l-.1.3.2.3-.3.1v.4l-.4-.3-.3.3zm-1.8 2.2V34h-.4l.3-.4-.2-.3h.4l.3-.4.2.4h.4l-.2.3.3.4h-.4v.4l-.3-.2-.4.2zm3-.2v-.5h-.4l.3-.3-.2-.4.4.1.2-.5.3.5.4-.1-.2.4.3.3h-.4v.5l-.4-.3-.3.3zm.3 1.6v-.2h-.2l.2-.2-.1-.2h.2l.1-.2.2.2h.2l-.1.2.1.2h-.2v.2l-.2-.1-.2.1zm-2.7 2V37l-.7-.1.5-.5-.3-.6.7.1.4-.7.4.7.6-.1-.3.6.5.5-.6.1v.8l-.6-.5-.6.5zM64.6 0L66 3.4l3.5-1-1.8 3.2 3 2.2-3.6.6.2 3.7-2.7-2.5-2.8 2.5.3-3.7-3.7-.6 3-2.2-1.8-3.2 3.6 1L64.6 0zM51.7 77.2c-.4.2-.6.3-.5.7l.5 2.1c.1.4.1 1-.1 1.4-.3.5-1 .7-1.4.9-.3.1-1.1.2-1.7 0-.4-.2-.7-.4-.8-1.1l-.5-2.2c-.1-.6-.3-.5-.8-.5v-.2l2.7-.6v.2c-.5.1-.8.2-.6.8l.5 2.2c.1.4.3 1.3 1.4 1 1.4-.3 1.2-1.3 1.1-1.8l-.5-2c-.1-.4-.2-.6-.9-.5v-.2l1.7-.4-.1.2h0zm4 .4c-.2-.4-.9-1.1-1.8-.9-.4.1-.8.4-.7.8s.3.5 1 .6l1.3.2c.3.1 1 .3 1.1 1 .1.6-.2 1.5-1.7 1.8-.8.2-1.2 0-1.4.1-.2 0-.2.2-.2.3l-.2.1-.4-1.6.2-.1c.3.6.9 1.3 1.9 1.1s.8-.9.8-1c-.1-.4-.5-.5-1.1-.6l-.6-.1c-1.5-.2-1.6-.8-1.7-1.1-.1-.4 0-1.4 1.5-1.7.6-.1 1.1 0 1.3-.1.2 0 .2-.1.2-.3l.2-.1.3 1.4v.2h0zm5.2 2.7l-2.9.3v-.2c.6-.1.8-.1.7-.7l-.3-3.6c-.6.1-1.4.2-1.4 1.3h-.2l-.1-1.4 4.8-.5.1 1.4h-.2c-.3-1.1-1.1-1-1.7-1l.3 3.6c.1.6.3.6.9.5v.3h0zm6.8 0H66l-1.6-2.2h-.2v1.3c0 .5.2.6.7.6v.2l-2.7-.1v-.2c.6 0 .7-.1.7-.6l.1-3c0-.6-.2-.6-.7-.6v-.2l2.6.1c.6 0 2.3.1 2.3 1.2 0 .8-.9 1-1.3 1.1l1.6 2c.1.1.2.1.3.1l-.1.3h0zm-3.5-2.5c1.1 0 1.5-.1 1.5-1 0-.7-.3-1-1-1-.4 0-.5.1-.5.3v1.7h0z"/><path class="text" d="M73 80.9l-2.6-.3v-.2c.5 0 .6 0 .7-.2 0-.2-.2-.7-.3-.9l-1.8-.2-.5.8c0 .3.4.3.6.4v.2l-1.6-.2v-.2c.4 0 .6-.2.9-.7l2.2-3.5h.2l1.4 3.8c.3.8.4 1 .8 1v.2h0zM70.8 79l-.6-1.7-1 1.5 1.6.2h0zm6.9 2.9l-4.6-.8v-.2c.5 0 .7.1.8-.3l.6-3.2c.1-.4-.2-.5-.6-.6v-.2l2.8.5v.2c-.6-.1-.8-.1-.9.5l-.6 3.2c-.1.3.1.4.6.5 1.2.2 1.8-.3 2.3-.9h.2l-.6 1.3h0zm3.1.7L78 82v-.2c.4.1.8.1.8-.3l.7-3.2c.1-.4-.3-.5-.6-.6v-.2l2.8.6v.2c-.4-.1-.8-.1-.9.3l-.7 3.2c-.1.4.2.5.7.6v.2h0zm5.6.7l-2.6-.3v-.2c.5 0 .7 0 .7-.2s-.2-.7-.3-.9l-1.8-.2c-.3.5-.4.8-.4.9 0 .3.4.3.6.4v.2l-1.6-.3v-.2c.4 0 .6-.2.9-.7l2.2-3.5h.2l1.4 3.7c.3.8.4 1 .8 1l-.1.3h0zm-2.3-1.8l-.6-1.7-.9 1.6 1.5.1h0zM65.7 28.4c0-1.6-.9-.1-1.4-1.5-.4 1.2-1.5.2-1.5 1.4 0 .5.1.8.4.9v.5c0 .1.1.2.2.2h1.7c.1 0 .2-.1.2-.2v-.5c.3-.1.4-.4.4-.8h0zm-1.4.3c-.5 0-1.1.3-1.1-.2 0-.8.5-.6 1-.6s1.2-.2 1.2.6c0 .6-.6.2-1.1.2h0zm15.6 19.8c.4 0 .8-.3.8-.7s-.3-.7-.8-.7a.7.7 0 1 0 0 1.4h0z"/><use class="text" xlink:href="#E"/><use class="text" xlink:href="#F"/><use class="text" x="6" xlink:href="#F"/><use class="text" x="-12" xlink:href="#E"/><use class="text" x="-6" xlink:href="#E"/><path class="text" d="M52.4 32.5s.4.6.4.7c0 .2-.2.4-.4.4s-.4-.2-.4-.4l.4-.7h0zm0 8s.4.6.4.7c0 .2-.2.4-.4.4s-.4-.2-.4-.4l.4-.7h0zm.9 6.3s.4.6.4.7c0 .2-.2.4-.4.4s-.4-.2-.4-.4c.1 0 .4-.7.4-.7h0zm5.1 3.4s.4.6.4.7c0 .2-.2.4-.4.4s-.4-.2-.4-.4l.4-.7h0zm18.3-17.7s-.3.6-.3.7c0 .2.2.4.4.4s.4-.2.4-.4c-.1 0-.5-.7-.5-.7h0zm0 8s-.3.6-.3.7c0 .2.2.4.4.4s.4-.2.4-.4c-.1 0-.5-.7-.5-.7h0z"/><use class="text" x="-0.7" y="22.5" xlink:href="#E"/><use class="text" x="-5.7" y="25.9" xlink:href="#E"/><use class="text" x="12.2" y="29.5" xlink:href="#F"/><path class="text" d="M74.4 41.8c.1.1.3.2.5.1l.2-.6s-.3-.3-.4-.3c-.6.2-1.3.2-1.7.8 0 .4.3.8.6 1 .2-.1.3.2.4.3 0 .2-.1.3-.3.3-.5-.5-1.2.2-1.6-.4.2-.6.5-1.2 0-1.7 0-.1.2-.2.1-.3-.2-.5-.8-.1-1.1-.1-.6-.1-1 .2-1.4.7 0 .2.1.4.3.6.2 0 .2 0 .3.2l-.4.2c.1.1.1.3.2.4-.3.1-.5-.3-.6-.5 0-.3 0-.8-.4-.9-.1 0-.3.1-.3.1-.1.1-.2.4-.2.6a3.55 3.55 0 0 0 .1.7s1.2.9 1.4 1.4c-.3.7-.3 1.6-1.1 2-.2.2-.2.4-.2.6l.2.2c.5-.3 1.4-.3 1.4-1.2.2-.3.4-.7.7-1 .4-.1.7.1.9.4-.1.6-.5 1-1 1.1-.1.1 0 .2 0 .3.2.3.6.2.8.1.6-.4.9-1.2 1.5-1.4.1.4-.8.5-.2.9.3-.1.8 0 1-.4-.3-.6.9-1 .2-1.5 0-.6.6-.8.6-1.4-.2-.6-.9-.6-1.1-1.2 0-.2.3-.2.6-.1h0zm-27.7 7c.4 0 .8-.3.8-.7s-.3-.7-.8-.7a.7.7 0 1 0 0 1.4h0zM7.8 71.5a.7.7 0 1 0 0-1.4.68.68 0 0 0-.7.7c-.1.4.3.7.7.7h0zM32.6 77h0 0-.1 0 .1 0-.2 0v-.1h0 .1s.1 0 .1.1c0 0-.1 0 0 0h0 0 0zm-.1 0c0-.1 0-.1 0 0 0-.1 0-.1 0 0h0 0zm.2-.1c-.1 0-.1 0 0 0-.1 0-.1 0 0 0h0c0 .1 0 .1 0 0 0 .1 0 .1 0 0-.1.1-.1.1 0 0-.1.1-.1.1 0 0h0 0 0c-.1.1-.1.1 0 0 0 .1 0 .1 0 0 0 .1 0 .1 0 0h0c-.1.1-.1 0 0 0-.1 0-.1 0 0 0h0 0 0 0zm.2 0v.1h0v-.1h0v.1h0v-.1h0 .1 0v.1h0v-.1h0 0-.1 0s-.1 0 0 0c-.1 0-.1 0 0 0h0 0 0 0 0 0 0z"/><path class="text" d="m32.9 77c0-0.1 0-0.1 0.1-0.1 0 0 0.1 0 0.1 0.1h-0.2zm0.1 0v0 0z"/><path class="text" d="m33.1 76.9s0 0.1 0 0v0c0 0.1-0.1 0.1 0 0-0.1 0.1 0 0.1 0 0v0 0 0 0zm45.3-53.6h-27.7v21.2c0 2.2 0.9 4 2.2 4.6l10.7 6.8c0.2 0.3 0.6 0.4 1 0.4 0.3 0 0.6-0.1 0.9-0.3l10.8-6.9c1.3-0.6 2.2-2.5 2.2-4.6l-0.1-21.2zm-0.8 21.5c-0.1 1.6-0.7 2.9-1.8 3.7l-10.5 6.6h-0.1c-0.2 0.2-0.5 0.3-0.8 0.3s-0.6-0.1-0.8-0.3l-10.4-6.6c-1.1-0.8-1.7-2.1-1.8-3.7v-20.7h26.2v20.7z"/><path class="text" d="M68.3 54.2l.3-.2c-.1.1-.2.1-.3.2h0zM47.4 83.1l-2.6.3v-.2c.5-.1.6-.1.6-.3s-.3-.7-.5-.9l-1.9.2c-.2.5-.3.8-.3.9 0 .3.4.2.7.2v.2l-1.6.2v-.2c.4-.1.5-.3.7-.9l1.4-3.9h.2l2.2 3.3c.4.7.6.9 1 .8l.1.3h0zm-2.7-1.3l-1-1.5-.6 1.7 1.6-.2h0z"/><path class="text" d="M93.3 73.2c-.5-1.2-1.5-2.1-2.7-2.5-1.3-.3-2.6-.1-3.5.9-1.4 1.2-.4 3.1-.4 4.6 0 .3 0 .6-.3.7-5.8-.5-11.1-2-16.9-2.6-1.3-.2-2.6-.2-3.9-.4l-1.6-.2c-5 .2-9.9.4-14.6 1.6-1 .3-2.1.4-3.1.8-.7-.1-1.3.4-2 .2l-1.3.3h-.4c-.6-1.6 1.3-2.6.7-4.2-.5-.9-1.6-1.8-2.7-1.6-1.4-.2-2.5.6-3.2 1.6-.9 2 .2 4.1.6 6-.1.6.6 1.4 0 1.9-1.3-.9-2.9-1.4-4.5-.9-.5.2-1.4-.1-1.6.5 1.7.9 3.9.8 5.8.7.2-.1.4-.1.6 0 .2 1-.2 2.4.4 3.4.7 1 1.9 1.2 3.1 1.3 3.7-.1 6.9-1.2 10.3-2 .5 0 .9-.3 1.5-.3 1.8-.4 3.7-.7 5.6-.8-.8 1.1-1.3 2.3-1.7 3.6-.5 1.1.8 1.2 1.2 1.8-1.2.4-2.1 1.2-3.3 1.7-2.5-.1-4.7.9-7.1 1.2 0 .5.8.4.9.9-.1.4-.5.4-.8.6 0 .2 0 .3.2.3.2-.3.8-.1 1-.4.8 0 1.5-.2 2.2-.3.7-.3 1.4-.3 2-.8.8-.2 1.4-.8 2.2-1 1.2 0 2.3-.4 3.4-.5v.2c-.9 1.5-1.9 3-2.8 4.4-.2.3 0 .6.3.6.6.2 1.1 0 1.6-.2.8-1.4 1.6-2.8 2.3-4.3.3-1.4 1.3-2.1 2.3-3 .2-.1.4-.3.6-.1-.8.9-1.3 1.8-1.9 2.8-.3 1.1-.4 2.6.6 3.5.5.4 1.2.3 1.8.3 1.6-.8 3.5.5 4.7-1 .7-.1.8.7 1.2 1.1.7.2 1.4.9 2.1.4 0-.4-.5-.8-.8-1.2-.4-.8-1-1.4-1.4-2.2-.2-.6-.6-.9-.6-1.5.7.2 1.4.7 2.1.8.7.3 1.5.2 2.1.6.5.7 1.3 1.1 2 1.5 1 .5 2.1.6 3.1 1 .4 0 1 .4 1.3 0-.2-.2-.4-.3-.6-.4-.1-.5.7-.2 1-.6a.55.55 0 0 0-.5-.3c-.6-.3-2-.4-2.4-.6-.5-.1-.9-.3-1.4-.4-2.4 0-3.7-2.2-5.6-3 .4-.4 1.1-.7 1.4-1.3.4-.6.5-1.5.1-2.1-.4-1.2-1.9-1.1-2.9-1.8l.1-.1c1.6-.1 2.9.3 4.3.6 3.8.5 7.4 2 11.3 2 2.2 0 4.9.1 6-2l.6-3.7c.8-2.1 2.1-3.9 1.9-6.1h0zm-43 18.2l-.6-.5c.3-.4.9-.2 1.3-.4 1-.3 2.2-.7 3.4-.5-1.2 1-2.7 1.1-4.1 1.4h0zm24.8-.6c1 .4 2.9.8 4.2 1-.1.5-1.1 0-1 .8-1.2-.5-2.7-.7-3.6-1.7.2 0 .3-.1.4-.1h0zm-37.3-17c.1-.7.3-1.5 1-2 1-.5 2.3-.4 3.1.1.3.2.5.4.6.8.2.7-.1 1.4-.6 1.8h-.4c0-.6 0-1.3.2-1.8 0-.5-.4-.5-.8-.7-.7-.2-1.3.1-1.8.4-.4.5-.8 1.1-.5 1.8.3.4 0 1 .2 1.5l-.1.2c-.4-.6-1-1.2-.9-2.1h0zm1.9 1.1c.6.4 1.4.2 2.1.4.1.4.1 1-.2 1.4-.7-.2-1.6-.1-1.9-.7.1-.4-.1-.8 0-1.1h0zm-.1-1.3c.1-.3 0-.8.4-.9.3-.1.7-.1.8.2 0 .5-.1 1-.2 1.4-.6.1-.9-.2-1-.7h0zm18.6 12.8c-.2-1.4.4-2.6 1.3-3.6.6-.1 1.2-.2 1.7.1-1 .3-2.3.5-2.6 1.8 0 .5-.1.8.1 1.2.4.8 1.4.4 2 1 0 .2-.2.4-.4.5-.6-.3-1.4-.4-2.1-1h0zm-1.4 2.8c1-.4 1.9-1.2 3-.9-.7.6-2 .9-3 .9h0zm3.8.4c-.6 1.3-1.2 2.5-2 3.8-.1.2-.4.2-.6.3 0-.6.6-1 .8-1.5.8-1.1 1.1-2.2 2-3.3.2.2-.2.4-.2.7h0zm1-2.3v.2h-.1l.1-.2h0 0c0-.1-.1-.1 0 0h0 0zm-.4-1.1c-.7-.1-1.3-.3-1.9-.5-.4-.4 0-.8 0-1.3.6-.9 2.1-1.3 2.9-.5-.1.9-.4 1.6-1 2.3h0zm.9 0c.1-.5.4-1.2.6-1.7 0 .5-.3 1.2-.6 1.7h0zm.4-3.3c-.5-.1-.8-.7-1.4-.7.5-.2 1-.1 1.5 0 .3.3 0 .5-.1.7h0zm.5 1.2h0v-.4h0v.4h0zm0 1.9c0-.2.1-.4.1-.6.2-.2.4.2.5.3-.1.2-.3.3-.6.3h0zm.6-2.5c.2-.6.2-1 .6-1.5.4 0 .8 0 1.1.2.1.8 1.1 1.9 0 2.6-.4.2-.9.5-1.3.2-.5-.5-.6-.9-.4-1.5h0zm2.9-1.1c-.1-.4.4-.1.5-.2l1.2.1c-.5-.2-1.3 1.3-1.7.1h0zm2 .5c-.5.2-.8.7-1.3.8.3-.4.8-.8 1.3-.8h0zm-1.6 2.5v.1h0v-.1h0 0zm0 2.4c0 .1 0 .2-.1.3l-.9-.7c.5-.1.8.1 1 .4h0zm-1-1.2c.1-.1.3-.1.4 0h-.4 0zm-.6-.6c.2-.2.4-.6.6-.6 0 0 0 .1.1.1-.2.2-.4.4-.7.5h0zm-.9-.1h-.2l.2-.2c.2 0 0 .1 0 .2h0zm.1 1.5c.5-.6 1 .3 1.2.8.6.9 2.1 1.7 1.6 2.9-.8.7-1.9 0-2.8.6-.4 0-1.2.1-1.4-.4.4-1.3.8-2.7 1.4-3.9h0zm-1.1.8l.2-.3c-.3 1-.8 2-1.3 2.9-.3-1 .7-1.8 1.1-2.6h0zm1.7 4.8c-.8 0-1.9.5-2.6-.2 0-.3-.3-.5-.3-.8.6-.2 1.2.5 1.8 0 .9 0 1.9-.1 2.8.1.4.1 1.1-.7 1.2.1-.3 1.3-1.9.4-2.9.8h0zm2.4-5.8v-.1h.1l-.1.1h0 0zm.2 2.5c0 .4.4.6.2.9a1.1 1.1 0 0 1-.2-.9h0zm1.1 2.4l-.2.1c-.2-.2-.1-.6-.1-.8.3.2.5.4.3.7h0zm2 1c0 .1-.2.1-.3 0-1.2-1.5-1.8-3.1-2.5-4.8h.2c.9 1.5 1.6 3.3 2.6 4.8h0zm1.5-3.7c-.1 0-.1.1-.1.2-1.2 0-1.9-.6-2.8-1.2v-.2c1 0 1.9.7 2.9 1.2h0zm-1.1-5.3c.5.1.5.6.6 1 0 .9-.5 1.6-1.4 2-.4.2-1.1.3-1.6.2 1 0 2-.4 2.4-1.4v-1.8h0zm-.8-.2c.2.6.6 1.1.4 1.8-.4.8-1.2.8-1.9.9-.4 0-.6-.1-.9-.3 0-.2 0-.3-.2-.4.1-.5-.9-1-.2-1.5.6-.6 2.1-1.9 2.8-.5h0zM90.6 81c-.3.4 0 1-.4 1.4 0 .7-.6 1.1-1.1 1.4-4.7 1-9.4-.6-14-1.4-6.4-1.4-13.9-1.8-20.4-.3-3.1.6-6 1.3-9 2.1-1.8.2-3.8.5-5.6 0-1.4-.7-.8-2.5-1.3-3.8.1-1-.3-1.8-.3-2.8-.1-.3-.2-.7-.2-1 .6.1 1.2.5 1.8.7 3.3.6 6.3-.4 9.4-1 3-.6 6-1.2 9.2-1.4 3.6 0 7.2-.2 10.7.4 1.1 0 2.1.3 3.1.4 2.2.3 4.3.9 6.6 1 .4.1.8.1 1.2.2 3.6.6 7.6 1.6 11 0 .1 1.4-.5 2.7-.7 4.1h0zm-1.1-4.9c0 .6-.6.5-.9.7h-1c-.2-.3-.1-.8-.1-1.1.6.1 1.4.1 2 .4h0zm-.5-1c.4-.4-.1-3 1.1-1.3 0 .3 0 .8-.3 1-.1.2-.5.5-.8.3h0zm3.2-.4c-.4.7-.9 1.2-1.7 1.4 0-1 .9-1.6.6-2.7-.5-.8-1.6-1-2.5-.8-.4.2-.2.6-.3 1l-.2 1.3c-.8 0-.8-.7-1.1-1.3 0-.8.4-1.7 1.2-2.1.6-.3 1.7-.3 2.3.1.5.1 1.1.4 1.3.8.7.6.6 1.6.4 2.3h0zm49-14.9h249.9"/><path class="text" d="M141.2 59.6H391v.3H141.2z"/><path class="text C" d="M151.6 78.9c1.5.4 2.6.8 3.2 1.3.9.7 1.3 1.6 1.3 2.8s-.5 2.2-1.4 3c-1.2.9-2.9 1.4-5.2 1.4h-8.1V87c.7 0 1.2-.1 1.5-.2s.5-.3.6-.5.2-.8.2-1.6V74.2c0-.9-.1-1.4-.2-1.6s-.3-.4-.6-.5-.8-.2-1.5-.2v-.4h7.6c1.8 0 3.1.2 3.9.5s1.4.8 1.8 1.5c.4.6.7 1.3.7 2.1s-.3 1.5-.8 2.1c-.6.4-1.6.8-3 1.2h0zm-4.2-.3c1.1 0 1.9-.1 2.5-.4.5-.3.9-.6 1.2-1.1s.4-1 .4-1.7-.1-1.3-.4-1.7c-.3-.5-.7-.8-1.2-1s-1.3-.3-2.5-.3v6.2h0zm0 .9v5.1.6a1.69 1.69 0 0 0 .3 1c.2.2.5.3 1 .3.6 0 1.2-.1 1.7-.4s.9-.7 1.2-1.2.4-1.1.4-1.8-.2-1.4-.5-2-.8-1-1.4-1.2c-.6-.3-1.5-.4-2.7-.4h0z"/><use class="text" xlink:href="#G"/><use class="text" xlink:href="#H"/><path class="text C" d="M188 81.4h-6c.1 1.5.5 2.6 1.2 3.5.5.6 1.2 1 2 1 .5 0 .9-.1 1.3-.4s.8-.7 1.2-1.4l.4.3c-.6 1.2-1.3 2.1-2 2.6s-1.6.8-2.5.8c-1.6 0-2.9-.6-3.7-1.9-.7-1-1-2.3-1-3.8 0-1.8.5-3.3 1.5-4.4s2.2-1.6 3.5-1.6c1.1 0 2.1.5 2.9 1.4.7.8 1.2 2.1 1.2 3.9h0zm-2.8-.7c0-1.3-.1-2.1-.2-2.6s-.3-.8-.6-1.1c-.2-.1-.4-.2-.7-.2-.4 0-.7.2-1 .6-.5.7-.7 1.7-.7 2.9v.4h3.2 0zm9.8 5c-1.3 1.2-2.5 1.8-3.6 1.8-.6 0-1.1-.2-1.6-.6-.4-.4-.6-.9-.6-1.6 0-.8.4-1.6 1.1-2.3s2.3-1.6 4.7-2.7v-1.1c0-.8 0-1.4-.1-1.6s-.3-.4-.5-.6c-.3-.2-.5-.2-.8-.2-.5 0-.9.1-1.3.3a.55.55 0 0 0-.3.5c0 .2.1.4.3.6.3.3.4.7.4 1 0 .4-.1.7-.4 1s-.7.4-1.1.4c-.5 0-.9-.1-1.2-.4s-.5-.6-.5-1c0-.6.2-1.1.7-1.6.4-.5 1.1-.9 1.9-1.2s1.6-.4 2.5-.4c1 0 1.9.2 2.5.7.6.4 1 .9 1.2 1.4.1.3.2 1.1.2 2.3v4.3c0 .5 0 .8.1 1 0 .1.1.2.2.3s.2.1.3.1c.2 0 .4-.1.6-.4l.4.3c-.4.6-.8 1-1.2 1.3s-.9.4-1.4.4c-.6 0-1.1-.1-1.5-.4-.7-.6-.9-1-1-1.6h0zm0-.9v-3.7c-.9.6-1.7 1.2-2.1 1.8-.3.4-.5.8-.5 1.3 0 .4.1.7.4 1 .2.2.5.3.8.3.4 0 .9-.2 1.4-.7h0z"/><use class="text" x="42.7" xlink:href="#G"/><use class="text C" xlink:href="#I"/><path class="text" d="M233.9 77.5v7.6c0 .7.1 1.2.2 1.4.2.3.7.4 1.4.4v.4H229v-.4c.5 0 .8-.1 1-.2s.4-.3.4-.4c.1-.2.1-.6.1-1.2v-7.6H229v-1.2h1.6v-.8-.6c0-1.1.4-2.1 1.2-2.8.8-.8 1.9-1.1 3.4-1.1 1 0 1.7.2 2.1.5.5.4.7.8.7 1.2s-.1.7-.4.9c-.3.3-.7.4-1.2.4a1.69 1.69 0 0 1-1-.3c-.2-.2-.4-.4-.4-.7 0-.1 0-.2.1-.4v-.4c0-.2 0-.3-.1-.4s-.3-.2-.5-.2-.4.1-.6.3-.2.5-.2.9v2.1 1.4h1.6v1.2h-1.4 0zm18.6 4.4l4.3-10.5h6.5v.4h-.5c-.5 0-.8.1-1.1.2-.2.1-.4.3-.5.6-.1.2-.1.7-.1 1.5v10.5c0 .8 0 1.3.1 1.5s.3.4.5.5c.3.1.6.2 1.1.2h.5v.4H255v-.4h.5c.5 0 .8-.1 1.1-.2.2-.1.4-.3.5-.6.1-.2.1-.7.1-1.5V72.8l-6.1 14.5h-.3l-6.2-14.4v11.2c0 .8 0 1.3.1 1.4.1.4.3.7.7 1 .3.2.9.4 1.6.4v.4h-5.5v-.4h.2c.4 0 .7 0 1-.2.3-.1.5-.3.7-.5s.3-.5.4-.9v-1.2-10c0-.8 0-1.3-.1-1.5s-.3-.4-.5-.5c-.3-.2-.6-.2-1.1-.2h-.5v-.4h6.5l4.4 10.4h0z"/><use class="text C" xlink:href="#J"/><path class="text" d="M277.7 72.3v4h2.6v1.2h-2.6v6.8c0 .6 0 1 .1 1.2a1.38 1.38 0 0 0 .3.4.76.76 0 0 0 .4.2c.5 0 1-.4 1.4-1.2l.4.3c-.6 1.5-1.7 2.3-3.1 2.3-.7 0-1.3-.2-1.8-.6s-.8-.8-.9-1.3c-.1-.3-.1-1-.1-2.2v-5.9H273v-.4c1-.7 1.8-1.4 2.5-2.2s1.3-1.6 1.8-2.6h.4 0z"/><g class="text C"><use x="17.5" xlink:href="#J"/><path d="M295.8 76c1 0 1.8.2 2.7.7.8.5 1.4 1.2 1.9 2.1.4.9.6 1.9.6 3 0 1.6-.4 2.9-1.2 3.9-1 1.3-2.3 1.9-4 1.9s-2.9-.6-3.8-1.7c-.9-1.2-1.3-2.5-1.3-4 0-1.6.5-2.9 1.4-4.1s2.1-1.8 3.7-1.8h0zm.1.8c-.4 0-.7.2-1 .5s-.5.9-.6 1.8-.1 2.1-.1 3.7c0 .8.1 1.6.2 2.3.1.6.3 1 .6 1.3s.6.4 1 .4.6-.1.9-.3c.3-.3.5-.6.6-1.1.2-.7.2-2.2.2-4.5 0-1.3-.1-2.2-.2-2.7-.2-.5-.4-.9-.7-1.1-.4-.2-.6-.3-.9-.3h0z"/></g><use class="text" x="132" xlink:href="#H"/><path class="text C" d="M315.9 76c1 0 1.8.2 2.7.7.8.5 1.4 1.2 1.9 2.1.4.9.6 1.9.6 3 0 1.6-.4 2.9-1.2 3.9-1 1.3-2.3 1.9-4 1.9s-2.9-.6-3.8-1.7c-.9-1.2-1.3-2.5-1.3-4 0-1.6.5-2.9 1.4-4.1.8-1.2 2.1-1.8 3.7-1.8h0zm0 .8c-.4 0-.7.2-1 .5s-.5.9-.6 1.8-.1 2.1-.1 3.7c0 .8.1 1.6.2 2.3.1.6.3 1 .6 1.3s.6.4 1 .4.6-.1.9-.3c.3-.3.5-.6.6-1.1.2-.7.2-2.2.2-4.5 0-1.3-.1-2.2-.2-2.7s-.4-.9-.7-1.1-.5-.3-.9-.3h0z"/><path class="text" d="M325.8 71.4V85c0 .8.1 1.3.3 1.5s.5.3 1.1.4v.4h-5.9v-.4c.5 0 .8-.2 1.1-.4.2-.2.2-.7.2-1.4V73.7c0-.8-.1-1.3-.3-1.5s-.5-.3-1-.4v-.4h4.5 0z"/><g class="C"><use class="text" x="109.4" xlink:href="#I"/><path class="text" d="M345.7 76.5h3.7v1.3h-2.1a5.77 5.77 0 0 1 .8 1 3.08 3.08 0 0 1 .3 1.3c0 .8-.2 1.5-.7 2-.4.6-1 1-1.8 1.4-.7.3-1.4.5-2 .5 0 0-.5 0-1.4-.1-.4 0-.7.1-.9.4-.2.2-.4.5-.4.8s.1.5.3.7.6.3 1.1.3h2c1.6 0 2.8.2 3.4.5.9.5 1.3 1.3 1.3 2.3 0 .7-.2 1.3-.6 1.8s-.9.9-1.6 1.2c-1 .4-2.2.6-3.5.6-1 0-1.9-.1-2.7-.3s-1.4-.5-1.8-.8-.5-.7-.5-1.1.1-.7.4-1 .8-.5 1.5-.7c-1-.5-1.5-1.2-1.5-2.1 0-.5.2-1.1.6-1.6s1.1-1 2-1.3c-1-.4-1.8-.9-2.3-1.5s-.7-1.4-.7-2.2c0-1.1.4-2 1.3-2.8s2-1.2 3.4-1.2c.9.1 1.7.3 2.4.6h0zm-2 .2c-.5 0-.8.2-1.2.7-.3.5-.5 1.4-.5 2.8 0 1.2.2 2 .5 2.4s.7.6 1.1.6c.5 0 .9-.2 1.2-.6s.5-1.3.5-2.5c0-1.4-.2-2.4-.5-2.9-.3-.3-.6-.5-1.1-.5h0zm-.7 12.2c-.8 0-1.3.1-1.6.2-.4.2-.7.6-.7 1s.2.8.7 1.1 1.3.5 2.6.5c1.1 0 1.9-.1 2.6-.4.6-.3.9-.7.9-1.2 0-.2-.1-.4-.2-.5-.2-.2-.5-.4-1-.5-.3-.1-1.4-.2-3.3-.2h0z"/></g><path class="text" d="M355.8 87.8l-3.5-8.1c-.5-1.2-.9-2-1.2-2.3s-.6-.5-.9-.6v-.4h5.8v.4c-.4 0-.7.1-.8.2-.2.1-.2.3-.2.5 0 .3.2.9.6 1.8l1.9 4.3 1.3-3.3c.5-1.2.7-2 .7-2.5 0-.3-.1-.5-.3-.7s-.5-.3-1-.3v-.4h3.7v.4c-.4 0-.7.2-.9.4s-.6 1-1.1 2.4l-3.1 8.1c-.8 2-1.4 3.3-1.8 3.8-.5.7-1.2 1-2 1-.7 0-1.2-.2-1.6-.6s-.6-.8-.6-1.3.1-.8.4-1.1.6-.4 1-.4.7.1.9.4.4.6.4 1.2c0 .3 0 .5.1.6s.2.1.3.1c.2 0 .4-.1.6-.3.3-.3.7-1.1 1.1-2.3l.2-1h0z"/><defs><path id="B" class="text" d="M186.8 30.6V35h2.9v1.3h-2.9v7.5c0 .7 0 1.2.1 1.4s.2.4.3.5c.2.1.3.2.5.2.6 0 1.1-.4 1.6-1.3l.4.3c-.7 1.7-1.8 2.5-3.4 2.5-.8 0-1.4-.2-2-.6-.5-.4-.9-.9-1-1.4-.1-.3-.1-1.1-.1-2.4v-6.5h-1.6V36c1.1-.8 2-1.6 2.8-2.4s1.4-1.8 2-2.8h.4v-.2z"/><path id="C" class="text" d="M244.5 35v1.6c.6-.7 1.2-1.2 1.8-1.5s1.2-.5 1.8-.5c.8 0 1.4.2 2 .7.5.4.9 1 1 1.6.1.5.2 1.4.2 2.8v4.7c0 .9.1 1.5.2 1.7.2.2.5.4 1.1.4v.5h-6.1v-.5c.5-.1.8-.2 1-.6.1-.2.2-.7.2-1.6v-5.4c0-1 0-1.6-.1-1.9s-.2-.5-.4-.6-.4-.2-.6-.2c-.7 0-1.4.5-2.1 1.6v6.5c0 .9.1 1.5.2 1.7.2.2.5.4.9.5v.5h-6.1v-.5c.5-.1.9-.2 1.1-.5.1-.2.2-.7.2-1.7v-6.8c0-.9-.1-1.5-.3-1.7s-.5-.4-1-.4V35h5 0z"/><path id="D" class="text" d="M312.4 40.6h-6.6c.1 1.6.5 2.9 1.3 3.8.6.7 1.3 1.1 2.1 1.1.5 0 1-.1 1.4-.4s.9-.8 1.4-1.6l.4.3c-.7 1.3-1.4 2.3-2.2 2.8-.8.6-1.7.8-2.8.8-1.8 0-3.2-.7-4.1-2.1-.7-1.1-1.1-2.5-1.1-4.1 0-2 .5-3.6 1.6-4.8s2.4-1.8 3.8-1.8c1.2 0 2.3.5 3.2 1.5 1 1 1.5 2.5 1.6 4.5h0zm-3.2-.9c0-1.4-.1-2.3-.2-2.9-.1-.5-.4-.9-.7-1.2-.2-.2-.4-.2-.7-.2-.4 0-.8.2-1.1.7-.5.8-.8 1.8-.8 3.2v.5h3.5v-.1z"/><path id="E" class="text" d="M76.4 24.3s-.4.6-.4.7c0 .2.2.4.4.4s.4-.2.4-.4c0 0-.4-.7-.4-.7h0z"/><path id="F" class="text" d="M52.4 24.3s-.4.6-.4.7c0 .2.2.4.4.4s.4-.2.4-.4c-.1 0-.4-.7-.4-.7h0z"/><path id="G" class="text" d="M167.4 76.3v8.6c0 .8.1 1.4.2 1.6.2.2.5.3 1 .4v.4h-4.5v-1.5c-.5.6-1 1.1-1.6 1.4-.5.3-1.1.4-1.8.4-.6 0-1.2-.2-1.7-.6s-.8-.8-1-1.3-.2-1.4-.2-2.7v-4.4c0-.8-.1-1.3-.2-1.6-.1-.2-.5-.3-1-.4v-.4h4.5v7.5c0 .8 0 1.3.1 1.5s.2.4.4.5.4.2.6.2c.3 0 .5-.1.8-.2.3-.2.7-.6 1.1-1.2v-5.9c0-.8-.1-1.3-.2-1.6-.1-.2-.5-.3-1-.4v-.4h4.5v.1z"/><path id="H" class="text" d="M173.8 76.3v2.5c.7-1.1 1.4-1.9 1.9-2.3s1.1-.6 1.6-.6c.4 0 .8.1 1 .4.3.3.4.6.4 1.1s-.1.9-.4 1.2-.6.4-.9.4c-.4 0-.8-.1-1.1-.4s-.5-.4-.5-.4c-.1 0-.2-.1-.3-.1-.2 0-.4.1-.6.3-.3.3-.6.6-.7 1.1-.3.8-.4 1.6-.4 2.5v2.5.7c0 .4 0 .7.1.9s.2.4.4.5.5.2.9.2v.4h-5.9v-.4c.5 0 .8-.2 1-.4s.3-.8.3-1.8v-6.1c0-.6 0-1-.1-1.2s-.2-.4-.3-.5-.4-.2-.8-.2v-.4h4.4v.1z"/><path id="I" class="text" d="M222.9 76c1 0 1.8.2 2.7.7.8.5 1.4 1.2 1.9 2.1.4.9.6 1.9.6 3 0 1.6-.4 2.9-1.2 3.9-1 1.3-2.3 1.9-4 1.9s-2.9-.6-3.8-1.7c-.9-1.2-1.3-2.5-1.3-4 0-1.6.5-2.9 1.4-4.1s2.1-1.8 3.7-1.8h0zm.1.8c-.4 0-.7.2-1 .5s-.5.9-.6 1.8-.1 2.1-.1 3.7c0 .8.1 1.6.2 2.3.1.6.3 1 .6 1.3s.6.4 1 .4.6-.1.9-.3c.3-.3.5-.6.6-1.1.2-.7.2-2.2.2-4.5 0-1.3-.1-2.2-.2-2.7s-.4-.9-.7-1.1-.6-.3-.9-.3h0z"/><path id="J" class="text" d="M272.5 81.4h-6c.1 1.5.5 2.6 1.2 3.5.5.6 1.2 1 2 1 .5 0 .9-.1 1.3-.4s.8-.7 1.2-1.4l.4.3c-.6 1.2-1.3 2.1-2 2.6s-1.6.8-2.5.8c-1.6 0-2.9-.6-3.7-1.9-.7-1-1-2.3-1-3.8 0-1.8.5-3.3 1.5-4.4s2.2-1.6 3.5-1.6c1.1 0 2.1.5 2.9 1.4.7.8 1.1 2.1 1.2 3.9h0zm-2.9-.7c0-1.3-.1-2.1-.2-2.6s-.3-.8-.6-1.1c-.2-.1-.4-.2-.7-.2-.4 0-.7.2-1 .6-.5.7-.7 1.7-.7 2.9v.4h3.2 0z"/></defs></svg>
