<?xml version="1.0" encoding="UTF-8"?>
<svg width="541.87mm" height="104.2mm" version="1.1" viewBox="0 0 541.87 104.2" xmlns="http://www.w3.org/2000/svg"><g transform="translate(165.94 -96.435)"><path d="m167.35 133.52c-8.0852-3.1572-10.421-5.1704-10.421-8.9758 0-4.5368 2.8604-6.6404 8.9939-6.6404 4.0553 0 7.8934 1.7959 10.783 3.36 0.27506 0.15601 0.53644 0.31202 0.79645 0.47076 1.0072 0.60897 1.9625 1.1837 3.2333 1.1837 2.9981 0 4.3559-2.473 4.3559-4.7722 0-2.5562-2.5708-4.9061-7.8571-7.1836-3.6859-1.6004-8.1684-2.1724-11.141-2.1724-12.383 0-19.773 5.891-19.773 15.754 0 4.0263 1.2234 7.2198 3.8525 10.03 2.9218 3.1283 7.6904 5.8511 14.588 8.306 7.9295 2.8098 11.022 5.5181 11.022 9.6675 0 2.1001-0.89088 6.9844-9.1677 6.9844-6.1372 0-9.4864-2.5779-12.926-5.6774-1.2563-1.17-2.1508-1.756-3.534-1.756-2.5091 0-4.2688 1.89-4.2688 4.5984 0 1.738 0.89088 3.4398 2.8061 5.3479 4.526 4.316 10.659 6.5935 17.753 6.5935 5.9381 0 10.964-1.5751 14.537-4.5695 3.5411-2.9654 5.4093-7.0966 5.4093-11.948 0-10.413-7.542-14.121-19.045-18.6m40.687 3.2334c3.7402 0 6.4087 2.969 6.988 7.7593h-14.4c0.50633-2.4332 2.2158-7.7593 7.4117-7.7593m0.0821-8.1866c-5.3516 0-9.9644 1.9987-13.346 5.768-3.2551 3.6207-5.0437 8.6644-5.0437 14.182 0 5.518 1.6656 10.5 4.6961 14.027 3.3312 3.8743 8.1902 5.9236 14.041 5.9236 6.1263 0 10.156-2.2304 12.455-4.0915 1.5063-1.2563 2.9004-2.7011 2.9004-4.7649 0-2.2086-1.6475-3.7439-4.0046-3.7439-1.7272 0-2.7264 0.8512-3.8779 1.8466-2.0675 1.7525-4.3304 2.5707-7.1257 2.5707-5.4493 0-8.0852-4.0913-8.2988-8.1938h20.428c2.8894 0 3.9177-1.8466 3.9177-3.5736 0-11.93-6.7273-19.95-16.742-19.95m38.919 0.1738c-3.7257 0-6.3471 2.0602-7.6035 5.9598v-0.56791c0-3.0705-2.1471-5.2176-5.2176-5.2176-3.0776 0-5.221 2.1471-5.221 5.2176v28.771c0 2.8785 2.3462 5.2212 5.221 5.2212 2.9257 0 5.2139-2.2956 5.2139-5.2212v-14.302c0-6.865 2.4875-10.203 7.6072-10.203 2.8604 0 4.6998-1.9118 4.6998-4.87 0-2.9546-1.7994-4.7867-4.6998-4.7867m35.306 0.16969c-2.2232 0-3.6317 0.93467-4.4318 2.9328l-7.8752 21.652-7.8716-21.656c-0.80329-1.9914-2.2086-2.9257-4.4318-2.9257-2.8169 0-4.7867 1.9372-4.7867 4.6962 0 0.58981 0.15601 1.2782 0.44612 1.9551l12.303 29.632c0.8334 1.9372 2.2884 2.9292 4.3414 2.9292 2.0493 0 3.5121-0.99215 4.3449-2.9292l12.307-29.636a5.2501 5.2501 0 0 0 0.43791-1.9516c0-2.759-1.9696-4.6962-4.783-4.6962m13.176-16.55c-3.2694 0-5.8293 2.5599-5.8293 5.8294a5.757 5.757 0 0 0 5.8293 5.8149c3.2588 0 5.8222-2.5526 5.8222-5.8149 0-3.2696-2.5634-5.8294-5.8222-5.8294m0 16.547c-2.9328 0-5.221 2.2956-5.221 5.2212v28.771c0 2.9328 2.2919 5.2247 5.221 5.2247 2.9257 0 5.2139-2.2955 5.2139-5.2247v-28.771c0-2.9255-2.2882-5.2176-5.2139-5.2176m28.34 8.2698c2.6395 0 4.8265 1.296 6.4993 3.8488 0.83203 1.296 1.9226 1.8684 3.5556 1.8684 2.4802 0 4.3485-1.756 4.3485-4.0915 0-1.5932-0.87583-3.1138-1.4012-3.8669-2.7409-3.9938-7.6398-6.3726-13.086-6.3726-5.6447 0-10.446 2.071-13.893 5.996-3.1827 3.6207-4.9316 8.5776-4.9316 13.951 0 5.3768 1.7489 10.337 4.9316 13.954 3.4469 3.9249 8.2481 5.996 13.893 5.996 5.4457 0 10.345-2.3824 13.086-6.3724 0.52549-0.75677 1.4012-2.2703 1.4012-3.8706 0-2.3319-1.8682-4.0915-4.3485-4.0915-1.6294 0-2.7266 0.57613-3.552 1.8682-1.6764 2.5526-3.8634 3.8488-6.5029 3.8488-5.9742 0-8.6464-5.6882-8.6464-11.333s2.6722-11.333 8.6464-11.333m35.244-0.43107c3.7331 0 6.4087 2.9726 6.9881 7.7593h-14.396c0.5036-2.4332 2.2087-7.7593 7.4081-7.7593m16.829 11.764c0-11.93-6.7274-19.95-16.742-19.95-5.3551 0-9.968 1.9987-13.346 5.768-3.2551 3.6207-5.0474 8.6644-5.0474 14.182 0 5.518 1.6728 10.5 4.6961 14.027 3.3312 3.8743 8.1866 5.9236 14.041 5.9236 6.13 0 10.156-2.2303 12.463-4.0915 1.499-1.2563 2.8967-2.7011 2.8967-4.7649 0-2.2086-1.6475-3.7439-4.0081-3.7439-1.7199 0-2.7229 0.85119-3.8743 1.8466-2.071 1.7525-4.334 2.5707-7.1257 2.5707-5.4528 0-8.0851-4.0913-8.2987-8.1938h20.421c2.8965 0 3.9249-1.8466 3.9249-3.5736m-304.28-39.789c-2.2158 0-3.8561 1.1399-4.7431 3.3058l-16.996 41.208-17.003-41.208c-0.88349-2.1652-2.5201-3.3058-4.7396-3.3058-2.8966 0-4.8373 2.0132-4.8373 5.0148v49.369c0 2.9473 2.0204 5.0148 4.9242 5.0148 2.8097 0 4.9242-2.158 4.9242-5.0148v-28.618l12.336 30.324c0.59802 1.423 1.7017 3.3094 4.392 3.3094 2.6938 0 3.8018-1.8864 4.3955-3.3094l12.336-30.324v28.618c0 2.8568 2.1146 5.0148 4.9242 5.0148 2.9002 0 4.9243-2.0675 4.9243-5.0148v-49.373c0-3.0016-1.9445-5.0148-4.8374-5.0148m35.473 35.69h-14.262c0.52823-2.4514 2.234-7.647 7.343-7.647 3.6896 0 6.3254 2.9255 6.9156 7.647m-6.8324-15.931c-10.681 0-18.437 8.4001-18.437 19.994 0 5.5252 1.6728 10.518 4.707 14.049 3.3384 3.8887 8.2083 5.9416 14.078 5.9416 6.1445 0 10.178-2.2268 12.488-4.1023 1.7525-1.4628 2.9147-2.8386 2.9147-4.8047 0-2.2376-1.6656-3.8018-4.0552-3.8018-1.7452 0-2.7519 0.86898-3.9177 1.8574-2.082 1.7741-4.2653 2.5599-7.0823 2.5599-5.3804 0-7.9982-4.0263-8.2336-8.0743h20.36c2.9255 0 3.972-1.8719 3.972-3.6244 0-11.967-6.7455-19.998-16.793-19.998m38.825 9.7616c2.607 0 4.6454-1.9588 4.6454-4.4644 0-2.4622-1.9987-4.3268-4.6454-4.3268h-4.392v-10.207c0-2.969-2.2702-5.2174-5.2718-5.2174-3.0198 0-5.3008 2.2448-5.3008 5.2174v10.211h-1.5461c-2.6432 0-4.6419 1.8647-4.6419 4.3267 0 2.5057 2.0349 4.4645 4.6419 4.4645h1.5461v18.864c0 7.0316 2.9508 11.203 10.587 11.362h0.13685c2.1724-4e-3 4.1132-0.19569 6.025-1.0496 1.6944-0.75677 2.788-2.3101 2.788-4.0336 0-2.6613-2.0204-4.2037-4.5042-4.2037-0.0958 0-0.38317 0.0411-1.3356 0.0684-2.3172 0.0821-3.1246-1.0934-3.1246-3.3565v-17.651h4.392zm-110.63 47.023h-4.0661a0.47794 0.47794 0 0 1-0.47801-0.47076v-1.3976c0-0.25317 0.20281-0.4776 0.47801-0.4776h10.728c0.27151 0 0.47076 0.22854 0.47076 0.4776v1.3939a0.47432 0.47432 0 0 1-0.47076 0.47486h-4.0661v14.646a0.49242 0.49242 0 0 1-0.47431 0.47076h-1.6475a0.49242 0.49242 0 0 1-0.47431-0.47076zm13.104-1.8682c0-0.25317 0.19843-0.4776 0.47486-0.4776h9.9788a0.4707 0.4707 0 0 1 0.47076 0.4776v1.3976a0.4707 0.4707 0 0 1-0.47076 0.47076h-7.8823v5.0909h6.6622c0.24633 0 0.47076 0.22443 0.47076 0.47486v1.3939a0.47432 0.47432 0 0 1-0.47076 0.47486h-6.6622v5.3661h7.8787a0.4707 0.4707 0 0 1 0.47076 0.47075v1.3759a0.47432 0.47432 0 0 1-0.47076 0.47075h-9.9788a0.47432 0.47432 0 0 1-0.47486-0.47075v-16.514zm33.637 8.0054c1.6185 0 3.0414-1.3722 3.0414-3.0958 0-1.6184-1.4229-2.9689-3.0414-2.9689h-4.4426v6.0647zm-7.0605-8.009a0.4707 0.4707 0 0 1 0.47486-0.47076h6.789c2.9907 0 5.4348 2.368 5.4348 5.3371 0 2.2955-1.5208 4.1892-3.6932 5.0654l3.418 6.3363c0.1738 0.3257 0 0.72393-0.42423 0.72393h-1.9443a0.46346 0.46346 0 0 1-0.39823-0.22443l-3.3203-6.6115h-3.7655v6.3616c0 0.25043-0.22443 0.47076-0.47486 0.47076h-1.6222a0.4707 0.4707 0 0 1-0.47076-0.47076v-16.518zm29.299 11.054-3.0703-6.8361h-0.12316l-3.0414 6.8361zm-11.304 5.2898 7.6616-16.789a0.5757 0.5757 0 0 1 0.42423-0.27507h0.25317c0.12316 0 0.34759 0.12317 0.42012 0.27507l7.6108 16.789c0.14779 0.32296-0.0547 0.64866-0.42423 0.64866h-1.5751a0.58656 0.58656 0 0 1-0.57202-0.37633l-1.5461-3.4144h-8.1575c-0.49949 1.144-1.0209 2.2702-1.5208 3.4144a0.62277 0.62277 0 0 1-0.57613 0.37633h-1.5714c-0.37633 0-0.57613-0.3257-0.42696-0.64866zm23.51-14.472h-4.066a0.47432 0.47432 0 0 1-0.47759-0.47076v-1.3976c0-0.25317 0.19842-0.4776 0.47759-0.4776h10.725c0.27507 0 0.47486 0.22854 0.47486 0.4776v1.3939a0.47432 0.47432 0 0 1-0.47486 0.47486h-4.0662v14.646a0.4888 0.4888 0 0 1-0.47076 0.47076h-1.6475a0.4888 0.4888 0 0 1-0.47486-0.47076zm20.2 12.875c3.5701 0 6.4885-2.8965 6.4885-6.463 0-3.5448-2.9184-6.5137-6.4885-6.5137-3.5411 0-6.4594 2.9689-6.4594 6.5137a6.4812 6.4812 0 0 0 6.4594 6.463m0-15.468c4.9895 0 8.9795 4.0191 8.9795 9.0048a8.9252 8.9252 0 0 1-8.9795 8.9578 8.9035 8.9035 0 0 1-8.9578-8.9578 8.9433 8.9433 0 0 1 8.9578-9.0048m15.91 0.44475c0-0.24632 0.22854-0.44475 0.47486-0.44475h0.62266l10.826 12.524h0.0274v-11.804a0.4707 0.4707 0 0 1 0.47076-0.47076h1.5967c0.25317 0 0.4776 0.22443 0.4776 0.47076v16.793c0 0.24633-0.22854 0.44886-0.4776 0.44886h-0.64866l-10.826-12.875h-0.0274v12.151a0.47794 0.47794 0 0 1-0.47486 0.47076h-1.5714a0.49242 0.49242 0 0 1-0.47076-0.47076v-16.797zm30.4-0.44475c2.397 0 4.3704 0.86898 6.0648 2.3174 0.19843 0.20253 0.22443 0.49949 0.0274 0.69929-0.37634 0.40233-0.74993 0.77182-1.1222 1.1728-0.20253 0.22443-0.39822 0.1998-0.65139-0.0274-1.1728-1.0209-2.7193-1.6944-4.2364-1.6944-3.5446 0-6.2638 2.9944-6.2638 6.4848 0 3.4687 2.7192 6.463 6.2638 6.463 2.0675 0 3.4904-0.74992 3.7366-0.85119v-2.7916h-2.4403c-0.27917 0-0.4776-0.1998-0.4776-0.44886v-1.4483c0-0.27506 0.19843-0.47075 0.4776-0.47075h4.5403c0.24632 0 0.44612 0.22032 0.44612 0.47075 0 1.995 0.0274 4.0444 0.0274 6.0394 0 0.12316-0.0958 0.32569-0.19843 0.39822 0 0-2.5708 1.6438-6.188 1.6438a8.936 8.936 0 0 1-8.9794-8.9542 8.9795 8.9795 0 0 1 8.9794-9.0048m22.97 11.775-3.0704-6.8361h-0.12316l-3.0414 6.8361zm-11.3 5.2898 7.6579-16.789a0.5757 0.5757 0 0 1 0.42422-0.27507h0.24907a0.57932 0.57932 0 0 1 0.42423 0.27507l7.6072 16.789c0.1519 0.32296-0.041 0.64866-0.42423 0.64866h-1.5677a0.57932 0.57932 0 0 1-0.57613-0.37633l-1.5497-3.4144h-8.1576c-0.4995 1.144-1.0209 2.2702-1.5207 3.4144a0.62639 0.62639 0 0 1-0.57202 0.37633h-1.575c-0.36949 0-0.57613-0.3257-0.42012-0.64866zm33.134-14.472h-4.0662a0.47432 0.47432 0 0 1-0.47076-0.47076v-1.3976a0.4707 0.4707 0 0 1 0.47076-0.4776h10.728a0.4707 0.4707 0 0 1 0.47076 0.4776v1.3939a0.47432 0.47432 0 0 1-0.47076 0.47486h-4.0678v14.646a0.49242 0.49242 0 0 1-0.4776 0.47075h-1.6438a0.49242 0.49242 0 0 1-0.47076-0.47075v-14.646zm13.107-1.8682c0-0.25317 0.22443-0.4776 0.47076-0.4776h1.6474c0.25317 0 0.4776 0.22854 0.4776 0.4776v16.511a0.49242 0.49242 0 0 1-0.4776 0.4776h-1.6438a0.49242 0.49242 0 0 1-0.47486-0.4776zm17.724 8.0055c1.6185 0 3.0414-1.3722 3.0414-3.0958 0-1.6184-1.4229-2.9689-3.0414-2.9689h-4.4426v6.0647zm-7.0604-8.009a0.4707 0.4707 0 0 1 0.47076-0.47076h6.789c2.9944 0 5.4383 2.368 5.4383 5.3371 0 2.2955-1.5206 4.1892-3.6931 5.0654l3.4179 6.3363c0.1738 0.3257 0 0.72392-0.42423 0.72392h-1.9443a0.45984 0.45984 0 0 1-0.39822-0.22443l-3.3202-6.6115h-3.7656v6.3616c0 0.25043-0.22854 0.47076-0.4776 0.47076h-1.6185a0.4707 0.4707 0 0 1-0.47486-0.47076zm27.453 14.747c3.5664 0 6.4848-2.8965 6.4848-6.463 0-3.5448-2.9184-6.5137-6.4848-6.5137-3.5448 0-6.463 2.9689-6.463 6.5137a6.4812 6.4812 0 0 0 6.463 6.463m0-15.468c4.9893 0 8.9794 4.0191 8.9794 9.0048a8.9216 8.9216 0 0 1-8.9794 8.9578 8.9035 8.9035 0 0 1-8.9578-8.9578 8.9433 8.9433 0 0 1 8.9578-9.0048m22.966 8.7296a3.0994 3.0994 0 0 0 3.045-3.0958c0-1.6184-1.4229-2.9689-3.0414-2.9689h-4.4426v6.0647h4.4426zm-7.0605-8.009c0-0.24633 0.20253-0.47076 0.4776-0.47076h6.7853c2.9944 0 5.4383 2.368 5.4383 5.3371 0 2.2955-1.5207 4.1892-3.6931 5.0654l3.4179 6.3363c0.1738 0.3257 0 0.72392-0.42422 0.72392h-1.9445a0.45984 0.45984 0 0 1-0.39823-0.22443l-3.3202-6.6115h-3.7656v6.3616c0 0.25043-0.22853 0.47076-0.4776 0.47076h-1.6185a0.4707 0.4707 0 0 1-0.47486-0.47076v-16.518zm29.299 11.054-3.0668-6.8361h-0.12316l-3.0414 6.8361zm-11.297 5.2898 7.6543-16.789a0.5757 0.5757 0 0 1 0.42697-0.27507h0.24633c0.12316 0 0.35169 0.12316 0.42696 0.27507l7.6072 16.789c0.14916 0.32296-0.0547 0.64866-0.42423 0.64866h-1.5714a0.57932 0.57932 0 0 1-0.57203-0.37633l-1.5497-3.4144h-8.1575c-0.4995 1.144-1.025 2.2702-1.5208 3.4144a0.63001 0.63001 0 0 1-0.57613 0.37633h-1.5714c-0.3736 0-0.57613-0.3257-0.42423-0.64866zm22.26-16.619c0-0.24632 0.22854-0.44475 0.4776-0.44475h0.62266l10.826 12.524h0.0274v-11.804a0.4707 0.4707 0 0 1 0.47759-0.47076h1.5932c0.25316 0 0.47486 0.22443 0.47486 0.47076v16.793c0 0.24633-0.22033 0.44886-0.47076 0.44886h-0.65139l-10.826-12.875h-0.0274v12.151a0.47432 0.47432 0 0 1-0.47486 0.47076h-1.5714a0.49242 0.49242 0 0 1-0.47486-0.47076v-16.797zm30.393-0.44475c2.3933 0 4.3667 0.86898 6.0611 2.3174 0.20253 0.20253 0.22443 0.49949 0.0274 0.69929-0.37223 0.40233-0.74582 0.77182-1.1222 1.1728-0.1957 0.22443-0.39823 0.19979-0.64456-0.0274-1.1769-1.0209-2.7227-1.6944-4.2435-1.6944-3.5411 0-6.2639 2.9944-6.2639 6.4848 0 3.4687 2.7229 6.463 6.2639 6.463 2.0748 0 3.4941-0.74992 3.7439-0.85119v-2.7916h-2.444c-0.27506 0-0.47486-0.19979-0.47486-0.44886v-1.4483c0-0.27506 0.19843-0.47075 0.47075-0.47075h4.5442c0.24906 0 0.44886 0.22032 0.44886 0.47075 0 1.995 0.0274 4.0444 0.0274 6.0394 0 0.12316-0.0958 0.3257-0.19843 0.39822 0 0-2.5707 1.6438-6.1843 1.6438a8.936 8.936 0 0 1-8.9795-8.9542 8.9795 8.9795 0 0 1 8.9795-9.0048m13.806 0.72392c0-0.25317 0.22854-0.4776 0.4776-0.4776h1.6438c0.25043 0 0.47486 0.22854 0.47486 0.4776v16.511a0.49242 0.49242 0 0 1-0.47076 0.4776h-1.6475a0.49242 0.49242 0 0 1-0.4776-0.4776zm-381.52-60.166c-3.179-13.542-10.982-15.729-13.433-14.733 7.915 16.279 3.523 37.453-8.7984 49.344-8.9324 8.6065-20.58 13.484-33.981 13.484-1.575 0-3.2044-0.0684-4.8229-0.21348-27.981-2.4077-42.852-28.072-46.433-35.132 0.97764-0.40917 2.3137-0.81835 4.2182-0.95657 5.3587-0.38043 8.6681 1.014 10.236 2.6179a7.1184 7.1184 0 0 0 12.278 6.9844c0.09716-0.22033 0.18105-0.45981 0.24619-0.68835a9.1098 9.1098 0 0 0 0.34034-1.6728c0.45981-4.3812-1.738-8.3205-3.7077-10.598-3.6425-4.2109-10.576-7.7122-19.878-7.4949-18.198 0.41601-27.21 14.802-28.372 26.757-1.7488 18.068 9.758 30.11 19.744 28.995 0.39823-0.0411 1.0065-0.12317 1.7018-0.3517 1.2709-0.36949 2.4187-1.0893 3.2985-2.082 0.0356-0.0274 0.0547-0.0547 0.0794-0.0821l0.0356-0.0411a7.1257 7.1257 0 0 0-9.8593-10.182c-2.6468-3.0124-3.6932-8.6065-3.4868-12.474 0.12316-2.2268 0.8074-6.6477 3.0414-10.384a88.357 88.357 0 0 0 11.492 16.511c12.238 13.831 27.025 21.572 43.927 23.021 1.9806 0.16695 3.9466 0.25727 5.8294 0.25727 17.13 0 32.091-5.8946 43.268-17.047 11.297-11.261 16.63-28.506 13.035-43.837m-99.68-14.012c-13.404 0-25.056 4.8807-33.977 13.491-12.325 11.883-16.717 33.065-8.8057 49.34-2.4476 0.99898-10.254-1.1947-13.433-14.729-3.5918-15.334 1.7452-32.58 13.035-43.833 11.192-11.156 26.149-17.05 43.283-17.05 1.8756 0 3.838 0.09579 5.8222 0.26001 16.902 1.441 31.682 9.1859 43.927 23.017a89.143 89.143 0 0 1 11.496 16.514c2.2268-3.7403 2.9111-8.1649 3.0342-10.392 0.20637-3.8634-0.84367-9.461-3.4832-12.474a7.1257 7.1257 0 1 1-9.8666-10.174c0.01085-0.0137 0.02874-0.0274 0.03558-0.0547l0.08348-0.0821a7.1329 7.1329 0 0 1 3.2913-2.0856c0.706-0.21759 1.3072-0.30107 1.7126-0.3476 9.9824-1.1194 21.489 10.927 19.737 28.988-1.1514 11.97-10.171 26.341-28.376 26.765-9.2945 0.21349-16.228-3.2839-19.867-7.4949-1.9733-2.2811-4.1711-6.2169-3.7077-10.594 0.03284-0.32296 0.09716-0.77182 0.22443-1.2713 0.03558-0.14095 0.06569-0.27232 0.10811-0.40506a7.3864 7.3864 0 0 1 0.24619-0.68835c0.22812-0.55013 0.5322-1.1153 0.95944-1.6293a7.1128 7.1128 0 1 1 11.319 8.6174c1.5786 1.5932 4.8735 2.9907 10.247 2.6105a12.89 12.89 0 0 0 4.2073-0.95657c-3.5773-7.0604-18.448-32.721-46.425-35.136a56.122 56.122 0 0 0-4.8265-0.21074" fill="#00274C" fill-rule="evenodd" stroke-width="3.6208"/></g></svg>
