<svg xmlns="http://www.w3.org/2000/svg" viewBox="0 0 52 48">
  <rect x="0" y="0" width="52" height="48" fill="#ffffff"/>
  <path fill-rule="evenodd" clip-rule="evenodd" d="M48 48H0V0h48v48ZM19.197 37.414c-.548 0-1.05.105-1.633.35-.42.163-.583.245-.967.49l.665 1.119c.64-.431 1.224-.676 1.725-.676.571 0 .7.222.7.886v.245a4.025 4.025 0 0 0-.35-.012c-1.9 0-2.868.653-2.868 2.052 0 1.19.722 1.865 2.051 1.865.49 0 .91-.116 1.202-.326.116-.081.14-.104.361-.314.152.303.479.57.84.722l.827-.956c-.455-.338-.56-.583-.56-1.224v-.105l.036-2.006c0-.64-.023-.827-.105-1.072-.233-.664-.921-1.038-1.924-1.038Zm18.107.012c-.793 0-1.388.257-1.877.804-.525.583-.747 1.295-.747 2.368 0 1.877 1.108 3.09 2.822 3.09.84 0 1.562-.27 2.25-.829l-.607-.932c-.478.396-.979.595-1.515.595-.805 0-1.259-.526-1.259-1.447v-.047h3.451v-.361c0-1.247-.245-2.052-.793-2.611-.384-.397-1.038-.63-1.725-.63ZM7.409 35.234c-1.306 0-2.472.7-3.101 1.877-.373.7-.548 1.505-.548 2.519 0 1.189.326 2.169.98 2.903.664.758 1.527 1.12 2.646 1.12.92 0 1.61-.234 2.25-.758l-.745-1.027a7.262 7.262 0 0 1-.164.128c-.397.268-.781.396-1.224.397-.7 0-1.236-.315-1.563-.91-.244-.443-.337-1.06-.337-2.168 0-.945.139-1.621.454-2.087.291-.432.828-.7 1.376-.7.454 0 .886.152 1.294.455l.735-1.108c-.443-.385-1.248-.64-2.053-.64Zm33.404.012c.059.536.081 1.014.081 1.795l.002 4.714c.005.634.035.812.138 1.08.187.502.723.817 1.388.817.338 0 .664-.058.933-.163l-.268-.933a.519.519 0 0 1-.175.023c-.128 0-.257-.058-.315-.163-.093-.163-.105-.304-.105-1.33v-4.945c-.006-.64-.03-.972-.082-1.257l-1.596.362Zm-30.547 0c.07.245.117.804.117 1.363v6.903h1.585v-4.279c.35-.314.851-.547 1.236-.547.443 0 .606.22.606.815v4.01h1.528v-4.173c0-.676-.035-.77-.151-1.108-.187-.5-.817-.851-1.551-.851-.607 0-1.283.257-1.69.642 0-.07.022-.315.022-.502V36.33c0-.57-.035-1.13-.105-1.457l-1.597.373Zm12.207 2.541c.14.397.21.886.21 1.4v4.325h1.562V39.29c.361-.326.77-.536 1.084-.536.408 0 .526.199.526.875v3.882h1.539v-4.36c0-.373-.036-.63-.118-.851-.186-.513-.769-.863-1.433-.864-.35 0-.759.094-1.073.257-.257.14-.327.186-.688.443a1.53 1.53 0 0 0-.222-.746l-1.387.396Zm6.215 0c.14.397.21.886.21 1.4v4.325h1.562V39.29c.361-.326.77-.536 1.084-.536.408 0 .524.199.524.875v3.882h1.54v-4.36c0-.373-.035-.63-.117-.851-.186-.513-.77-.864-1.434-.864-.35 0-.758.094-1.073.257a5.28 5.28 0 0 0-.688.443c0-.245-.081-.502-.22-.746l-1.389.396ZM19.663 40.9l-.023 1.283c-.233.256-.525.408-.817.408-.396 0-.687-.315-.687-.781 0-.711.373-.91 1.457-.91h.07Zm17.664-2.332c.315 0 .536.117.688.35.14.221.186.455.186.898v.07h-1.806v-.023c0-.828.337-1.295.932-1.295ZM22.1 26.375c-.548 0-1.05.106-1.633.35a4.44 4.44 0 0 0-.968.49l.665 1.119c.641-.431 1.224-.676 1.726-.676.57 0 .699.222.699.886v.245a3.99 3.99 0 0 0-.35-.012c-1.9 0-2.868.653-2.868 2.052 0 1.19.723 1.866 2.052 1.866.49 0 .91-.117 1.201-.327.117-.081.14-.105.361-.314.152.303.479.57.84.722l.827-.956c-.454-.338-.56-.583-.56-1.223v-.106l.036-2.006c0-.64-.023-.827-.105-1.072-.233-.664-.92-1.038-1.923-1.038Zm-5.97.012c-.793 0-1.387.257-1.877.804-.525.583-.746 1.295-.746 2.368 0 1.877 1.107 3.09 2.821 3.09.84 0 1.562-.27 2.25-.829l-.606-.932c-.478.396-.98.594-1.516.594-.804 0-1.259-.525-1.259-1.446v-.046h3.451v-.361c0-1.248-.245-2.053-.793-2.612-.384-.397-1.037-.63-1.725-.63Zm21.651 0c-.793 0-1.388.256-1.878.804-.524.583-.746 1.295-.746 2.368 0 1.877 1.109 3.09 2.823 3.09.839 0 1.562-.27 2.25-.829l-.607-.932c-.478.396-.98.594-1.516.594-.804 0-1.26-.525-1.26-1.446v-.046H40.3v-.361c0-1.248-.244-2.053-.792-2.612-.385-.397-1.038-.63-1.726-.63Zm-12.114-1.294c-.058.443-.059.84-.059 1.423h-.594v1.013h.594l.001 3.498c.004.374.025.492.105.712.175.525.816.874 1.608.874a3.28 3.28 0 0 0 1.272-.268l-.199-.933c-.28.082-.42.117-.56.117-.535 0-.676-.198-.676-.956V27.53h1.003l.397-1.037h-1.4c0-.606.036-1.248.094-1.796l-1.586.397Zm-22.14-.723 1.935 8.173h1.854l.664-3.322c.232-1.18.394-2.315.397-2.332.012.07.105 1.097.385 2.355l.722 3.299h1.785l1.958-8.173h-1.713l-.665 3.078c-.14.677-.42 2.437-.443 2.694 0 0-.199-1.388-.35-2.146L9.31 24.37H7.526l-.723 3.276a27.537 27.537 0 0 0-.42 2.588 21.687 21.687 0 0 0-.43-2.67l-.7-3.194H3.527Zm25.463-.163c.07.245.116.805.116 1.364v6.903h1.586v-4.28c.35-.314.851-.547 1.236-.547.443 0 .606.221.606.816v4.01h1.528V28.3c0-.676-.035-.77-.152-1.108-.186-.5-.816-.85-1.55-.85-.607 0-1.283.256-1.691.64 0-.07.023-.314.023-.5v-1.19c0-.571-.035-1.13-.105-1.457l-1.597.373Zm15.285 2.157c-.175 0-.385.035-.513.093-.292.14-.665.455-.886.758a1.918 1.918 0 0 0-.245-.85l-1.399.372c.129.338.221.944.221 1.748v3.989h1.563v-4.221c.291-.338.606-.502.956-.502a.89.89 0 0 1 .455.117l.431-1.376c-.244-.105-.35-.128-.583-.128Zm-21.71 3.497-.023 1.284c-.233.256-.524.408-.815.408-.397 0-.689-.315-.689-.782 0-.71.374-.91 1.458-.91h.07Zm-6.412-2.332c.315 0 .536.118.688.35.14.222.186.455.186.898v.07h-1.806v-.023c0-.828.338-1.295.932-1.295Zm21.65 0c.316 0 .538.118.69.35.139.222.186.455.186.898v.07H36.87v-.023c0-.827.338-1.295.933-1.295ZM18.65 15.35c-.793 0-1.388.256-1.878.804-.524.583-.746 1.294-.746 2.367 0 1.877 1.108 3.09 2.822 3.09.84 0 1.563-.27 2.25-.829l-.606-.932c-.478.396-.98.594-1.515.594-.805 0-1.26-.524-1.26-1.445v-.047h3.451v-.361c0-1.248-.244-2.053-.792-2.613-.385-.396-1.038-.628-1.726-.628ZM3.48 13.33v1.353h1.982v6.75h1.656v-6.75h1.936l.267-1.353h-5.84Zm6.378-.163c.07.245.117.805.117 1.364v6.903h1.585v-4.28c.35-.314.851-.547 1.236-.548.443 0 .606.222.606.817v4.01h1.528V17.26c0-.676-.035-.77-.152-1.108-.186-.501-.816-.851-1.55-.851-.607 0-1.283.257-1.69.641 0-.07.022-.315.022-.502v-1.189c0-.571-.035-1.13-.105-1.457l-1.597.373Zm8.814 3.323c.315 0 .537.117.688.35.14.221.187.454.187.897v.07h-1.808v-.023c0-.828.338-1.294.933-1.294Z" fill="#039"></path>
  <path d="M49.97 2.175V.791h.691a.45.45 0 0 1 .203.05.422.422 0 0 1 .24.397.443.443 0 0 1-.25.416.468.468 0 0 1-.213.054h-.492V1.47h.405c.045 0 .09-.02.133-.058.046-.039.068-.096.068-.173 0-.08-.023-.135-.068-.165a.226.226 0 0 0-.127-.045h-.268v1.146h-.323Zm.85-.649.336.649h-.354l-.323-.649h.342ZM50.5 3c-.208 0-.402-.039-.583-.116A1.507 1.507 0 0 1 49 1.5c0-.208.039-.402.116-.583A1.508 1.508 0 0 1 50.5 0c.208 0 .402.039.583.116a1.507 1.507 0 0 1 .8 1.967 1.51 1.51 0 0 1-.8.8A1.467 1.467 0 0 1 50.5 3Zm0-.371c.208 0 .396-.05.566-.152a1.17 1.17 0 0 0 .409-.409c.101-.171.152-.36.152-.568 0-.208-.05-.396-.152-.566a1.144 1.144 0 0 0-.409-.409A1.075 1.075 0 0 0 50.5.371c-.208 0-.397.051-.568.154a1.144 1.144 0 0 0-.409.409c-.101.17-.152.358-.152.566 0 .208.05.397.152.568.101.17.238.306.409.409.171.101.36.152.568.152Z" fill="#039"></path>
</svg>
