<?xml version="1.0" encoding="UTF-8"?>
<svg width="136px" height="19px" version="1.1" viewBox="0 0 517 69" xmlns="http://www.w3.org/2000/svg"><style><![CDATA[.text{fill:#000000}]]></style><g fill="none" fill-rule="evenodd"><g transform="translate(0 1)"><path class="text" d="m507.03 8.6569c1.4137 1.4634 2.119 3.3676 2.119 5.7095 0 2.3429-0.71985 4.2595-2.1564 5.7486-1.4407 1.4902-3.2445 2.2327-5.4082 2.2327-2.1668 0-3.9612-0.73531-5.376-2.207-1.4116-1.4727-2.1169-3.3985-2.1169-5.7744 0-2.3089 0.7136-4.2039 2.146-5.6837 1.4303-1.483 3.2175-2.2214 5.3697-2.2214 2.2022 0 4.0091 0.73222 5.4228 2.1956zm-15.096-4.934c-3.1603 2.8475-4.7393 6.4026-4.7393 10.67 0 3.9804 1.3991 7.3655 4.1963 10.153 2.7941 2.7857 6.1728 4.1781 10.129 4.1781 2.6859 0 5.144-0.63233 7.3753-1.8949 2.2344-1.2626 3.9945-3.0144 5.2907-5.2584 1.2899-2.242 1.938-4.6508 1.938-7.2306 0-2.5602-0.64183-4.9423-1.9286-7.1523-1.2837-2.2101-3.0718-3.9587-5.3593-5.2461-2.2937-1.2883-4.7404-1.933-7.3451-1.933-3.5961 0-6.7813 1.2389-9.5567 3.7136z"/><g fill="#3296C4"><path d="m379.12 32.468c-1.8964-2.793-4.6093-4.1905-8.1409-4.1905-3.5285 0-6.1946 1.381-7.9943 4.14-1.7986 2.7621-2.6973 6.349-2.6973 10.764 0 4.2893 0.91541 7.8423 2.7473 10.668 1.8287 2.8259 4.4782 4.2368 7.9443 4.2368 3.6637 0 6.4068-1.3779 8.2387-4.14 1.8308-2.759 2.7494-6.347 2.7494-10.765 0-4.3501-0.95078-7.9216-2.8471-10.714zm12.655 21.007c-1.1131 3.0103-2.6849 5.5694-4.7092 7.6714-2.0285 2.104-4.4137 3.7075-7.161 4.8063-2.7462 1.1019-5.7224 1.6509-8.9253 1.6509-3.2029 0-6.1624-0.54891-8.8753-1.6509-2.714-1.0989-5.0535-2.7023-7.0143-4.8063-1.9588-2.1019-3.4973-4.6611-4.6072-7.6714-1.1141-3.0103-1.6675-6.4232-1.6675-10.243 0-3.8197 0.55341-7.2347 1.6675-10.246 1.1099-3.0103 2.662-5.5663 4.6582-7.6693 1.9931-2.103 4.3451-3.7229 7.0622-4.8547 2.713-1.1328 5.6704-1.7013 8.8764-1.7013 3.2029 0 6.178 0.56848 8.9242 1.7013 2.7462 1.1318 5.1149 2.7518 7.109 4.8547 1.9962 2.103 3.5493 4.659 4.6624 7.6693 1.1089 3.0113 1.6665 6.4263 1.6665 10.246 0 3.8197-0.55757 7.2326-1.6665 10.243z"/><polyline points="347.32 57.986 348.94 67.58 308.86 67.58 308.86 58.385 333.09 28.903 311.49 28.903 309.87 19.309 347.73 19.309 347.73 28.502 323.4 57.986 347.32 57.986"/><path d="m426.47 67.605v-31.828c0-2.0731-0.47331-3.7404-1.421-5.003-0.9487-1.2616-2.4997-1.8918-4.6592-1.8918-1.8964 0-3.7438 0.53552-5.5414 1.6014-1.8017 1.068-3.5472 2.5097-5.248 4.3223v32.799l-11.624-0.0051492-0.29127-48.897h10.15l1.0766 7.4613c2.224-2.07 4.6124-3.8516 7.1621-5.3408 2.5507-1.4881 5.4259-2.2337 8.6309-2.2337 4.445 0 7.8143 1.2482 10.105 3.7394 2.2854 2.4922 3.4328 5.9402 3.4328 10.341l-0.006241 34.93-11.766 0.0051492"/><path d="m453.85 37.579c0.49412-4.9196 3.6762-11.707 11.226-11.707 8.1482 0 10.135 7.28 10.038 11.707h-21.265zm32.393 8.4592c0.19973-1.0813 0.39841-2.8506 0.39841-5.1153 0-10.526-5.169-23.316-20.871-23.316-15.501 0-23.649 12.494-23.649 25.776 0 14.658 9.2415 24.201 24.941 24.201 6.9582 0 12.72-1.2801 16.898-3.0504l-1.7892-8.2635c-3.7782 1.2791-7.7519 2.1647-13.418 2.1647-7.7508 0-14.608-3.7384-14.902-12.397h32.393z"/></g><path class="text" d="m133.41 44.36c-2.1772 0.71266-3.8832 1.5036-5.1169 2.3779-1.2368 0.87331-2.0982 1.8311-2.584 2.8661-0.48787 1.035-0.73233 2.1019-0.73233 3.2028 0 1.6848 0.50244 3.0092 1.5125 3.9804 1.0049 0.97012 2.4206 1.4562 4.2411 1.4562 2.0139 0 3.8718 0.016443 5.8014-0.66944 1.886-0.67352 3.5576-1.1452 5.1825-2.7621l0.035369-12.103c-3.3829 0.38722-6.1624 0.93716-8.3396 1.6509zm19.967 23.24h-9.8656l-0.29543-2.9938c-3.515 4.1276-14.562 2.8465-16.572 2.6426-4.033-0.40473-7.3056-1.3161-9.7585-3.6137-2.4518-2.2976-3.6793-5.4881-3.6793-9.5642 0-5.6961 2.3541-9.9216 7.0622-12.674 4.7081-2.7487 11.868-4.5777 21.481-5.485v-1.3594c0-2.5252-0.7032-4.3223-2.1075-5.3913-1.4022-1.0659-3.411-1.6004-6.0188-1.6004-2.7442 0-5.4217 0.35736-8.0317 1.068-2.612 0.71369-5.1908 1.62-7.7363 2.7198l-1.4719-9.3232c2.7442-1.0978 5.6194-2.0051 8.6246-2.7188 3.0032-0.7106 6.4016-1.068 10.189-1.068 6.1385 0 10.727 1.2152 13.766 3.6426 3.0385 2.4274 4.5552 6.4561 4.5552 12.088l-0.14043 33.631z"/><path class="text" d="m180.32 67.407c-1.2316 0.16787-2.7369 0.25334-4.5146 0.25334-2.4612 0-4.6863-0.23893-6.6669-0.7106-1.9858-0.47373-3.6949-1.2863-5.1326-2.4366-1.4345-1.1514-2.5476-2.6745-3.3319-4.5715-0.78746-1.8939-1.1828-4.2327-1.1828-7.0081 0 0 0.32976-23.383 0-25.391-0.2767-1.691-1.4595-3.6714-2.7338-5.1863-1.5562-1.8506-5.3853-4.5664-5.3853-4.5664h8.1191l0.026006-17.788h12.103l-0.020805 17.788h11.699l-0.004161 9.9545h-11.694v23.157c0 1.965 0.49516 3.4716 1.4875 4.521 0.99135 1.0494 2.6828 1.5726 5.0774 1.5726 1.5739 0 2.8731-0.13491 3.8988-0.40576l1.5385 10.258c-0.9591 0.20391-2.0524 0.38825-3.282 0.55921"/><path class="text" d="m78.791 37.615c0.49516-4.9196 3.6762-11.707 11.229-11.707 8.1482 0 10.134 7.28 10.036 11.707h-21.266zm32.394 8.4623c0.19869-1.0824 0.39737-2.8537 0.39737-5.1163 0-10.528-5.1679-23.317-20.868-23.317-15.503 0-23.651 12.493-23.651 25.775 0 14.659 9.2415 24.204 24.942 24.204 6.9571 0 12.72-1.278 16.895-3.0504l-1.7882-8.2635c-3.7761 1.2801-7.7519 2.1627-13.417 2.1627-7.7508 0-14.608-3.7373-14.904-12.394h32.394z"/><path class="text" d="m241.86 37.628c0.49828-4.9196 3.6773-11.707 11.23-11.707 8.1472 0 10.136 7.28 10.037 11.707h-21.268zm32.394 8.4633c0.20285-1.0834 0.40153-2.8547 0.40153-5.1173 0-10.527-5.1669-23.317-20.868-23.317-15.504 0-23.654 12.494-23.654 25.775 0 14.659 9.2415 24.204 24.945 24.204 6.953 0 12.718-1.278 16.894-3.0504l-1.7913-8.2635c-3.775 1.2791-7.7498 2.1627-13.412 2.1627-7.7529 0-14.609-3.7373-14.909-12.393h32.394z"/><path class="text" d="m297.09 33.177c-2.8783 1.7477-5.1648 3.8846-6.8635 6.4088v28.041h-11.915l0.14251-49.044h10.004l1.4719 10.418c1.5708-2.7178 3.2445-5.4077 5.972-6.9803 2.4508-1.413 5.5112-2.3079 9.2394-2.5025l1.835 9.4139c-3.7168 0.5139-7.0091 2.4974-9.8865 4.245"/><path class="text" d="m215.33 67.663 0.093622-32.218c0-2.0731-0.47331-3.7404-1.421-5.003-0.94974-1.2616-2.5018-1.8918-4.6603-1.8918-1.8964 0-3.7438 0.53449-5.5403 1.6014-1.7996 1.068-3.5483 2.5097-5.247 4.3223l0.00104 33.125h-11.703l0.053053-67.564h11.583l0.065535 25.117c1.9629-1.8115 4.1818-3.4129 6.6679-4.8053 2.4851-1.3934 5.2969-2.0896 8.4353-2.0896 4.4481 0 7.8133 1.2482 10.103 3.7394 2.2875 2.4922 3.4338 5.9402 3.4338 10.341l0.010402 35.305"/><polyline class="text" points="53.185 67.57 43.381 67.563 34.311 35.205 24.761 67.563 14.989 67.563 -4.2633e-14 18.538 12.634 18.555 21.069 49.965 29.557 18.377 40.098 18.377 48.629 49.965 57.158 18.377 68.819 18.377"/></g></g></svg>
