<?xml version="1.0" encoding="UTF-8"?>
<svg width="542mm" height="72mm" version="1.1" viewBox="0 0 542 72" xmlns="http://www.w3.org/2000/svg"><g transform="translate(64 -56)" stroke-width="4"><g fill="#000"><path d="m222 114-7-21-7 21h-12l-13-40h14l6 21 6-21h10l6 21 6-21h14l-13 40z"/><path d="m354 62v11h9v12h-9v11c0 4 2 6 5 6 1 0 3-0.5 4-1v12c-2 1-5 2-9 2-9 0-14-5-14-15v-14h-5v-12h5v-11z"/><path d="m478 88c-1-0.4-2-0.6-3-0.6-6 0-9 4-9 12v15h-14v-40h14v6c2-5 6-7 10-7 0.8 0 2 0.08 2 0.3z"/><path d="m310 102c-4 0-8-4-8-8 0-5 3-8 8-8 4 0 8 4 8 8 0 5-3 8-8 8zm8-24c-2-3-6-5-10-5-10 0-18 10-18 21 0 12 8 21 18 21 4 0 8-2 10-5v4h13v-40h-13z"/><path d="m391 73c-4 0-8 2-10 5v-22h-13v58h13v-21c0-4 2-7 5-7s5 2 5 6v22h13v-25c0-10-5-16-13-16z"/><path d="m285 104c-3 7-10 11-18 11-12 0-21-9-21-21s9-21 20-21c12 0 20 9 20 22 0 1-0.08 1-0.2 2h-26c0.08 4 3 7 7 7 3 0 6-2 7-4zm-12-15c-0.3-3-2-6-6-6-4 1e-3 -6 3-6 6z"/><path d="m447 104c-3 7-10 11-18 11-12 0-21-9-21-21s9-21 20-21c12 0 20 9 20 22 0 1-0.08 1-0.2 2h-26c0.07 4 3 7 7 7 3 0 6-2 7-4zm-12-15c-0.3-3-2-6-6-6-4 1e-3 -6 3-6 6z"/></g><g fill="#7d2eff"><path d="m0.5 102c-4 0-8-4-8-8 0-5 3-8 8-8 4 0 8 4 8 8 3e-4 5-3 8-8 8zm8-24c-2-3-6-5-10-5-10 0-18 10-18 21 0 12 8 21 18 21 4 0 8-2 10-5v4h13v-40h-13z"/><path d="m49 73c-4 0-8 2-10 5v-22h-13v58h13v-21c0-4 2-7 5-7s5 2 5 6v22h13v-25c8e-4 -10-5-16-13-16z"/><path d="m128 102c-4 0-8-4-8-8s3-8 8-8c4 0 8 4 8 8s-3 8-8 8zm0-29c-12 0-20 9-20 21s9 21 20 21c12 0 20-9 20-21s-9-21-20-21z"/><path d="m85 102c-4 0-8-4-8-8s3-8 8-8c4 0 8 4 8 8s-3 8-8 8zm0-29c-12 0-20 9-20 21s9 21 20 21c12 0 20-9 20-21 3e-4 -12-9-21-20-21z"/><path d="m-32 74-9 23-9-23h-15l16 40-6 15h14l22-55z"/><path d="m160 96c-5 0-9 4-9 9s4 9 9 9 9-4 9-9-4-9-9-9z"/><path d="m170 56-14 36h16l14-36z"/></g></g></svg>
