<svg xmlns="http://www.w3.org/2000/svg" width="96" height="96" viewBox="0 0 96 96"><rect x="1.1486" width="96" height="96" style="fill:none"/><g style="opacity:0.15"><circle cx="43.4388" cy="42.8108" r="41.5135" style="fill:#ffe58d"/></g><g style="opacity:0.15"><path d="M79.7053,62.9872A72.3355,72.3355,0,0,1,42.0078,45.9488,183.4463,183.4463,0,0,0,7.4294,22.2108,41.4934,41.4934,0,1,0,79.7053,62.9872Z" style="fill:#ffea0d"/></g><circle cx="43.4388" cy="42.8108" r="27.7413" style="fill:#ffe58d"/><g style="opacity:0.58"><path d="M15.6977,42.8108a27.73,27.73,0,0,0,54.0035,8.8818c-11.88-1.79-24.4763-6.4419-34.9423-16.6526-3.4578-3.3736-7.3411-7.3982-11.3332-11.4085A27.625,27.625,0,0,0,15.6977,42.8108Z" style="fill:#ffdf64"/></g></svg>