<svg xmlns="http://www.w3.org/2000/svg" width="96" height="96" viewBox="0 0 96 96"><rect width="96" height="96" style="fill:none"/><circle cx="80.7478" cy="40.2829" r="13.9548" style="fill:#c8c8c8"/><circle cx="64.3289" cy="29.0533" r="20.6439" style="fill:#c8c8c8"/><g style="opacity:0.15"><path d="M91.0981,49.5657c-1.8532-8.462-7.38-17.0457-18.9-23.1987-7.1352-3.8108-12.2259-9.7622-16.6939-15.9552A20.6211,20.6211,0,0,0,69.8678,48.9234a13.7976,13.7976,0,0,0,21.23.6423Z" style="fill:#9d9d9d"/></g><path d="M88.367,62.304a14.9053,14.9053,0,0,0-11.06-14.3919A10.5668,10.5668,0,0,0,64.172,33.6494a23.689,23.689,0,0,0-46.4786,5.5688,19.162,19.162,0,0,0,3.5252,37.998c.1814,0,.3567-.0221.537-.027v.027H73.6217v-.0084A14.9072,14.9072,0,0,0,88.367,62.304Z" style="fill:#dcdcdc"/></svg>