<svg xmlns="http://www.w3.org/2000/svg" width="96" height="96" viewBox="0 0 96 96"><rect width="96" height="96" style="fill:none"/><path d="M45.0282,15.2538A30.3626,30.3626,0,0,1,62.3007,40.3756a24.1456,24.1456,0,0,1,.1239,2.4493,23.8408,23.8408,0,0,1-1.5352,8.3743,32.7848,32.7848,0,0,0,5.1445-1.7979,30.5707,30.5707,0,0,0-25.4746-43.75.8825.8825,0,0,0-.6832,1.4756A33.3683,33.3683,0,0,1,45.0282,15.2538Z" style="fill:#767f87"/><path d="M31.9181,70.3957A30.364,30.364,0,0,1,14.6453,45.2741a24.2605,24.2605,0,0,1-.1235-2.4492A23.8556,23.8556,0,0,1,16.0566,34.45a32.7981,32.7981,0,0,0-5.1442,1.7977,30.571,30.571,0,0,0,25.4747,43.75A.8825.8825,0,0,0,37.07,78.523,33.3871,33.3871,0,0,1,31.9181,70.3957Z" style="fill:#767f87"/><path d="M32.783,81.49a1.9548,1.9548,0,0,1-.3623-.0337,32.4327,32.4327,0,0,1-4.8555-1.311,1.95,1.95,0,0,1,1.3067-3.6748,28.4929,28.4929,0,0,0,4.2695,1.1528A1.95,1.95,0,0,1,32.783,81.49Z" style="fill:#5eb4e9"/><path d="M21.364,76.793a1.943,1.943,0,0,1-1.09-.3345,32.6968,32.6968,0,0,1-4.8154-3.9736q-.5231-.5223-1.0244-1.0708a1.95,1.95,0,1,1,2.8769-2.6328q.4424.4833.9043.9453a28.7761,28.7761,0,0,0,4.2422,3.5A1.95,1.95,0,0,1,21.364,76.793Z" style="fill:#5eb4e9"/><path d="M11.3973,65.6831a1.95,1.95,0,0,1-1.7266-1.04A32.6273,32.6273,0,0,1,5.9256,49.4707a1.95,1.95,0,1,1,3.9,0A28.7105,28.7105,0,0,0,13.12,62.8228a1.95,1.95,0,0,1-1.7226,2.86Z" style="fill:#5eb4e9"/><path d="M74.1715,44.2276a32.7233,32.7233,0,0,1-13.2821,6.9716,23.8408,23.8408,0,0,0,1.5352-8.3743,24.1456,24.1456,0,0,0-.1239-2.4493,30.5852,30.5852,0,0,0-61.0015.363.8826.8826,0,0,0,1.4757.6833A32.72,32.72,0,0,1,16.0566,34.45a23.8556,23.8556,0,0,0-1.5348,8.3745,24.2605,24.2605,0,0,0,.1235,2.4492,30.5852,30.5852,0,0,0,61.0015-.3631A.8824.8824,0,0,0,74.1715,44.2276ZM45.344,50.258a.25.25,0,0,1,.159.4327A8.67,8.67,0,0,1,33.6743,38.026l.0029.0049.0006-.0012a6.7365,6.7365,0,0,1,1.9868-1.3545,9.2065,9.2065,0,0,0-4.0626-1.2837.25.25,0,0,1-.159-.4325A8.67,8.67,0,0,1,43.272,47.6235l-.0028-.0049-.001.0013a6.7239,6.7239,0,0,1-1.9865,1.3544A9.2044,9.2044,0,0,0,45.344,50.258Z" style="fill:#1e1e1e"/></svg>