<svg xmlns="http://www.w3.org/2000/svg" width="96" height="96" viewBox="0 0 96 96"><rect width="96" height="96" style="fill:none"/><rect width="96" height="96" style="fill:none"/><g style="opacity:0.1"><circle cx="53.4981" cy="42.8108" r="41.5135" style="fill:#cfb344"/></g><path d="M72.4574,42.8975h-14.05a2.6,2.6,0,0,1,0-5.2h14.05a5.04,5.04,0,0,0,3.5645-8.6036,2.6,2.6,0,1,1,3.6757-3.6777,10.24,10.24,0,0,1-7.24,17.4815Z" style="fill:#e4e1d7"/><path d="M63.1351,65.9009a2.6,2.6,0,0,1-1.8379-4.439,4.7954,4.7954,0,0,0-3.3916-8.186H49.3041a2.6,2.6,0,0,1,0-5.2h8.6015A9.9957,9.9957,0,0,1,64.973,65.14,2.5922,2.5922,0,0,1,63.1351,65.9009Z" style="fill:#dad3bb"/><path d="M27.3783,63.6543H22.6215a2.6,2.6,0,0,1,0-5.2h4.7568a2.6,2.6,0,0,1,0,5.2Z" style="fill:#e4e1d7"/><path d="M28.1527,53.2759H25.6488a2.6,2.6,0,0,1,0-5.2h2.5039a2.6,2.6,0,0,1,0,5.2Z" style="fill:#e7e1d0"/><path d="M15.27,53.2759H3.1625a2.6,2.6,0,0,1,0-5.2H15.27a2.6,2.6,0,0,1,0,5.2Z" style="fill:#e7e1d0"/><path d="M48.0287,42.8975h-12.65a2.6,2.6,0,0,1,0-5.2h12.65a2.6,2.6,0,0,1,0,5.2Z" style="fill:#dad3bb"/><path d="M52.8422,69.0054a2.6,2.6,0,0,1-2.6-2.6,2.7544,2.7544,0,0,0-2.752-2.751H37.7562a2.6,2.6,0,0,1,0-5.2h9.7344a7.96,7.96,0,0,1,7.9512,7.9512A2.6,2.6,0,0,1,52.8422,69.0054Z" style="fill:#e4e1d7"/><path d="M61.9349,32.519H41.7074a2.6,2.6,0,0,1,0-5.2H61.9349a2.751,2.751,0,0,0,1.9463-4.6962,2.7929,2.7929,0,0,0-3.3261-.4366A2.6,2.6,0,1,1,57.9437,17.69,7.9516,7.9516,0,1,1,61.9349,32.519Z" style="fill:#dad3bb"/><circle cx="74.4958" cy="50.6756" r="2.6" style="fill:#ccb281"/><circle cx="38.7282" cy="50.6756" r="2.6" style="fill:#ccb281"/><circle cx="12.2432" cy="61.054" r="2.6" style="fill:#e4e1d7"/><circle cx="20.6757" cy="29.9189" r="2.6" style="fill:#ccb281"/><circle cx="31.0541" cy="29.9189" r="2.6" style="fill:#ccb281"/><path d="M25,42.8975H17.6488a2.6,2.6,0,0,1,0-5.2H25a2.6,2.6,0,0,1,0,5.2Z" style="fill:#dad3bb"/><path d="M7.27,42.8975H5.1078a2.6,2.6,0,0,1,0-5.2H7.27a2.6,2.6,0,0,1,0,5.2Z" style="fill:#e7e1d0"/></svg>