<svg xmlns="http://www.w3.org/2000/svg" width="96" height="96" viewBox="0 0 96 96"><path d="M62.2062,28.8013a2.6005,2.6005,0,0,0-3.2978-1.626l-5.0359,1.71,1.4128-2.8666a2.6,2.6,0,0,0-4.664-2.2988L46.91,31.25l-6.1013,2.0722V23.2173l6.3545-6.354a2.6,2.6,0,0,0-3.6778-3.6768l-2.6767,2.6766V10.4839a2.6,2.6,0,1,0-5.1992,0v5.3786l-2.6758-2.676a2.6,2.6,0,1,0-3.6778,3.6768L35.61,23.2172V33.3224l-6.1-2.0719L25.798,23.72a2.6,2.6,0,1,0-4.664,2.2988l1.4128,2.8667-5.0359-1.71a2.6,2.6,0,0,0-1.6719,4.9238l5.0357,1.71L18.008,35.2227a2.6,2.6,0,1,0,2.2988,4.664l7.5305-3.7124,7.7723,2.64v17.204a2.6,2.6,0,1,0,5.1992,0V38.8141l7.7729-2.64,7.5308,3.7126a2.6,2.6,0,0,0,2.2988-4.664l-2.8667-1.4133,5.0357-1.71A2.6,2.6,0,0,0,62.2062,28.8013Z" style="fill:#cfcfcf"/><path d="M72.3244,59.2764H4.0949a2.6,2.6,0,0,1,0-5.2h68.23a2.6,2.6,0,0,1,0,5.2Z" style="fill:#b3ced6"/><path d="M63.4035,69.6548h-50.39a2.6,2.6,0,0,1,0-5.2h50.39a2.6,2.6,0,0,1,0,5.2Z" style="fill:#b3ced6"/><path d="M49.5,80.0327H26.9191a2.6,2.6,0,0,1,0-5.2H49.5a2.6,2.6,0,0,1,0,5.2Z" style="fill:#b3ced6"/><rect width="96" height="96" style="fill:none"/></svg>