<svg xmlns="http://www.w3.org/2000/svg" width="96" height="96" viewBox="0 0 96 96"><rect width="96" height="96" style="fill:none"/><g style="opacity:0.15"><circle cx="43.4387" cy="42.8108" r="41.5135" style="fill:#e6e58d"/></g><g style="opacity:0.2"><circle cx="43.8108" cy="42.8108" r="27.7413" style="fill:#fadfa2"/></g><g style="opacity:0.4"><path d="M16.07,42.8108a27.7413,27.7413,0,1,1,55.4825,0Z" style="fill:#fadfa2"/></g><g style="opacity:0.6000000000000001"><path d="M79.6672,45.397H67.9924a2.6,2.6,0,0,1,0-5.2H79.6672a2.6,2.6,0,0,1,0,5.2Z" style="fill:#ccb995"/></g><g style="opacity:0.6000000000000001"><path d="M52.5861,24.5967h-30.81a2.6,2.6,0,0,1,0-5.2H52.5861a2.6,2.6,0,0,1,0,5.2Z" style="fill:#ccb995"/></g><g style="opacity:0.6000000000000001"><path d="M70.9113,66.1968H41.0734a2.6,2.6,0,0,1,0-5.2H70.9113a2.6,2.6,0,0,1,0,5.2Z" style="fill:#ccb995"/></g><path d="M70.5861,29.7969H36.4416a2.6,2.6,0,0,0,0,5.2h3.9907a2.5992,2.5992,0,0,1-.0079,5.1984v.0013H10.1232a2.6,2.6,0,0,0,0,5.2h9.6286a2.5993,2.5993,0,0,1-.0067,5.1985v.0012h-3.159a2.6,2.6,0,0,0,0,5.2h25.46a2.6,2.6,0,0,0,0-5.2h-1.46v-.0012A2.5993,2.5993,0,0,1,40.58,45.397H57.6135a2.6,2.6,0,0,0,0-5.2H51.1271v-.0013a2.5992,2.5992,0,0,1-.0079-5.1984H70.5861a2.6,2.6,0,0,0,0-5.2Z" style="fill:#ccb995"/><path d="M15.3605,34.9971H26.0627a2.6,2.6,0,0,0,0-5.2H15.3605a2.6,2.6,0,0,0,0,5.2Z" style="fill:#ccb995"/><path d="M60.2082,50.5967H52.424a2.6,2.6,0,0,0,0,5.2h7.7842a2.6,2.6,0,0,0,0-5.2Z" style="fill:#ccb995"/></svg>