<svg xmlns="http://www.w3.org/2000/svg" width="96" height="96" viewBox="0 0 96 96"><rect y="-0.0153" width="96" height="96" style="fill:none"/><circle cx="64.0592" cy="18.3438" r="17.0618" style="fill:#ffe58d"/><path d="M46.9975,18.3438a17.0551,17.0551,0,0,0,33.214,5.4626A38.2891,38.2891,0,0,1,58.7208,13.5645c-2.1266-2.0748-4.515-4.55-6.97-7.0166A16.99,16.99,0,0,0,46.9975,18.3438Z" style="fill:#ffdf64"/><path d="M21.7141,87.4229a2.6,2.6,0,0,1-2.6-2.6V53.5254a2.6,2.6,0,1,1,5.1993,0V84.8228A2.6,2.6,0,0,1,21.7141,87.4229Z" style="fill:#5eb4e9"/><path d="M32.092,81.46a2.6,2.6,0,0,1-2.6-2.6V65.9243a2.6,2.6,0,1,1,5.1992,0V78.86A2.6,2.6,0,0,1,32.092,81.46Z" style="fill:#5eb4e9"/><g style="opacity:0.6000000000000001"><path d="M32.092,94.7573a2.6,2.6,0,0,1-2.6-2.6V89.2383a2.6,2.6,0,1,1,5.1992,0v2.9189A2.6,2.6,0,0,1,32.092,94.7573Z" style="fill:#5eb4e9"/></g><g style="opacity:0.6000000000000001"><path d="M42.4709,69.4229a2.6,2.6,0,0,1-2.6-2.6V53.5254a2.6,2.6,0,1,1,5.1992,0V66.8228A2.6,2.6,0,0,1,42.4709,69.4229Z" style="fill:#5eb4e9"/></g><path d="M52.8488,77.6929a2.6,2.6,0,0,1-2.6-2.6V53.5254a2.6,2.6,0,1,1,5.1992,0V75.0928A2.6,2.6,0,0,1,52.8488,77.6929Z" style="fill:#5eb4e9"/><g style="opacity:0.6000000000000001"><path d="M52.8488,93.7471a2.6,2.6,0,0,1-2.6-2.6V85.4712a2.6,2.6,0,1,1,5.1992,0V91.147A2.6,2.6,0,0,1,52.8488,93.7471Z" style="fill:#5eb4e9"/></g><g style="opacity:0.6000000000000001"><path d="M63.2277,91.4766a2.6,2.6,0,0,1-2.6-2.6V75.4712a2.6,2.6,0,1,1,5.1992,0V88.8765A2.6,2.6,0,0,1,63.2277,91.4766Z" style="fill:#5eb4e9"/></g><path d="M63.2277,67.6929a2.6,2.6,0,0,1-2.6-2.6V59.4712a2.6,2.6,0,1,1,5.1992,0v5.6216A2.6,2.6,0,0,1,63.2277,67.6929Z" style="fill:#5eb4e9"/><g style="opacity:0.6000000000000001"><path d="M11.3351,72.666a2.6,2.6,0,0,1-2.6-2.6V65.8867a2.6,2.6,0,1,1,5.1993,0v4.1792A2.6,2.6,0,0,1,11.3351,72.666Z" style="fill:#5eb4e9"/></g><path d="M11.3351,92.72a2.6,2.6,0,0,1-2.6-2.6V80.4443a2.6,2.6,0,1,1,5.1993,0V90.12A2.6,2.6,0,0,1,11.3351,92.72Z" style="fill:#5eb4e9"/><g style="opacity:0.6000000000000001"><path d="M42.4709,79.9634a2.6,2.6,0,0,1-2.6-2.6v-.1626a2.6,2.6,0,1,1,5.1992,0v.1626A2.6,2.6,0,0,1,42.4709,79.9634Z" style="fill:#5eb4e9"/></g><path d="M42.4709,90.8281a2.6,2.6,0,0,1-2.6-2.6v-.4863a2.6,2.6,0,1,1,5.1992,0v.4863A2.6,2.6,0,0,1,42.4709,90.8281Z" style="fill:#5eb4e9"/><path d="M71.4348,35.6945A12.5464,12.5464,0,0,0,59.6476,18.7723c-.2785,0-.551.0239-.8249.0417A16.5428,16.5428,0,1,0,27.2932,28.8366V54.4982H67.3886a9.8362,9.8362,0,0,0,4.0462-18.8037Z" style="fill:#c8c8c8"/><g style="opacity:0.15"><path d="M26.5061,22.91c-.012.2607-.0393.5174-.0393.781a16.5114,16.5114,0,0,0,.8264,5.1452V54.4983H63.6108c1.6742-4.3521,1.4509-9.69-2.3133-16.1849C50.9464,20.4521,35.7766,18.7425,26.5061,22.91Z" style="fill:#9d9d9d"/></g><path d="M60.191,50.1113a10.17,10.17,0,0,0-7.5463-9.82A7.21,7.21,0,0,0,43.6828,30.56a16.163,16.163,0,0,0-31.7123,3.8,13.0742,13.0742,0,0,0,2.4052,25.926c.1238,0,.2434-.0151.3664-.0185v.0185H50.13V60.28A10.1711,10.1711,0,0,0,60.191,50.1113Z" style="fill:#aaa"/></svg>