<svg xmlns="http://www.w3.org/2000/svg" width="96" height="96" viewBox="0 0 96 96"><rect y="-0.0153" width="96" height="96" style="fill:none"/><g style="opacity:0.6000000000000001"><path d="M28.4945,88.9805a2.6,2.6,0,0,1-2.6-2.6V59.5137a2.6,2.6,0,1,1,5.1992,0V86.38A2.6,2.6,0,0,1,28.4945,88.9805Z" style="fill:#5eb4e9"/></g><path d="M38.8725,70.3843a2.6,2.6,0,0,1-2.6-2.6v-.125a2.6,2.6,0,1,1,5.1993,0v.125A2.6,2.6,0,0,1,38.8725,70.3843Z" style="fill:#5eb4e9"/><path d="M38.8725,81.0493a2.6,2.6,0,0,1-2.6-2.6v-.2866a2.6,2.6,0,1,1,5.1993,0v.2866A2.6,2.6,0,0,1,38.8725,81.0493Z" style="fill:#5eb4e9"/><g style="opacity:0.6000000000000001"><path d="M18.1156,76.3843a2.6,2.6,0,0,1-2.6-2.6v-14.27a2.6,2.6,0,1,1,5.1992,0v14.27A2.6,2.6,0,0,1,18.1156,76.3843Z" style="fill:#5eb4e9"/></g><g style="opacity:0.6000000000000001"><path d="M18.12,86.7637a2.6184,2.6184,0,0,1-1.84-.76,3.1042,3.1042,0,0,1-.33-.4,3.2821,3.2821,0,0,1-.24-.45,2.7165,2.7165,0,0,1-.14-.48,2.18,2.18,0,0,1,0-1.02,2.7994,2.7994,0,0,1,.14-.49q.1054-.2249.24-.45a3.0486,3.0486,0,0,1,.33-.39,2.6206,2.6206,0,0,1,2.34-.71,2.1158,2.1158,0,0,1,.49.15,1.9758,1.9758,0,0,1,.45.24,2.4016,2.4016,0,0,1,.39.32,3.1319,3.1319,0,0,1,.33.39q.1347.2256.24.45a2.7994,2.7994,0,0,1,.14.49,2.2155,2.2155,0,0,1,0,1.02,2.7165,2.7165,0,0,1-.14.48,3.2821,3.2821,0,0,1-.24.45,3.1889,3.1889,0,0,1-.33.4A2.6164,2.6164,0,0,1,18.12,86.7637Z" style="fill:#5eb4e9"/></g><circle cx="62.0426" cy="22.0387" r="20.7568" style="fill:#ffe58d"/><path d="M41.286,22.0388a20.7486,20.7486,0,0,0,40.4068,6.6456c-8.8886-1.34-18.3137-4.82-26.1447-12.46-2.5872-2.5241-5.4928-5.5355-8.48-8.5361A20.67,20.67,0,0,0,41.286,22.0388Z" style="fill:#ffdf64"/><path d="M74.9144,48.3669a12.7121,12.7121,0,0,0-9.4329-12.2744A9.012,9.012,0,0,0,54.2792,23.9282a20.2037,20.2037,0,0,0-39.64,4.75,16.3427,16.3427,0,0,0,3.0065,32.4075c.1547,0,.3042-.0189.458-.0231v.0231H62.3385V61.078A12.714,12.714,0,0,0,74.9144,48.3669Z" style="fill:#c8c8c8"/><path d="M81.41,46.0332a9.8366,9.8366,0,0,0-3.27.5659,13.37,13.37,0,0,0-26.4362,2.8342c0,.1866.02.368.0278.5528a7.9392,7.9392,0,1,0,.1306,15.709v.0941H81.41a9.878,9.878,0,1,0,0-19.756Z" style="fill:#dcdcdc;fill-rule:evenodd"/></svg>