<svg xmlns="http://www.w3.org/2000/svg" width="96" height="96" viewBox="0 0 96 96"><rect width="96" height="96" style="fill:none"/><path d="M29.2418,85.2217a2.6,2.6,0,0,1-2.6-2.6V58.9458a2.6,2.6,0,1,1,5.1992,0V82.6216A2.6,2.6,0,0,1,29.2418,85.2217Z" style="fill:#5eb4e9"/><g style="opacity:0.6000000000000001"><path d="M39.6207,78.88a2.6,2.6,0,0,1-2.6-2.6V66.1182a2.6,2.6,0,1,1,5.1992,0V76.28A2.6,2.6,0,0,1,39.6207,78.88Z" style="fill:#5eb4e9"/></g><g style="opacity:0.6000000000000001"><path d="M18.8639,74.7725a2.6,2.6,0,0,1-2.6-2.6V58.3345a2.6,2.6,0,1,1,5.1993,0V72.1724A2.6,2.6,0,0,1,18.8639,74.7725Z" style="fill:#5eb4e9"/></g><g style="opacity:0.6000000000000001"><path d="M18.8639,85.1777a2.6067,2.6067,0,1,1,2.6-2.6269v.0268A2.6,2.6,0,0,1,18.8639,85.1777Z" style="fill:#5eb4e9"/></g><path d="M74.9144,47.5829a12.7123,12.7123,0,0,0-9.4329-12.2744A9.0122,9.0122,0,0,0,54.2792,23.1442a20.2037,20.2037,0,0,0-39.64,4.7495,16.3427,16.3427,0,0,0,3.0065,32.4075c.1547,0,.3042-.0189.458-.0231v.0231H62.3385V60.294A12.7139,12.7139,0,0,0,74.9144,47.5829Z" style="fill:#c8c8c8"/></svg>