<svg xmlns="http://www.w3.org/2000/svg" width="96" height="96" viewBox="0 0 96 96"><circle cx="54.6516" cy="29.0386" r="27.7413" style="fill:#ffe281"/><g style="opacity:0.58"><path d="M26.9106,29.0386A27.73,27.73,0,0,0,80.9141,37.92c-11.88-1.79-24.4763-6.4419-34.9423-16.6526C42.514,17.8942,38.6307,13.87,34.6386,9.8593A27.625,27.625,0,0,0,26.9106,29.0386Z" style="fill:#ffd843"/></g><path d="M87.9914,52.0923H62.6945a2.6,2.6,0,0,1,0-5.2H87.9914a2.6,2.6,0,0,1,0,5.2Z" style="fill:#e4e4e4"/><path d="M80.2072,57.292H64.4841a10.8269,10.8269,0,0,0-14.407-15.1528,8.5911,8.5911,0,0,0-14.4126-5.9064A14.4616,14.4616,0,0,0,9.6528,47.0615c-.2066-.0166-.4138-.0316-.6248-.0316a7.7308,7.7308,0,0,0,0,15.4616H23.9348a2.6,2.6,0,0,1,0,5.1992v.0012H19.6135a2.6,2.6,0,0,0,0,5.2H58.0451a2.6,2.6,0,0,0,0-5.2H54.3168v-.0012a2.5993,2.5993,0,0,1-.0065-5.1985H80.2072a2.6,2.6,0,0,0,0-5.2Z" style="fill:#e4e4e4"/><path d="M9.2346,72.8921H4.8019a2.6,2.6,0,0,1,0-5.2H9.2346a2.6,2.6,0,0,1,0,5.2Z" style="fill:#e4e4e4"/><path d="M72.3693,72.8921H67.0725a2.6,2.6,0,0,1,0-5.2h5.2968a2.6,2.6,0,0,1,0,5.2Z" style="fill:#e4e4e4"/><path d="M91.883,72.8921H81.3967a2.6,2.6,0,0,1,0-5.2H91.883a2.6,2.6,0,0,1,0,5.2Z" style="fill:#e4e4e4"/><path d="M74.2922,83.292H44.5314a2.6,2.6,0,0,1,0-5.2H74.2922a2.6,2.6,0,0,1,0,5.2Z" style="fill:#e4e4e4"/><path d="M34.1535,83.292H24.5012a2.6,2.6,0,0,1,0-5.2h9.6523a2.6,2.6,0,0,1,0,5.2Z" style="fill:#e4e4e4"/><path d="M84.7482,83.292H83.6975a2.6,2.6,0,0,1,0-5.2h1.0507a2.6,2.6,0,0,1,0,5.2Z" style="fill:#e4e4e4"/><rect width="96" height="96" style="fill:none"/></svg>