<svg xmlns="http://www.w3.org/2000/svg" width="96" height="96" viewBox="0 0 96 96"><rect width="96" height="96" style="fill:none"/><g style="opacity:0.6000000000000001"><path d="M24.3916,62.3188a2.5771,2.5771,0,0,1-2.6-2.5732v-.0537a2.6,2.6,0,1,1,2.6,2.6269Z" style="fill:#5eb4e9"/></g><path d="M24.3916,87.6973a2.6,2.6,0,0,1-2.6-2.6V70.07a2.6,2.6,0,1,1,5.1992,0V85.0972A2.6,2.6,0,0,1,24.3916,87.6973Z" style="fill:#5eb4e9"/><g style="opacity:0.6000000000000001"><path d="M34.77,70.7241a2.6,2.6,0,0,1-2.6-2.6v-22.81a2.6,2.6,0,1,1,5.1992,0v22.81A2.6,2.6,0,0,1,34.77,70.7241Z" style="fill:#5eb4e9"/></g><path d="M34.77,86.6162a2.6,2.6,0,0,1-2.6-2.6V78.5024a2.6,2.6,0,1,1,5.1992,0v5.5137A2.6,2.6,0,0,1,34.77,86.6162Z" style="fill:#5eb4e9"/><path d="M45.1484,66.4a2.6,2.6,0,0,1-2.6-2.6V45.3135a2.6,2.6,0,1,1,5.1992,0V63.8A2.6,2.6,0,0,1,45.1484,66.4Z" style="fill:#5eb4e9"/><g style="opacity:0.6000000000000001"><path d="M45.1484,95.2646a2.6,2.6,0,0,1-2.6-2.6V74.1782a2.6,2.6,0,1,1,5.1992,0V92.6646A2.6,2.6,0,0,1,45.1484,95.2646Z" style="fill:#5eb4e9"/></g><path d="M55.5264,75.8052a2.6,2.6,0,0,1-2.6-2.6V45.3135a2.6,2.6,0,1,1,5.1993,0V73.2051A2.6,2.6,0,0,1,55.5264,75.8052Z" style="fill:#5eb4e9"/><g style="opacity:0.6000000000000001"><path d="M55.5264,92.0215a2.6,2.6,0,0,1-2.6-2.6V83.5835a2.6,2.6,0,1,1,5.1993,0v5.8379A2.6,2.6,0,0,1,55.5264,92.0215Z" style="fill:#5eb4e9"/></g><path d="M65.9053,88.8862a2.6,2.6,0,0,1-2.6-2.6V45.3135a2.6,2.6,0,1,1,5.1992,0V86.2861A2.6,2.6,0,0,1,65.9053,88.8862Z" style="fill:#5eb4e9"/><path d="M14.0127,81.5352a2.6,2.6,0,0,1-2.6-2.6V45.3135a2.6,2.6,0,1,1,5.1992,0V78.9351A2.6,2.6,0,0,1,14.0127,81.5352Z" style="fill:#5eb4e9"/><path d="M71.6675,29.6558A12.5466,12.5466,0,0,0,59.88,12.7336c-.2786,0-.5511.0239-.825.0417A16.5428,16.5428,0,1,0,27.5258,22.798V48.4594H67.6211a9.8362,9.8362,0,0,0,4.0464-18.8036Z" style="fill:#c8c8c8"/><g style="opacity:0.15"><path d="M26.7389,16.8712c-.0123.2607-.04.5175-.04.7812a16.5115,16.5115,0,0,0,.8266,5.1452V48.4594H63.8434c1.6742-4.3521,1.4512-9.69-2.3134-16.1847C51.1789,14.4134,36.0091,12.7034,26.7389,16.8712Z" style="fill:#9d9d9d"/></g><path d="M60.4236,44.0725a10.17,10.17,0,0,0-7.5464-9.8195,7.21,7.21,0,0,0-8.9619-9.7314,16.163,16.163,0,0,0-31.7123,3.8,13.0742,13.0742,0,0,0,2.4052,25.926c.1238,0,.2434-.015.3664-.0184v.0184H50.3628v-.0057A10.1712,10.1712,0,0,0,60.4236,44.0725Z" style="fill:#aaa"/></svg>