<svg xmlns="http://www.w3.org/2000/svg" width="96" height="96" viewBox="0 0 96 96"><rect width="96" height="96" style="fill:none"/><g style="opacity:0.6000000000000001"><path d="M27.8455,89.1694a2.6,2.6,0,0,1-2.6-2.6V75.8379a2.6,2.6,0,1,1,5.1992,0V86.5693A2.6,2.6,0,0,1,27.8455,89.1694Z" style="fill:#5eb4e9"/></g><g style="opacity:0.6000000000000001"><path d="M27.8455,68.2466a2.6,2.6,0,0,1-2.6-2.6V57.3242a2.6,2.6,0,1,1,5.1992,0v8.3223A2.6,2.6,0,0,1,27.8455,68.2466Z" style="fill:#5eb4e9"/></g><path d="M38.2234,85.0054a2.6,2.6,0,0,1-2.6-2.6V59.7026a2.6,2.6,0,1,1,5.1992,0V82.4053A2.6,2.6,0,0,1,38.2234,85.0054Z" style="fill:#5eb4e9"/><path d="M48.6023,81.9243a2.6,2.6,0,0,1-2.6-2.6v-.4863a2.6,2.6,0,1,1,5.1992,0v.4863A2.6,2.6,0,0,1,48.6023,81.9243Z" style="fill:#5eb4e9"/><path d="M48.6023,71.06a2.6,2.6,0,0,1-2.6-2.6V61.4326a2.6,2.6,0,1,1,5.1992,0V68.46A2.6,2.6,0,0,1,48.6023,71.06Z" style="fill:#5eb4e9"/><g style="opacity:0.6000000000000001"><path d="M17.4666,79.1675a2.6,2.6,0,0,1-2.6-2.6V55.4863a2.6,2.6,0,1,1,5.1992,0V76.5674A2.6,2.6,0,0,1,17.4666,79.1675Z" style="fill:#5eb4e9"/></g><path d="M17.4666,89.5435a2.2048,2.2048,0,0,1-.51-.05,2.0619,2.0619,0,0,1-.48-.15,1.9379,1.9379,0,0,1-.45-.24,2.0657,2.0657,0,0,1-.4-.32,2.3529,2.3529,0,0,1-.3194-.39,2.3919,2.3919,0,0,1-.24-.45,2.13,2.13,0,0,1-.15-.49,2.5209,2.5209,0,0,1,.15-1.5,1.9143,1.9143,0,0,1,.24-.45,2.4425,2.4425,0,0,1,.3194-.4,2.7121,2.7121,0,0,1,3.6806,0,2.4966,2.4966,0,0,1,.3194.4,3.2708,3.2708,0,0,1,.24.45,2.216,2.216,0,0,1,.15.48,2.6363,2.6363,0,0,1,0,1.02,2.13,2.13,0,0,1-.15.49,3.2382,3.2382,0,0,1-.24.45,2.4041,2.4041,0,0,1-.3194.39,2.4444,2.4444,0,0,1-.4.32,1.9339,1.9339,0,0,1-.45.24,2.0739,2.0739,0,0,1-.48.15A2.2119,2.2119,0,0,1,17.4666,89.5435Z" style="fill:#5eb4e9"/><g style="opacity:0.6000000000000001"><path d="M48.6023,92.4648a2.6,2.6,0,0,1-2.6-2.6v-.1621a2.6,2.6,0,1,1,5.1992,0v.1621A2.6,2.6,0,0,1,48.6023,92.4648Z" style="fill:#5eb4e9"/></g><circle cx="62.0426" cy="21.2548" r="20.7568" style="fill:#ffe58d"/><path d="M41.286,21.2548A20.7486,20.7486,0,0,0,81.6928,27.9c-8.8886-1.34-18.3137-4.82-26.1447-12.46-2.5872-2.5242-5.4928-5.5356-8.48-8.5362A20.67,20.67,0,0,0,41.286,21.2548Z" style="fill:#ffdf64"/><path d="M74.9144,47.5829a12.7123,12.7123,0,0,0-9.4329-12.2744A9.0122,9.0122,0,0,0,54.2792,23.1442a20.2037,20.2037,0,0,0-39.64,4.7495,16.3427,16.3427,0,0,0,3.0065,32.4075c.1547,0,.3042-.0189.458-.0231v.0231H62.3385V60.294A12.7139,12.7139,0,0,0,74.9144,47.5829Z" style="fill:#c8c8c8"/></svg>