<svg xmlns="http://www.w3.org/2000/svg" width="96" height="96" viewBox="0 0 96 96"><path d="M65.52,35.41a9.29,9.29,0,0,0,.11-7,6.3783,6.3783,0,0,0-1.49-2.24c-3.9-3.85-7.07-3.85-9.82-2.94a20.2,20.2,0,0,0-39.64,4.75,16.34,16.34,0,0,0,3,32.41h44.7a12.7051,12.7051,0,0,0,3.14-24.98Z" style="fill:#dcdcdc"/><circle cx="22.2503" cy="65.78" r="3.52" style="fill:#c8c8c8"/><path d="M57.03,65.3a3.52,3.52,0,1,0,3.52,3.52A3.52,3.52,0,0,0,57.03,65.3Z" style="fill:#dcdcdc"/><circle cx="37.3303" cy="84.29" r="3.52" style="fill:#c8c8c8"/><path d="M51.44,77.42a3.52,3.52,0,1,0,3.52,3.52A3.52,3.52,0,0,0,51.44,77.42Z" style="fill:#dcdcdc"/><circle cx="24.8303" cy="79.6" r="3.52" style="fill:#dcdcdc"/><path d="M34.99,69.79a2.34,2.34,0,1,0,2.34,2.34A2.34,2.34,0,0,0,34.99,69.79Z" style="fill:#dcdcdc"/><path d="M47.27,91.32a2.34,2.34,0,1,0,2.34,2.34A2.34,2.34,0,0,0,47.27,91.32Z" style="fill:#c8c8c8"/><path d="M47.97,68.49a2.34,2.34,0,1,0-2.34,2.34A2.34,2.34,0,0,0,47.97,68.49Z" style="fill:#c8c8c8"/><path d="M29.91,91.1a2.34,2.34,0,1,0-2.34,2.34A2.34,2.34,0,0,0,29.91,91.1Z" style="fill:#dcdcdc"/><path d="M12.51,71.79a2.34,2.34,0,1,0,2.34,2.34A2.34,2.34,0,0,0,12.51,71.79Z" style="fill:#dcdcdc"/><path d="M63.78,78.43a2.34,2.34,0,1,0,2.34,2.34A2.34,2.34,0,0,0,63.78,78.43Z" style="fill:#dcdcdc"/><path d="M14.71,89.27a2.34,2.34,0,1,0-2.34-2.34A2.34,2.34,0,0,0,14.71,89.27Z" style="fill:#c8c8c8"/><rect width="96" height="96" style="fill:none"/></svg>