<svg xmlns="http://www.w3.org/2000/svg" width="96" height="96" viewBox="0 0 96 96"><rect width="95.9968" height="95.9968" style="fill:none"/><path d="M74.0869,45.41H57.4433a2.6,2.6,0,0,1,0-5.2H74.0869a5.04,5.04,0,0,0,3.5635-8.604,2.6,2.6,0,1,1,3.6777-3.6768A10.24,10.24,0,0,1,74.0869,45.41Z" style="fill:#e2e2e2"/><path d="M64.7656,68.4121a2.6,2.6,0,0,1-1.8389-4.4385,4.7952,4.7952,0,0,0-3.3906-8.186H46.2685a2.6,2.6,0,0,1,0-5.2H59.5361A9.9959,9.9959,0,0,1,66.6045,67.65,2.5934,2.5934,0,0,1,64.7656,68.4121Z" style="fill:#c5c5c5"/><path d="M35.8906,55.7876H3.459a2.6,2.6,0,0,1,0-5.2H35.8906a2.6,2.6,0,0,1,0,5.2Z" style="fill:#c7d8e6"/><path d="M47.0654,45.41H31.8222a2.6,2.6,0,0,1,0-5.2H47.0654a2.6,2.6,0,0,1,0,5.2Z" style="fill:#c5c5c5"/><path d="M51.8779,71.5166a2.6,2.6,0,0,1-2.6-2.6,2.7544,2.7544,0,0,0-2.7519-2.751H12.8838a2.6,2.6,0,0,1,0-5.2H46.5264a7.96,7.96,0,0,1,7.9511,7.9512A2.6,2.6,0,0,1,51.8779,71.5166Z" style="fill:#e2e2e2"/><path d="M63.5654,35.0313H38.6728a2.6,2.6,0,0,1,0-5.2H63.5654a2.7507,2.7507,0,0,0,1.9453-4.6968,2.8069,2.8069,0,0,0-3.3232-.4361,2.6,2.6,0,0,1-2.6153-4.4951,7.9519,7.9519,0,1,1,3.9932,14.8282Z" style="fill:#c5c5c5"/><circle cx="76.1255" cy="53.1874" r="2.6" style="fill:#d0dfbb"/><circle cx="26.6137" cy="32.4313" r="2.6" style="fill:#d0dfbb"/><path d="M21.4443,45.41H11.0664a2.6,2.6,0,0,1,0-5.2H21.4443a2.6,2.6,0,0,1,0,5.2Z" style="fill:#c7d8e6"/><rect width="95.9968" height="95.9968" style="fill:none"/></svg>