<?xml version="1.0" encoding="utf-8" ?>
<svg xmlns="http://www.w3.org/2000/svg" width="27px" height="27px" viewBox="0 0 60 60"><path d="M48.36 32.59a7.16 7.16 0 00-4.16-4.42.43.43 0 01-.33-.48 9.62 9.62 0 00-8.4-9.62 1.09 1.09 0 01-.21-.07h-2.11l-.95.19a9.59 9.59 0 00-6.23 4.46.42.42 0 01-.47.25 7.12 7.12 0 00-7.23 3.44c-.23.4-.42.83-.6 1.2-.76.053-1.515.16-2.26.32a7.08 7.08 0 00-5.34 5.9 1.44 1.44 0 01-.07.21v1.81c.12.548.27 1.089.45 1.62 1 2.6 2.93 3.7 5.69 4.2.072.018.142.041.21.07h26c.39-.1.78-.17 1.16-.29 2.85-.94 4.56-2.43 5.11-5.39a1.41 1.41 0 01.07-.21v-1.81c-.09-.46-.18-.9-.33-1.38z" fill="#D0D0D0" fill-rule="nonzero"></path></svg>
