<?xml version="1.0" encoding="utf-8" ?>
<svg xmlns="http://www.w3.org/2000/svg" width="25px" height="100%" viewBox="0 0 30 30"><g stroke="#2D3B48" fill="none" fill-rule="evenodd" stroke-linecap="round"><path d="M1 20.41c2.33 0 2.33 1 4.66 1s2.34-1 4.67-1 2.33 1 4.66 1 2.33-1 4.67-1 2.33 1 4.67 1 2.33-1 4.67-1M1 23.38c2.33 0 2.33 1 4.66 1s2.34-1 4.67-1 2.33 1 4.66 1 2.33-1 4.67-1 2.33 1 4.67 1 2.33-1 4.67-1"></path><g stroke-linejoin="round"><path d="M24.17 8.85a3.82 3.82 0 010 7.64H1.62"></path><path d="M13 9.25a3.82 3.82 0 113.82 3.82H4.52"></path></g></g></svg>
