<?xml version="1.0" encoding="utf-8" ?>
<svg xmlns="http://www.w3.org/2000/svg" width="30px" height="30px" viewBox="0 0 60 60"><g fill="none" fill-rule="evenodd"><path d="M28.66 16.06c-.64 0-1.15-.69-1.15-1.53v-3c0-.86.51-1.53 1.15-1.53.64 0 1.15.69 1.15 1.53v3c0 .86-.51 1.53-1.15 1.53zM28.66 43.45c-.64 0-1.15-.69-1.15-1.53v-3c0-.86.51-1.53 1.15-1.53.64 0 1.15.69 1.15 1.53v3c0 .86-.51 1.53-1.15 1.53z" fill="#FFB000"></path><circle fill="#FFB000" fill-rule="nonzero" cx="28.66" cy="26.7" r="8.53"></circle><path d="M39.3 26.7c0-.64.69-1.15 1.53-1.15h3c.86 0 1.53.51 1.53 1.15 0 .64-.69 1.15-1.53 1.15h-3c-.86 0-1.53-.51-1.53-1.15zM11.94 26.7c0-.64.69-1.15 1.53-1.15h3c.86 0 1.53.51 1.53 1.15 0 .64-.69 1.15-1.53 1.15h-3c-.86 0-1.53-.51-1.53-1.15zM36.19 34.22a1.38 1.38 0 011.9.27l2.13 2.13a1.2 1.2 0 11-1.62 1.62l-2.13-2.13a1.38 1.38 0 01-.27-1.9l-.01.01zM16.84 14.87a1.38 1.38 0 011.9.27l2.13 2.13a1.38 1.38 0 01.27 1.9 1.38 1.38 0 01-1.9-.27l-2.13-2.13a1.38 1.38 0 01-.27-1.9zM36.19 19.17a1.38 1.38 0 01.27-1.9l2.13-2.13a1.38 1.38 0 011.9-.27 1.38 1.38 0 01-.27 1.9l-2.13 2.13a1.38 1.38 0 01-1.9.27zM16.84 38.52a1.38 1.38 0 01.27-1.9l2.13-2.17a1.38 1.38 0 011.9-.27 1.38 1.38 0 01-.27 1.9l-2.14 2.17a1.38 1.38 0 01-1.9.27h.01z" fill="#FFB000"></path><path d="M52.3 40.12a7.16 7.16 0 00-4.16-4.42.43.43 0 01-.33-.48 9.62 9.62 0 00-8.4-9.67 1.09 1.09 0 01-.21-.1h-2.11l-.95.19a9.59 9.59 0 00-6.23 4.46.42.42 0 01-.47.25 7.12 7.12 0 00-7.14 3.52c-.23.4-.42.83-.6 1.2-.76.053-1.515.16-2.26.32a7.08 7.08 0 00-5.34 5.9 1.44 1.44 0 01-.07.21v1.81c.12.548.27 1.089.45 1.62 1 2.6 2.93 3.7 5.69 4.2.072.018.142.041.21.07H46.3c.39-.1.78-.17 1.16-.29 2.85-.94 4.56-2.43 5.11-5.39a1.41 1.41 0 01.07-.21V41.5c-.11-.46-.19-.93-.34-1.38z" fill="#D0D0D0" fill-rule="nonzero"></path><path d="M33.07 37.12a4.88 4.88 0 00-2.83-3 .29.29 0 01-.22-.33 6.56 6.56 0 00-5.72-6.6.74.74 0 01-.14 0H22.7l-.65.13a6.54 6.54 0 00-4.24 3 .29.29 0 01-.32.17 4.85 4.85 0 00-4.9 2.37c-.16.27-.29.56-.41.82a11 11 0 00-1.54.22 4.83 4.83 0 00-3.64 4 1 1 0 010 .14v1.24c.077.396.177.786.3 1.17a4.52 4.52 0 003.88 2.86H28.99c.26-.07.53-.11.79-.2a4.49 4.49 0 003.52-3.66 1 1 0 010-.14v-1.25c-.07-.31-.13-.61-.23-.94z" fill="#E9E9E9" fill-rule="nonzero"></path></g></svg>