<?xml version="1.0" encoding="utf-8" ?>
<svg xmlns="http://www.w3.org/2000/svg" width="28px" height="24px" viewBox="0 0 60 60"><g fill="none" fill-rule="nonzero"><path stroke="#53B9EA" stroke-width="1.85" fill="#53B9EA" stroke-linecap="round" d="M44.59 37.32L40 48.21M40.17 37.32l-4.6 10.89M35.74 37.32l-4.6 10.89M31.31 37.32l-4.6 10.89M26.88 37.32l-4.59 10.89M22.46 37.32l-4.6 10.89"></path><path d="M52.49 25.64a7.16 7.16 0 00-4.16-4.42.43.43 0 01-.33-.48 9.62 9.62 0 00-8.4-9.67 1.09 1.09 0 01-.21-.07h-2.11l-.95.19a9.59 9.59 0 00-6.23 4.46.42.42 0 01-.47.25 7.12 7.12 0 00-7.19 3.48c-.23.4-.42.83-.6 1.2-.76.053-1.515.16-2.26.32a7.08 7.08 0 00-5.34 5.9 1.44 1.44 0 01-.07.21v1.81c.12.548.27 1.089.45 1.62 1 2.6 2.93 3.7 5.69 4.2.072.018.142.041.21.07h26c.39-.1.78-.17 1.16-.29 2.85-.94 4.56-2.43 5.11-5.39a1.41 1.41 0 01.07-.21v-1.8c-.13-.46-.22-.93-.37-1.38z" fill="#D0D0D0"></path><path d="M33.06 22.02a4.88 4.88 0 00-2.83-3 .29.29 0 01-.22-.33 6.56 6.56 0 00-5.73-6.59.74.74 0 01-.14 0H22.7l-.65.13a6.54 6.54 0 00-4.24 3 .29.29 0 01-.32.17 4.85 4.85 0 00-4.9 2.37c-.16.27-.29.56-.41.82a11 11 0 00-1.54.22 4.83 4.83 0 00-3.64 4 1 1 0 010 .14v1.2c.082.376.186.746.31 1.11a4.52 4.52 0 003.81 2.89h17.86c.26-.07.53-.11.79-.2a4.49 4.49 0 003.49-3.68 1 1 0 010-.14v-1.17c-.04-.31-.09-.64-.2-.94z" fill="#E9E9E9"></path></g></svg>