<?xml version="1.0" encoding="utf-8" ?>
<svg xmlns="http://www.w3.org/2000/svg" width="30px" height="30px" viewBox="0 0 60 60"><g fill="none" fill-rule="nonzero"><path d="M17.26 42.65a2.36 2.36 0 002.26-.38 2.48 2.48 0 00.79-2.81c-.11-.45-.87-3.86-.87-3.86-3.41 3.2-3.38 3.14-2.9 2.7a2.48 2.48 0 00-.94 2.77 2.36 2.36 0 001.66 1.58zM39.73 42.65a2.36 2.36 0 002.26-.38 2.48 2.48 0 00.79-2.81c-.11-.45-.87-3.86-.87-3.86-3.41 3.2-3.38 3.14-2.9 2.7a2.48 2.48 0 00-.94 2.77 2.36 2.36 0 001.65 1.59l.01-.01zM28.52 42.65a2.36 2.36 0 002.26-.38 2.48 2.48 0 00.79-2.81c-.11-.45-.87-3.86-.87-3.86-3.41 3.2-3.38 3.14-2.9 2.7a2.48 2.48 0 00-.94 2.77 2.36 2.36 0 001.65 1.59l.01-.01zM22.02 49.24a2.36 2.36 0 002.24-.38 2.48 2.48 0 00.79-2.81c-.11-.45-.87-3.86-.87-3.86-3.39 3.15-3.36 3.15-2.92 2.7a2.48 2.48 0 00-.94 2.77 2.36 2.36 0 001.65 1.59l.05-.01zM33.26 49.24a2.36 2.36 0 002.26-.38 2.48 2.48 0 00.74-2.81c-.11-.45-.87-3.86-.87-3.86-3.41 3.2-3.38 3.14-2.9 2.7a2.48 2.48 0 00-.94 2.77 2.36 2.36 0 001.71 1.58z" fill="#53B9EA"></path><path d="M48.77 24.78a7.24 7.24 0 00-4.21-4.44.43.43 0 01-.33-.49 9.72 9.72 0 00-8.49-9.78 1.1 1.1 0 01-.21-.07H33.4l-1 .2a9.69 9.69 0 00-6.29 4.51.43.43 0 01-.48.26 7.2 7.2 0 00-7.26 3.52c-.24.4-.42.84-.61 1.21a16.34 16.34 0 00-2.29.33 7.16 7.16 0 00-5.4 6 1.46 1.46 0 01-.07.21v1.83c.12.555.27 1.102.45 1.64 1 2.63 3 3.74 5.75 4.24.072.018.142.041.21.07h26.3c.39-.1.79-.17 1.17-.29 2.88-1 4.61-2.46 5.17-5.45a1.43 1.43 0 01.07-.21v-1.9c-.11-.46-.2-.94-.35-1.39z" fill="#D0D0D0"></path></g></svg>