<?xml version="1.0" encoding="utf-8" ?>
<svg xmlns="http://www.w3.org/2000/svg" width="27px" height="27px" viewBox="0 0 60 60"><g fill="none" fill-rule="evenodd"><path d="M39.13 13.22c-.65 0-1.17-.7-1.17-1.57V8.57c0-.88.53-1.57 1.17-1.57.64 0 1.17.7 1.17 1.57v3.08c0 .88-.53 1.57-1.17 1.57zM39.13 41.25c-.65 0-1.17-.7-1.17-1.57V36.6c0-.88.53-1.57 1.17-1.57.64 0 1.17.7 1.17 1.57v3.08c0 .88-.53 1.57-1.17 1.57z" fill="#FFB000"></path><circle fill="#FFB000" fill-rule="nonzero" cx="39.13" cy="24.12" r="8.74"></circle><path d="M50.07 24.12c0-.65.7-1.17 1.57-1.17h3.08c.88 0 1.57.53 1.57 1.17 0 .64-.7 1.17-1.57 1.17h-3.11c-.88 0-1.57-.53-1.57-1.17h.03zM22.01 24.12c0-.65.7-1.17 1.57-1.17h3.08c.88 0 1.57.53 1.57 1.17 0 .64-.7 1.17-1.57 1.17h-3.08c-.88 0-1.57-.53-1.57-1.17zM46.84 31.83a1.41 1.41 0 011.94.28l2.18 2.18a1.22 1.22 0 11-1.66 1.66l-2.18-2.18a1.41 1.41 0 01-.28-1.94zM27.07 12.01a1.41 1.41 0 011.94.28l2.14 2.16a1.41 1.41 0 01.28 2 1.41 1.41 0 01-1.94-.28l-2.19-2.22a1.41 1.41 0 01-.23-1.94zM46.84 16.45a1.41 1.41 0 01.28-2l2.18-2.18a1.41 1.41 0 011.94-.28 1.41 1.41 0 01-.28 1.94l-2.18 2.18a1.41 1.41 0 01-1.94.28v.06zM27.07 36.23a1.41 1.41 0 01.28-1.94l2.18-2.18a1.22 1.22 0 111.66 1.66l-2.23 2.18a1.41 1.41 0 01-1.94.28h.05z" fill="#FFB000"></path><path d="M42.3 34.87a7.16 7.16 0 00-4.16-4.42.43.43 0 01-.33-.48 9.62 9.62 0 00-8.4-9.67 1.09 1.09 0 01-.21-.07h-2.13l-.95.19a9.59 9.59 0 00-6.23 4.46.42.42 0 01-.47.25 7.12 7.12 0 00-7.19 3.48c-.23.4-.42.83-.6 1.2-.76.053-1.515.16-2.26.32a7.08 7.08 0 00-5.3 5.9 1.44 1.44 0 01-.07.21v1.81c.12.548.27 1.089.45 1.62 1 2.6 2.93 3.7 5.69 4.2.072.018.142.041.21.07h26c.39-.1.78-.17 1.16-.29 2.85-.94 4.56-2.43 5.11-5.39a1.41 1.41 0 01.07-.21v-1.81c-.15-.46-.23-.93-.39-1.37z" fill="#D0D0D0" fill-rule="nonzero"></path><path stroke="#53B9EA" stroke-width="1.85" fill="#999" fill-rule="nonzero" stroke-linecap="round" d="M35.37 45.98l-1.59 3.79M29.35 49.77l-1.6 3.79M24.31 45.98l-1.6 3.79M17.66 49.77l-1.6 3.79M13.24 45.98l-1.6 3.79"></path></g></svg>