<?xml version="1.0" encoding="utf-8" ?>
<svg xmlns="http://www.w3.org/2000/svg" width="25px" height="100%" viewBox="0 0 30 30"><g stroke="#2D3B48" fill="none" fill-rule="evenodd" stroke-linecap="round"><g transform="translate(5.5 5.427)"><path d="M18.94 10.993v-2.53a2.47 2.47 0 00-.52-1.54 2.38 2.38 0 00-1.33-.88l-1.62-4.93A1.66 1.66 0 0013.8.003H5.14a1.66 1.66 0 00-1.67 1.11l-1.62 4.93a2.38 2.38 0 00-1.33.88c-.343.44-.526.983-.52 1.54v2.53"></path><path stroke-linejoin="round" d="M4.07 6.003l1.28-3.9h8.24l1.28 3.9z"></path><circle cx="3.71" cy="9.393" r="1.23"></circle><circle cx="15.23" cy="9.393" r="1.23"></circle></g><path d="M1 18.61c2.33 0 2.33 1 4.66 1s2.34-1 4.67-1 2.33 1 4.66 1 2.33-1 4.67-1 2.33 1 4.67 1 2.33-1 4.67-1M1 21.58c2.33 0 2.33 1 4.66 1s2.34-1 4.67-1 2.33 1 4.66 1 2.33-1 4.67-1 2.33 1 4.67 1 2.33-1 4.67-1M1 24.54c2.33 0 2.33 1 4.66 1s2.34-1 4.67-1 2.33 1 4.66 1 2.33-1 4.67-1 2.33 1 4.67 1 2.33-1 4.67-1"></path></g></svg>