<?xml version="1.0" encoding="utf-8" ?>
<svg xmlns="http://www.w3.org/2000/svg" width="35px" height="35px" viewBox="0 0 60 60"><g fill="none" fill-rule="evenodd"><path d="M39.16 19.23c-.65 0-1.17-.7-1.17-1.57v-3.09c0-.88.53-1.57 1.17-1.57.64 0 1.17.7 1.17 1.57v3.08c0 .88-.53 1.57-1.17 1.57v.01zM39.16 47.26c-.65 0-1.17-.7-1.17-1.57V42.6c0-.88.53-1.57 1.17-1.57.64 0 1.17.7 1.17 1.57v3.08c0 .88-.53 1.57-1.17 1.57v.01zM39.15 21.39a8.74 8.74 0 108.74 8.74 8.75 8.75 0 00-8.74-8.74zM50.06 30.12c0-.65.7-1.17 1.57-1.17h3.06c.88 0 1.57.53 1.57 1.17 0 .64-.68 1.18-1.57 1.18h-3.06c-.88 0-1.57-.53-1.57-1.17v-.01zM22.03 30.12c0-.65.7-1.17 1.57-1.17h3.09c.88 0 1.57.53 1.57 1.17 0 .64-.71 1.18-1.57 1.18H23.6c-.88 0-1.57-.53-1.57-1.17v-.01zM46.86 37.8a1.41 1.41 0 011.94.28l2.18 2.18a1.22 1.22 0 11-1.66 1.66l-2.18-2.12a1.41 1.41 0 01-.28-2zM27.04 18.01a1.41 1.41 0 011.94.28l2.18 2.18a1.41 1.41 0 01.28 1.94 1.41 1.41 0 01-1.94-.28l-2.18-2.18a1.41 1.41 0 01-.28-1.94zM46.86 22.42a1.41 1.41 0 01.28-1.94l2.18-2.18a1.41 1.41 0 011.94-.28 1.41 1.41 0 01-.28 1.94l-2.18 2.18a1.41 1.41 0 01-1.94.28zM27.04 42.24a1.41 1.41 0 01.28-1.94l2.18-2.18a1.22 1.22 0 111.67 1.68l-2.18 2.18a1.41 1.41 0 01-1.94.28l-.01-.02z" fill="#FFB000"></path><rect fill="#53B9EA" fill-rule="nonzero" x="4" y="22.82" width="32.77" height="3.19" rx="1.59"></rect><rect fill="#53B9EA" fill-rule="nonzero" x="10.54" y="28.33" width="35.27" height="3.19" rx="1.59"></rect><rect fill="#53B9EA" fill-rule="nonzero" x="5.79" y="34.25" width="30.42" height="3.19" rx="1.59"></rect></g></svg>