<?xml version="1.0" encoding="utf-8" ?>
<svg xmlns="http://www.w3.org/2000/svg" width="27px" height="27px" viewBox="0 0 60 60"><g fill="none" fill-rule="nonzero"><path d="M52.53 24.64a7.16 7.16 0 00-4.16-4.42.43.43 0 01-.33-.48 9.62 9.62 0 00-8.4-9.67 1.09 1.09 0 01-.21-.07h-2.11l-.95.19a9.59 9.59 0 00-6.23 4.46.42.42 0 01-.47.25 7.12 7.12 0 00-7.19 3.48c-.23.4-.42.83-.6 1.2-.76.053-1.515.16-2.26.32a7.08 7.08 0 00-5.34 5.9 1.44 1.44 0 01-.07.21v1.81c.12.548.27 1.089.45 1.62 1 2.6 2.93 3.7 5.69 4.2.072.018.142.041.21.07h26c.39-.1.78-.17 1.16-.29 2.85-.94 4.56-2.43 5.11-5.39a1.41 1.41 0 01.07-.21v-1.8c-.13-.46-.22-.93-.37-1.38z" fill="#D0D0D0"></path><path d="M33.05 21.02a4.88 4.88 0 00-2.83-3 .29.29 0 01-.22-.33 6.56 6.56 0 00-5.73-6.59.74.74 0 01-.14 0h-1.4l-.68.05a6.54 6.54 0 00-4.24 3 .29.29 0 01-.32.17 4.85 4.85 0 00-4.9 2.37c-.16.27-.29.56-.41.82a11 11 0 00-1.54.22 4.83 4.83 0 00-3.64 4 1 1 0 010 .14v1.28c.082.376.186.746.31 1.11a4.52 4.52 0 003.85 2.89h17.89c.26-.07.53-.11.79-.2a4.49 4.49 0 003.49-3.68 1 1 0 010-.14v-1.17c-.07-.31-.13-.64-.28-.94z" fill="#E9E9E9"></path><path d="M21.05 42.4a2.36 2.36 0 002.26-.38 2.48 2.48 0 00.79-2.81c-.11-.45-.87-3.86-.87-3.86-3.41 3.2-3.38 3.14-2.9 2.7a2.48 2.48 0 00-.94 2.77 2.36 2.36 0 001.66 1.58zM43.5 42.4a2.36 2.36 0 002.26-.38 2.48 2.48 0 00.79-2.81c-.11-.45-.87-3.86-.87-3.86-3.41 3.2-3.38 3.14-2.9 2.7a2.48 2.48 0 00-.94 2.77 2.36 2.36 0 001.65 1.59l.01-.01zM32.28 42.4a2.36 2.36 0 002.26-.38 2.48 2.48 0 00.79-2.81c-.11-.45-.87-3.86-.87-3.86-3.41 3.2-3.41 3.13-2.89 2.7a2.48 2.48 0 00-.94 2.77 2.36 2.36 0 001.65 1.59v-.01zM25.79 48.99a2.36 2.36 0 002.26-.38 2.48 2.48 0 00.79-2.81c-.11-.45-.87-3.86-.87-3.86-3.41 3.2-3.38 3.14-2.9 2.7a2.48 2.48 0 00-.94 2.77A2.36 2.36 0 0025.78 49l.01-.01zM37.05 48.99a2.36 2.36 0 002.26-.38 2.48 2.48 0 00.74-2.81c-.11-.45-.87-3.86-.87-3.86-3.41 3.2-3.38 3.14-2.9 2.7a2.48 2.48 0 00-.94 2.77 2.36 2.36 0 001.71 1.58z" fill="#53B9EA"></path></g></svg>