<?xml version="1.0" encoding="utf-8" ?>
<svg xmlns="http://www.w3.org/2000/svg" width="42px" height="42px" viewBox="0 0 60 60"><g fill="none" fill-rule="evenodd"><path d="M20.13 10.22c-.65 0-1.17-.7-1.17-1.57V5.57c0-.88.53-1.57 1.17-1.57.64 0 1.17.7 1.17 1.57v3.08c0 .88-.53 1.57-1.17 1.57zM20.13 38.25c-.65 0-1.17-.7-1.17-1.57V33.6c0-.88.53-1.57 1.17-1.57.64 0 1.17.7 1.17 1.57v3.08c0 .88-.53 1.57-1.17 1.57zM20.13 12.38a8.74 8.74 0 108.74 8.74 8.75 8.75 0 00-8.74-8.74zM31.03 21.12c0-.65.7-1.17 1.57-1.17h3.08c.88 0 1.57.53 1.57 1.17 0 .64-.7 1.17-1.57 1.17h-3.06c-.88 0-1.57-.53-1.57-1.17h-.02zM3 21.12c0-.65.7-1.17 1.57-1.17h3.05c.88 0 1.57.53 1.57 1.17 0 .64-.7 1.17-1.57 1.17h-3c-.88 0-1.57-.53-1.57-1.17H3zM27.84 28.83a1.41 1.41 0 011.94.28l2.18 2.18a1.22 1.22 0 11-1.66 1.66l-2.18-2.18a1.41 1.41 0 01-.28-1.94zM8.02 9.01a1.41 1.41 0 011.94.28l2.18 2.15a1.41 1.41 0 01.28 2 1.41 1.41 0 01-1.94-.28L8.3 10.98a1.41 1.41 0 01-.28-1.94v-.03zM27.84 13.44a1.41 1.41 0 01.28-2l2.18-2.18a1.41 1.41 0 011.94-.28 1.41 1.41 0 01-.28 1.94l-2.18 2.18a1.41 1.41 0 01-1.94.28v.06zM8.02 33.23a1.41 1.41 0 01.28-1.94l2.18-2.18a1.41 1.41 0 011.94-.28 1.41 1.41 0 01-.28 1.94l-2.18 2.18a1.41 1.41 0 01-1.94.28z" fill="#FFB000"></path><path d="M23.41 49.65a2.36 2.36 0 002.26-.38 2.48 2.48 0 00.79-2.83c-.11-.45-.87-3.86-.87-3.86-3.41 3.2-3.38 3.14-2.9 2.7a2.48 2.48 0 00-.94 2.77 2.36 2.36 0 001.65 1.59l.01.01zM45.84 49.65a2.36 2.36 0 002.26-.38 2.48 2.48 0 00.79-2.83c-.11-.45-.87-3.86-.87-3.86-3.41 3.2-3.38 3.14-2.9 2.7a2.48 2.48 0 00-.94 2.77 2.36 2.36 0 001.65 1.59l.01.01zM34.62 49.65a2.36 2.36 0 002.26-.38 2.48 2.48 0 00.8-2.83c-.11-.45-.87-3.86-.87-3.86-3.41 3.2-3.38 3.14-2.9 2.7a2.48 2.48 0 00-.94 2.77 2.36 2.36 0 001.65 1.6zM28.13 56.24a2.36 2.36 0 002.26-.38 2.48 2.48 0 00.79-2.81c-.11-.45-.87-3.86-.87-3.86-3.41 3.2-3.38 3.14-2.9 2.7a2.48 2.48 0 00-.94 2.77 2.36 2.36 0 001.65 1.59l.01-.01zM39.35 56.24a2.36 2.36 0 002.27-.38 2.48 2.48 0 00.79-2.81c-.11-.45-.87-3.86-.87-3.86-3.41 3.2-3.38 3.14-2.9 2.7a2.48 2.48 0 00-.94 2.77 2.36 2.36 0 001.65 1.59v-.01z" fill="#53B9EA" fill-rule="nonzero"></path><path d="M54.88 31.77a7.24 7.24 0 00-4.2-4.46.43.43 0 01-.33-.49 9.72 9.72 0 00-8.49-9.78 1.1 1.1 0 01-.21-.07h-2.14l-1 .2a9.69 9.69 0 00-6.29 4.51.43.43 0 01-.48.26 7.2 7.2 0 00-7.23 3.5c-.24.4-.42.84-.61 1.21a16.34 16.34 0 00-2.29.33 7.16 7.16 0 00-5.4 6 1.46 1.46 0 01-.07.21v1.83c.13.548.29 1.09.48 1.62 1 2.63 3 3.74 5.75 4.24.072.018.142.041.21.07h26.24c.39-.1.79-.17 1.17-.29 2.88-1 4.61-2.46 5.17-5.45a1.43 1.43 0 01.07-.21v-1.83c-.11-.47-.2-.95-.35-1.4z" fill="#D0D0D0" fill-rule="nonzero"></path></g></svg>