<?xml version="1.0" encoding="utf-8" ?>
<svg xmlns="http://www.w3.org/2000/svg" width="80px" height="60px" viewBox="0 0 60 60"><g fill="none" fill-rule="evenodd"><path d="M24.13 10.22c-.65 0-1.17-.7-1.17-1.57V5.57c0-.88.53-1.57 1.17-1.57.64 0 1.17.7 1.17 1.57v3.08c0 .88-.53 1.57-1.17 1.57zM24.13 38.25c-.65 0-1.17-.7-1.17-1.57V33.6c0-.88.53-1.57 1.17-1.57.64 0 1.17.7 1.17 1.57v3.08c0 .88-.53 1.57-1.17 1.57zM24.13 12.38a8.74 8.74 0 108.74 8.74 8.75 8.75 0 00-8.74-8.74zM35.03 21.12c0-.65.7-1.17 1.57-1.17h3.08c.88 0 1.57.53 1.57 1.17 0 .64-.7 1.17-1.57 1.17H36.6c-.88 0-1.57-.53-1.57-1.17zM7.03 21.12c0-.65.7-1.17 1.57-1.17h3.08c.88 0 1.57.53 1.57 1.17 0 .64-.7 1.17-1.57 1.17H8.57c-.88 0-1.57-.53-1.57-1.17h.03zM31.84 28.83a1.41 1.41 0 011.94.28l2.18 2.18a1.22 1.22 0 11-1.66 1.69l-2.18-2.18a1.41 1.41 0 01-.28-1.94v-.03zM12.03 8.98a1.41 1.41 0 011.94.28l2.18 2.18a1.41 1.41 0 01.28 1.94 1.41 1.41 0 01-1.94-.28l-2.19-2.12a1.41 1.41 0 01-.27-2zM31.84 13.41a1.41 1.41 0 01.28-1.94l2.18-2.18a1.41 1.41 0 011.94-.31 1.41 1.41 0 01-.28 2l-2.18 2.18a1.41 1.41 0 01-1.94.28v-.03zM12.03 33.23a1.41 1.41 0 01.28-1.94l2.18-2.18a1.41 1.41 0 011.94-.28 1.41 1.41 0 01-.28 1.94l-2.19 2.21a1.41 1.41 0 01-1.94.28l.01-.03z" fill="#FFB000"></path><path d="M52.8 31.4a7.21 7.21 0 00-4.19-4.42.43.43 0 01-.33-.48 9.69 9.69 0 00-8.46-9.74 1.09 1.09 0 01-.21-.07h-2.12l-1 .2a9.66 9.66 0 00-6.27 4.49.42.42 0 01-.48.26 7.17 7.17 0 00-7.24 3.51c-.24.4-.42.83-.61 1.21a16.27 16.27 0 00-2.28.33 7.13 7.13 0 00-5.38 5.94 1.45 1.45 0 01-.07.21v1.83c.12.551.27 1.095.45 1.63 1 2.62 3 3.73 5.73 4.23.072.018.142.041.21.07h26.22c.39-.1.79-.17 1.17-.29 2.87-.95 4.59-2.45 5.15-5.43a1.42 1.42 0 01.07-.21v-1.89c-.13-.46-.2-.93-.36-1.38z" fill="#D0D0D0" fill-rule="nonzero"></path><path fill="#53B9EA" fill-rule="nonzero" d="M32.02 29.48h9.26l-6.17 9.32h6.17L27.1 55.2l4.92-11.11h-5.93z"></path></g></svg>