<?xml version="1.0" encoding="utf-8" ?>
<svg xmlns="http://www.w3.org/2000/svg" width="43px" height="43px" viewBox="0 0 30 30"><g transform="translate(6 1.5)" stroke="#3296C4" fill="none" fill-rule="evenodd"><path d="M10.769 27.017a5.293 5.293 0 01-5.29-5.29c0-1.754.831-3.33 2.318-4.325.43-.297.609-.565.609-1.13V2.899c0-1.769.95-2.898 2.363-2.898 1.382 0 2.333 1.13 2.333 2.898v13.375c0 .564.163.832.61 1.129 1.485.996 2.317 2.57 2.317 4.324 0 2.913-2.362 5.29-5.26 5.29z"></path><path stroke-linecap="round" d="M.609 16.061h3.652M.609 13.627h3.652"></path><path d="M10.438 13.456c-.102.122-.15.3-.15.513v3.577c0 .442-.068.72-.187.932a.719.719 0 01-.05.076c.217.015.456.022.695.022.232 0 .47.003.692-.042a1.199 1.199 0 01-.037-.062c-.116-.21-.182-.487-.182-.926v-3.577c0-.213-.048-.391-.15-.513-.08-.096-.191-.146-.631 0z" fill="#3296C4"></path><circle fill="#3296C4" cx="10.75" cy="21.65" r="2.9"></circle></g></svg>