<?xml version="1.0" encoding="utf-8" ?>
<svg xmlns="http://www.w3.org/2000/svg" width="80px" height="60px" viewBox="0 0 60 60"><g fill="none" fill-rule="evenodd"><path d="M27.09 16.66c-.8 0-1.45-.87-1.45-1.93v-3.8c0-1.09.65-1.93 1.45-1.93.8 0 1.48.86 1.48 1.92v3.8c0 1.09-.65 1.93-1.45 1.93l-.03.01zM27.09 51.18c-.8 0-1.45-.87-1.45-1.93v-3.79c0-1.09.65-1.93 1.45-1.93.8 0 1.48.85 1.48 1.93v3.8c0 1.09-.65 1.93-1.45 1.93l-.03-.01zM27.09 19.32c-5.943 0-10.76 4.817-10.76 10.76s4.817 10.76 10.76 10.76 10.76-4.817 10.76-10.76c-.006-5.94-4.82-10.754-10.76-10.76zM40.52 30.08c0-.8.87-1.45 1.93-1.45h3.8c1.09 0 1.93.65 1.93 1.45 0 .8-.87 1.45-1.93 1.45h-3.8c-1.09 0-1.93-.65-1.93-1.45zM6 30.08c0-.8.87-1.45 1.93-1.45h3.8c1.09 0 1.93.65 1.93 1.45 0 .8-.87 1.45-1.93 1.45h-3.8c-1.09 0-1.93-.65-1.93-1.45zM36.57 39.57a1.74 1.74 0 012.39.35l2.69 2.69a1.51 1.51 0 11-2 2l-2.72-2.65a1.73 1.73 0 01-.36-2.39zM12.18 15.16a1.74 1.74 0 012.39.3l2.69 2.69a1.73 1.73 0 01.31 2.43 1.74 1.74 0 01-2.39-.35l-2.61-2.68a1.73 1.73 0 01-.35-2.39h-.04zM36.57 20.58a1.74 1.74 0 01.35-2.39l2.65-2.73a1.73 1.73 0 012.39-.35 1.74 1.74 0 01-.35 2.39l-2.69 2.69c-.57.746-1.63.9-2.39.35l.04.04zM12.18 44.99a1.74 1.74 0 01.39-2.39l2.69-2.69a1.73 1.73 0 012.31-.34 1.74 1.74 0 01-.35 2.39l-2.65 2.69c-.57.746-1.63.9-2.39.35v-.01z" fill="#FFB000"></path><path d="M53.04 38.07a5.73 5.73 0 00-3.33-3.53.34.34 0 01-.26-.38 7.69 7.69 0 00-6.72-7.7.87.87 0 01-.16-.1h-1.7l-.76.16a7.67 7.67 0 00-5 3.57.34.34 0 01-.38.2 5.7 5.7 0 00-5.75 2.79c-.19.32-.34.66-.48 1a12.93 12.93 0 00-1.81.26 5.66 5.66 0 00-4.27 4.72 1.15 1.15 0 01-.06.17v1.45c.096.44.216.874.36 1.3.82 2.08 2.34 3 4.55 3.36l.17.06h20.81c.31-.08.63-.13.93-.23 2.28-.75 3.65-1.95 4.09-4.31a1.13 1.13 0 01.06-.17v-1.52c-.1-.37-.17-.71-.29-1.1z" fill="#E9E9E9" fill-rule="nonzero"></path></g></svg>