<?xml version="1.0" encoding="utf-8" ?>
<svg xmlns="http://www.w3.org/2000/svg" width="30px" height="30px" viewBox="0 0 60 60"><g fill="none" fill-rule="nonzero"><path d="M26.57 14.3a1.12 1.12 0 00-1.27.21 1.11 1.11 0 00-.22 1.26 15.94 15.94 0 011.52 7.86C26 32.49 18 39.56 7.89 40.09A1.11 1.11 0 007.18 42a17.12 17.12 0 1019.39-27.7z" fill="#989EA0"></path><path d="M52.47 36.58a5.73 5.73 0 00-3.33-3.53.34.34 0 01-.26-.38 7.69 7.69 0 00-6.72-7.74.87.87 0 01-.17-.06H40.3l-.76.16a7.67 7.67 0 00-5 3.57.34.34 0 01-.38.2 5.7 5.7 0 00-5.75 2.79c-.19.32-.34.66-.48 1a12.93 12.93 0 00-1.81.26 5.66 5.66 0 00-4.27 4.72 1.15 1.15 0 01-.06.17v1.45c.096.44.216.874.36 1.3.82 2.08 2.34 3 4.55 3.36l.17.06h20.81c.31-.08.63-.13.93-.23 2.28-.75 3.65-1.95 4.09-4.31a1.13 1.13 0 01.06-.17v-1.51c-.1-.37-.17-.75-.29-1.11z" fill="#E9E9E9"></path></g></svg>