<?xml version="1.0" encoding="utf-8" ?>
<svg xmlns="http://www.w3.org/2000/svg" width="30px" height="30px" viewBox="0 0 60 60"><g fill="none" fill-rule="nonzero"><path d="M19.9 13.41a.78.78 0 00-1.04 1.03 11.12 11.12 0 011.06 5.49c-.4 6.18-6 11.12-13 11.48a.78.78 0 00-.5 1.33A11.94 11.94 0 1019.9 13.41z" fill="#989EA0"></path><path d="M47.06 38.47a7.12 7.12 0 00-4.14-4.39.43.43 0 01-.32-.48 9.57 9.57 0 00-8.35-9.6 1.08 1.08 0 01-.21-.07h-2.1l-.94.17a9.54 9.54 0 00-6.2 4.44.42.42 0 01-.47.25 7.09 7.09 0 00-7.15 3.46c-.23.4-.42.82-.6 1.19a16.08 16.08 0 00-2.25.32A7 7 0 009 39.64a1.43 1.43 0 01-.07.21v1.8a15 15 0 00.45 1.61c1 2.59 2.92 3.68 5.66 4.18.072.018.142.041.21.07h25.86c.39-.09.78-.16 1.15-.29 2.84-.94 4.54-2.42 5.09-5.37a1.41 1.41 0 01.07-.21v-1.8c-.12-.45-.2-.92-.36-1.37z" fill="#D0D0D0"></path><path d="M54.63 35.49a4.86 4.86 0 00-2.82-3 .29.29 0 01-.22-.33 6.52 6.52 0 00-5.7-6.56.74.74 0 01-.14 0h-1.44l-.64.13a6.5 6.5 0 00-4.22 3 .29.29 0 01-.32.17 4.83 4.83 0 00-4.87 2.36c-.16.27-.28.56-.41.81a11 11 0 00-1.54.22 4.8 4.8 0 00-3.62 4 1 1 0 010 .14v1.23c.08.372.18.74.3 1.1a4.5 4.5 0 003.81 2.84h17.76c.26-.06.53-.11.79-.2a4.47 4.47 0 003.47-3.66 1 1 0 010-.14v-1.18c-.03-.31-.09-.63-.19-.93z" fill="#E9E9E9"></path></g></svg>