<?xml version="1.0" encoding="utf-8" ?>
<svg xmlns="http://www.w3.org/2000/svg" width="30px" height="30px" viewBox="0 0 60 60"><g fill="none" fill-rule="nonzero"><path d="M26.37 9.18a1.12 1.12 0 00-1.27.21 1.11 1.11 0 00-.22 1.26 15.94 15.94 0 011.52 7.86c-.57 8.86-8.61 15.93-18.7 16.46a1.11 1.11 0 00-.7 1.91 17.12 17.12 0 1019.39-27.7h-.02z" fill="#989EA0"></path><path d="M52.08 31.58a5.73 5.73 0 00-3.33-3.53.34.34 0 01-.26-.38 7.69 7.69 0 00-6.72-7.73.87.87 0 01-.17-.06h-1.68l-.76.16a7.67 7.67 0 00-5 3.57.34.34 0 01-.38.2 5.7 5.7 0 00-5.75 2.78c-.19.32-.34.66-.48 1a12.92 12.92 0 00-1.81.26 5.66 5.66 0 00-4.27 4.72 1.15 1.15 0 01-.06.17v1.45a12 12 0 00.36 1.3c.82 2.08 2.34 3 4.55 3.36l.17.06h20.8c.31-.08.63-.13.93-.23 2.28-.75 3.65-1.95 4.09-4.31a1.13 1.13 0 01.06-.17v-1.52c-.1-.36-.17-.74-.29-1.1z" fill="#E9E9E9"></path><path fill="#53B9EA" d="M35.51 30.06h7.35l-4.9 7.41h4.9L31.6 50.49l3.91-8.83H30.8z"></path></g></svg>