<?xml version="1.0" encoding="utf-8" ?>
<svg xmlns="http://www.w3.org/2000/svg" width="30px" height="30px" viewBox="0 0 60 60"><g fill="none" fill-rule="nonzero"><path d="M26.32 9.18a1.12 1.12 0 00-1.27.21 1.11 1.11 0 00-.22 1.26 15.94 15.94 0 011.52 7.86c-.57 8.86-8.61 15.93-18.7 16.46a1.11 1.11 0 00-.71 1.91 17.12 17.12 0 1019.39-27.7h-.01z" fill="#989EA0"></path><path d="M27.07 46a1.88 1.88 0 001.8-.3 2 2 0 00.63-2.24c-.09-.36-.69-3.08-.69-3.08-2.72 2.55-2.69 2.5-2.31 2.15a2 2 0 00-.75 2.2A1.88 1.88 0 0027.07 46zM44.93 46a1.88 1.88 0 001.8-.3 2 2 0 00.63-2.24c-.09-.36-.69-3.08-.69-3.08-2.72 2.62-2.67 2.53-2.31 2.18a2 2 0 00-.75 2.2A1.88 1.88 0 0044.93 46zM36 46a1.88 1.88 0 001.8-.3 2 2 0 00.63-2.24c-.09-.36-.69-3.08-.69-3.08C35 43 35 42.91 35.43 42.56a2 2 0 00-.75 2.2A1.88 1.88 0 0036 46zM30.83 51.27a1.88 1.88 0 001.8-.3 2 2 0 00.63-2.24c-.09-.36-.69-3.08-.69-3.08-2.72 2.55-2.69 2.5-2.31 2.15a2 2 0 00-.75 2.2 1.88 1.88 0 001.32 1.26v.01zM39.76 51.27a1.88 1.88 0 001.8-.3 2 2 0 00.63-2.24c-.09-.36-.69-3.08-.69-3.08-2.72 2.55-2.69 2.5-2.31 2.15a2 2 0 00-.75 2.2 1.88 1.88 0 001.32 1.26v.01z" fill="#53B9EA"></path><path d="M52.13 31.79a5.76 5.76 0 00-3.35-3.56.35.35 0 01-.26-.39 7.74 7.74 0 00-6.76-7.79.87.87 0 01-.17-.06h-1.7l-.76.16a7.72 7.72 0 00-5 3.59.34.34 0 01-.38.2 5.73 5.73 0 00-5.79 2.8c-.19.32-.34.67-.49 1a13 13 0 00-1.82.26 5.7 5.7 0 00-4.3 4.75 1.16 1.16 0 01-.06.17v1.46c.095.443.216.88.36 1.31.83 2.09 2.36 3 4.58 3.38l.17.06h20.9c.31-.08.63-.13.93-.23 2.3-.76 3.67-2 4.12-4.34a1.14 1.14 0 01.06-.17V32.9c-.09-.37-.16-.75-.28-1.11z" fill="#E9E9E9"></path></g></svg>