<?xml version="1.0" encoding="utf-8" ?>
<svg xmlns="http://www.w3.org/2000/svg" width="42px" height="42px" viewBox="0 0 60 60"><g fill="none" fill-rule="evenodd"><path d="M27.09 13.66c-.8 0-1.45-.87-1.45-1.93v-3.8c0-1.09.65-1.93 1.45-1.93.8 0 1.48.86 1.48 1.93v3.8c0 1.09-.65 1.93-1.45 1.93h-.03zM27.09 48.18c-.8 0-1.45-.87-1.45-1.93v-3.8c0-1.09.65-1.93 1.45-1.93.8 0 1.48.83 1.48 1.93v3.8c0 1.09-.65 1.93-1.45 1.93h-.03zM27.09 16.35a10.76 10.76 0 1010.76 10.73c-.022-5.929-4.831-10.725-10.76-10.73zM40.52 27.08c0-.8.87-1.45 1.93-1.45h3.8c1.09 0 1.93.65 1.93 1.45 0 .8-.87 1.45-1.93 1.45h-3.8c-1.09 0-1.93-.65-1.93-1.45zM6 27.08c0-.8.87-1.45 1.93-1.45h3.8c1.09 0 1.93.65 1.93 1.45 0 .8-.87 1.45-1.93 1.45h-3.8c-1.09 0-1.93-.65-1.93-1.45zM36.57 36.57a1.74 1.74 0 012.39.35l2.69 2.69a1.51 1.51 0 11-2 2l-2.69-2.69a1.73 1.73 0 01-.39-2.35zM12.18 12.17a1.74 1.74 0 012.39.35l2.69 2.69a1.73 1.73 0 01.31 2.38 1.74 1.74 0 01-2.39-.35l-2.61-2.68a1.73 1.73 0 01-.35-2.39h-.04zM36.57 17.59a1.74 1.74 0 01.35-2.39l2.65-2.69a1.73 1.73 0 012.39-.35 1.74 1.74 0 01-.35 2.39l-2.69 2.69c-.57.746-1.63.9-2.39.35h.04zM12.18 42a1.74 1.74 0 01.39-2.39l2.69-2.69a1.73 1.73 0 012.31-.35 1.74 1.74 0 01-.35 2.39l-2.65 2.69c-.57.746-1.63.9-2.39.35z" fill="#FFB000"></path><path d="M28.08 49.35a1.88 1.88 0 001.8-.3 2 2 0 00.63-2.24c-.09-.36-.69-3.08-.69-3.08-2.72 2.55-2.69 2.5-2.31 2.15a2 2 0 00-.75 2.2 1.88 1.88 0 001.32 1.27zM45.94 49.35a1.88 1.88 0 001.8-.3 2 2 0 00.63-2.24c-.09-.36-.69-3.08-.69-3.08-2.72 2.55-2.69 2.5-2.31 2.15a2 2 0 00-.75 2.2 1.88 1.88 0 001.32 1.27zM37.01 49.35a1.88 1.88 0 001.8-.3 2 2 0 00.63-2.24c-.09-.36-.69-3.08-.69-3.08-2.72 2.55-2.69 2.5-2.31 2.15a2 2 0 00-.75 2.2 1.88 1.88 0 001.32 1.27zM31.84 54.62a1.88 1.88 0 001.8-.3 2 2 0 00.63-2.24c-.09-.36-.69-3.08-.69-3.08-2.72 2.55-2.69 2.5-2.31 2.15a2 2 0 00-.75 2.2 1.88 1.88 0 001.32 1.26v.01zM40.77 54.62a1.88 1.88 0 001.8-.27 2 2 0 00.63-2.24c-.09-.36-.69-3.08-.69-3.08-2.72 2.55-2.69 2.5-2.31 2.15a2 2 0 00-.75 2.2 1.88 1.88 0 001.32 1.26v-.02z" fill="#53B9EA" fill-rule="nonzero"></path><path d="M53.14 35.14a5.76 5.76 0 00-3.35-3.56.35.35 0 01-.26-.39 7.74 7.74 0 00-6.76-7.79.87.87 0 01-.2-.05h-1.7l-.76.16a7.72 7.72 0 00-5 3.59.34.34 0 01-.38.2 5.73 5.73 0 00-5.79 2.8c-.19.32-.34.67-.49 1a13 13 0 00-1.82.26 5.7 5.7 0 00-4.3 4.75 1.16 1.16 0 01-.06.17v1.46c.095.443.216.88.36 1.31.83 2.09 2.36 3 4.58 3.38l.17.06h20.93c.31-.08.63-.13.93-.23 2.3-.76 3.67-2 4.12-4.34a1.14 1.14 0 01.06-.17v-1.5c-.09-.37-.16-.75-.28-1.11z" fill="#E9E9E9" fill-rule="nonzero"></path></g></svg>