<?xml version="1.0" encoding="utf-8" ?>
<svg xmlns="http://www.w3.org/2000/svg" width="42px" height="42px" viewBox="0 0 60 60"><g fill="none" fill-rule="evenodd"><path d="M27.09 13.66c-.8 0-1.45-.87-1.45-1.93v-3.8c0-1.09.65-1.93 1.45-1.93.8 0 1.45.87 1.45 1.93v3.8c0 1.09-.65 1.93-1.45 1.93zM27.09 48.18c-.8 0-1.45-.87-1.45-1.93v-3.77c0-1.09.65-1.93 1.45-1.93.8 0 1.45.87 1.45 1.93v3.8c0 1.09-.65 1.93-1.45 1.93v-.03zM27.09 16.32c-5.941.006-10.754 4.825-10.75 10.767.004 5.94 4.822 10.755 10.763 10.753 5.942-.002 10.757-4.819 10.757-10.76-.006-5.944-4.826-10.76-10.77-10.76zM40.52 27.08c0-.8.87-1.45 1.93-1.45h3.8c1.09 0 1.93.65 1.93 1.45 0 .8-.86 1.4-1.93 1.4h-3.83c-1 0-1.9-.6-1.9-1.4zM6 27.08c0-.8.87-1.45 1.93-1.45h3.8c1.09 0 1.93.65 1.93 1.45 0 .8-.86 1.4-1.93 1.4h-3.8c-1.09 0-1.93-.65-1.93-1.45v.05zM36.59 36.57a1.74 1.74 0 012.39.35l2.69 2.69a1.51 1.51 0 11-2 2l-2.69-2.69a1.73 1.73 0 01-.35-2.39l-.04.04zM12.18 12.16a1.74 1.74 0 012.39.35l2.69 2.69c.746.57.9 1.63.35 2.39a1.74 1.74 0 01-2.39-.35l-2.7-2.68a1.73 1.73 0 01-.35-2.39l.01-.01zM36.59 17.59a1.74 1.74 0 01.35-2.39l2.68-2.72a1.73 1.73 0 012.39-.35 1.74 1.74 0 01-.35 2.39l-2.69 2.69c-.57.746-1.63.9-2.39.35l.01.03zM12.18 42a1.74 1.74 0 01.35-2.39l2.69-2.69a1.73 1.73 0 012.39-.35 1.74 1.74 0 01-.35 2.39l-2.69 2.69c-.57.746-1.63.9-2.39.35z" fill="#FFB000"></path><path d="M53.02 35.06a5.73 5.73 0 00-3.33-3.53.34.34 0 01-.26-.38 7.69 7.69 0 00-6.72-7.73.87.87 0 01-.17-.06h-1.68l-.76.16a7.67 7.67 0 00-5 3.57.34.34 0 01-.38.2 5.7 5.7 0 00-5.75 2.78c-.19.32-.34.66-.48 1a12.92 12.92 0 00-1.81.26A5.66 5.66 0 0022.42 36a1.15 1.15 0 01-.06.17v1.45a12 12 0 00.36 1.3c.82 2.08 2.34 3 4.55 3.36l.17.06h20.79c.31-.08.63-.13.93-.23 2.28-.75 3.65-1.95 4.09-4.31a1.13 1.13 0 01.06-.17v-1.47c-.1-.36-.16-.74-.29-1.1z" fill="#E9E9E9" fill-rule="nonzero"></path><path fill="#53B9EA" fill-rule="nonzero" d="M36.45 33.54h7.36l-4.9 7.41h4.9L32.55 53.97l3.9-8.83h-4.7z"></path></g></svg>