<?xml version="1.0" encoding="utf-8" ?>
<svg xmlns="http://www.w3.org/2000/svg" width="27px" height="27px" viewBox="0 0 60 60"><g fill="none" fill-rule="evenodd"><path d="M21.13 11.22c-.65 0-1.17-.7-1.17-1.57V6.57c0-.88.53-1.57 1.17-1.57.64 0 1.17.7 1.17 1.57v3.08c0 .88-.53 1.57-1.17 1.57zM21.13 39.25c-.65 0-1.17-.7-1.17-1.57V34.6c0-.88.53-1.57 1.17-1.57.64 0 1.17.7 1.17 1.57v3.08c0 .88-.53 1.57-1.17 1.57z" fill="#FFB000"></path><circle fill="#FFB000" fill-rule="nonzero" cx="21.13" cy="22.12" r="8.74"></circle><path d="M32.03 22.12c0-.65.7-1.17 1.57-1.17h3.08c.88 0 1.57.53 1.57 1.17 0 .64-.7 1.2-1.56 1.2H33.6c-.88 0-1.57-.53-1.57-1.17v-.03zM4 22.12c0-.65.7-1.17 1.57-1.17h3.08c.88 0 1.57.53 1.57 1.17 0 .64-.7 1.2-1.57 1.2H5.57c-.88 0-1.57-.53-1.57-1.17v-.03zM28.84 29.83a1.41 1.41 0 011.94.28l2.14 2.21a1.22 1.22 0 11-1.66 1.66l-2.14-2.21a1.41 1.41 0 01-.28-1.94zM9.02 10.01a1.41 1.41 0 011.9.31l2.18 2.18a1.41 1.41 0 01.28 1.94 1.41 1.41 0 01-1.94-.28l-2.18-2.18a1.41 1.41 0 01-.28-1.94l.04-.03zM28.84 14.41a1.41 1.41 0 01.28-1.94l2.18-2.15a1.41 1.41 0 011.94-.28 1.41 1.41 0 01-.32 1.91l-2.18 2.18a1.41 1.41 0 01-1.94.28h.04zM9.02 34.23a1.41 1.41 0 01.28-1.91l2.18-2.18a1.41 1.41 0 011.94-.28 1.41 1.41 0 01-.28 1.94l-2.22 2.15a1.41 1.41 0 01-1.94.28h.04z" fill="#FFB000"></path><path stroke="#53B9EA" stroke-width="1.85" stroke-linecap="round" d="M48.03 44.55l-4.59 10.88M43.61 44.55l-4.6 10.88M39.18 44.55l-4.6 10.88M34.75 44.55l-4.6 10.88M30.32 44.55l-4.59 10.88M25.9 44.55l-4.6 10.88"></path><path d="M55.92 32.87a7.16 7.16 0 00-4.16-4.42.43.43 0 01-.33-.48 9.62 9.62 0 00-8.39-9.65 1.09 1.09 0 01-.21-.07h-2.11l-.95.19a9.59 9.59 0 00-6.23 4.46.42.42 0 01-.47.25 7.12 7.12 0 00-7.15 3.47c-.23.4-.42.83-.6 1.2-.76.053-1.515.16-2.26.32a7.08 7.08 0 00-5.34 5.9 1.44 1.44 0 01-.07.21v1.81c.12.548.27 1.089.45 1.62 1 2.6 2.93 3.7 5.69 4.2.072.018.142.041.21.07h25.92c.39-.1.78-.17 1.16-.29 2.85-.94 4.56-2.43 5.11-5.39a1.41 1.41 0 01.07-.21v-1.81c-.09-.46-.18-.93-.34-1.38z" fill="#D0D0D0" fill-rule="nonzero"></path></g></svg>