<?xml version="1.0" encoding="utf-8" ?>
<svg xmlns="http://www.w3.org/2000/svg" width="27px" height="27px" viewBox="0 0 60 60"><g fill="none" fill-rule="evenodd"><path d="M39.3 11.23c-.65 0-1.17-.7-1.17-1.57V6.57c0-.88.53-1.57 1.17-1.57.64 0 1.17.7 1.17 1.57v3.08c0 .88-.53 1.57-1.17 1.57v.01zM39.3 39.26c-.65 0-1.17-.7-1.17-1.57V34.6c0-.88.53-1.57 1.17-1.57.64 0 1.17.7 1.17 1.57v3.08c0 .88-.53 1.57-1.17 1.57v.01z" fill="#FFB000"></path><circle fill="#FFB000" fill-rule="nonzero" cx="39.3" cy="22.12" r="8.74"></circle><path d="M50.2 22.12c0-.65.7-1.17 1.57-1.17h3.08c.88 0 1.57.53 1.57 1.17 0 .64-.69 1.22-1.56 1.22h-3.08c-.88 0-1.57-.53-1.57-1.17l-.01-.05zM22.17 22.12c0-.65.7-1.17 1.57-1.17h3.08c.88 0 1.57.53 1.57 1.17 0 .64-.69 1.22-1.56 1.22h-3.09c-.88 0-1.57-.53-1.57-1.17v-.05zM47.01 29.83a1.41 1.41 0 011.94.28l2.18 2.23A1.22 1.22 0 1149.47 34l-2.18-2.18a1.41 1.41 0 01-.28-1.94v-.05zM27.19 10.01a1.41 1.41 0 011.94.28l2.18 2.18a1.41 1.41 0 01.28 1.94 1.41 1.41 0 01-1.94-.28l-2.18-2.18a1.41 1.41 0 01-.28-1.94zM47.01 14.41a1.41 1.41 0 01.28-1.94l2.18-2.13a1.41 1.41 0 011.94-.33 1.41 1.41 0 01-.28 1.94l-2.18 2.18a1.41 1.41 0 01-1.94.28zM27.19 34.23a1.41 1.41 0 01.28-1.89l2.18-2.18a1.22 1.22 0 111.66 1.66L29.13 34a1.41 1.41 0 01-1.94.28v-.05z" fill="#FFB000"></path><path stroke="#53B9EA" stroke-width="1.85" fill="#53B9EA" fill-rule="nonzero" stroke-linecap="round" d="M34.4 44.55l-4.59 10.88M29.98 44.55l-4.6 10.88M25.55 44.55l-4.6 10.88M21.12 44.55l-4.6 10.88M16.69 44.55l-4.6 10.88M12.26 44.55L7.67 55.43"></path><path d="M42.3 32.87a7.16 7.16 0 00-4.16-4.42.43.43 0 01-.33-.48 9.62 9.62 0 00-8.4-9.63 1.09 1.09 0 01-.21-.07h-2.11l-.95.19a9.59 9.59 0 00-6.23 4.46.42.42 0 01-.47.25 7.12 7.12 0 00-7.19 3.48c-.23.4-.42.83-.6 1.2a16.16 16.16 0 00-2.24.29 7.08 7.08 0 00-5.34 5.9 1.44 1.44 0 01-.07.21v1.81c.107.547.243 1.088.41 1.62 1 2.6 2.93 3.7 5.69 4.2.072.018.142.041.21.07h26c.39-.1.78-.17 1.16-.29 2.85-.94 4.56-2.43 5.11-5.39a1.41 1.41 0 01.07-.21v-1.81c-.12-.46-.24-.91-.35-1.38z" fill="#D0D0D0" fill-rule="nonzero"></path></g></svg>