<?xml version="1.0" encoding="utf-8" ?>
<svg xmlns="http://www.w3.org/2000/svg" width="35px" height="35px" viewBox="0 0 60 60"><path d="M35.43 6.22c-.65 0-1.17-.7-1.17-1.57V1.57c0-.88.53-1.57 1.17-1.57.64 0 1.17.7 1.17 1.57v3.08c0 .88-.53 1.57-1.17 1.57zM35.43 34.26c-.65 0-1.17-.7-1.17-1.57V29.6c0-.88.53-1.57 1.17-1.57.64 0 1.17.7 1.17 1.57v3.08c0 .88-.53 1.57-1.17 1.57v.01z" fill="#FFB000"></path><circle fill="#FFB000" fill-rule="nonzero" cx="35.43" cy="17.12" r="8.74"></circle><path d="M46.33 17.12c0-.65.7-1.17 1.57-1.17h3.13c.88 0 1.57.53 1.57 1.17 0 .64-.75 1.21-1.57 1.21H47.9c-.88 0-1.57-.53-1.57-1.17v-.04zM18.3 17.12c0-.65.7-1.17 1.57-1.17h3.08c.88 0 1.57.53 1.57 1.17 0 .64-.7 1.21-1.56 1.21h-3.09c-.88 0-1.57-.53-1.57-1.17v-.04zM43.14 24.83a1.41 1.41 0 011.94.28l2.18 2.22a1.22 1.22 0 11-1.66 1.66l-2.18-2.18a1.41 1.41 0 01-.28-1.94v-.04zM23.32 5.01a1.41 1.41 0 011.94.28l2.18 2.18a1.41 1.41 0 01.28 1.94 1.41 1.41 0 01-1.94-.28L23.6 6.95a1.41 1.41 0 01-.28-1.94zM43.14 9.41a1.41 1.41 0 01.28-1.94l2.18-2.14a1.41 1.41 0 011.94-.28 1.41 1.41 0 01-.28 1.94l-2.23 2.14a1.41 1.41 0 01-1.94.28h.05zM23.32 29.23a1.41 1.41 0 01.28-1.9l2.18-2.18a1.22 1.22 0 111.66 1.66l-2.18 2.18a1.41 1.41 0 01-1.94.28v-.04z" fill="#FFB000"></path><path d="M7.31 45.65a2.36 2.36 0 002.26-.38 2.48 2.48 0 00.79-2.81c-.11-.45-.87-3.86-.87-3.86-3.41 3.2-3.38 3.14-2.9 2.7a2.48 2.48 0 00-.94 2.77 2.36 2.36 0 001.65 1.59l.01-.01zM29.74 45.65a2.36 2.36 0 002.29-.37 2.48 2.48 0 00.79-2.81c-.11-.45-.87-3.86-.87-3.86-3.45 3.19-3.42 3.12-2.92 2.72a2.48 2.48 0 00-.94 2.77 2.36 2.36 0 001.65 1.59v-.04zM18.52 45.65a2.36 2.36 0 002.26-.38 2.48 2.48 0 00.79-2.81c-.11-.45-.87-3.86-.87-3.86-3.41 3.2-3.38 3.14-2.9 2.7a2.48 2.48 0 00-.94 2.77 2.36 2.36 0 001.65 1.59l.01-.01zM12.03 52.24a2.36 2.36 0 002.26-.38 2.48 2.48 0 00.74-2.81c-.11-.45-.87-3.86-.87-3.86-3.41 3.2-3.38 3.14-2.9 2.7a2.48 2.48 0 00-.94 2.77 2.36 2.36 0 001.71 1.58zM23.24 52.24a2.36 2.36 0 002.26-.38 2.48 2.48 0 00.79-2.81c-.11-.45-.87-3.86-.87-3.86-3.39 3.19-3.39 3.14-2.89 2.7a2.48 2.48 0 00-.94 2.77 2.36 2.36 0 001.65 1.59v-.01z" fill="#53B9EA" fill-rule="nonzero"></path><path d="M38.77 27.78a7.24 7.24 0 00-4.2-4.45.43.43 0 01-.33-.49 9.72 9.72 0 00-8.49-9.78 1.1 1.1 0 01-.21-.07H23.4l-1 .2a9.69 9.69 0 00-6.29 4.51.43.43 0 01-.48.26 7.2 7.2 0 00-7.26 3.52c-.24.4-.42.84-.61 1.21a16.34 16.34 0 00-2.29.33 7.16 7.16 0 00-5.4 6 1.46 1.46 0 01-.07.21v1.83c.12.555.27 1.102.45 1.64 1 2.63 3 3.74 5.75 4.24.072.018.142.041.21.07h26.31c.39-.1.79-.17 1.17-.29 2.88-1 4.61-2.46 5.17-5.45a1.43 1.43 0 01.07-.21v-1.89c-.1-.47-.2-.94-.36-1.39z" fill="#D0D0D0" fill-rule="nonzero"></path></svg>
