<?xml version="1.0" encoding="utf-8" ?>
<svg xmlns="http://www.w3.org/2000/svg" width="42px" height="42px" viewBox="0 0 60 60"><g fill="#FFB000" fill-rule="evenodd"><path d="M29.09 16.66c-.8 0-1.45-.87-1.45-1.93v-3.8c0-1.09.65-1.93 1.45-1.93.8 0 1.45.87 1.45 1.93v3.8c0 1.09-.65 1.93-1.45 1.93zM29.09 51.18c-.8 0-1.45-.87-1.45-1.93v-3.8c0-1.09.65-1.93 1.45-1.93.8 0 1.45.87 1.45 1.93v3.8c0 1.09-.65 1.93-1.45 1.93zM29.09 19.32c-5.941.006-10.754 4.825-10.75 10.767.004 5.94 4.822 10.755 10.763 10.753 5.942-.002 10.757-4.819 10.757-10.76-.006-5.944-4.826-10.76-10.77-10.76zM42.52 30.08c0-.8.87-1.45 1.93-1.45h3.8c1.09 0 1.93.65 1.93 1.45 0 .8-.87 1.45-1.93 1.45h-3.8c-1.09 0-1.93-.65-1.93-1.45zM8 30.08c0-.8.87-1.45 1.93-1.45h3.8c1.09 0 1.93.65 1.93 1.45 0 .8-.87 1.45-1.93 1.45h-3.8c-1.09 0-1.93-.65-1.93-1.45zM38.59 39.59a1.74 1.74 0 012.39.35l2.68 2.65a1.51 1.51 0 11-2 2l-2.69-2.69a1.73 1.73 0 01-.38-2.31zM14.18 15.16a1.74 1.74 0 012.39.35l2.69 2.69a1.73 1.73 0 01.34 2.39 1.74 1.74 0 01-2.39-.35l-2.69-2.65a1.73 1.73 0 01-.35-2.39l.01-.04zM38.59 20.59a1.74 1.74 0 01.35-2.39l2.69-2.69a1.73 1.73 0 012.39-.35 1.74 1.74 0 01-.36 2.43l-2.69 2.69a1.73 1.73 0 01-2.38.31zM14.18 44.99a1.74 1.74 0 01.34-2.4l2.69-2.69a1.73 1.73 0 012.39-.31 1.74 1.74 0 01-.35 2.39l-2.69 2.69c-.57.746-1.63.9-2.39.35l.01-.03z"></path></g></svg>