<?xml version="1.0" encoding="utf-8" ?>
<svg xmlns="http://www.w3.org/2000/svg" width="35px" height="35px" viewBox="0 0 60 60"><g fill="none" fill-rule="nonzero"><path d="M49.62 25.74a7.21 7.21 0 00-4.19-4.45.43.43 0 01-.33-.48 9.69 9.69 0 00-8.46-9.74 1.09 1.09 0 01-.21-.07H34.3l-1 .2a9.66 9.66 0 00-6.27 4.49.42.42 0 01-.48.26 7.17 7.17 0 00-7.24 3.51c-.24.4-.42.83-.61 1.21a16.27 16.27 0 00-2.28.33 7.13 7.13 0 00-5.38 5.94 1.45 1.45 0 01-.04.21v1.8c.12.551.27 1.095.45 1.63 1 2.62 3 3.73 5.73 4.23.072.018.142.041.21.07h26.2c.39-.1.79-.17 1.17-.29 2.87-.94 4.59-2.44 5.14-5.44a1.42 1.42 0 01.1-.2v-1.8c-.14-.49-.23-1-.38-1.41z" fill="#D0D0D0"></path><path fill="#53B9EA" d="M28.83 23.82h9.26l-6.17 9.33h6.17L23.91 49.54l4.92-11.11h-5.92z"></path></g></svg>