<?xml version="1.0" encoding="utf-8" ?>
<svg xmlns="http://www.w3.org/2000/svg" width="27px" height="27px" viewBox="0 0 60 60"><g fill="none" fill-rule="evenodd"><path d="M39.52 10.21c-.65 0-1.17-.7-1.17-1.57V5.57c0-.88.53-1.57 1.17-1.57.64 0 1.17.7 1.17 1.57v3.08c0 .88-.53 1.57-1.17 1.57v-.01zM39.52 38.24c-.65 0-1.17-.7-1.17-1.57v-3.1c0-.88.53-1.57 1.17-1.57.64 0 1.17.7 1.17 1.57v3.1c0 .88-.53 1.57-1.17 1.57z" fill="#FFB000"></path><circle fill="#FFB000" fill-rule="nonzero" cx="39.52" cy="21.11" r="8.74"></circle><path d="M50.43 21.11c0-.65.7-1.17 1.57-1.17h3.07c.88 0 1.57.53 1.57 1.17 0 .64-.7 1.17-1.57 1.17H52c-.88 0-1.57-.53-1.57-1.17zM22.4 21.11c0-.65.7-1.17 1.57-1.17h3.1c.88 0 1.57.53 1.57 1.17 0 .64-.7 1.17-1.57 1.17h-3.1c-.88 0-1.57-.53-1.57-1.17zM47.23 28.82a1.41 1.41 0 011.94.28l2.18 2.18a1.22 1.22 0 11-1.66 1.66l-2.18-2.18a1.41 1.41 0 01-.28-1.94zM27.41 9a1.41 1.41 0 011.94.28l2.18 2.18a1.41 1.41 0 01.28 1.94 1.41 1.41 0 01-1.94-.28l-2.18-2.18A1.41 1.41 0 0127.41 9zM47.23 13.4a1.41 1.41 0 01.28-1.94l2.18-2.18A1.41 1.41 0 0151.63 9a1.41 1.41 0 01-.28 1.94l-2.18 2.18a1.41 1.41 0 01-1.94.28zM27.41 33.22a1.41 1.41 0 01.28-1.94l2.18-2.18a1.22 1.22 0 111.66 1.66l-2.18 2.18a1.41 1.41 0 01-1.94.28z" fill="#FFB000"></path><path d="M42.54 31.94a7.21 7.21 0 00-4.19-4.45.43.43 0 01-.33-.48 9.69 9.69 0 00-8.45-9.74 1.09 1.09 0 01-.21-.07h-2.13l-1 .2a9.66 9.66 0 00-6.27 4.49.42.42 0 01-.48.26 7.17 7.17 0 00-7.24 3.51c-.24.4-.42.83-.61 1.21a16.27 16.27 0 00-2.28.33 7.13 7.13 0 00-5.28 5.92 1.45 1.45 0 01-.07.21v1.83c.12.551.27 1.095.45 1.63 1 2.62 3 3.73 5.73 4.23.072.018.142.041.21.07h26.12c.39-.1.79-.17 1.17-.29 2.87-.95 4.59-2.45 5.15-5.43a1.42 1.42 0 01.07-.21v-1.83c-.12-.46-.2-.94-.36-1.39z" fill="#D0D0D0" fill-rule="nonzero"></path><path fill="#53B9EA" fill-rule="nonzero" d="M21.75 30.02h9.27l-6.17 9.33h6.17L16.83 55.74l4.92-11.11h-5.92z"></path></g></svg>