<?xml version="1.0" encoding="utf-8" ?>
<svg xmlns="http://www.w3.org/2000/svg" width="80px" height="60px" viewBox="0 0 60 60"><g fill="none" fill-rule="nonzero"><path d="M39.1 6a5.41 5.41 0 00-5.49 5.4h2.52c.13-.33.22-.66.37-1a2.72 2.72 0 015.17 1.28 2.71 2.71 0 01-2.7 2.52h-5.71a9.62 9.62 0 013.41 2.74h2.3a5.42 5.42 0 005.49-5.4A5.52 5.52 0 0039.1 6M50.95 12.68a5.41 5.41 0 00-5.49 5.4h2.52c.13-.33.22-.66.37-1a2.72 2.72 0 015.22 1.24 2.71 2.71 0 01-2.73 2.53H38.51a9.62 9.62 0 01.21 2.11.43.43 0 00.33.48l.31.15h11.46a5.42 5.42 0 005.49-5.39 5.52 5.52 0 00-5.36-5.52zM11.3 46.48a2.36 2.36 0 002.26-.38 2.48 2.48 0 00.79-2.81c-.11-.45-.87-3.86-.87-3.86-3.41 3.2-3.38 3.14-2.9 2.7a2.48 2.48 0 00-.91 2.76 2.36 2.36 0 001.65 1.59h-.02zM33.73 46.48a2.36 2.36 0 002.26-.38 2.48 2.48 0 00.79-2.81c-.11-.45-.87-3.86-.87-3.86-3.41 3.2-3.38 3.14-2.9 2.7a2.48 2.48 0 00-.94 2.77 2.36 2.36 0 001.65 1.59l.01-.01zM22.52 46.48a2.36 2.36 0 002.26-.38 2.48 2.48 0 00.79-2.81c-.11-.45-.87-3.86-.87-3.86-3.41 3.2-3.38 3.14-2.9 2.7a2.48 2.48 0 00-.94 2.77 2.36 2.36 0 001.65 1.59l.01-.01zM16.02 53.07a2.36 2.36 0 002.26-.38 2.48 2.48 0 00.79-2.81c-.11-.45-.87-3.86-.87-3.86-3.41 3.2-3.38 3.14-2.9 2.7a2.48 2.48 0 00-.94 2.77 2.36 2.36 0 001.65 1.59l.01-.01zM27.24 53.07a2.36 2.36 0 002.26-.38 2.48 2.48 0 00.79-2.81c-.11-.45-.87-3.86-.87-3.86-3.41 3.2-3.38 3.14-2.9 2.7a2.48 2.48 0 00-.94 2.77 2.36 2.36 0 001.65 1.59l.01-.01z" fill="#53B9EA"></path><path d="M42.77 28.6a7.24 7.24 0 00-4.2-4.46.43.43 0 01-.33-.49 9.72 9.72 0 00-8.49-9.78 1.1 1.1 0 01-.21-.07H27.4l-1 .2a9.69 9.69 0 00-6.29 4.51.43.43 0 01-.48.26 7.2 7.2 0 00-7.26 3.52c-.24.4-.42.84-.61 1.21a16.34 16.34 0 00-2.29.33 7.16 7.16 0 00-5.4 6 1.46 1.46 0 01-.07.21v1.83c.12.555.27 1.103.45 1.64 1 2.63 3 3.74 5.75 4.24.072.018.142.042.21.07h26.26c.39-.1.79-.17 1.17-.29 2.88-1 4.61-2.46 5.17-5.45a1.43 1.43 0 01.07-.21V30c-.07-.47-.15-.94-.31-1.4z" fill="#D0D0D0"></path></g></svg>