<?xml version="1.0" encoding="utf-8" ?>
<svg xmlns="http://www.w3.org/2000/svg" width="80px" height="60px" viewBox="0 0 60 60"><g fill="#53B9EA" fill-rule="nonzero"><path d="M5 38.153h42.35a3.49 3.49 0 003.52-3.26 3.5 3.5 0 00-6.72-1.59c-.18.39-.31.81-.47 1.24h-3.24c-.2-4 3.56-7.06 7.07-6.95a7.11 7.11 0 016.9 7.13 7 7 0 01-7.06 6.95c-13.49.05-28.85 0-42.35 0v-3.52z"></path><path d="M5 29.563h27.09a3.49 3.49 0 003.52-3.26 3.5 3.5 0 00-6.72-1.59c-.18.39-.31.81-.47 1.24h-3.24c-.2-4 3.56-7.06 7.07-6.95a7.11 7.11 0 016.9 7.15 7 7 0 01-7.06 6.95c-13.49.05-13.6 0-27.09 0v-3.54z"></path></g></svg>