<?xml version="1.0" encoding="utf-8" ?>
<svg xmlns="http://www.w3.org/2000/svg" viewBox="0 0 32 33" id="condition-fog"><g fill="none" fill-rule="evenodd"><path fill="#52CC11" d="M27.603 17.663c.996 1.12 1.945 2.278 2.952 3.393.182.202 1.138 1.576 1.422 1.576H10.233l3.539-2.498c1.616-1.14 3.24-2.271 4.86-3.406 1.337-.937 2.659-1.973 4.42-1.904 1.658.065 2.98 1.117 4.023 2.253.178.194.354.39.528.586"/><path fill="#F2F4F4" d="M30.549 21.244h-8.365c-.457 0-.828-.353-.828-.789 0-.436.37-.789.828-.789h8.365c.458 0 .829.353.829.79 0 .435-.371.788-.83.788"/><path fill="#D6D6D6" fill-rule="nonzero" d="M30.549 21.064c.355 0 .642-.273.642-.609 0-.336-.287-.61-.642-.61h-8.365c-.355 0-.642.274-.642.61 0 .336.287.61.642.61h8.365zm0 .36h-8.365c-.56 0-1.014-.433-1.014-.969 0-.535.454-.968 1.014-.968h8.365c.56 0 1.015.433 1.015.968 0 .536-.455.968-1.015.968z"/><path fill="#F2F4F4" d="M24.048 19.053h-8.364c-.458 0-.83-.353-.83-.789 0-.436.372-.789.83-.789h8.364c.458 0 .829.353.829.79 0 .435-.371.788-.829.788"/><path fill="#D6D6D6" fill-rule="nonzero" d="M24.048 18.873c.356 0 .643-.273.643-.609 0-.336-.287-.609-.643-.609h-8.364c-.356 0-.643.273-.643.61 0 .335.287.608.643.608h8.364zm0 .36h-8.364c-.56 0-1.015-.433-1.015-.969 0-.535.455-.968 1.015-.968h8.364c.56 0 1.015.433 1.015.968 0 .536-.455.968-1.015.968z"/><path fill="#52CC11" d="M26.536 22.61H1.338l10.727-11.796c.987-1.085 2.757-1.085 3.744 0l10.727 11.797z"/><path fill="#F2F4F4" d="M18.608 18.615H9.266c-.458 0-.829-.353-.829-.79 0-.435.371-.788.829-.788h9.342c.457 0 .828.353.828.789 0 .436-.37.789-.828.789m4.658 3.484h-4.938c-.458 0-.83-.353-.83-.79 0-.435.372-.788.83-.788h4.938c.458 0 .83.353.83.789 0 .436-.372.789-.83.789"/><path fill="#D6D6D6" fill-rule="nonzero" d="M23.266 21.919c.356 0 .643-.273.643-.61 0-.335-.287-.608-.643-.608h-4.938c-.356 0-.643.273-.643.609 0 .336.287.609.643.609h4.938zm0 .36h-4.938c-.56 0-1.015-.434-1.015-.97 0-.535.455-.967 1.015-.967h4.938c.56 0 1.015.432 1.015.968 0 .535-.455.968-1.015.968zm-4.658-3.844c.355 0 .642-.273.642-.61 0-.335-.287-.608-.642-.608H9.266c-.356 0-.643.273-.643.609 0 .336.287.61.643.61h9.342zm0 .36H9.266c-.56 0-1.015-.434-1.015-.97 0-.534.455-.967 1.015-.967h9.342c.56 0 1.014.433 1.014.968 0 .535-.454.968-1.014.968z"/><path fill="#F2F4F4" d="M15.205 21.244H1.666c-.458 0-.829-.353-.829-.789 0-.436.371-.789.829-.789h13.539c.457 0 .828.353.828.79 0 .435-.37.788-.828.788"/><path fill="#D6D6D6" fill-rule="nonzero" d="M15.205 21.064c.355 0 .642-.273.642-.609 0-.336-.287-.61-.642-.61H1.666c-.355 0-.643.274-.643.61 0 .336.288.61.643.61h13.539zm0 .36H1.666c-.56 0-1.015-.434-1.015-.969 0-.535.455-.968 1.015-.968h13.539c.56 0 1.014.433 1.014.968 0 .536-.454.968-1.014.968z"/></g></svg>