<?xml version="1.0" encoding="utf-8" ?>
<svg xmlns="http://www.w3.org/2000/svg" viewBox="0 0 32 32" id="condition-drizzle"><g fill="none" fill-rule="evenodd"><g fill="#6eb6ff"><rect height="5" rx="1" width="2" x="21" y="19"/><rect height="4" rx="1" width="2" x="21" y="27"/><rect height="5" rx="1" width="2" x="11" y="26"/><rect height="5" rx="1" width="2" x="16" y="17"/><rect height="5" rx="1" width="2" x="11" y="17"/><rect height="6" rx="1" width="2" x="16" y="24"/></g><path d="M20.542 8H24.5a6.5 6.5 0 1 1 0 13h-13c-.075 0-.15-.001-.223-.004C11.185 21 11.093 21 11 21 5.477 21 1 16.523 1 11S5.477 1 11 1c4.478 0 8.268 2.943 9.542 7z" fill="#f2f4f4"/><g fill="#aaa" fill-rule="nonzero"><path d="M24.5 9h-4.692l-.22-.7A9.004 9.004 0 0 0 11 2a9 9 0 1 0 .31 17.997l.19.003h13a5.5 5.5 0 0 0 0-11zm-3.958-1H24.5a6.5 6.5 0 1 1 0 13h-13c-.075 0-.15-.001-.223-.004C11.185 21 11.093 21 11 21 5.477 21 1 16.523 1 11S5.477 1 11 1c4.478 0 8.268 2.943 9.542 7z"/><path d="M11 21v-1a9 9 0 1 1 9-9c0 .94-.144 1.86-.424 2.738l.953.304c.306-.96.471-1.981.471-3.042 0-5.523-4.477-10-10-10S1 5.477 1 11s4.477 10 10 10z"/></g></g></svg>