<?xml version="1.0" encoding="utf-8" ?>
<svg xmlns="http://www.w3.org/2000/svg" viewBox="0 0 32 32" id="condition-frost"><g fill="none" fill-rule="evenodd"><g transform="translate(17 2)"><circle cx="5.5" cy="22.5" fill="#6bb5ff" r="5.5"/><rect fill="#6bb5ff" height="20" rx="2.5" width="5" x="3"/><path d="M5 3h3v1H5zm0 3h3v1H5zm0 3h3v1H5zm0 3h3v1H5zm0 3h3v1H5z" fill="#0a4582"/></g><path d="M19.337 23h6.326a3.5 3.5 0 1 1-6.326 0z" fill="#4d96e4"/><path d="M10.618 6.54 10 7.705v.498l.618 1.165h1.764L13 8.203v-.498l-.618-1.165zm4.689 1.885H14l-.781 1.472.831 1.44h1.655a.5.5 0 1 1 0 1h-1.077l.478.828a.472.472 0 1 1-.817.471l-.495-.858-.53.92a.5.5 0 0 1-.867-.5l.82-1.42-.848-1.468h-1.372l-.812 1.406.888 1.538a.5.5 0 0 1-.866.5l-.6-1.038-.53.92a.471.471 0 1 1-.816-.471l.543-.941H7.586a.5.5 0 1 1 0-1h1.795l.575-.996L9 8.425h-.94l-.9 1.559a.5.5 0 1 1-.867-.5l.612-1.06H5.47a.471.471 0 0 1 0-.942h1.38l-.558-.966a.5.5 0 1 1 .866-.5l.847 1.466H9l1-1.884h.001l-.53-.918a.505.505 0 0 1-.057.004H7.586a.5.5 0 1 1 0-1h1.31l-.635-1.102a.471.471 0 1 1 .816-.47l.604 1.045.526-.91a.5.5 0 1 1 .866.5l-.815 1.41.832 1.44h1.186l.81-1.402a.51.51 0 0 1 .004-.07l-.797-1.378a.5.5 0 1 1 .866-.5l.526.911.605-1.047a.472.472 0 0 1 .817.471l-.637 1.102h.944a.5.5 0 1 1 0 1h-1.522l-.717 1.243L14 7.482h1.36l.847-1.466a.5.5 0 0 1 .866.5l-.558.966h1.014a.472.472 0 1 1 0 .943H16.46l.612 1.059a.5.5 0 1 1-.866.5l-.9-1.56z" fill="#909ab5" fill-rule="nonzero"/></g></svg>