<?xml version="1.0" encoding="utf-8" ?>
<svg xmlns="http://www.w3.org/2000/svg" viewBox="0 0 32 32" id="condition-showers"><g fill="none" fill-rule="evenodd"><g fill="#6EB6FF" transform="translate(6 18)"><rect width="2" height="4" x="11.866" y="8.232" rx="1" transform="rotate(30 12.866 10.232)"/><rect width="2" height="5" x="7.116" y="6.165" rx="1" transform="rotate(30 8.116 8.665)"/><rect width="2" height="5" x="10.116" y="1.165" rx="1" transform="rotate(30 11.116 3.665)"/><rect width="2" height="6" x="15.366" y="1.098" rx="1" transform="rotate(30 16.366 4.098)"/><rect width="2" height="6" x="4.366" y="1.098" rx="1" transform="rotate(30 5.366 4.098)"/><rect width="2" height="3" x=".616" y="8.299" rx="1" transform="rotate(30 1.616 9.799)"/></g><path fill="#AAA" d="M20.542 9H24.5a6.5 6.5 0 1 1 0 13h-13c-.075 0-.15-.001-.223-.004C11.185 22 11.093 22 11 22 5.477 22 1 17.523 1 12S5.477 2 11 2c4.478 0 8.268 2.943 9.542 7z"/><path fill="#616161" fill-rule="nonzero" d="M24.5 10h-4.692l-.22-.7A9.004 9.004 0 0 0 11 3a9 9 0 1 0 .31 17.997l.19.003h13a5.5 5.5 0 0 0 0-11zm-3.958-1H24.5a6.5 6.5 0 1 1 0 13h-13c-.075 0-.15-.001-.223-.004C11.185 22 11.093 22 11 22 5.477 22 1 17.523 1 12S5.477 2 11 2c4.478 0 8.268 2.943 9.542 7z"/><path fill="#616161" fill-rule="nonzero" d="M11 22v-1a9 9 0 1 1 9-9c0 .272-.01.505-.035.992-.06 1.108-.06 1.572.05 2.185L21 15c-.165-.917 0-1.94 0-3 0-5.523-4.477-10-10-10S1 6.477 1 12s4.477 10 10 10z"/></g></svg>