<?xml version="1.0" encoding="utf-8" ?>
<svg xmlns="http://www.w3.org/2000/svg" viewBox="0 0 32 33" id="condition-partly-cloudy-night"><g fill="none" fill-rule="evenodd" transform="translate(1 5)"><circle cx="19" cy="10" r="10" fill="#B7B7B7"/><g transform="translate(11 1)"><circle cx="2" cy="9" r="2" fill="#959595"/><circle cx="9.5" cy="9.5" r="1.5" fill="#959595"/><circle cx="8" cy="5" r="1" fill="#959595"/><circle cx="8.5" cy=".5" r="1" fill="#959595"/><circle cx="13" cy="3" r="1" fill="#959595"/><path fill="#757575" d="M0 15.197C7.74 19.406 19.63 12.417 14 1l2 2.028c2 3.042 2 4.057 2 7.099 0 3.056-3 7.098-5 8.112-2 1.015-6 1.015-9 0-2.111-.713-2.593-.974-4-3.042z"/><circle cx="15.5" cy="6.5" r="1.5" fill="#B7B7B7"/><circle cx="12.5" cy="13.5" r="1.5" fill="#B7B7B7"/><circle cx="15.5" cy="6.5" r="1" fill="#959595"/><circle cx="12.5" cy="13.5" r="1" fill="#959595"/></g><g transform="translate(0 4)"><rect width="26" height="13" x="4" y="7" fill="#F2F4F4" rx="6.5"/><path fill="#AAA" fill-rule="nonzero" d="M23.5 8h-4.692l-.22-.7A9.004 9.004 0 0 0 10 1a9 9 0 1 0 .31 17.997l.19.003h13a5.5 5.5 0 0 0 0-11zm-3.958-1H23.5a6.5 6.5 0 1 1 0 13h-13c-.075 0-.15-.001-.223-.004C10.185 20 10.093 20 10 20 4.477 20 0 15.523 0 10S4.477 0 10 0c4.478 0 8.268 2.943 9.542 7z"/></g><circle cx="10" cy="14" r="9" fill="#F2F4F4"/><path fill="#AAA" fill-rule="nonzero" d="M10 24v-1a9 9 0 1 1 9-9c0 .94-.144 1.86-.424 2.738l.953.304c.306-.96.471-1.981.471-3.042 0-5.523-4.477-10-10-10S0 8.477 0 14s4.477 10 10 10z"/></g></svg>