<?xml version="1.0" encoding="utf-8" ?>
<svg xmlns="http://www.w3.org/2000/svg" viewBox="0 0 32 32" id="condition-snow"><g fill="none" fill-rule="evenodd"><g fill="#f2f4f4" transform="translate(7 19)"><circle cx="2.5" cy="4.5" r="1.5"/><circle cx="14.5" cy="8.5" r="1.5"/><circle cx="6.5" cy="10.5" r="1.5"/><circle cx="15.5" cy="2.5" r="1.5"/><circle cx="9.5" cy="5.5" r="1.5"/></g><path d="M9.5 25.5a2 2 0 1 1 0-4 2 2 0 0 1 0 4zm0-1a1 1 0 1 0 0-2 1 1 0 0 0 0 2zm12 5a2 2 0 1 1 0-4 2 2 0 0 1 0 4zm0-1a1 1 0 1 0 0-2 1 1 0 0 0 0 2zm-8 3a2 2 0 1 1 0-4 2 2 0 0 1 0 4zm0-1a1 1 0 1 0 0-2 1 1 0 0 0 0 2zm9-7a2 2 0 1 1 0-4 2 2 0 0 1 0 4zm0-1a1 1 0 1 0 0-2 1 1 0 0 0 0 2zm-6 4a2 2 0 1 1 0-4 2 2 0 0 1 0 4zm0-1a1 1 0 1 0 0-2 1 1 0 0 0 0 2z" fill="#aaa" fill-rule="nonzero"/><path d="M20.542 8H24.5a6.5 6.5 0 1 1 0 13h-13c-.075 0-.15-.001-.223-.004C11.185 21 11.093 21 11 21 5.477 21 1 16.523 1 11S5.477 1 11 1c4.478 0 8.268 2.943 9.542 7z" fill="#f2f4f4"/><g fill="#aaa" fill-rule="nonzero"><path d="M24.5 9h-4.692l-.22-.7A9.004 9.004 0 0 0 11 2a9 9 0 1 0 .31 17.997l.19.003h13a5.5 5.5 0 0 0 0-11zm-3.958-1H24.5a6.5 6.5 0 1 1 0 13h-13c-.075 0-.15-.001-.223-.004C11.185 21 11.093 21 11 21 5.477 21 1 16.523 1 11S5.477 1 11 1c4.478 0 8.268 2.943 9.542 7z"/><path d="M11 21v-1a9 9 0 1 1 9-9c0 .94-.144 1.86-.424 2.738l.953.304c.306-.96.471-1.981.471-3.042 0-5.523-4.477-10-10-10S1 5.477 1 11s4.477 10 10 10z"/></g></g></svg>