<?xml version="1.0" encoding="utf-8" ?>
<svg xmlns="http://www.w3.org/2000/svg" viewBox="0 0 32 32" id="condition-partly-cloudy-solid"><path d="M29.8 21.6v-.61a6.48 6.48 0 0 0-.1-.77c-.51-2.64-2.65-4.63-5.47-4.91-.26-.03-.54-.04-.82-.04-.8 0-1.63.12-2.33.42-.02 0-.03.01-.05.02-.2-.89-.53-1.76-.97-2.58-.03-.06-.06-.11-.1-.17 0 0-.01-.02-.02-.03A9.593 9.593 0 0 0 9.46 8.4L9 8.52c-.23.06-.45.14-.67.22-.15.05-.29.11-.44.17-.29.12-.57.26-.84.4-.27.15-.54.31-.79.48l-.19.13a9.59 9.59 0 0 0-4.05 7.83c0 1.17.21 2.28.59 3.32 1.34 3.64 4.82 6.25 8.92 6.29h12.32a5.96 5.96 0 0 0 5.96-5.71v-.05"/><path d="M29.8 21.6v-.61a6.48 6.48 0 0 0-.1-.77c-.51-2.64-2.65-4.63-5.47-4.91-.26-.03-.54-.04-.82-.04-.8 0-1.63.12-2.33.42-.02 0-.03.01-.05.02-.2-.89-.53-1.76-.97-2.58-.03-.06-.06-.11-.1-.17 0 0-.01-.02-.02-.03A9.593 9.593 0 0 0 9.46 8.4L9 8.52c-.23.06-.45.14-.67.22-.15.05-.29.11-.44.17-.29.12-.57.26-.84.4-.27.15-.54.31-.79.48l-.19.13a9.58 9.58 0 0 0-4.04 7.83c0 1.17.21 2.28.59 3.32 1.34 3.64 4.82 6.25 8.92 6.29h12.32a5.96 5.96 0 0 0 5.96-5.71v-.05"/><path d="M21.25 8.22c-1.2 0-2.3.41-3.17 1.1 1.09.83 2.03 1.87 2.73 3.08l.02.04c.04.06.07.13.11.19.32.57.58 1.16.78 1.77a8.366 8.366 0 0 1 2.6-.12c.66.07 1.29.22 1.89.44.12-.44.19-.89.19-1.36 0-2.84-2.31-5.14-5.14-5.14"/><path d="M27.43 10.81V7.19h-3.62l-2.56-2.56-2.56 2.56h-3.62v.51c.74.26 1.45.6 2.12 1.02 1.09-.95 2.5-1.53 4.06-1.53a6.178 6.178 0 0 1 5.91 7.99c.22.12.43.25.63.39l2.19-2.19-2.56-2.56.01-.01Z"/></svg>