<?xml version="1.0" encoding="utf-8" ?>
<svg xmlns="http://www.w3.org/2000/svg" viewBox="0 0 32 32" id="condition-fine-night"><g fill="none"><path d="M16.039 3.632c0-.534.433-.967.967-.967a.968.968 0 0 1-.01 1.935.968.968 0 0 1-.957-.968" fill="#959595"/><path d="M1.697 15.932c0 8.197 6.522 14.836 14.555 14.836 8.032 0 14.554-6.639 14.554-14.836 0-8.187-6.522-14.826-14.554-14.826-8.033 0-14.555 6.64-14.555 14.826" fill="#757575"/><path d="M1.706 15.932c0 3.03.89 5.845 2.42 8.197a14.239 14.239 0 0 0 6.813 1.723c8.032 0 14.555-6.64 14.555-14.826 0-3.03-.9-5.845-2.42-8.197a14.265 14.265 0 0 0-6.822-1.723c-8.033 0-14.546 6.64-14.546 14.826" fill="#b7b7b7"/><path d="M4.252 15.932c0-1.548 1.238-2.806 2.767-2.806 1.52 0 2.758 1.258 2.758 2.806 0 1.549-1.238 2.816-2.758 2.816a2.787 2.787 0 0 1-2.767-2.806m10.122 1.384c0-.939.745-1.694 1.655-1.694.92 0 1.665.755 1.665 1.694 0 .929-.746 1.684-1.665 1.684-.91 0-1.645-.755-1.645-1.684m6.106 5.7c-.813 0-1.48-.678-1.48-1.52 0-.832.667-1.519 1.48-1.519.823 0 1.49.678 1.49 1.52 0 .832-.667 1.519-1.49 1.519" fill="#959595"/><path d="M20.49 19.677c-.987 0-1.79.823-1.79 1.84 0 .996.803 1.818 1.79 1.818.997 0 1.8-.822 1.8-1.829 0-1.006-.803-1.829-1.8-1.829m0 .63a1.19 1.19 0 0 1 1.181 1.2c0 .667-.523 1.2-1.18 1.2a1.182 1.182 0 0 1-1.172-1.2c0-.659.523-1.2 1.171-1.2" fill="#b7b7b7"/><path d="M20.374 7.513c0-.726.58-1.316 1.297-1.316.716 0 1.297.59 1.297 1.316 0 .735-.58 1.326-1.297 1.326a1.31 1.31 0 0 1-1.297-1.326m-8.09 2.661c0-.735.58-1.335 1.316-1.335.716 0 1.306.6 1.306 1.335 0 .736-.58 1.336-1.306 1.336s-1.316-.6-1.316-1.336m12.813 2.874a1.355 1.355 0 0 1-1.355-1.374c0-.764.6-1.384 1.355-1.384.735 0 1.345.62 1.345 1.384a1.37 1.37 0 0 1-1.355 1.374" fill="#959595"/><path d="M25.097 9.98c-.93 0-1.674.755-1.674 1.694 0 .93.745 1.694 1.664 1.694.92 0 1.665-.765 1.665-1.694 0-.939-.746-1.693-1.665-1.693m0 .629c.58 0 1.045.484 1.045 1.064s-.464 1.065-1.045 1.065c-.58 0-1.045-.484-1.045-1.065 0-.58.474-1.064 1.045-1.064" fill="#b7b7b7"/></g></svg>