<?xml version="1.0" encoding="utf-8" ?>
<svg xmlns="http://www.w3.org/2000/svg" viewBox="0 0 32 32" id="condition-rain"><g fill="none" fill-rule="evenodd"><g fill="#6EB6FF" transform="translate(5 18)"><rect width="2" height="3" x="9.616" y="9.299" rx="1" transform="rotate(30 10.616 10.799)"/><rect width="2" height="3" x=".616" y="9.299" rx="1" transform="rotate(30 1.616 10.799)"/><rect width="2" height="4" x="5.866" y="7.232" rx="1" transform="rotate(30 6.866 9.232)"/><rect width="2" height="4" x="17.866" y="1.232" rx="1" transform="rotate(30 18.866 3.232)"/><rect width="2" height="6" x="14.366" y="6.098" rx="1" transform="rotate(30 15.366 9.098)"/><rect width="2" height="6" x="9.366" y=".098" rx="1" transform="rotate(30 10.366 3.098)"/><rect width="2" height="6" x="13.366" y="1.098" rx="1" transform="rotate(30 14.366 4.098)"/><rect width="2" height="8" x="3.866" y="-.036" rx="1" transform="rotate(30 4.866 3.964)"/></g><path fill="#606060" d="M20.542 9H24.5a6.5 6.5 0 1 1 0 13h-13c-.075 0-.15-.001-.223-.004C11.185 22 11.093 22 11 22 5.477 22 1 17.523 1 12S5.477 2 11 2c4.478 0 8.268 2.943 9.542 7z"/><path fill="#474747" fill-rule="nonzero" d="M24.5 10h-4.692l-.22-.7A9.004 9.004 0 0 0 11 3a9 9 0 1 0 .31 17.997l.19.003h13a5.5 5.5 0 0 0 0-11zm-3.958-1H24.5a6.5 6.5 0 1 1 0 13h-13c-.075 0-.15-.001-.223-.004C11.185 22 11.093 22 11 22 5.477 22 1 17.523 1 12S5.477 2 11 2c4.478 0 8.268 2.943 9.542 7z"/><path fill="#474747" fill-rule="nonzero" d="M11 22v-1a9 9 0 1 1 9-9c0 .94-.144 1.86-.424 2.738l.953.304c.306-.96.471-1.981.471-3.042 0-5.523-4.477-10-10-10S1 6.477 1 12s4.477 10 10 10z"/></g></svg>