<?xml version="1.0" encoding="utf-8" ?>
<svg xmlns="http://www.w3.org/2000/svg" viewBox="0 0 32 32" id="condition-few-showers-night"><g fill="none" fill-rule="evenodd"><g fill="#6eb6ff" transform="translate(4 19)"><rect height="6" rx="1" transform="rotate(30 15.366 3.098)" width="2" x="14.366" y=".098"/><rect height="8" rx="1" transform="rotate(30 4.866 3.964)" width="2" x="3.866" y="-.036"/><rect height="4" rx="1" transform="rotate(30 11.866 9.232)" width="2" x="10.866" y="7.232"/><rect height="3" rx="1" transform="rotate(30 1.616 9.799)" width="2" x=".616" y="8.299"/><rect height="5" rx="1" transform="rotate(30 8.116 7.665)" width="2" x="7.116" y="5.165"/><rect height="5" rx="1" transform="rotate(30 11.116 2.665)" width="2" x="10.116" y=".165"/></g><g transform="translate(10 1)"><circle cx="9" cy="9" fill="#b7b7b7" r="9"/><g fill="#959595"><circle cx="3" cy="9" r="2"/><circle cx="9.5" cy="10.5" r="1.5"/><circle cx="8" cy="5" r="1"/><circle cx="9.5" cy="1.5" r="1"/><circle cx="12" cy="4" r="1"/></g><path d="M1 13.657C7.926 17.37 18.63 11.074 13.593 1c1.888 1.26 2.44 2.042 3.777 4.407.678 2.309.988 4.618 0 6.926-.84 2.519-2.518 4.198-5.037 5.037-2.098.84-4.827.84-6.926 0C3.52 16.74 2.26 15.481 1 13.657z" fill="#757575"/><circle cx="14.5" cy="7.5" fill="#b7b7b7" r="1.5"/><circle cx="11.5" cy="12.5" fill="#b7b7b7" r="1.5"/><g fill="#959595"><circle cx="11.5" cy="12.5" r="1"/><circle cx="14.5" cy="7.5" r="1"/></g></g><path d="M17.826 13H20a4 4 0 1 1 0 8h-8c-.074 0-.147-.002-.22-.006A6.5 6.5 0 1 1 17.826 13z" fill="#f2f4f4"/><g fill="#aaa" fill-rule="nonzero"><path d="M20 14h-2.965l-.182-.77A5.5 5.5 0 1 0 11.5 20l.334-.004c.055.003.11.004.166.004h8a3 3 0 0 0 0-6zm0-1a4 4 0 1 1 0 8h-8c-.074 0-.147-.002-.22-.006A6.5 6.5 0 1 1 17.826 13z"/><path d="M11.5 21v-1a5.5 5.5 0 1 1 5.241-3.827l.953.304A6.5 6.5 0 1 0 11.5 21z"/></g></g></svg>