<?xml version="1.0" encoding="utf-8" ?>
<svg xmlns="http://www.w3.org/2000/svg" viewBox="0 0 32 32" id="condition-thunder"><g fill="none" fill-rule="evenodd"><path d="M20.542 9H24.5a6.5 6.5 0 1 1 0 13h-13c-.075 0-.15-.001-.223-.004C11.185 22 11.093 22 11 22 5.477 22 1 17.523 1 12S5.477 2 11 2c4.478 0 8.268 2.943 9.542 7z" fill="#606060"/><path d="M24.5 10h-4.692l-.22-.7A9.004 9.004 0 0 0 11 3a9 9 0 1 0 .31 17.997l.19.003h13a5.5 5.5 0 0 0 0-11zm-3.958-1H24.5a6.5 6.5 0 1 1 0 13h-13c-.075 0-.15-.001-.223-.004C11.185 22 11.093 22 11 22 5.477 22 1 17.523 1 12S5.477 2 11 2c4.478 0 8.268 2.943 9.542 7z" fill="#474747" fill-rule="nonzero"/><path d="M11 22v-1a9 9 0 1 1 9-9c0 .94-.144 1.86-.424 2.738l.953.304c.306-.96.471-1.981.471-3.042 0-5.523-4.477-10-10-10S1 6.477 1 12s4.477 10 10 10z" fill="#474747" fill-rule="nonzero"/><path d="M16 18h6l-3 4h1.586a1 1 0 0 1 .707 1.707l-6.029 6.029a1 1 0 0 1-1.643-1.059L15 25h-2.057a1 1 0 0 1-.814-1.581z" fill="#fcd630"/><path d="M16.571 19 13 24h3.5l-1.886 5.028L20.643 23h-3.586l3-4H16.57zm-1.758 6.649.244-.649H13a1 1 0 0 1-.814-1.581L16.056 18h6l-2.25 3-.45.6-.3.4h1.587a1 1 0 0 1 .707 1.707l-6.029 6.029a1 1 0 0 1-1.643-1.059L14.682 26z" fill="#ddbd36" fill-rule="nonzero"/></g></svg>