<?xml version="1.0" encoding="utf-8" ?>
<svg xmlns="http://www.w3.org/2000/svg" viewBox="0 0 32 32" id="condition-few-showers"><g fill="none" fill-rule="evenodd"><g fill="#6eb6ff" transform="translate(4 19)"><rect height="6" rx="1" transform="rotate(30 15.366 3.098)" width="2" x="14.366" y=".098"/><rect height="8" rx="1" transform="rotate(30 4.866 3.964)" width="2" x="3.866" y="-.036"/><rect height="4" rx="1" transform="rotate(30 11.866 9.232)" width="2" x="10.866" y="7.232"/><rect height="3" rx="1" transform="rotate(30 1.616 9.799)" width="2" x=".616" y="8.299"/><rect height="5" rx="1" transform="rotate(30 8.116 7.665)" width="2" x="7.116" y="5.165"/><rect height="5" rx="1" transform="rotate(30 11.116 2.665)" width="2" x="10.116" y=".165"/></g><path d="M13 4h13v13H13z" fill="#eea80e"/><path d="m19.192 1 9.193 9.192-9.193 9.192L10 10.192z" fill="#eea80e"/><circle cx="19.5" cy="10.5" fill="#fec157" r="6.5"/><path d="M17.826 14H20.5a3.5 3.5 0 0 1 3.5 3.5v1a3.5 3.5 0 0 1-3.5 3.5h-9a6.5 6.5 0 1 1 6.326-8z" fill="#f2f4f4"/><g fill="#aaa" fill-rule="nonzero"><path d="M20.5 15h-3.465l-.182-.77A5.5 5.5 0 1 0 11.5 21h9a2.5 2.5 0 0 0 2.5-2.5v-1a2.5 2.5 0 0 0-2.5-2.5zm0-1a3.5 3.5 0 0 1 3.5 3.5v1a3.5 3.5 0 0 1-3.5 3.5h-9a6.5 6.5 0 1 1 6.326-8z"/><path d="M11.5 22v-1a5.5 5.5 0 1 1 5.241-3.827l.953.304A6.5 6.5 0 1 0 11.5 22z"/></g></g></svg>