<?xml version="1.0" encoding="utf-8" ?>
<svg xmlns="http://www.w3.org/2000/svg" viewBox="0 0 32 32" id="condition-partly-cloudy"><g fill="none" fill-rule="evenodd"><g transform="translate(12 4)"><path d="M3 3h13v13H3z" fill="#eea80e"/><path d="m9.192 0 9.193 9.192-9.193 9.192L0 9.192z" fill="#eea80e"/><circle cx="9.5" cy="9.5" fill="#fec157" r="6.5"/></g><path d="M20.542 15H24.5a6.5 6.5 0 1 1 0 13h-13c-.075 0-.15-.001-.223-.004C11.185 28 11.093 28 11 28 5.477 28 1 23.523 1 18S5.477 8 11 8c4.478 0 8.268 2.943 9.542 7z" fill="#f2f4f4"/><g fill="#aaa" fill-rule="nonzero"><path d="M24.5 16h-4.692l-.22-.7A9.004 9.004 0 0 0 11 9a9 9 0 1 0 .31 17.997l.19.003h13a5.5 5.5 0 0 0 0-11zm-3.958-1H24.5a6.5 6.5 0 1 1 0 13h-13c-.075 0-.15-.001-.223-.004C11.185 28 11.093 28 11 28 5.477 28 1 23.523 1 18S5.477 8 11 8c4.478 0 8.268 2.943 9.542 7z"/><path d="M11 28v-1a9 9 0 1 1 9-9c0 .94-.144 1.86-.424 2.738l.953.304c.306-.96.471-1.981.471-3.042 0-5.523-4.477-10-10-10S1 12.477 1 18s4.477 10 10 10z"/></g></g></svg>