<?xml version="1.0" encoding="utf-8" ?>
<svg xmlns="http://www.w3.org/2000/svg" viewBox="0 0 32 32" id="condition-hail"><g fill="none" fill-rule="evenodd"><path d="M20.542 9H24.5a6.5 6.5 0 1 1 0 13h-13c-.075 0-.15-.001-.223-.004C11.185 22 11.093 22 11 22 5.477 22 1 17.523 1 12S5.477 2 11 2c4.478 0 8.268 2.943 9.542 7z" fill="#aaa"/><path d="M24.5 10h-4.692l-.22-.7A9.004 9.004 0 0 0 11 3a9 9 0 1 0 .31 17.997l.19.003h13a5.5 5.5 0 0 0 0-11zm-3.958-1H24.5a6.5 6.5 0 1 1 0 13h-13c-.075 0-.15-.001-.223-.004C11.185 22 11.093 22 11 22 5.477 22 1 17.523 1 12S5.477 2 11 2c4.478 0 8.268 2.943 9.542 7z" fill="#606060" fill-rule="nonzero"/><path d="M11 22v-1a9 9 0 1 1 9-9c0 .94-.144 1.86-.424 2.738l.953.304c.306-.96.471-1.981.471-3.042 0-5.523-4.477-10-10-10S1 6.477 1 12s4.477 10 10 10z" fill="#606060" fill-rule="nonzero"/><g fill="#6eb6ff"><circle cx="7.5" cy="28.5" r="1.5"/><circle cx="17.5" cy="27.5" r="1.5"/><circle cx="27.5" cy="26.5" r="1.5"/><path d="M12 22h2v9h-2zm9 0h2v9h-2z"/><path d="M12 31c0-1.333-.667-2-2-2v-2c2 0 3 .667 3 2s-.333 2-1 2zm11 0c0-1.333.667-2 2-2v-2c-2 0-3 .667-3 2s.333 2 1 2z"/></g></g></svg>